<svg width="186" height="186" viewBox="0 0 186 186" fill="none" xmlns="http://www.w3.org/2000/svg">
<g clip-path="url(#clip0_1_9744)">
<path d="M182.949 92.8416C182.949 142.456 142.67 182.683 92.9745 182.683C43.2789 182.683 3 142.456 3 92.8416C3 43.2275 43.2789 3 92.9745 3C142.67 3 182.949 43.2275 182.949 92.8416Z" fill="#FF5FE8" stroke="#8776DD" stroke-width="6"/>
<path d="M14.957 112.959C17.7516 110.837 20.1238 108.21 21.9511 105.216C24.5358 100.889 25.6571 96.0688 28.641 92.0264C31.6248 87.9841 36.2431 85.8965 37.2314 80.2789C37.7065 77.4132 37.2314 74.5855 37.5735 71.7767C38.1641 69.3249 38.9002 66.9104 39.7781 64.546C40.9762 59.8465 41.8588 55.0723 42.4199 50.2553C42.952 46.4597 42.819 40.7662 47.5323 39.9311C51.3334 39.3238 54.2792 43.1954 57.3771 45.0363C60.9502 47.1429 64.4661 49.705 67.64 51.9824C69.8637 53.5766 71.4412 52.7604 74.273 52.7225C82.0288 52.7841 89.7657 53.4951 97.4025 54.848C106.05 56.2904 115.059 57.0495 123.402 59.7634C125.759 60.5415 130.32 62.5153 131.555 64.7547C133.285 61.6043 139.157 58.7196 142.198 56.632C146.76 53.6144 151.321 50.1794 157.004 49.9896C163.066 49.7808 163.066 54.5444 162.534 59.232C161.622 67.1839 159.075 74.8511 157.935 82.7461C157.251 87.6424 157.821 90.3373 160.995 94.133C159.677 93.7654 158.314 93.5865 156.947 93.6017C159.472 99.3504 160.766 105.562 160.748 111.84C160.748 119.64 161.584 128.161 157.536 135.088C156.909 131.539 152.233 128.389 149.61 126.244C148.546 134.12 147.957 141.958 145.049 149.436C143.586 146.399 140.659 144.33 138.53 141.844C135.546 138.257 133.076 137.498 128.381 137.252C121.806 136.91 114.983 136.246 108.445 137.403C105.752 138.012 102.993 138.273 100.234 138.182C98.7015 137.932 97.1429 137.881 95.5971 138.03C95.5849 138.067 95.5881 138.108 95.6058 138.144C95.6236 138.179 95.6545 138.207 95.6921 138.22C93.4304 138.22 91.0737 137.859 88.7361 138.011C84.3458 138.276 80.2406 141.806 77.6179 145.26C76.5536 143.989 76.1925 141.939 74.539 141.313C73.5165 142.554 72.2965 143.618 70.928 144.463C65.5305 135.79 53.0629 128.009 42.838 126.567C39.5103 126.04 36.2166 125.318 32.9742 124.403C29.7383 123.76 26.4478 123.429 23.1484 123.416C20.9817 123.303 18.9102 124.005 16.8196 123.929C18.8342 121.063 21.818 118.14 22.1221 114.44C20.3166 114.44 18.302 112.902 14.957 112.959Z" fill="#C4AAFF"/>
<path d="M42.6484 65.4175C44.1879 64.1649 45.1952 62.5328 46.7346 61.2802C49.0299 59.3687 51.7052 57.9651 54.5838 57.162C56.8075 56.5547 59.1832 56.1562 61.5018 55.7386C62.6565 55.4682 63.8333 55.3031 65.0178 55.2452C66.0071 55.3713 67.0063 55.403 68.0017 55.34C67.3179 54.552 66.4847 53.907 65.5499 53.4422C64.5046 52.759 63.5544 51.943 62.4711 51.2408C60.1904 49.7415 57.4916 48.413 55.097 47.1604C52.7023 45.9079 49.9275 44.105 47.1908 45.5473C44.454 46.9897 44.454 51.2408 44.0738 53.6889C43.5607 57.0861 43.2756 60.6919 42.6484 65.4175Z" fill="white"/>
<path d="M138.986 64.469C139.59 66.8853 140.503 69.2136 141.704 71.3961C143.034 73.2939 145.011 75.002 146.512 76.8808C149.173 80.24 151.473 84.1874 154.286 87.3189C154.286 86.9583 154.457 86.7304 154.495 86.3888C155.092 86.425 155.684 86.5204 156.262 86.6735C155.844 85.402 155.236 84.1305 154.78 82.8779C154.374 81.4105 154.335 79.8661 154.666 78.3801C155.217 74.1289 155.502 69.7829 156.205 65.5508C156.623 63.0456 158.562 60.0092 157.764 57.3143C156.661 53.6894 152.062 56.2135 150.162 57.3143C146.608 59.5157 142.711 60.9011 138.986 64.469Z" fill="white"/>
<path d="M21.5136 120.968C23.9272 119.45 28.7546 120.588 31.5484 120.835C36.9811 121.22 42.3721 122.058 47.665 123.34C53.051 125.024 58.2037 127.377 63.0023 130.343C64.4219 131.058 65.7601 131.923 66.9935 132.924C67.8332 133.867 68.8141 134.673 69.9013 135.316C70.4525 135.6 71.0227 135.98 71.5168 135.752C72.0109 135.524 72.277 133.854 72.9232 133.664C74.1965 133.152 77.0284 136.321 78.1687 137.005C80.9055 134.044 84.9917 133.57 88.8878 133.74C92.7839 133.911 96.4899 132.981 100.405 133.152C105.194 133.342 109.965 133.551 114.716 133.778C120.133 134.025 125.606 133.892 131.023 134.348C133.469 134.392 135.901 134.736 138.264 135.373C139.755 135.797 141.176 136.437 142.483 137.27C142.882 137.574 143.148 138.124 143.528 138.428C144.213 135.714 145.163 133.133 145.923 130.457C146.313 128.933 147.138 127.554 148.299 126.491C148.772 131.55 148.631 136.648 147.881 141.673C147.936 144.009 147.661 146.341 147.063 148.6C146.208 150.498 144.669 148.088 143.718 147.12C142.768 146.152 141.818 145.222 140.906 144.406C139.518 143.248 138.435 141.844 137.104 140.61C136.087 139.637 134.894 138.864 133.588 138.333C131.381 137.791 129.129 137.448 126.861 137.308C122.13 136.619 117.347 136.346 112.569 136.492C110.934 136.473 109.3 136.587 107.684 136.834C105.993 137.194 104.358 137.935 102.648 138.162C99.8098 138.285 96.967 138.095 94.1713 137.593C92.0047 137.403 88.7167 136.739 86.7021 137.498C85.2264 138.309 83.8597 139.304 82.635 140.459C81.4209 141.267 80.2766 142.174 79.214 143.173C78.6632 143.795 78.0227 144.332 77.3134 144.767C76.6102 143.059 75.793 142.072 74.3866 143.173C73.9685 143.495 73.1513 144.577 72.4861 144.672C71.8209 144.767 71.0607 143.267 70.5855 142.774C66.1953 138.39 61.9951 133.418 56.0274 131.387C53.5757 130.514 50.915 129.812 48.5583 128.768C46.2719 127.493 43.8813 126.413 41.4122 125.542C39.4498 125.08 37.4546 124.769 35.4445 124.612C31.8715 124.232 28.2035 123.758 24.6114 123.72C22.8871 123.92 21.1405 123.798 19.4609 123.359C19.509 123.097 19.6509 122.861 19.8601 122.695" fill="#8776DD"/>
<path d="M14.9004 113.091C17.6956 110.962 20.0676 108.329 21.8944 105.329C24.4792 101.021 25.6955 96.1818 28.5843 92.1585C31.4731 88.1351 36.1865 86.0095 37.1747 80.3919C37.6499 77.5262 37.1747 74.6985 37.5358 71.8897C38.1138 69.4366 38.8438 67.0217 39.7215 64.659C40.9196 59.9595 41.8022 55.1853 42.3632 50.3683C42.9144 46.5727 42.7624 40.8792 47.4757 40.0442C51.2768 39.4369 54.2416 43.3274 57.3395 45.1493C60.8935 47.2559 64.4095 49.837 67.5834 52.0954C69.807 53.7086 71.3845 52.8734 74.2163 52.8545C81.9784 52.8998 89.7225 53.6045 97.3649 54.961C105.993 56.4034 115.021 57.1626 123.364 59.8764C125.702 60.6545 130.263 62.6473 131.518 64.8677C133.247 61.7363 139.006 58.8516 142.142 56.764C146.722 53.7275 151.264 50.2924 156.947 50.1026C163.01 49.8938 163.01 54.6574 162.477 59.345C161.565 67.2969 159.018 74.9641 157.897 82.8591C157.194 87.7555 157.764 90.4504 160.938 94.246C159.624 93.8598 158.259 93.6806 156.89 93.7147C159.417 99.4562 160.711 105.662 160.691 111.934C160.691 119.734 161.527 128.255 157.479 135.182C156.852 131.633 152.196 128.483 149.554 126.338C148.508 134.214 147.919 142.071 145.012 149.53C143.529 146.512 140.602 144.443 138.493 141.938C135.509 138.332 133.019 137.573 128.325 137.327C121.749 136.985 114.926 136.321 108.388 137.479C105.696 138.088 102.937 138.35 100.178 138.257C98.6504 138.014 97.0981 137.969 95.5594 138.124C95.5393 138.148 95.5282 138.178 95.5282 138.209C95.5282 138.24 95.5393 138.271 95.5594 138.295C93.2977 138.389 90.9411 137.934 88.6224 138.086C84.2132 138.37 80.108 141.881 77.5042 145.336C76.4209 144.064 76.0788 142.033 74.4254 141.388C73.3982 142.624 72.1791 143.688 70.8143 144.538C65.3978 135.865 52.9302 128.084 42.7053 126.661C39.3814 126.114 36.0889 125.392 32.8415 124.497C29.6064 123.846 26.3158 123.509 23.0157 123.492C20.8491 123.378 18.7965 124.08 16.6869 124.023C18.7015 121.138 21.7044 118.216 22.0085 114.534C20.26 114.591 18.2453 113.034 14.9004 113.091Z" stroke="#5848B4" stroke-miterlimit="10"/>
<path d="M97.2508 59.5348C92.9076 58.8598 88.9037 56.7875 85.8476 53.6326C82.2908 50.191 77.6503 48.0854 72.7148 47.6734C75.2426 46.1931 78.6635 47.0851 81.4763 47.3318C85.5027 47.5369 89.4176 48.7227 92.8796 50.7859C97.878 53.8034 102.762 59.7815 109.11 59.8574C105.621 57.7604 102.667 54.8822 100.482 51.4501C98.068 47.3508 96.3956 38.9814 101.907 36.5332C98.7142 43.0617 107.951 47.4646 112.018 50.577C116.085 53.6895 123.421 55.5873 126.082 60.4457C126.385 58.8852 126.179 57.2686 125.493 55.834C128.629 58.4151 132.886 60.1421 134.996 63.8808C136.25 66.0537 137.172 68.4013 137.732 70.8459" fill="#C4AAFF"/>
<path d="M97.2508 59.5348C92.9076 58.8598 88.9037 56.7875 85.8476 53.6326C82.2908 50.191 77.6503 48.0854 72.7148 47.6734C75.2426 46.1931 78.6635 47.0851 81.4763 47.3318C85.5027 47.5369 89.4176 48.7227 92.8796 50.7859C97.878 53.8034 102.762 59.7815 109.11 59.8574C105.621 57.7604 102.667 54.8822 100.482 51.4501C98.068 47.3508 96.3956 38.9814 101.907 36.5332C98.7142 43.0617 107.951 47.4646 112.018 50.577C116.085 53.6895 123.421 55.5873 126.082 60.4457C126.385 58.8852 126.179 57.2686 125.493 55.834C128.629 58.4151 132.886 60.1421 134.996 63.8808C136.25 66.0537 137.172 68.4013 137.732 70.8459" stroke="#5848B4" stroke-miterlimit="10"/>
<path d="M112.094 99.9019C115.154 101.989 120.266 102.027 123.877 102.862C127.208 103.474 130.442 104.527 133.494 105.994C136.269 107.531 141.438 110.036 143.168 112.484C144.391 115.053 144.977 117.878 144.878 120.721C146.606 116.573 147.479 112.119 147.444 107.626C151.473 110.416 151.435 112.2 152.309 116.83C153.374 110.15 153.184 100.338 150.409 94.0565C148.812 90.3748 144.403 86.4652 141.457 83.8082C137.449 80.3509 132.472 78.2105 127.203 77.6783C120.931 77.4506 115.8 81.8915 113.443 87.3952C112.493 89.7105 112.075 93.2025 110.896 94.9865" fill="#5848B4"/>
<path d="M38.9407 84.4911C34.7595 86.3889 32.3649 90.7919 30.0082 94.4547C27.9556 97.624 24.0786 102.046 24.7437 105.842C27.2715 103.659 30.0653 101.742 32.517 99.446C30.8534 102.531 29.832 105.92 29.5141 109.41C36.7171 104.665 42.1527 98.3452 49.9069 94.2269C54.8483 91.6459 59.5046 91.532 64.9592 91.4941C70.0336 91.4941 75.032 87.9262 75.2981 82.5933C75.4852 81.2196 75.1822 79.824 74.442 78.6511C73.7018 77.4782 72.5717 76.6029 71.2499 76.1787C66.0234 74.3758 59.8467 74.8123 54.4112 75.3057C49.5458 75.7802 43.6731 76.5013 39.701 79.6707" fill="#5848B4"/>
<path d="M132.373 89.5388C133.779 90.6016 132.905 94.5681 132.373 96.0863C131.928 97.3368 131.171 98.4533 130.173 99.33C129.175 100.207 127.97 100.815 126.671 101.096C122.202 101.884 117.625 101.826 113.177 100.926C109.376 100.356 105.575 99.3126 101.774 98.6293C97.3963 97.9087 93.3838 95.7518 90.3709 92.4994C88.8212 90.9692 87.5368 89.1927 86.5698 87.2424C85.2204 83.7694 88.2422 82.0993 91.093 81.5489C95.9076 80.9065 100.788 80.9385 105.594 81.6438L120.019 82.9723C125.17 83.4468 128.705 86.8059 132.373 89.5388Z" fill="#FF5FE8" stroke="#5848B4" stroke-miterlimit="10"/>
<path d="M78.9677 82.1755C80.8682 82.7069 81.5334 84.0733 80.3741 85.7245C78.0156 88.6333 74.5983 90.4897 70.8714 90.8866C67.3896 91.0764 63.9001 91.0764 60.4184 90.8866C56.6173 90.8866 53.1583 91.7026 49.3762 91.3989C42.9334 90.8675 36.0724 90.0325 32.1193 84.3011C28.1662 78.5697 36.9657 73.939 41.622 73.047C45.2174 72.6264 48.8521 72.6711 52.4361 73.1799C56.638 73.3061 60.8186 73.8272 64.9227 74.7361C69.579 76.0076 73.7412 79.139 78.9677 82.1755Z" fill="#FF5FE8" stroke="#5848B4" stroke-miterlimit="10"/>
<path d="M71.043 96.5423C72.5444 96.9598 73.3046 99.0664 73.5897 100.338H73.1146C74.5019 102.501 75.9084 104.855 78.6642 105.5C77.1057 102.729 74.521 100.376 76.7636 96.8839C74.8754 96.5578 72.9566 96.4433 71.043 96.5423Z" fill="#3C2868"/>
<path d="M49.2628 74.9442C45.2907 74.1092 45.4617 82.1749 45.8798 84.1676C46.2259 85.4808 46.8806 86.6927 47.7895 87.7026C48.6985 88.7126 49.8355 89.4916 51.1063 89.9749C54.6863 91.4446 58.6254 91.8082 62.4145 91.0187C63.8177 90.8144 65.1598 90.3081 66.3477 89.5348C67.5356 88.7614 68.5411 87.7396 69.2945 86.5399C70.4158 84.6421 71.6132 81.9852 70.8719 79.8216C69.6936 76.4625 64.068 75.8742 61.1031 75.4567C57.2007 74.7253 53.2139 74.5528 49.2628 74.9442Z" fill="#3C2868"/>
<path d="M102.42 83.5233C102.42 83.3905 102.268 83.2007 102.553 82.916C101.401 84.1764 100.584 85.7062 100.179 87.3645C99.7738 89.0228 99.793 90.7562 100.235 92.4051C100.68 93.7442 101.386 94.9819 102.312 96.0471C103.239 97.1122 104.367 97.9836 105.632 98.6109C109.993 99.8314 114.548 100.205 119.05 99.7117C123.954 99.3321 129.674 94.1321 127.166 88.8941C125.645 85.6868 120.172 85.4781 117.207 84.9467C112.55 84.0737 107.666 82.6883 102.42 83.5233Z" fill="#3C2868"/>
<path d="M30.9603 81.17C47.0009 80.8664 63.3836 80.3351 79.3861 81.284C76.4007 74.8054 71.1979 69.6033 64.714 66.6137C56.6557 62.8181 46.6018 66.1394 39.1707 70.1248C35.5993 71.932 32.7846 74.9442 31.2264 78.627C30.9808 79.451 30.8907 80.3132 30.9603 81.17Z" fill="white" stroke="#5848B4" stroke-miterlimit="10"/>
<path d="M82.7871 86.5402C85.3182 83.2041 88.4116 80.3336 91.9287 78.057C96.2185 75.2382 101.238 73.728 106.373 73.7109C108.463 73.7109 110.725 73.711 112.778 73.8059C114.975 73.9381 117.156 74.2619 119.297 74.7737C122.724 75.6418 125.79 77.5678 128.058 80.2775C130.389 82.5245 132.003 85.4101 132.695 88.5709C126.811 85.8691 120.394 84.5201 113.918 84.6234C107.627 84.6234 101.26 84.6235 94.9126 85.2687C90.8457 85.4053 86.7937 85.8302 82.7871 86.5402Z" fill="white" stroke="#5848B4" stroke-miterlimit="10" stroke-linecap="round"/>
<path d="M78.6451 70.314C76.9536 68.9475 75.7183 67.1826 73.9698 65.8541C71.8395 64.4849 69.5222 63.4302 67.0898 62.7227" stroke="#5848B4" stroke-miterlimit="10" stroke-linecap="round"/>
<path d="M101.984 68.417C104.8 68.2178 107.626 68.2178 110.442 68.417C113.825 68.417 117.322 68.7776 120.705 69.0812" stroke="#5848B4" stroke-miterlimit="10" stroke-linecap="round"/>
<path d="M50.7441 81.4744C51.0666 82.0864 51.5503 82.5989 52.1432 82.9564C52.7361 83.3139 53.4155 83.5028 54.1081 83.5028C54.8007 83.5028 55.4801 83.3139 56.0729 82.9564C56.6658 82.5989 57.1496 82.0864 57.472 81.4744C55.2294 81.3605 52.9868 81.4934 50.7441 81.4744Z" fill="#FF5FE8"/>
<path d="M60.8167 86.5032C61.8244 86.5032 62.6412 85.6875 62.6412 84.6813C62.6412 83.6751 61.8244 82.8594 60.8167 82.8594C59.8091 82.8594 58.9922 83.6751 58.9922 84.6813C58.9922 85.6875 59.8091 86.5032 60.8167 86.5032Z" fill="#FF5FE8"/>
<path d="M115.457 95.7825C116.465 95.7825 117.282 94.9668 117.282 93.9606C117.282 92.9544 116.465 92.1387 115.457 92.1387C114.45 92.1387 113.633 92.9544 113.633 93.9606C113.633 94.9668 114.45 95.7825 115.457 95.7825Z" fill="#FF5FE8"/>
<path d="M108.541 92.8798C110.609 92.8798 112.285 91.2059 112.285 89.1411C112.285 87.0762 110.609 85.4023 108.541 85.4023C106.473 85.4023 104.797 87.0762 104.797 89.1411C104.797 91.2059 106.473 92.8798 108.541 92.8798Z" fill="#FF5FE8"/>
<path d="M152.195 85.7822C151.183 82.8466 149.644 80.1197 147.653 77.7353C146.094 75.7237 143.262 73.8259 143.966 70.9032C145.128 67.5049 147.379 64.5835 150.37 62.5907C151.131 62.0594 152.138 61.1674 153.183 61.4331C154.951 61.8886 154.153 65.2287 154.077 66.728C153.772 73.1047 152.309 79.5953 152.195 85.7822Z" fill="#5848B4"/>
<path d="M43.75 64.1657C44.5846 62.8723 45.6471 61.7406 46.8859 60.8255C48.1649 59.705 49.6233 58.8069 51.2001 58.1685C52.7144 57.5173 54.2624 56.9473 55.8374 56.4605C56.8447 56.1379 58.6502 56.4605 59.4104 55.7204C57.947 52.0575 53.2527 50.6721 50.896 47.7305C50.744 49.4385 50.4589 51.1086 50.3068 52.8356C50.3508 54.2891 50.1779 55.7411 49.7937 57.1437" fill="#5848B4"/>
<path d="M76.4968 91.5519C73.855 90.6029 65.6257 88.0598 64.9605 92.8044C64.4664 96.2394 69.3698 97.9285 71.8785 98.4978C73.779 98.9343 77.5801 99.6745 79.1386 98.2511C82.1414 95.5752 78.9865 91.362 76.1167 90.546C73.6292 89.9458 71.0529 89.8044 68.5146 90.1285" fill="#3C2868"/>
<path d="M64.8268 111.498C64.5037 107.456 69.4071 105.425 72.1248 105.349C76.9712 105.178 82.0646 106.772 86.816 107.551C92.4909 108.228 98.2071 108.501 103.921 108.367C109.983 108.574 116.053 108.384 122.09 107.797C126.784 107.247 133.36 103.508 137.903 105.387C140.886 106.621 142.255 110.663 141.476 114.212C139.708 122.373 129.901 125.352 123.991 126.643C114.773 128.635 105.384 125.295 96.5468 123.644C88.2985 122.107 79.955 121.974 71.7257 120.513C67.3354 119.716 62.204 117.173 64.8268 111.498Z" fill="#E7FF2C" stroke="#5848B4" stroke-miterlimit="10"/>
<path d="M70.3199 113.946C69.1416 111.535 71.9354 110.871 73.798 111.004C76.0358 111.253 78.2569 111.633 80.4499 112.143C83.1866 112.674 85.9424 112.845 88.7362 113.111C98.3521 114.082 108.046 113.999 117.643 112.864C119.24 112.655 120.722 112.997 122.3 112.864C124.17 112.559 126 112.043 127.754 111.327C130.662 110.321 135.223 108.499 137.257 111.858C139.766 115.938 133.323 119.07 130.453 119.886C123.235 121.689 115.682 121.689 108.464 119.886C103.636 118.899 98.695 118.368 93.8296 117.684C90.3516 117.21 87.1017 117.684 83.6428 116.811C79.2145 115.806 73.8169 115.976 70.3199 113.946Z" fill="#8776DD" stroke="#5848B4" stroke-miterlimit="10"/>
<path d="M71.916 113.831C71.9538 113.484 72.068 113.149 72.2504 112.851C72.4329 112.552 72.6791 112.298 72.9714 112.106C73.2638 111.914 73.5951 111.788 73.9416 111.739C74.2881 111.689 74.6413 111.717 74.9759 111.82C75.3718 111.871 75.7501 112.014 76.0802 112.239C76.4104 112.463 76.6831 112.761 76.8765 113.11C77.2636 113.668 77.4753 114.329 77.4846 115.008C76.1849 114.884 74.9069 114.591 73.6836 114.135C73.1082 113.966 72.515 113.864 71.916 113.831Z" fill="white"/>
<path d="M78.9492 115.178C79.4421 114.49 80.1014 113.937 80.8658 113.572C81.6301 113.207 82.4746 113.042 83.3204 113.09C84.8599 113.223 85.4681 114.343 86.1713 115.406C84.9529 115.532 83.7215 115.429 82.5412 115.102C81.3546 114.844 80.1238 114.87 78.9492 115.178Z" fill="white"/>
<path d="M87.957 116.013C88.6362 115.127 89.6164 114.52 90.7128 114.305C91.9482 114.134 94.5139 114.893 94.5139 116.374C92.8034 117.342 90.4657 116.336 87.957 116.013Z" fill="white"/>
<path d="M96.7578 116.641C97.1949 116.394 97.6321 115.749 98.1832 115.446C98.7694 115.096 99.4128 114.851 100.084 114.724C100.826 114.689 101.557 114.91 102.155 115.351C102.745 115.844 102.764 116.546 103.011 117.248C101.591 117.296 100.173 117.117 98.8104 116.717C98.1279 116.657 97.4429 116.631 96.7578 116.641Z" fill="white"/>
<path d="M104.529 117.531C104.709 117.155 104.849 116.76 104.947 116.355C105.133 115.889 105.45 115.487 105.86 115.197C106.598 114.74 107.465 114.534 108.33 114.609C108.869 114.671 109.38 114.881 109.807 115.216C110.233 115.551 110.557 115.998 110.744 116.507C110.856 117.21 110.92 117.92 110.934 118.632C108.806 118.936 106.81 117.835 104.529 117.531Z" fill="white"/>
<path d="M112.855 118.746C112.952 117.778 113.156 116.823 113.464 115.899C113.655 115.54 113.926 115.229 114.255 114.989C114.584 114.749 114.963 114.587 115.364 114.514C117.512 113.907 118.177 116.583 118.595 118.139C117.48 118.561 116.289 118.748 115.098 118.689C114.35 118.636 113.599 118.655 112.855 118.746Z" fill="white"/>
<path d="M120.191 117.894C120.267 117.03 120.407 116.174 120.61 115.332C120.768 114.929 121.025 114.572 121.357 114.294C121.689 114.015 122.085 113.824 122.51 113.737C122.981 113.647 123.468 113.711 123.9 113.919C124.332 114.128 124.684 114.47 124.905 114.895C125.074 115.241 125.208 115.604 125.304 115.977C125.475 116.584 125.684 116.717 125.095 117.002C123.493 117.456 121.851 117.755 120.191 117.894Z" fill="#E7FF2C"/>
<path d="M127.374 116.223C127.288 114.975 127.587 113.73 128.229 112.655C128.913 111.801 129.578 112.029 130.547 112.371C131.156 112.579 132.562 113.68 132.277 114.439C132.182 114.705 131.574 114.8 131.327 114.876C130.607 115.146 129.871 115.368 129.122 115.54C128.508 115.678 127.918 115.908 127.374 116.223Z" fill="#E7FF2C"/>
<path d="M133.514 113.774C133.317 113.333 133.241 112.847 133.294 112.366C133.347 111.886 133.528 111.428 133.818 111.041C134.273 111.058 134.713 111.21 135.082 111.476C135.451 111.743 135.732 112.114 135.89 112.54C135.234 113.172 134.409 113.601 133.514 113.774Z" fill="white"/>
<path d="M128.059 117.551C128.757 117.131 129.533 116.854 130.339 116.735C131.004 116.545 131.613 116.089 132.24 115.938C132.409 116.16 132.527 116.417 132.585 116.69C132.644 116.963 132.641 117.245 132.577 117.517C132.514 117.789 132.391 118.043 132.218 118.263C132.044 118.482 131.825 118.66 131.575 118.784C130.783 119.278 129.866 119.535 128.933 119.524C128.059 119.354 128.382 117.949 128.059 117.551Z" fill="white"/>
<path d="M125.569 117.969C125.208 119.278 124.771 120.588 123.118 120.493C122.395 120.493 121.673 120.227 120.97 120.208C120.761 119.886 120.343 119.411 120.4 119.013C121.749 118.766 123.232 118.88 124.581 118.538" fill="white"/>
<path d="M134.198 116.753C134.088 116.282 134.163 115.786 134.407 115.368C134.89 114.907 135.476 114.569 136.117 114.381C136.166 115.041 136.021 115.7 135.699 116.279C135.558 116.535 135.323 116.728 135.044 116.816C134.764 116.905 134.461 116.882 134.198 116.753Z" fill="white"/>
<path d="M128.383 112.085C129.144 111.399 129.758 110.566 130.188 109.637C130.359 109.257 130.397 108.84 130.588 108.498C130.278 109.09 130.078 109.733 129.998 110.396C129.875 110.798 129.875 111.228 129.998 111.63C130.226 112.113 130.616 112.503 131.101 112.73C131.737 113.201 132.434 113.584 133.172 113.869C132.127 113.641 130.835 112.749 129.846 113.432C129.142 114.038 128.671 114.871 128.516 115.786C128.577 115.384 128.609 114.978 128.611 114.571C128.479 113.94 128.137 113.371 127.642 112.958C127.015 112.294 126.007 111.06 125 111.06C126.026 111.345 127.889 112.313 128.896 111.421" fill="white"/>
<path d="M120.608 112.693C121.641 111.743 122.48 110.602 123.079 109.334C123.225 108.802 123.41 108.282 123.63 107.777C123.194 108.606 122.911 109.506 122.794 110.434C122.623 110.978 122.623 111.561 122.794 112.104C123.115 112.762 123.652 113.291 124.314 113.604C125.186 114.243 126.138 114.766 127.146 115.16C125.72 114.856 123.953 113.623 122.585 114.572C121.618 115.399 120.978 116.543 120.779 117.798C120.862 117.245 120.906 116.687 120.912 116.128C120.724 115.262 120.257 114.482 119.582 113.907C118.726 113.015 117.358 111.383 115.971 111.364C117.358 111.763 119.924 113.091 121.292 111.877" fill="white"/>
<path d="M73.398 66.994C77.0661 66.4247 80.354 64.394 84.1171 63.7487C86.7779 63.2743 89.1915 63.4071 91.8143 63.1794C95.3683 62.8757 99.3024 61.7181 102.704 63.578C103.619 64.1429 104.435 64.8546 105.118 65.6845C106.81 67.4495 109.527 66.3108 111.77 66.197C113 66.154 114.232 66.2559 115.438 66.5006C117.333 66.7045 119.245 66.7045 121.14 66.5006C123.16 66.4831 125.176 66.2927 127.164 65.9313C128.2 65.6207 129.263 65.4109 130.338 65.3049C128.856 62.591 124.104 60.8451 121.33 59.8013C115.246 57.4873 108.829 56.1673 102.324 55.8918C96.4649 55.5001 90.5806 56.0511 84.8963 57.5239C82.3015 58.3822 79.8952 59.7286 77.8073 61.4903C75.9273 63.2468 73.9268 64.8702 71.8206 66.3487C70.7183 66.937 68.8368 66.8422 68.0195 67.6772C68.3278 68.2324 68.7582 68.7104 69.2784 69.0753C69.7985 69.4402 70.3948 69.6824 71.0224 69.7838C72.9419 69.8028 74.2723 68.2276 73.398 66.994Z" fill="#8776DD"/>
<path d="M136.061 60.7298C137.771 59.7619 139.349 58.5472 140.983 57.4655C140.983 56.5735 140.888 55.7005 140.812 54.8086C140.536 50.9044 139.281 47.1323 137.163 43.8391C133.704 38.1456 128.63 35.3369 122.586 32.7559L116.656 60.9575C120.875 62.3998 125.038 63.8801 129.466 65.0378L130.606 65.3415C132.003 63.3672 133.88 61.7802 136.061 60.7298Z" fill="#5848B4"/>
<path d="M136.534 44.2184C138.596 47.4129 139.818 51.0745 140.088 54.8652C140.183 55.909 140.24 56.9148 140.297 57.9206C140.753 57.617 141.229 57.2944 141.704 57.0097C141.704 56.2506 141.59 55.4914 141.533 54.7323C141.226 50.7172 139.919 46.8422 137.732 43.4592C134.349 37.7657 129.521 34.938 122.812 32.0723L122.242 33.4008C128.742 36.1526 133.36 38.9235 136.534 44.2184Z" fill="#FF5FE8"/>
<path d="M131.06 64.7157L129.92 64.4121H129.654C125.662 63.3683 121.766 62.0208 118.003 60.6165L116.901 60.2559L116.426 61.6222L117.528 62.0018C121.329 63.3113 125.225 64.6588 129.292 65.7975H129.559L130.281 65.9872C130.489 65.5341 130.751 65.1073 131.06 64.7157Z" fill="#FF5FE8"/>
<path d="M66.7852 44.2189C69.4459 36.9123 74.3873 27.8786 82.9017 27.4421C92.4044 26.9297 103.808 26.3983 112.854 29.3399C115.344 30.1749 121.977 31.5035 123.231 33.9517C123.63 35.8221 123.726 37.7443 123.516 39.6452C123.421 42.2642 123.516 44.9781 123.231 47.5971C122.977 51.8975 121.397 56.0141 118.708 59.3825C115.268 63.5387 110.441 59.2117 106.031 57.7694C97.9721 55.1976 89.758 53.1375 81.4383 51.6014C77.2191 50.8044 70.5292 49.8554 66.7852 47.9955" fill="#5848B4"/>
<path d="M115.211 61.85C113.085 61.6482 111.026 61.0016 109.167 59.9522C108.079 59.3927 106.955 58.9047 105.803 58.491C97.7766 55.9282 89.5938 53.8807 81.3053 52.3609L78.9867 51.9245C74.7015 51.3649 70.5015 50.2813 66.4811 48.6981L67.1083 47.3886C71.0084 48.9142 75.0803 49.9595 79.2337 50.5011L81.5904 50.9375C89.9511 52.4653 98.2041 54.532 106.297 57.1245C107.51 57.5464 108.692 58.0537 109.832 58.6427C113.634 60.5405 116.142 61.4326 118.195 58.9654C120.795 55.7136 122.317 51.7335 122.547 47.5785C122.699 45.8894 122.737 44.1054 122.756 42.3973C122.756 41.4864 122.756 40.4995 122.756 39.6645V39.209C122.926 37.581 122.849 35.9367 122.528 34.3316C121.673 32.6615 117.169 31.4089 114.489 30.6498C113.729 30.441 113.063 30.2513 112.588 30.0805C103.409 27.044 91.5682 27.6702 82.9018 28.1827C74.8625 28.6002 70.0541 37.2733 67.4314 44.485L66.082 43.9916C68.8378 36.4003 73.9883 27.1958 82.8258 26.7403C91.6633 26.2848 103.599 25.6206 113.044 28.752L114.945 29.3024C118.214 30.2134 122.718 31.4659 123.877 33.7243C124.359 35.5429 124.488 37.4368 124.258 39.3039V39.7594C124.258 40.6514 124.258 41.5434 124.258 42.4543C124.258 44.2003 124.258 46.0032 124.03 47.7492C123.773 52.2019 122.139 56.4654 119.354 59.9522C118.86 60.5693 118.227 61.0624 117.508 61.3919C116.789 61.7214 116.002 61.8783 115.211 61.85Z" fill="#FF5FE8"/>
<path d="M90.5599 51.81C87.9371 39.9865 69.0457 39.2843 59.7521 40.8975C55.7686 41.7651 52.0006 43.4238 48.672 45.7749C46.5244 47.1603 42.7612 48.9632 41.6209 51.4684C38.1239 59.0597 52.359 63.7473 57.2244 66.4422C61.2579 68.2443 65.7942 68.5864 70.0531 67.41C74.1202 66.2523 77.3131 62.7983 80.9812 60.7866C84.6492 58.7749 92.2704 57.5414 96.0145 59.61" fill="#5848B4"/>
<path d="M90.5599 51.81C87.9371 39.9865 69.0457 39.2843 59.7521 40.8975C55.7686 41.7651 52.0006 43.4238 48.672 45.7749C46.5244 47.1603 42.7612 48.9632 41.6209 51.4684C38.1239 59.0597 52.359 63.7473 57.2244 66.4422C61.2579 68.2443 65.7942 68.5864 70.0531 67.41C74.1202 66.2523 77.3131 62.7983 80.9812 60.7866C84.6492 58.7749 92.2704 57.5414 96.0145 59.61" stroke="#FF5FE8" stroke-miterlimit="10"/>
<path d="M96.6802 63.8619C96.0817 63.872 95.4872 63.7623 94.9318 63.5393C93.2783 62.7802 92.366 59.7437 91.7198 57.5802C91.6058 57.1879 91.4918 56.8273 91.3777 56.4984C90.4859 53.2766 89.1422 50.197 87.3866 47.351C86.3873 45.8573 85.1992 44.4986 83.8516 43.3086L85.467 43.7261C87.2787 44.1317 89.0526 44.6904 90.7696 45.3962C93.7098 46.8493 96.5201 48.5509 99.1699 50.4823L101.394 52.0005C102.971 53.0633 104.548 54.1831 106.069 55.2839C108.55 57.1579 111.132 58.8939 113.804 60.4839C112.759 60.6357 111.676 60.6927 110.535 60.7496C108.337 60.7478 106.152 61.0805 104.054 61.7364L102.857 62.2108C100.909 63.1145 98.8194 63.6731 96.6802 63.8619Z" fill="#5848B4"/>
<path d="M86.2458 44.6567C87.6935 45.0042 89.1108 45.4675 90.484 46.0422C93.3842 47.4806 96.1563 49.163 98.7704 51.0714C99.5116 51.6028 100.272 52.1152 101.013 52.6086C102.59 53.6524 104.149 54.7912 105.65 55.8729C107.551 57.2583 109.451 58.6627 111.58 59.9722H110.516C108.245 59.9737 105.989 60.3258 103.826 61.016L102.609 61.4715C100.747 62.3459 98.7475 62.8916 96.6988 63.0846C96.2042 63.0953 95.7127 63.0048 95.2543 62.8189C93.886 62.1926 92.9737 59.1372 92.4226 57.3153C92.3085 56.9168 92.1945 56.5372 92.0805 56.2145C91.1761 52.9309 89.8065 49.793 88.0133 46.8961C87.4772 46.0914 86.8867 45.3242 86.2458 44.5999M79.4609 40.8232C82.3632 42.5721 84.8631 44.9132 86.797 47.6933C88.5141 50.4822 89.8319 53.4973 90.7121 56.651C91.4533 58.9284 92.3656 63.0846 94.6462 64.1284C95.2941 64.406 95.9939 64.5419 96.6988 64.527C99.3349 64.2289 101.904 63.4979 104.301 62.3635C108.102 60.978 112.359 61.8131 115.837 60.7314C110.991 57.8183 106.303 54.6508 101.792 51.2422C98.3959 48.7501 94.8123 46.523 91.0732 44.5809C87.5572 42.9677 82.4828 42.5312 79.4419 40.7852L79.4609 40.8232Z" fill="#FF5FE8"/>
<path d="M88.6406 32.5864C87.4171 33.5466 86.3525 34.6929 85.4857 35.9834C85.3717 35.6798 85.2386 35.3761 85.1246 35.0535C84.7825 34.1236 84.4214 33.1557 84.1363 32.2638C84.1363 32.1689 83.9843 32.1309 83.8702 32.1689C83.8178 32.1824 83.7727 32.2156 83.7444 32.2616C83.716 32.3076 83.7067 32.3628 83.7182 32.4156C83.9843 33.3456 84.3454 34.3134 84.7065 35.2054L85.1816 36.5149C84.9469 37.1237 84.7997 37.7626 84.7445 38.4127C84.7101 39.0586 84.5886 39.697 84.3834 40.3105C84.3746 40.3342 84.3712 40.3594 84.3734 40.3845C84.3756 40.4096 84.3834 40.434 84.3961 40.4558C84.4088 40.4775 84.4262 40.4962 84.447 40.5104C84.4678 40.5247 84.4915 40.5342 84.5164 40.5382C84.5666 40.5339 84.6151 40.5179 84.658 40.4916C84.7009 40.4652 84.737 40.4292 84.7635 40.3864C84.9724 39.773 85.1002 39.135 85.1436 38.4886C85.1884 37.7636 85.3554 37.0514 85.6377 36.382V36.2681C86.5244 34.9463 87.6298 33.7847 88.9067 32.8331C88.9265 32.8171 88.9425 32.7969 88.9535 32.7739C88.9645 32.7509 88.9702 32.7257 88.9702 32.7002C88.9702 32.6748 88.9645 32.6497 88.9535 32.6267C88.9425 32.6037 88.9265 32.5834 88.9067 32.5674C88.8651 32.5448 88.818 32.5346 88.7708 32.5379C88.7237 32.5413 88.6785 32.5581 88.6406 32.5864ZM83.3191 32.1878C83.3257 32.1633 83.3262 32.1375 83.3203 32.1128C83.3144 32.0881 83.3024 32.0652 83.2854 32.0463C83.2684 32.0275 83.2469 32.0132 83.2229 32.0048C83.1989 31.9963 83.1731 31.994 83.148 31.998C83.0912 31.9943 83.0347 32.0089 82.9868 32.0396C82.9389 32.0704 82.9022 32.1157 82.882 32.1689C82.762 32.7514 82.6794 33.3409 82.6349 33.9339C82.3878 36.1923 81.9697 39.9689 80.1452 40.2725C80.0567 40.2945 79.9642 40.2956 79.8752 40.2759C79.7861 40.2561 79.7029 40.216 79.632 40.1587C78.7958 39.4375 79.632 35.8885 80.0882 33.9717C80.2661 33.4244 80.3746 32.857 80.4112 32.2828C80.4112 32.1879 80.2782 32.1498 80.1641 32.1878C80.107 32.1971 80.0557 32.2279 80.0204 32.2737C79.9851 32.3195 79.9686 32.377 79.9741 32.4345C79.9232 32.968 79.8213 33.4955 79.67 34.0097C79.1379 36.2492 78.3396 39.7032 79.2899 40.4624C79.3856 40.5449 79.4978 40.6062 79.6191 40.6422C79.7403 40.6781 79.8678 40.688 79.9931 40.6711H80.1262C82.3688 40.2915 82.7869 36.4579 83.072 33.8959C83.1159 33.3216 83.1985 32.751 83.3191 32.1878ZM76.9903 34.3893L77.1803 34.1995C77.6857 33.6961 77.9724 33.0144 77.9785 32.3016C77.9785 32.2664 77.9645 32.2327 77.9396 32.2078C77.9146 32.1829 77.8808 32.1689 77.8455 32.1689C77.231 32.0876 76.6082 32.2363 76.097 32.5864C75.6383 33.1107 75.394 33.7882 75.4128 34.4842C75.4128 34.7689 75.4128 35.0726 75.2988 35.3762C75.1847 36.0025 75.1468 36.6857 75.0897 37.3879C75.0983 38.6898 74.8463 39.9803 74.3485 41.1836C74.3359 41.1959 74.3258 41.2107 74.319 41.227C74.3121 41.2433 74.3086 41.2608 74.3086 41.2784C74.3086 41.2961 74.3121 41.3136 74.319 41.3299C74.3258 41.3462 74.3359 41.3609 74.3485 41.3733C74.3692 41.3834 74.392 41.3886 74.415 41.3886C74.4381 41.3886 74.4608 41.3834 74.4815 41.3733C74.5184 41.3863 74.5587 41.3863 74.5956 41.3733C75.0029 41.1136 75.4814 40.9876 75.964 41.0127C76.4121 41.0446 76.8586 40.9315 77.2374 40.6901C77.6339 40.3679 77.9196 39.9299 78.0546 39.4375C78.4516 38.2061 78.7004 36.9319 78.7958 35.6418C78.8908 34.5221 78.0736 34.2754 76.9903 34.3893ZM75.8309 34.3893C75.8122 33.8352 75.9869 33.2918 76.3251 32.8521C76.5153 32.7152 76.738 32.6301 76.9713 32.6054C77.1608 32.5853 77.3519 32.5853 77.5415 32.6054C77.4891 33.1119 77.2683 33.5864 76.9142 33.9529C76.651 34.2392 76.306 34.4379 75.926 34.5222H75.8309V34.3893ZM77.7315 39.4755C77.6333 39.8538 77.4289 40.1962 77.1423 40.4624C76.8533 40.6245 76.5225 40.6971 76.192 40.6711C75.9643 40.6524 75.7355 40.6524 75.5079 40.6711C75.3265 40.7066 75.1485 40.7574 74.9757 40.823C75.3852 39.6645 75.5971 38.4456 75.6029 37.2171C75.6271 36.5811 75.6906 35.9473 75.7929 35.3192V34.9018H75.8879C77.6364 34.5222 78.4727 34.617 78.3967 35.8696C78.3075 37.1233 78.0585 38.3606 77.6555 39.5513L77.7315 39.4755ZM96.7369 33.4404L95.3305 33.2317L94.2852 33.0988C94.2716 33.0632 94.2484 33.0319 94.2182 33.0085C94.1881 32.985 94.1521 32.9704 94.1142 32.9659C94.0802 32.9439 94.0406 32.9321 94.0001 32.9321C93.9596 32.9321 93.92 32.9439 93.8861 32.9659C92.9383 32.8657 91.9985 32.7008 91.0733 32.4725C91.0198 32.4597 90.9637 32.4638 90.9126 32.4842C90.8616 32.5046 90.8181 32.5403 90.7882 32.5864C90.7754 32.6082 90.7682 32.6329 90.7673 32.6582C90.7665 32.6835 90.772 32.7085 90.7833 32.7312C90.7946 32.7538 90.8115 32.7732 90.8322 32.7877C90.853 32.8022 90.8771 32.8112 90.9023 32.8141C91.57 32.9941 92.2495 33.1274 92.9358 33.2127L93.7911 33.3075C93.62 34.0667 93.525 34.8828 93.4109 35.7368C93.3248 37.438 92.9119 39.1067 92.1946 40.6521C92.1946 40.6521 92.1946 40.8419 92.3086 40.8798C92.3518 40.8903 92.3972 40.8867 92.4382 40.8696C92.4792 40.8526 92.5137 40.8229 92.5367 40.785C93.288 39.2084 93.7207 37.4994 93.8101 35.7557C93.8848 34.9461 94.0054 34.1415 94.1712 33.3455L95.2355 33.4784L96.6228 33.6871C96.7559 33.6871 96.8699 33.6871 96.8889 33.5543C96.8496 33.5282 96.8031 33.5149 96.7559 33.5163L96.7369 33.4404ZM104.054 43.4799C103.351 43.2331 102.648 43.0433 101.944 42.8725L100.519 42.5119L100.671 41.7908C100.88 40.8229 101.07 39.893 101.26 38.8682C102.115 39.0959 102.952 39.3616 103.807 39.6273C103.823 39.644 103.842 39.6572 103.863 39.6662C103.884 39.6753 103.907 39.6799 103.93 39.6799C103.954 39.6799 103.976 39.6753 103.998 39.6662C104.019 39.6572 104.038 39.644 104.054 39.6273C104.06 39.5698 104.043 39.5122 104.008 39.4664C103.972 39.4206 103.921 39.39 103.864 39.3806L101.317 38.6024C101.526 37.4258 101.697 36.2492 101.792 35.0725L103.693 35.585C104.396 35.7937 105.042 35.9835 105.593 36.1733C105.707 36.1733 105.821 36.1733 105.84 36.1733C105.846 36.1157 105.83 36.0582 105.794 36.0124C105.759 35.9666 105.708 35.9359 105.65 35.9265C105.156 35.7368 104.491 35.528 103.75 35.3382L101.64 34.7309C101.611 34.7159 101.578 34.7081 101.545 34.7081C101.512 34.7081 101.48 34.7159 101.45 34.7309C101.442 34.7487 101.437 34.7682 101.437 34.7879C101.437 34.8076 101.442 34.827 101.45 34.8448C101.245 37.1979 100.864 39.5323 100.31 41.8288L100.12 42.7208C100.118 42.7775 100.136 42.8329 100.171 42.8779C100.206 42.9228 100.255 42.9545 100.31 42.9675L102.001 43.385C102.686 43.5558 103.389 43.7456 104.054 43.9733C104.187 43.9733 104.301 43.9733 104.32 43.8784C104.339 43.7835 104.187 43.6128 104.073 43.5558L104.054 43.4799ZM100.842 34.7879C100.848 34.7354 100.833 34.6826 100.801 34.6403C100.77 34.5981 100.723 34.5694 100.671 34.5601C100.538 34.5601 100.424 34.5601 100.405 34.6739C100.177 35.7747 99.9868 36.9134 99.7968 38.0331C99.182 37.8035 98.5451 37.6382 97.8962 37.5397L97.098 37.4068C97.307 36.2681 97.5351 35.0915 97.7632 33.9529C97.7688 33.9003 97.7543 33.8475 97.7226 33.8053C97.6908 33.763 97.6442 33.7343 97.5921 33.725C97.4591 33.725 97.345 33.725 97.326 33.8579C97.06 35.1294 96.8319 36.4199 96.6039 37.6535C96.3758 38.8871 96.1287 40.1966 95.8626 41.4492C95.8626 41.4492 95.8627 41.639 96.0527 41.658C96.2428 41.677 96.2997 41.658 96.3188 41.5252C96.5658 40.2536 96.8129 38.9631 97.041 37.7295L97.8392 37.8812C98.4884 37.9585 99.1262 38.1115 99.7398 38.3368H99.9108C99.9108 38.3368 99.9108 38.4506 99.9108 38.5076C99.7017 39.7601 99.4927 41.0696 99.2266 42.3032C99.2258 42.3576 99.2446 42.4104 99.2794 42.4522C99.3143 42.4939 99.363 42.5219 99.4166 42.5309C99.5497 42.5309 99.6637 42.5309 99.6827 42.4171C99.9488 41.1455 100.158 39.855 100.367 38.6214C100.576 37.3878 100.595 36.1163 100.861 34.8638L100.842 34.7879ZM118.46 44.5616C118.46 44.4288 118.46 44.2959 118.46 44.163C118.626 43.6199 118.608 43.0374 118.409 42.5056C118.209 41.9738 117.84 41.5224 117.358 41.2214C116.495 40.6663 115.57 40.2141 114.602 39.8741C114.553 39.855 114.499 39.855 114.45 39.8741C114.44 39.8914 114.435 39.9109 114.435 39.9309C114.435 39.9509 114.44 39.9706 114.45 39.9879C114.554 41.5198 114.406 43.0583 114.013 44.5426C113.899 44.5426 113.861 44.5427 113.899 44.7325L113.994 44.8653C113.994 45.15 113.861 45.4536 113.804 45.7383C113.747 46.0229 113.557 46.7631 113.443 47.2565C113.439 47.3132 113.454 47.3697 113.484 47.4175C113.515 47.4653 113.56 47.502 113.614 47.5222C113.747 47.5222 113.861 47.5222 113.88 47.5222C113.975 47.0288 114.089 46.5354 114.222 46.023L114.45 45.0361C114.852 45.1837 115.241 45.3679 115.609 45.5864C116.171 45.9907 116.824 46.2514 117.51 46.3456C118.308 46.3076 118.403 45.3966 118.555 44.6375L118.46 44.5616ZM117.282 45.8331C116.686 45.7457 116.119 45.5181 115.628 45.1689C115.257 44.9489 114.87 44.7586 114.469 44.5996C114.827 43.1865 114.974 41.7285 114.906 40.2725C115.746 40.5826 116.549 40.9835 117.301 41.4682C118.289 42.1704 118.251 42.8346 118.099 43.8594C118.09 43.9985 118.09 44.138 118.099 44.277C117.985 45.1121 117.909 45.8901 117.301 45.9091L117.282 45.8331ZM113.652 39.3426C113.652 39.2477 113.652 39.1338 113.462 39.0769C113.272 39.02 113.234 39.0769 113.215 39.0769C112.949 40.2915 112.72 41.5441 112.492 42.7587C112.264 43.9733 112.036 45.2258 111.77 46.4405C111.768 46.4994 111.783 46.5576 111.813 46.6082C111.844 46.6587 111.888 46.6994 111.941 46.7252C112.074 46.7252 112.169 46.7252 112.188 46.7252C112.454 45.5106 112.701 44.258 112.93 43.0434C113.158 41.8288 113.405 40.6521 113.671 39.4185L113.652 39.3426ZM111.352 43.442C111.424 43.0429 111.526 42.6495 111.656 42.2652C112.094 41.299 112.169 40.2073 111.865 39.1908C111.2 38.1328 110.151 37.3716 108.938 37.0652C108.824 37.0652 108.71 37.0652 108.691 37.0652C108.592 37.5652 108.541 38.0738 108.539 38.5835C108.568 38.9816 108.568 39.3811 108.539 39.7791C108.349 40.8419 108.121 41.9047 107.874 42.9485C107.741 43.5558 107.589 44.1821 107.475 44.8463C107.46 44.8723 107.452 44.9017 107.452 44.9317C107.452 44.9617 107.46 44.9911 107.475 45.0171C107.475 45.0171 107.475 45.0171 107.589 45.0171C107.957 45.1071 108.319 45.2212 108.672 45.3587C109.259 45.6602 109.914 45.8041 110.573 45.7763C111.2 45.5865 111.276 44.5237 111.352 43.7456C111.352 43.7835 111.352 43.6317 111.371 43.5178L111.352 43.442ZM110.269 45.5295C109.745 45.522 109.231 45.392 108.767 45.1499C108.463 45.0361 108.159 44.9223 107.874 44.8463C107.988 44.296 108.121 43.7456 108.235 43.1952C108.482 42.1704 108.71 41.0886 108.9 40.0258C108.9 39.6273 108.9 39.2098 108.995 38.7923C108.956 38.3567 108.956 37.9184 108.995 37.4828C109.968 37.7461 110.812 38.3529 111.371 39.1908C111.628 40.1374 111.547 41.1436 111.143 42.0375C111.007 42.4343 110.899 42.8402 110.82 43.2521C110.82 43.385 110.82 43.5368 110.82 43.7266C110.839 44.4667 110.744 45.4726 110.288 45.6054L110.269 45.5295Z" fill="#5848B4"/>
<path d="M83.148 31.9975C83.0912 31.9938 83.0347 32.0083 82.9868 32.0391C82.9389 32.0698 82.9022 32.1152 82.882 32.1684C82.762 32.7508 82.6794 33.3403 82.6349 33.9333C82.3878 36.1917 81.9697 39.9683 80.1452 40.272H79.9931C79.8604 40.2742 79.7316 40.2268 79.632 40.1391C78.7958 39.418 79.632 35.8691 80.0882 33.9523C80.2661 33.405 80.3746 32.8375 80.4112 32.2632C80.4026 32.2298 80.3829 32.2003 80.3553 32.1796C80.3276 32.1589 80.2937 32.1483 80.2592 32.1494H80.1642C80.107 32.1587 80.0557 32.1894 80.0204 32.2352C79.9851 32.281 79.9686 32.3386 79.9741 32.3961C79.9232 32.9296 79.8213 33.457 79.67 33.9712C79.1379 36.2106 78.3396 39.6647 79.2899 40.4238C79.4547 40.562 79.6639 40.6361 79.8791 40.6326H80.1262C82.3688 40.253 82.7869 36.4194 83.072 33.8573C83.1167 33.2895 83.1993 32.7253 83.3191 32.1684C83.3257 32.1438 83.3262 32.118 83.3203 32.0933C83.3144 32.0686 83.3024 32.0457 83.2854 32.0268C83.2684 32.0079 83.2469 31.9937 83.2229 31.9852C83.1989 31.9768 83.1731 31.9744 83.148 31.9785V31.9975ZM83.9652 32.1494H83.8702C83.8178 32.1629 83.7727 32.196 83.7444 32.242C83.716 32.288 83.7067 32.3433 83.7182 32.3961C83.9843 33.326 84.3454 34.2939 84.7065 35.1858L85.1816 36.4953C84.9469 37.1042 84.7997 37.7431 84.7445 38.3932C84.7101 39.0391 84.5886 39.6775 84.3834 40.291C84.3746 40.3146 84.3712 40.3399 84.3734 40.365C84.3756 40.3901 84.3834 40.4145 84.3961 40.4362C84.4088 40.458 84.4262 40.4766 84.447 40.4909C84.4678 40.5052 84.4915 40.5147 84.5164 40.5187C84.5666 40.5144 84.6151 40.4984 84.658 40.472C84.7009 40.4457 84.737 40.4096 84.7635 40.3669C84.9724 39.7535 85.1002 39.1155 85.1436 38.469C85.1884 37.7441 85.3554 37.0319 85.6377 36.3625V36.2486C86.5261 34.9335 87.6314 33.7784 88.9067 32.8326C88.9265 32.8165 88.9425 32.7963 88.9535 32.7734C88.9645 32.7504 88.9702 32.7252 88.9702 32.6997C88.9702 32.6742 88.9645 32.6491 88.9535 32.6261C88.9425 32.6031 88.9265 32.5828 88.9067 32.5668C88.8578 32.5478 88.8035 32.5478 88.7546 32.5668H88.6026C87.3791 33.5271 86.3145 34.6735 85.4477 35.964C85.3336 35.6604 85.2006 35.3566 85.0866 35.034C84.7445 34.104 84.3834 33.1362 84.0983 32.2442C84.086 32.2093 84.0627 32.1793 84.0318 32.1587C84.001 32.1382 83.9643 32.1283 83.9272 32.1304L83.9652 32.1494ZM77.6174 32.2632C77.0769 32.2158 76.5373 32.3639 76.097 32.6807C75.6383 33.205 75.394 33.8825 75.4128 34.5785C75.4128 34.8632 75.4128 35.1669 75.2988 35.4706C75.1847 36.0968 75.1468 36.78 75.0897 37.4822C75.0983 38.7841 74.8463 40.0746 74.3485 41.2779C74.3359 41.2903 74.3258 41.305 74.319 41.3213C74.3121 41.3376 74.3086 41.3551 74.3086 41.3728C74.3086 41.3904 74.3121 41.4079 74.319 41.4242C74.3258 41.4405 74.3359 41.4553 74.3485 41.4676H74.4815C74.5184 41.4807 74.5587 41.4807 74.5956 41.4676C75.0029 41.208 75.4814 41.0819 75.964 41.107C76.4121 41.1389 76.8586 41.0258 77.2374 40.7844C77.6339 40.4622 77.9196 40.0243 78.0546 39.5319C78.4516 38.3006 78.7004 37.0264 78.7958 35.7363C78.7958 34.6166 78.2636 34.2749 77.3894 34.2749H76.9713L77.1613 34.0851C77.6666 33.5817 77.9534 32.9 77.9596 32.1872C77.9596 32.1698 77.9561 32.1526 77.9494 32.1365C77.9427 32.1204 77.933 32.1056 77.9206 32.0933C77.9082 32.081 77.8936 32.0712 77.8774 32.0646C77.8613 32.0579 77.844 32.0545 77.8265 32.0545L77.6174 32.2632ZM75.8309 34.5975V34.4647C75.8122 33.9105 75.9869 33.3671 76.3251 32.9274C76.5153 32.7905 76.738 32.7055 76.9713 32.6807H77.4844C77.4321 33.1872 77.2113 33.6617 76.8572 34.0282C76.594 34.3146 76.249 34.5133 75.869 34.5975H75.7739H75.8309ZM74.8997 40.9553C75.3091 39.7968 75.5211 38.5779 75.5268 37.3494C75.5511 36.7135 75.6145 36.0797 75.7169 35.4516V35.034H75.812C76.2784 34.9175 76.7566 34.8539 77.2374 34.8442C78.0166 34.8442 78.3776 35.1668 78.3206 36.0019C78.2345 37.242 77.9919 38.4664 77.5985 39.6458C77.5003 40.0241 77.2959 40.3664 77.0093 40.6326C76.7203 40.7947 76.3895 40.8673 76.059 40.8413C75.8314 40.8226 75.6025 40.8226 75.3748 40.8413C75.1934 40.8768 75.0154 40.9276 74.8427 40.9932L74.8997 40.9553ZM90.9973 32.6428C90.9022 32.6428 90.8072 32.6428 90.7882 32.7567C90.7754 32.7785 90.7682 32.8031 90.7673 32.8284C90.7665 32.8537 90.772 32.8787 90.7833 32.9014C90.7946 32.924 90.8115 32.9435 90.8323 32.958C90.853 32.9725 90.8771 32.9816 90.9023 32.9844C91.57 33.1645 92.2495 33.2976 92.9358 33.3829L93.7911 33.4779C93.62 34.237 93.525 35.053 93.4109 35.907C93.3248 37.6082 92.9119 39.277 92.1946 40.8224C92.1946 40.8224 92.1946 41.0122 92.3086 41.0502C92.3486 41.0524 92.3885 41.0449 92.4249 41.0284C92.4613 41.0119 92.4931 40.9868 92.5177 40.9553C93.269 39.3787 93.7017 37.6697 93.7911 35.926C93.8658 35.1164 93.9863 34.3117 94.1522 33.5157L95.2165 33.6486L96.6039 33.8573C96.6484 33.8603 96.6926 33.8491 96.7302 33.8252C96.7678 33.8013 96.7968 33.766 96.8129 33.7245C96.8137 33.6701 96.7949 33.6173 96.7601 33.5755C96.7252 33.5337 96.6765 33.5058 96.6228 33.4967L95.2165 33.288L94.1712 33.1551C94.1576 33.1195 94.1344 33.0883 94.1042 33.0649C94.074 33.0415 94.038 33.0267 94.0001 33.0223C93.9707 33.0073 93.9381 32.9995 93.9051 32.9995C93.8721 32.9995 93.8395 33.0073 93.8101 33.0223C92.8623 32.922 91.9225 32.7573 90.9973 32.529V32.6428ZM97.4401 33.7625C97.3982 33.7606 97.3568 33.7726 97.3224 33.7966C97.2881 33.8207 97.2626 33.8553 97.2501 33.8953C96.984 35.1669 96.7559 36.4574 96.5278 37.691C96.2998 38.9246 96.0527 40.2341 95.7866 41.4866C95.7866 41.4866 95.7866 41.6764 95.9767 41.6954C96.0217 41.7018 96.0675 41.692 96.1059 41.6677C96.1443 41.6433 96.1726 41.6059 96.1858 41.5625C96.4328 40.291 96.6799 39.0004 96.9079 37.7668L97.7062 37.9187C98.3553 37.996 98.9932 38.1488 99.6067 38.3742H99.7778C99.7778 38.3742 99.7778 38.4881 99.7778 38.545C99.5687 39.7976 99.3597 41.1071 99.0936 42.3407C99.0928 42.395 99.1116 42.4479 99.1464 42.4896C99.1813 42.5314 99.2299 42.5593 99.2836 42.5684C99.3255 42.5703 99.3669 42.5583 99.4013 42.5342C99.4357 42.5102 99.4611 42.4755 99.4737 42.4355C99.7397 41.164 99.9488 39.8735 100.158 38.6399C100.367 37.4063 100.557 36.0778 100.823 34.8442C100.829 34.7917 100.814 34.739 100.782 34.6968C100.751 34.6545 100.704 34.6258 100.652 34.6165C100.61 34.6146 100.569 34.6265 100.534 34.6506C100.5 34.6746 100.475 34.7094 100.462 34.7494C100.234 35.8501 100.044 36.9888 99.8538 38.1086C99.239 37.879 98.6021 37.7136 97.9532 37.6151L97.155 37.4822C97.3641 36.3436 97.5921 35.1669 97.8202 34.0282C97.8258 33.9757 97.8113 33.923 97.7796 33.8807C97.7479 33.8385 97.7012 33.8098 97.6492 33.8005L97.4401 33.7625ZM101.545 34.6165H101.45C101.442 34.6343 101.437 34.6537 101.437 34.6734C101.437 34.6931 101.442 34.7126 101.45 34.7304C101.245 37.0835 100.864 39.4179 100.31 41.7144L100.12 42.6064C100.118 42.6631 100.136 42.7185 100.171 42.7635C100.206 42.8084 100.255 42.8401 100.31 42.8531L102.001 43.2706C102.686 43.4414 103.389 43.6312 104.054 43.8589H104.149C104.187 43.8648 104.225 43.8562 104.257 43.8352C104.288 43.8141 104.311 43.782 104.32 43.745C104.32 43.745 104.32 43.5552 104.149 43.4983C103.446 43.2516 102.743 43.0618 102.039 42.891L100.614 42.5304L100.766 41.8092C100.975 40.8413 101.165 39.9114 101.355 38.8866C102.21 39.1144 103.047 39.3801 103.902 39.6458C103.94 39.6516 103.978 39.6431 104.01 39.622C104.041 39.601 104.064 39.5688 104.073 39.5319C104.079 39.4744 104.062 39.4168 104.027 39.371C103.991 39.3252 103.94 39.2946 103.883 39.2852L101.336 38.507C101.545 37.3304 101.716 36.1538 101.811 34.9771L103.712 35.4896C104.415 35.6983 105.061 35.8881 105.612 36.0779H105.707C105.742 36.079 105.776 36.0682 105.803 36.0475C105.831 36.0268 105.851 35.9974 105.86 35.964C105.865 35.9065 105.849 35.8489 105.813 35.8031C105.778 35.7573 105.727 35.7266 105.669 35.7173C105.175 35.5275 104.51 35.3187 103.769 35.129L101.64 34.7304L101.545 34.6165ZM108.862 37.1217C108.839 37.1083 108.813 37.1013 108.786 37.1013C108.76 37.1013 108.733 37.1083 108.71 37.1217C108.611 37.6217 108.56 38.1301 108.558 38.6399C108.587 39.0379 108.587 39.4375 108.558 39.8355C108.368 40.8983 108.14 41.9611 107.893 43.0049C107.76 43.6122 107.608 44.2384 107.494 44.9027C107.479 44.9287 107.471 44.9582 107.471 44.9882C107.471 45.0182 107.479 45.0476 107.494 45.0735C107.494 45.0735 107.494 45.0735 107.608 45.0735C107.976 45.1636 108.338 45.2777 108.691 45.4151C109.193 45.638 109.724 45.785 110.269 45.8516H110.516C111.143 45.6618 111.219 44.599 111.295 43.8209C111.295 43.6501 111.295 43.4983 111.295 43.3844C111.367 42.9853 111.469 42.5921 111.599 42.2078C112.037 41.2416 112.112 40.1499 111.808 39.1333C111.143 38.0754 110.094 37.3141 108.881 37.0078L108.862 37.1217ZM110.155 45.6239C109.682 45.5545 109.222 45.4205 108.786 45.2254C108.482 45.1115 108.178 44.9976 107.893 44.9217C108.007 44.3713 108.14 43.821 108.254 43.2706C108.501 42.2458 108.729 41.164 108.919 40.1013C108.919 39.7027 108.919 39.2851 109.014 38.8676C108.975 38.432 108.975 37.9937 109.014 37.5581C109.987 37.8214 110.831 38.4284 111.39 39.2662C111.647 40.2128 111.566 41.2191 111.162 42.1129C111.026 42.5098 110.918 42.9157 110.839 43.3276C110.839 43.4604 110.839 43.6122 110.839 43.802C110.839 44.4663 110.687 45.4721 110.231 45.6999L110.155 45.6239ZM113.367 39.1143C113.367 39.1143 113.253 39.1143 113.234 39.2092C112.968 40.4238 112.739 41.6764 112.511 42.891C112.283 44.1056 112.055 45.3582 111.789 46.5728C111.787 46.6317 111.802 46.69 111.832 46.7405C111.863 46.7911 111.907 46.8318 111.96 46.8575H112.093H112.207C112.473 45.6429 112.72 44.3903 112.948 43.1757C113.177 41.9611 113.405 40.7275 113.671 39.4939C113.671 39.399 113.671 39.2851 113.481 39.2282C113.463 39.2198 113.443 39.2154 113.424 39.2154C113.404 39.2154 113.384 39.2198 113.367 39.2282V39.1143ZM114.602 39.8924C114.592 39.9097 114.587 39.9294 114.587 39.9494C114.587 39.9694 114.592 39.9891 114.602 40.0064C114.706 41.5383 114.558 43.0767 114.165 44.5611C114.051 44.5611 114.013 44.5612 114.051 44.7509L114.146 44.8837C114.146 45.1684 114.013 45.4721 113.956 45.7567C113.899 46.0414 113.709 46.7815 113.595 47.275C113.591 47.3317 113.606 47.3882 113.636 47.436C113.667 47.4838 113.713 47.5205 113.766 47.5407C113.809 47.5552 113.856 47.5552 113.899 47.5407C113.919 47.5508 113.942 47.556 113.965 47.556C113.988 47.556 114.011 47.5508 114.032 47.5407C114.127 47.0473 114.241 46.5539 114.374 46.0415L114.602 45.0545C115.005 45.2021 115.393 45.3863 115.761 45.6049C116.327 46.0027 116.978 46.2627 117.662 46.364C118.46 46.364 118.555 45.4341 118.631 44.675C118.631 44.5421 118.631 44.4093 118.631 44.2765C118.797 43.7334 118.779 43.1507 118.58 42.6189C118.38 42.0871 118.011 41.6357 117.529 41.3348C116.666 40.7796 115.741 40.3275 114.773 39.9874L114.602 39.8924ZM117.263 45.9086C116.682 45.8078 116.131 45.581 115.647 45.2443C115.276 45.0242 114.889 44.8339 114.488 44.675C114.846 43.2619 114.993 41.8039 114.925 40.348C115.765 40.658 116.568 41.059 117.32 41.5436C118.308 42.2458 118.27 42.91 118.118 43.9348C118.109 44.0738 118.109 44.2133 118.118 44.3524C118.118 45.0546 117.966 45.8326 117.358 45.8516L117.263 45.9086Z" fill="#FF5FE8"/>
<path d="M154.02 59.572C154.286 59.0216 155.787 58.7179 156.395 58.4902C157.511 58.1602 158.671 58.0002 159.835 58.0157C160.973 57.9617 162.114 58.0316 163.237 58.2245C163.655 58.2245 164.092 58.2245 164.51 58.3763C164.948 58.5615 165.363 58.7972 165.746 59.0785C166.417 59.4738 166.989 60.0181 167.415 60.6695C167.842 61.3208 168.113 62.0616 168.207 62.8343C168.3 63.607 168.215 64.391 167.956 65.1253C167.697 65.8595 167.273 66.5243 166.715 67.0683C165.282 68.3257 163.524 69.1545 161.641 69.4596C161.653 68.5703 161.723 67.6829 161.85 66.8027C163.085 66.4041 163.75 64.0508 162.667 63.1778C161.865 62.7682 160.957 62.6095 160.063 62.7223C158.971 62.6555 157.874 62.7129 156.794 62.8932C155.586 63.1416 154.507 63.8151 153.753 64.791C153.221 65.7209 154.038 66.423 154.172 67.2201C154.233 67.8513 154.233 68.4868 154.172 69.118C153.069 68.8902 151.91 68.7764 151.226 67.7136C150.806 66.9447 150.584 66.084 150.58 65.2084C150.445 64.2292 150.523 63.2325 150.808 62.2858C151.045 61.6936 151.365 61.1378 151.758 60.6347C152.038 60.3077 152.384 60.0437 152.774 59.8605C153.164 59.6773 153.589 59.579 154.02 59.572Z" fill="#98E4E8" stroke="#5848B4" stroke-linecap="round" stroke-linejoin="round"/>
<path d="M161.869 58.0161C163.542 56.5547 162.934 53.1197 162.934 51.127C162.789 53.2399 163.222 55.3523 164.188 57.2379C165.081 58.7372 166.621 58.7751 168.103 59.1357C167.02 59.0218 164.72 58.5284 163.808 59.1357C163.243 59.7978 162.821 60.5696 162.569 61.4025C162.317 62.2354 162.241 63.1113 162.344 63.9751C162.402 63.1322 162.363 62.2855 162.23 61.4511C162.002 60.5402 161.299 60.1416 160.577 59.5533C159.855 58.965 158.182 57.8073 157.004 58.2248C158.467 57.9781 160.843 59.0409 161.869 58.0161Z" fill="white"/>
</g>
<defs>
<clipPath id="clip0_1_9744">
<rect width="186" height="186" fill="white"/>
</clipPath>
</defs>
</svg>
