<svg width="1205" height="1222" viewBox="0 0 1205 1222" fill="none" xmlns="http://www.w3.org/2000/svg">
<path d="M920.246 723.473H963.867C967.965 723.475 971.921 721.975 974.99 719.257C978.058 716.539 980.027 712.791 980.525 708.72L988.674 635.432C988.877 633.094 988.585 630.739 987.816 628.522C987.047 626.305 985.82 624.275 984.214 622.565C982.607 620.856 980.658 619.505 978.495 618.601C976.331 617.697 974.001 617.26 971.657 617.32L636.107 627.035C633.827 627.09 631.583 627.616 629.516 628.58C627.449 629.544 625.603 630.925 624.095 632.637C622.587 634.35 621.449 636.355 620.753 638.529C620.056 640.703 619.816 642.997 620.048 645.268L624.003 685.33C624.418 689.434 626.339 693.239 629.393 696.008C632.448 698.777 636.42 700.315 640.541 700.324H707.052C709.389 700.327 711.699 700.822 713.833 701.778C715.966 702.733 717.875 704.127 719.435 705.87C720.994 707.612 722.17 709.663 722.886 711.89C723.602 714.117 723.842 716.47 723.589 718.796L708.49 859.614C708.238 861.93 708.475 864.273 709.184 866.492C709.892 868.71 711.058 870.756 712.604 872.496C714.151 874.236 716.045 875.633 718.164 876.596C720.283 877.559 722.581 878.066 724.908 878.086H894.36C896.611 878.058 898.832 877.573 900.89 876.661C902.948 875.75 904.8 874.43 906.334 872.782C907.869 871.134 909.053 869.192 909.817 867.073C910.581 864.955 910.908 862.703 910.778 860.454L903.468 740.506C903.403 738.272 903.791 736.048 904.608 733.968C905.425 731.888 906.655 729.995 908.222 728.403C909.79 726.812 911.664 725.554 913.73 724.707C915.796 723.86 918.013 723.44 920.246 723.473ZM953.441 995.755C955.739 995.671 957.994 995.112 960.065 994.113C962.136 993.114 963.979 991.697 965.476 989.951C966.973 988.204 968.093 986.166 968.764 983.966C969.436 981.765 969.646 979.449 969.38 977.163L963.507 927.505C963.059 923.392 961.088 919.596 957.983 916.865C954.877 914.134 950.863 912.667 946.73 912.751L626.759 911.911C622.497 911.972 618.422 913.677 615.385 916.672C612.348 919.666 610.584 923.719 610.461 927.985L608.424 989.158C608.306 991.453 608.666 993.747 609.483 995.895C610.299 998.042 611.553 999.996 613.165 1001.63C614.777 1003.27 616.712 1004.55 618.846 1005.4C620.98 1006.24 623.267 1006.64 625.561 1006.55L751.991 1002.47V1187.91C751.906 1190.2 752.295 1192.48 753.134 1194.6C753.973 1196.73 755.243 1198.66 756.864 1200.27C758.486 1201.88 760.424 1203.14 762.555 1203.97C764.686 1204.79 766.965 1205.17 769.248 1205.06L812.27 1203.5C816.668 1203.32 820.813 1201.4 823.8 1198.16C826.786 1194.92 828.371 1190.63 828.209 1186.23L820.539 1000.79L953.441 995.755ZM1185.21 1043.73C1177.78 1037.38 1166.4 1039.66 1155.61 1039.66C1100.36 1039.66 1047.75 1042.41 992.868 1042.41C968.181 1042.41 943.734 1043.49 919.047 1043.73C906.105 1043.73 885.133 1042.53 874.827 1051.53C861.405 1063.53 871.111 1090.99 870.512 1106.95C870.512 1137.41 856.012 1168.96 867.516 1199.91C879.021 1230.85 923.841 1219.94 953.081 1219.94C1022.35 1219.94 1092.57 1223.78 1161.36 1219.94C1193.24 1218.14 1187.49 1200.75 1190 1178.2C1192.74 1147.89 1193.74 1117.45 1193 1087.04C1193 1075.52 1195.76 1053.21 1185.21 1044.09V1043.73ZM1134.28 1134.41C1107.91 1141.73 1068.85 1135.85 1041.64 1135.85C1011.2 1135.85 980.645 1137.41 950.565 1136.93C935.345 1136.93 917.729 1136.09 917.969 1122.42C917.969 1113.9 915.092 1097.23 923.961 1088.95C935.944 1077.68 959.193 1079.36 975.372 1079.36H1083.23C1108.75 1079.36 1144.82 1072.28 1149.02 1101.19C1151.06 1116.18 1152.25 1129.86 1134.28 1134.77V1134.41ZM1176.82 684.73L1175.38 665.899C1175.08 661.678 1173.17 657.735 1170.05 654.879C1166.93 652.024 1162.83 650.473 1158.61 650.545L1026.78 652.464C1024.59 652.495 1022.43 652.962 1020.42 653.838C1018.4 654.714 1016.59 655.981 1015.07 657.566C1013.55 659.151 1012.37 661.022 1011.58 663.07C1010.79 665.119 1010.42 667.303 1010.48 669.497V680.772C1010.6 684.969 1012.29 688.968 1015.23 691.969C1018.16 694.971 1022.11 696.755 1026.3 696.965H1041.28C1040.02 699.57 1039.52 702.483 1039.85 705.361L1063.09 931.703L1027.74 938.3C1023.82 939.016 1020.28 941.116 1017.78 944.22C1015.27 947.323 1013.96 951.224 1014.08 955.213L1015.52 993.356C1015.7 997.652 1017.54 1001.71 1020.64 1004.68C1023.75 1007.66 1027.88 1009.31 1032.18 1009.31H1167.23C1169.49 1009.31 1171.72 1008.86 1173.79 1007.96C1175.86 1007.07 1177.73 1005.77 1179.28 1004.13C1180.83 1002.49 1182.03 1000.55 1182.8 998.426C1183.57 996.306 1183.9 994.05 1183.77 991.797L1180.54 929.184C1180.41 926.82 1179.77 924.511 1178.68 922.41C1177.59 920.31 1176.06 918.466 1174.2 917.002C1172.34 915.538 1170.19 914.488 1167.9 913.92C1165.6 913.353 1163.21 913.281 1160.88 913.711L1128.29 919.708L1141.35 703.682C1141.35 703.682 1141.35 702.363 1141.35 701.763L1159.68 702.603C1162.02 702.676 1164.34 702.258 1166.5 701.376C1168.66 700.494 1170.61 699.168 1172.23 697.483C1173.84 695.798 1175.09 693.792 1175.88 691.595C1176.67 689.398 1176.99 687.06 1176.82 684.73ZM242.915 905.194L123.075 912.511C120.805 912.66 118.527 912.338 116.387 911.565C114.246 910.793 112.287 909.586 110.634 908.021C108.98 906.456 107.667 904.566 106.777 902.47C105.886 900.374 105.438 898.116 105.459 895.839V852.178C105.46 848.076 103.962 844.116 101.246 841.045C98.5307 837.973 94.7861 836.003 90.7188 835.505L17.4971 827.348C15.2299 827.234 12.9633 827.584 10.8363 828.378C8.70939 829.172 6.76704 830.393 5.12854 831.966C3.49004 833.538 2.19 835.43 1.30818 837.523C0.426362 839.617 -0.0186191 841.869 0.000596842 844.141L9.70759 1179.99C9.76186 1182.28 10.287 1184.52 11.2502 1186.59C12.2133 1188.66 13.5937 1190.51 15.3043 1192.02C17.015 1193.53 19.0191 1194.67 21.1907 1195.36C23.3623 1196.06 25.6545 1196.3 27.9231 1196.07L67.9494 1192.11C72.0601 1191.72 75.8767 1189.81 78.6487 1186.74C81.4207 1183.68 82.9476 1179.69 82.9293 1175.56V1109.11C82.9324 1106.77 83.4275 1104.45 84.3821 1102.32C85.3367 1100.18 86.7297 1098.27 88.4703 1096.71C90.2109 1095.15 92.2603 1093.97 94.4853 1093.26C96.7102 1092.54 99.0609 1092.3 101.385 1092.55L242.196 1107.79C244.516 1108.02 246.859 1107.77 249.076 1107.04C251.292 1106.32 253.334 1105.14 255.071 1103.58C256.807 1102.03 258.2 1100.12 259.161 1098C260.122 1095.87 260.629 1093.57 260.651 1091.23V921.627C260.623 919.364 260.135 917.13 259.217 915.062C258.299 912.994 256.969 911.134 255.31 909.597C253.651 908.059 251.696 906.876 249.565 906.119C247.434 905.362 245.171 905.048 242.915 905.194ZM567.799 987.958L382.527 995.635L378.093 862.613C378.042 860.293 377.507 858.009 376.523 855.907C375.54 853.806 374.128 851.933 372.38 850.409C370.632 848.885 368.584 847.743 366.37 847.056C364.155 846.369 361.821 846.152 359.518 846.42L309.905 852.298C305.785 852.774 301.992 854.772 299.266 857.9C296.54 861.027 295.077 865.06 295.164 869.21L294.326 1189.47C294.292 1193.8 295.955 1197.97 298.957 1201.09C301.959 1204.2 306.061 1206.02 310.384 1206.14L371.742 1208.3C374.016 1208.37 376.279 1207.97 378.394 1207.13C380.51 1206.3 382.433 1205.04 384.047 1203.43C385.661 1201.83 386.933 1199.91 387.784 1197.8C388.635 1195.69 389.048 1193.43 388.999 1191.15L384.804 1064.49H570.075C572.391 1064.57 574.699 1064.18 576.851 1063.31C579.002 1062.45 580.949 1061.15 582.565 1059.49C584.181 1057.82 585.429 1055.84 586.23 1053.66C587.031 1051.49 587.365 1049.17 587.213 1046.85L585.655 1003.79C585.58 1001.55 585.053 999.343 584.107 997.309C583.16 995.274 581.812 993.451 580.145 991.951C578.478 990.45 576.525 989.301 574.403 988.574C572.282 987.847 570.035 987.556 567.799 987.719V987.958ZM52.4902 805.638H63.8749C68.0558 805.52 72.0369 803.822 75.0166 800.884C77.9963 797.946 79.7531 793.987 79.9333 789.805V774.931C82.5639 776.105 85.4584 776.56 88.322 776.251L314.459 752.981L321.05 788.965C321.793 792.89 323.92 796.418 327.043 798.905C330.167 801.393 334.078 802.675 338.067 802.519L376.056 801.08C380.348 800.894 384.402 799.056 387.373 795.949C390.343 792.842 391.998 788.707 391.994 784.407V648.386C391.981 646.134 391.512 643.908 390.616 641.843C389.72 639.777 388.415 637.915 386.78 636.368C385.144 634.821 383.213 633.622 381.102 632.843C378.992 632.063 376.745 631.72 374.498 631.833L311.942 635.192C309.585 635.306 307.28 635.924 305.181 637.004C303.083 638.084 301.24 639.601 299.775 641.453C298.311 643.305 297.259 645.449 296.692 647.741C296.124 650.034 296.052 652.421 296.483 654.743L302.475 687.369L86.2848 674.415C85.6471 674.355 85.0051 674.355 84.3674 674.415L85.2062 656.063C85.2968 653.719 84.892 651.382 84.0185 649.205C83.145 647.028 81.8223 645.06 80.137 643.43C78.4517 641.8 76.4417 640.544 74.2383 639.745C72.0349 638.945 69.6877 638.62 67.3502 638.79L48.5354 640.23C44.3291 640.564 40.4062 642.483 37.559 645.6C34.7118 648.717 33.1525 652.799 33.1961 657.022L35.1135 788.965C35.112 791.174 35.5557 793.361 36.418 795.395C37.2802 797.429 38.5435 799.268 40.1321 800.802C41.7207 802.336 43.602 803.534 45.6636 804.323C47.7252 805.113 49.9247 805.479 52.1306 805.398L52.4902 805.638ZM602.792 654.503C600.994 622.717 583.617 628.355 561.088 625.836C530.807 623.156 500.401 622.155 470.01 622.837C458.026 622.837 435.856 620.079 426.748 630.634C420.396 638.191 422.673 649.466 422.673 660.261C422.673 715.557 425.43 768.214 425.43 823.15C425.43 847.979 426.508 872.329 426.748 897.038C426.748 910.112 425.549 930.983 434.537 941.299C446.521 954.733 473.964 945.017 489.903 945.617C520.342 945.617 551.86 960.131 582.778 948.616C613.697 937.101 602.792 892.24 602.792 862.973C602.432 793.403 606.387 723.234 602.432 654.264L602.792 654.503ZM519.863 865.492C519.863 880.845 519.024 898.357 505.362 898.237C496.854 898.237 480.316 901.116 471.927 892.12C460.662 880.125 462.34 856.976 462.34 840.663V732.71C462.34 707.281 455.27 671.176 484.151 666.858C498.771 664.819 512.433 663.5 517.346 681.492C524.656 708 518.784 746.983 518.784 774.212C518.425 804.558 519.983 835.265 519.503 865.252L519.863 865.492ZM669.902 197.143H681.885C686.066 197.025 690.047 195.326 693.027 192.388C696.007 189.451 697.764 185.492 697.944 181.309L698.543 166.316C701.146 167.584 704.056 168.084 706.932 167.755L933.188 144.485L939.659 180.47C940.426 184.384 942.559 187.897 945.677 190.38C948.795 192.864 952.694 194.155 956.677 194.024L994.666 192.584C998.958 192.399 1003.01 190.561 1005.98 187.454C1008.95 184.347 1010.61 180.212 1010.6 175.912V40.9705C1010.61 38.7136 1010.15 36.4797 1009.26 34.4062C1008.37 32.3328 1007.07 30.4634 1005.43 28.9131C1003.79 27.3628 1001.85 26.1644 999.731 25.3913C997.613 24.6182 995.359 24.287 993.108 24.4178L930.552 27.6563C928.19 27.7873 925.883 28.4205 923.784 29.5136C921.685 30.6067 919.844 32.1346 918.381 33.9957C916.919 35.8568 915.869 38.0082 915.302 40.307C914.735 42.6058 914.663 44.9991 915.093 47.3277L921.084 79.9535L703.696 65.5598H701.779L702.618 47.2078C702.708 44.8637 702.303 42.5269 701.43 40.35C700.556 38.1732 699.234 36.2054 697.548 34.5752C695.863 32.945 693.853 31.6889 691.65 30.8894C689.446 30.0899 687.099 29.7648 684.762 29.9353L665.947 31.3746C661.73 31.6806 657.79 33.5916 654.937 36.7148C652.085 39.8379 650.535 43.9363 650.607 48.1674L652.525 180.11C652.408 182.394 652.765 184.678 653.574 186.817C654.383 188.957 655.626 190.905 657.225 192.539C658.824 194.173 660.744 195.458 662.864 196.312C664.984 197.166 667.258 197.572 669.542 197.502L669.902 197.143ZM645.934 588.052L685.96 584.094C690.071 583.705 693.887 581.791 696.659 578.727C699.431 575.664 700.958 571.674 700.94 567.541V500.73C700.931 498.414 701.405 496.122 702.33 493.999C703.256 491.876 704.613 489.97 706.316 488.401C708.018 486.833 710.028 485.636 712.219 484.889C714.409 484.141 716.73 483.858 719.036 484.058L859.847 499.171C862.16 499.423 864.501 499.186 866.718 498.477C868.934 497.767 870.978 496.601 872.716 495.053C874.455 493.504 875.851 491.609 876.813 489.488C877.775 487.367 878.282 485.067 878.302 482.738V313.132C878.289 310.87 877.817 308.633 876.913 306.559C876.01 304.485 874.694 302.617 873.046 301.069C871.398 299.52 869.452 298.324 867.327 297.552C865.202 296.78 862.942 296.449 860.685 296.579L741.445 303.896C739.175 304.045 736.897 303.723 734.757 302.95C732.616 302.177 730.657 300.971 729.004 299.406C727.35 297.841 726.037 295.951 725.147 293.855C724.256 291.759 723.808 289.501 723.829 287.223V243.562C723.856 239.454 722.367 235.48 719.647 232.403C716.926 229.326 713.167 227.362 709.089 226.89L635.867 218.733C633.503 218.475 631.111 218.727 628.852 219.472C626.593 220.217 624.52 221.437 622.771 223.051C621.023 224.664 619.64 226.634 618.716 228.827C617.791 231.02 617.347 233.386 617.412 235.766L627.119 571.62C627.142 573.911 627.64 576.172 628.581 578.261C629.523 580.349 630.887 582.22 632.588 583.753C634.289 585.286 636.29 586.45 638.463 587.169C640.637 587.888 642.936 588.149 645.215 587.933L645.934 588.052ZM1185.21 379.343L999.939 387.02L995.505 253.998C995.419 251.709 994.864 249.463 993.873 247.399C992.883 245.335 991.478 243.497 989.746 242.001C988.015 240.504 985.994 239.38 983.809 238.699C981.625 238.019 979.324 237.796 977.049 238.045L927.316 243.922C923.279 244.39 919.553 246.319 916.838 249.346C914.123 252.372 912.607 256.288 912.576 260.355L911.737 580.616C911.704 584.945 913.366 589.114 916.368 592.231C919.37 595.348 923.472 597.163 927.795 597.288L989.273 599.328C991.566 599.446 993.858 599.085 996.003 598.268C998.149 597.451 1000.1 596.196 1001.74 594.582C1003.37 592.969 1004.65 591.032 1005.5 588.896C1006.34 586.76 1006.74 584.471 1006.65 582.175L1002.46 455.63H1187.49C1189.72 455.632 1191.93 455.181 1193.99 454.305C1196.04 453.428 1197.9 452.144 1199.44 450.53C1200.99 448.916 1202.19 447.005 1202.98 444.913C1203.77 442.821 1204.12 440.591 1204.02 438.358L1202.47 395.296C1202.28 390.895 1200.36 386.746 1197.13 383.757C1193.89 380.767 1189.61 379.181 1185.21 379.343ZM29.1215 178.071C36.6714 184.428 47.9363 182.149 58.7218 182.149C113.968 182.149 166.577 179.39 221.463 179.39C246.15 179.39 270.597 178.311 295.284 178.071C308.227 178.071 329.199 179.27 339.505 170.274C352.927 158.279 343.22 130.811 343.819 114.858C343.819 84.3916 358.32 52.8453 346.815 21.8988C335.311 -9.04772 290.491 1.86755 261.25 1.86755C191.983 1.86755 121.757 -2.09072 52.9695 1.86755C21.2121 3.66677 26.8446 21.0592 24.3279 43.6093C21.65 73.9175 20.6499 104.351 21.332 134.77C21.332 146.645 18.5757 168.955 29.1215 178.071ZM80.0532 87.3904C106.538 80.0736 145.485 85.9509 172.689 85.9509C203.128 85.9509 233.687 84.3916 263.767 84.8714C278.986 84.8714 296.603 85.7111 296.363 99.3852C296.363 107.901 299.359 124.574 290.371 132.851C278.387 144.126 255.258 142.446 238.96 142.446H131.105C105.699 142.446 69.5073 149.523 65.3129 120.616C63.2757 105.982 62.0773 92.3083 80.0532 87.3904ZM588.77 215.615L462.34 219.693V34.2534C462.358 32.0077 461.92 29.7817 461.052 27.711C460.183 25.6402 458.903 23.768 457.288 22.2083C455.674 20.6486 453.759 19.4339 451.661 18.6384C449.563 17.8428 447.325 17.483 445.083 17.5807L402.061 19.1401C397.663 19.3272 393.518 21.2489 390.532 24.4853C387.545 27.7218 385.96 32.0099 386.122 36.4126L393.792 221.852L260.89 226.29C258.535 226.364 256.222 226.938 254.105 227.974C251.987 229.009 250.114 230.483 248.607 232.296C247.101 234.11 245.996 236.223 245.366 238.496C244.736 240.769 244.595 243.15 244.952 245.482L250.824 295.14C251.266 299.191 253.186 302.935 256.215 305.658C259.245 308.38 263.171 309.888 267.242 309.894L587.213 310.733C591.538 310.766 595.703 309.102 598.817 306.098C601.931 303.093 603.745 298.987 603.87 294.66L605.907 233.247C606.06 230.933 605.725 228.612 604.925 226.436C604.124 224.259 602.875 222.276 601.26 220.613C599.644 218.951 597.697 217.647 595.546 216.785C593.394 215.924 591.086 215.525 588.77 215.615ZM200.012 266.233L198.574 228.209C198.389 223.913 196.552 219.855 193.448 216.882C190.344 213.909 186.213 212.252 181.916 212.256H47.0974C44.8425 212.252 42.6107 212.71 40.5391 213.601C38.4675 214.492 36.5998 215.798 35.0509 217.438C33.502 219.079 32.3046 221.018 31.5323 223.139C30.7599 225.259 30.4289 227.515 30.5596 229.768L33.7952 292.381C33.9262 294.745 34.5588 297.054 35.6509 299.155C36.7429 301.255 38.2694 303.099 40.1288 304.563C41.9882 306.027 44.1379 307.077 46.4346 307.645C48.7313 308.212 51.1224 308.284 53.4489 307.854L86.0451 301.857L72.9826 518.483C72.9826 518.483 72.9826 519.802 72.9826 520.402L54.6473 519.562C52.3053 519.472 49.9706 519.877 47.7957 520.751C45.6208 521.625 43.6547 522.949 42.026 524.636C40.3972 526.323 39.1425 528.335 38.3437 530.54C37.5449 532.746 37.22 535.095 37.3904 537.434L38.8285 556.266C39.1343 560.487 41.0434 564.43 44.1638 567.286C47.2841 570.141 51.3786 571.692 55.606 571.62L187.429 569.7C189.621 569.67 191.786 569.203 193.796 568.327C195.807 567.451 197.623 566.184 199.14 564.599C200.657 563.014 201.843 561.143 202.631 559.094C203.418 557.046 203.791 554.862 203.727 552.668V541.393C203.612 537.196 201.919 533.197 198.986 530.195C196.054 527.194 192.098 525.41 187.908 525.2H172.929C174.196 522.595 174.695 519.682 174.367 516.803L150.998 289.862L186.95 283.265C190.783 282.421 194.195 280.25 196.585 277.134C198.975 274.017 200.188 270.157 200.012 266.233ZM294.086 498.691H250.464C246.367 498.69 242.411 500.19 239.342 502.908C236.273 505.626 234.304 509.374 233.807 513.445L225.658 586.733C225.382 589.109 225.62 591.516 226.355 593.792C227.091 596.067 228.307 598.158 229.921 599.921C231.536 601.685 233.51 603.08 235.71 604.013C237.911 604.945 240.286 605.393 242.675 605.325L578.225 595.609C580.504 595.555 582.748 595.029 584.816 594.065C586.883 593.101 588.728 591.72 590.236 590.007C591.745 588.295 592.883 586.289 593.579 584.116C594.275 581.942 594.515 579.648 594.283 577.377L590.328 537.315C589.939 533.2 588.027 529.38 584.966 526.606C581.906 523.831 577.92 522.303 573.791 522.321H507.04C504.74 522.208 502.489 521.619 500.428 520.592C498.367 519.564 496.541 518.12 495.066 516.35C493.591 514.58 492.498 512.524 491.857 510.31C491.216 508.097 491.04 505.774 491.341 503.489L506.441 362.551C506.692 360.235 506.456 357.892 505.747 355.673C505.038 353.455 503.873 351.409 502.326 349.669C500.779 347.929 498.885 346.532 496.766 345.569C494.647 344.606 492.35 344.099 490.023 344.079H319.971C317.711 344.091 315.476 344.564 313.404 345.469C311.332 346.373 309.466 347.69 307.919 349.34C306.372 350.989 305.176 352.937 304.405 355.064C303.634 357.19 303.303 359.452 303.433 361.711L310.744 481.659C310.808 483.883 310.424 486.097 309.614 488.169C308.805 490.241 307.586 492.128 306.031 493.718C304.476 495.308 302.617 496.568 300.564 497.422C298.512 498.277 296.309 498.708 294.086 498.691Z" fill="#D2C5F0"/>
</svg>
