<svg width="186" height="186" viewBox="0 0 186 186" fill="none" xmlns="http://www.w3.org/2000/svg">
<g clip-path="url(#clip0_1_9864)">
<path d="M182.949 92.8416C182.949 142.456 142.67 182.683 92.9745 182.683C43.2789 182.683 3 142.456 3 92.8416C3 43.2275 43.2789 3 92.9745 3C142.67 3 182.949 43.2275 182.949 92.8416Z" fill="#8776DD" stroke="#8776DD" stroke-width="6"/>
<path d="M35.5961 135.694C33.6955 132.904 31.9091 130 30.0086 127.172C26.8917 122.466 25.9034 116.943 24.8771 111.515C22.8674 99.5433 22.2868 87.3754 23.1476 75.2668C23.3756 71.0726 24.782 57.75 29.9325 55.7762C31.548 55.1689 36.3183 56.0608 38.2569 56.0608C43.7875 56.0608 49.261 56.3835 54.7916 56.4024C72.8467 56.4024 91.225 57.712 109.28 58.9266C116.046 59.382 122.983 59.5149 129.711 59.7996C132.6 59.9135 135.508 59.1164 137.313 61.1091C140.031 64.2405 140.525 73.1792 140.734 76.9559C141.133 83.9399 141.076 91.1137 140.829 98.0977C140.774 106.028 139.992 113.937 138.491 121.726C137.009 128.444 132.239 134.726 128.78 140.704C126.632 144.386 124.047 149.908 119.581 150.971C116.863 151.616 113.252 150.724 110.496 150.591C104.168 150.326 97.8388 149.889 91.491 149.643C76.8569 149.073 62.0136 150.459 48.6338 143.949C44.9848 142.184 37.6297 137.914 35.5961 135.694Z" fill="#98E4E8" stroke="#5848B4" stroke-miterlimit="10"/>
<path d="M29.7051 55.8919C40.8993 43.9926 56.1986 42.6071 71.783 43.2333C81.4758 43.6129 90.9595 44.2772 100.614 45.4539C109.088 46.3189 117.289 48.9365 124.694 53.14C127.577 54.9495 130.248 57.0757 132.657 59.4788C134.292 60.9591 140.906 64.8496 137.865 67.981C136.135 69.746 129.693 68.4175 127.754 68.3795C118.517 68.1897 109.319 69.2715 100.101 69.4613C90.5984 69.6511 80.8106 68.9679 71.2509 68.7212C65.8534 68.5884 60.4178 68.7211 55.0202 68.3795C47.4371 67.7912 33.5062 69.2146 29.7051 55.8919Z" fill="#3C2868"/>
<path d="M135.166 146.987L135.451 147.31C138.521 144.002 141.789 140.883 145.239 137.973C145.505 135.904 145.752 133.817 146.037 131.729C146.988 132.507 148.185 133.418 149.363 134.424C151.967 132.203 154.533 129.926 156.966 127.535C157.099 124.214 156.966 120.835 156.966 117.59C157.015 111.432 155.758 105.333 153.279 99.6936C154.627 99.6614 155.973 99.8342 157.27 100.206C155.867 98.7461 154.856 96.956 154.331 95.0019C153.806 93.0477 153.784 90.9928 154.267 89.0279C155.388 81.3037 157.897 73.8453 158.771 65.9504C159.303 61.3576 159.303 56.6699 153.355 56.8787C147.767 57.0685 143.301 60.4466 138.815 63.4072C135.737 65.4569 130.073 68.2847 128.381 71.3781C127.146 69.1956 122.68 67.2408 120.361 66.4817C112.17 63.8058 103.256 63.0657 94.8368 61.6613C87.3397 60.3208 79.7416 59.6224 72.1254 59.5737C69.2935 59.5737 67.7921 60.4087 65.6065 58.8335C62.4896 56.6131 59.0307 54.0889 55.5337 52.0203C52.5118 50.1225 49.623 46.3269 45.8599 46.9911C41.2416 47.7313 41.3746 53.4437 40.8425 57.1444C40.3004 61.8725 39.4369 66.5584 38.2577 71.1694C37.3867 73.4875 36.663 75.8581 36.0911 78.2672C35.673 81.038 36.2242 83.7899 35.749 86.6177C34.8178 92.1404 30.4085 93.9812 27.3106 98.1564C25.8366 100.324 24.6064 102.647 23.6426 105.083C23.7109 111.167 24.1042 117.242 24.8209 123.284C25.4284 125.28 26.1389 127.244 26.9495 129.167C28.4854 129.276 30.0104 129.504 31.5108 129.85C34.6966 130.75 37.9333 131.46 41.2036 131.976C51.2384 133.399 63.4779 141.028 68.7804 149.549C70.1258 148.711 71.326 147.66 72.3344 146.437C73.9689 147.082 74.235 149.075 75.3563 150.233C77.922 146.911 81.9512 143.382 86.2844 143.116C88.5651 142.964 90.8837 143.42 93.1073 143.325C93.0698 143.312 93.0389 143.285 93.0212 143.249C93.0034 143.214 93.0002 143.173 93.0123 143.135C94.5269 142.996 96.0528 143.047 97.5546 143.287C100.262 143.366 102.968 143.111 105.613 142.528C112.037 141.389 118.746 142.034 125.188 142.376C129.807 142.717 132.24 143.401 135.166 146.987Z" fill="#C4AAFF"/>
<path d="M41.0898 72.0418C42.5913 70.8082 43.5796 69.195 45.081 67.9614C47.3133 66.1117 49.9001 64.7361 52.6832 63.919C54.8878 63.3307 57.2064 62.9322 59.4871 62.5337C60.6162 62.2646 61.7677 62.0994 62.927 62.0402C63.9072 62.1248 64.8928 62.1248 65.8729 62.0402C65.2 61.2565 64.38 60.6117 63.4592 60.1424C62.4329 59.4782 61.5587 58.6621 60.4373 57.9788C58.0932 56.5223 55.6764 55.1858 53.1963 53.9745C50.8776 52.7599 48.1409 50.9759 45.4421 52.3992C42.7433 53.8226 42.7623 57.903 42.3822 60.3891C41.9641 63.8621 41.679 67.487 41.0898 72.0418Z" fill="white"/>
<path d="M135.66 71.1106C136.254 73.482 137.155 75.7659 138.34 77.9049C139.632 79.8027 141.59 81.4538 143.034 83.2947C145.657 86.578 147.919 90.4684 150.636 93.5429C150.636 93.1634 150.807 92.9546 150.845 92.613C151.427 92.6708 152.005 92.766 152.575 92.8977C152.157 91.6452 151.549 90.4116 151.112 89.1021C150.715 87.6727 150.669 86.1689 150.979 84.7181C151.511 80.5429 151.815 76.2728 152.499 72.1165C152.898 69.6494 154.818 66.6698 154.019 64.0318C152.936 60.4828 148.413 62.95 146.588 64.0318C143.148 66.2333 139.309 67.5996 135.66 71.1106Z" fill="white"/>
<path d="M145.086 138.085C145.188 136.038 145.099 133.986 144.82 131.955C143.678 132.958 142.864 134.28 142.483 135.751C141.874 137.876 141.133 139.964 140.582 142.09C142.052 140.774 143.553 139.439 145.086 138.085Z" fill="#8776DD"/>
<path d="M135.395 147.386C136.744 145.886 138.15 144.463 139.595 143.078C139.449 142.878 139.276 142.699 139.082 142.546C137.804 141.749 136.414 141.148 134.957 140.762C132.637 140.149 130.25 139.817 127.849 139.775C122.528 139.32 117.168 139.453 111.828 139.206C107.172 138.978 102.477 138.789 97.7828 138.58C93.9818 138.428 90.1807 139.32 86.4747 139.168C82.7686 139.016 78.6444 139.453 75.9456 142.375C74.8433 141.692 72.1446 138.58 70.8142 139.092C70.168 139.339 70.054 140.857 69.4078 141.142C68.7616 141.426 68.3815 140.99 67.8303 140.724C66.7656 140.067 65.8048 139.254 64.9795 138.314C63.7694 137.325 62.4494 136.478 61.0454 135.79C56.3494 132.862 51.2972 130.547 46.0121 128.901C40.8116 127.65 35.5164 126.831 30.1806 126.453C28.9453 126.339 27.3298 126.054 25.6953 125.902C26.1134 127.079 26.5696 128.218 27.0257 129.375C29.4014 129.546 31.7581 129.812 34.0957 130.04C36.0721 130.217 38.0341 130.527 39.9684 130.97C42.387 131.822 44.7271 132.883 46.9624 134.139C49.281 135.164 51.9038 135.866 54.2985 136.701C60.1522 138.769 64.2763 143.666 68.5906 147.955C69.1227 148.467 69.8259 149.948 70.4911 149.853C71.1563 149.758 71.8785 148.714 72.2966 148.392C73.684 147.31 74.4632 148.278 75.1664 149.948C75.8373 149.53 76.4345 149.004 76.9339 148.392C77.9861 147.416 79.1107 146.522 80.2979 145.716C81.5013 144.59 82.8423 143.621 84.289 142.831C86.1896 142.072 89.4965 142.736 91.6251 142.831C94.3708 143.323 97.1622 143.514 99.9495 143.4C101.622 143.172 103.237 142.432 104.891 142.091C106.476 141.854 108.077 141.739 109.68 141.749C114.377 141.603 119.077 141.877 123.725 142.565C125.948 142.701 128.155 143.031 130.32 143.552C131.599 144.085 132.77 144.843 133.779 145.792C134.347 146.292 134.887 146.824 135.395 147.386Z" fill="#8776DD"/>
<path d="M135.108 147.195C135.207 147.287 135.296 147.389 135.374 147.498C138.443 144.129 141.725 140.96 145.2 138.009C145.466 135.96 145.713 133.91 145.979 131.86C146.91 132.6 148.108 133.511 149.286 134.498C151.89 132.259 154.475 129.981 156.888 127.59C157.021 124.269 156.888 120.929 156.888 117.703C156.927 111.545 155.671 105.448 153.201 99.8062C154.544 99.7758 155.883 99.9485 157.173 100.318C155.779 98.8576 154.774 97.0699 154.253 95.1199C153.731 93.1698 153.71 91.12 154.19 89.1593C155.292 81.4162 157.801 73.9767 158.694 66.0818C159.207 61.4701 159.207 56.7824 153.258 56.9911C147.671 57.1809 143.204 60.5591 138.719 63.5197C135.64 65.5693 129.977 68.3971 128.285 71.4905C127.05 69.308 122.584 67.3534 120.284 66.5942C112.093 63.9183 103.179 63.1781 94.7596 61.7737C87.2309 60.4298 79.601 59.7314 71.9531 59.6861C69.1213 59.6861 67.6199 60.5212 65.4343 58.9649C62.3174 56.7255 58.8774 54.2013 55.3804 52.1327C52.3395 50.3298 49.4697 46.4393 45.7066 47.1225C41.0693 47.8437 41.2214 53.5751 40.6892 57.2569C40.1316 61.984 39.2618 66.6692 38.0855 71.2818C37.2291 73.6031 36.512 75.9732 35.9379 78.3797C35.5008 81.1505 36.0519 83.9213 35.5768 86.7301C34.6645 92.2528 30.2363 94.0936 27.1574 98.2688C25.6964 100.397 24.4788 102.683 23.5273 105.082C23.5862 111.166 23.9795 117.242 24.7057 123.282C25.2948 125.313 26.093 127.306 26.8723 129.279C28.3786 129.384 29.873 129.619 31.3385 129.981C34.5274 130.864 37.7634 131.568 41.0313 132.088C51.0852 133.511 63.3246 141.141 68.6272 149.662C69.9602 148.814 71.1582 147.771 72.1812 146.568C73.7966 147.195 74.0817 149.187 75.184 150.364C77.7498 147.043 81.7979 143.513 86.1122 143.247C88.3928 143.095 90.7115 143.551 92.9351 143.456C92.9179 143.431 92.9088 143.401 92.9088 143.371C92.9088 143.34 92.9179 143.31 92.9351 143.285C94.4485 143.13 95.9757 143.175 97.4774 143.418C100.191 143.498 102.904 143.243 105.555 142.659C111.96 141.52 118.668 142.166 125.13 142.507C129.749 142.83 132.181 143.57 135.108 147.195Z" stroke="#5848B4" stroke-miterlimit="10"/>
<path d="M94.7805 66.254C90.5051 65.6018 86.564 63.5607 83.5673 60.4466C80.0742 57.0777 75.5215 55.0191 70.6816 54.6203C73.1523 53.159 76.5163 54.032 79.2721 54.2787C83.2397 54.4671 87.0987 55.6343 90.5043 57.6759C95.4077 60.6175 100.216 66.5008 106.431 66.5767C103.015 64.5091 100.121 61.6843 97.9734 58.3211C95.6167 54.2977 93.9633 46.0612 99.3608 43.6699C96.2249 50.0846 105.291 54.4115 109.301 57.467C113.311 60.5225 120.457 62.3825 123.099 67.146C123.409 65.6187 123.209 64.0318 122.528 62.6292C125.607 65.1533 129.788 66.8613 131.784 70.5241C133.006 72.6611 133.914 74.9619 134.483 77.3563" fill="#C4AAFF"/>
<path d="M94.7805 66.254C90.5051 65.6018 86.564 63.5607 83.5673 60.4466C80.0742 57.0777 75.5215 55.0191 70.6816 54.6203C73.1523 53.159 76.5163 54.032 79.2721 54.2787C83.2397 54.4671 87.0987 55.6343 90.5043 57.6759C95.4077 60.6175 100.216 66.5008 106.431 66.5767C103.015 64.5091 100.121 61.6843 97.9734 58.3211C95.6167 54.2977 93.9633 46.0612 99.3608 43.6699C96.2249 50.0846 105.291 54.4115 109.301 57.467C113.311 60.5225 120.457 62.3825 123.099 67.146C123.409 65.6187 123.209 64.0318 122.528 62.6292C125.607 65.1533 129.788 66.8613 131.784 70.5241C133.006 72.6611 133.914 74.9619 134.483 77.3563" stroke="#5848B4" stroke-miterlimit="10"/>
<path d="M139.766 118.235C140.973 120.762 141.553 123.541 141.457 126.339C143.147 122.261 144 117.885 143.966 113.472C147.919 116.224 147.9 117.951 148.736 122.505C149.782 115.958 149.61 106.317 146.931 100.111C145.372 96.5052 141.039 92.7096 138.15 90.0526C134.207 86.6611 129.319 84.5552 124.143 84.0176C121.198 84.0549 118.333 84.9812 115.924 86.6748C113.516 88.3684 111.677 90.7501 110.649 93.5067C109.699 95.7841 109.281 99.2002 108.141 101.098L109.262 105.918C112.265 107.949 117.282 107.987 120.836 108.822C124.129 109.411 127.326 110.445 130.339 111.897C133 113.377 138.074 115.844 139.766 118.235Z" fill="#5848B4"/>
<path d="M69.1417 82.6688C64.0293 80.9038 57.8905 81.3213 52.626 81.8148C47.8367 82.2702 42.078 82.9914 38.1819 86.1039L37.4407 90.7346C33.3355 92.6324 30.9788 96.9214 28.6602 100.527C27.1207 102.881 24.574 105.936 23.7188 108.954C23.7188 109.789 23.7188 110.624 23.8138 111.478C26.2275 109.428 28.8122 107.682 31.1119 105.462C29.4962 108.5 28.5013 111.829 28.185 115.254C35.255 110.567 40.5766 104.38 48.1977 100.395C53.0631 97.8704 57.7004 97.7375 62.9839 97.6995C67.9634 97.6995 72.8668 94.2076 73.1328 88.9696C73.3138 87.6186 73.0131 86.2471 72.2835 85.0952C71.5538 83.9433 70.4417 83.0844 69.1417 82.6688Z" fill="#5848B4"/>
<path d="M129.181 95.7079C130.549 96.7517 129.694 100.661 129.181 102.142C128.74 103.385 127.982 104.492 126.982 105.354C125.983 106.216 124.775 106.803 123.479 107.057C119.074 107.842 114.559 107.784 110.175 106.886C106.374 106.336 102.744 105.311 99.0572 104.628C94.7546 103.932 90.808 101.821 87.844 98.6305C86.2914 97.1316 85.0059 95.3796 84.0429 93.4495C82.7125 90.0523 85.6773 88.4012 88.4711 87.8698C93.1999 87.2153 97.9964 87.2153 102.725 87.8698L116.884 89.1793C122.092 89.7297 125.57 93.0319 129.181 95.7079Z" fill="#98E4E8" stroke="#5848B4" stroke-miterlimit="10"/>
<path d="M76.7261 88.3623C78.6266 88.8747 79.2538 90.2601 78.1135 91.8353C76.9486 93.2707 75.5076 94.4586 73.8755 95.3289C72.2434 96.1992 70.4533 96.7342 68.6108 96.9025C65.1924 97.0923 61.7661 97.0923 58.3478 96.9025C54.6798 96.9025 51.2208 97.6996 47.4957 97.3959C41.1859 96.8835 34.401 96.0675 30.5619 90.4309C26.7228 84.7944 35.3323 80.2776 39.8745 79.3856C43.4006 78.9745 46.965 79.0192 50.4796 79.5185C54.6048 79.6478 58.7089 80.1625 62.7381 81.0557C67.5085 82.4411 71.5946 85.4966 76.7261 88.3623Z" fill="#98E4E8" stroke="#5848B4" stroke-miterlimit="10"/>
<path d="M68.8555 102.597C70.3189 102.996 71.0791 105.083 71.3642 106.393H70.8891C72.2575 108.518 73.6448 110.834 76.3436 111.46C74.8042 108.727 72.2764 106.431 74.4431 102.996C72.6013 102.654 70.7271 102.521 68.8555 102.597Z" fill="#3C2868"/>
<path d="M47.5517 81.3969C43.7506 80.5619 43.7506 88.4948 44.2448 90.4306C44.5888 91.7169 45.2332 92.9035 46.1252 93.8932C47.0172 94.8828 48.1312 95.6473 49.3762 96.124C52.8919 97.5589 56.7559 97.9156 60.4754 97.1488C61.8544 96.9535 63.1736 96.4578 64.3395 95.6969C65.5054 94.9361 66.4896 93.9286 67.2223 92.7458C68.3436 90.848 69.522 88.286 68.7808 86.1605C67.6214 82.8582 62.1099 82.2699 59.2781 81.8714C55.4132 81.1444 51.4628 80.9846 47.5517 81.3969Z" fill="#3C2868"/>
<path d="M99.7608 89.8051C99.7608 89.6723 99.6088 89.5015 99.8939 89.2168C98.773 90.4497 97.9776 91.9422 97.5794 93.5592C97.1812 95.1762 97.1928 96.8668 97.6132 98.4782C98.5096 101.126 100.415 103.315 102.916 104.57C107.205 105.756 111.68 106.123 116.105 105.652C120.914 105.272 126.52 100.167 124.069 95.0241C122.567 91.8737 117.189 91.665 114.281 91.2285C109.701 90.3555 104.911 88.9701 99.7608 89.8051Z" fill="#3C2868"/>
<path d="M29.5923 87.5088C45.3478 87.2051 61.4264 86.6737 77.1058 87.6036C74.1737 81.243 69.0655 76.1355 62.6997 73.1992C54.7934 69.5364 44.9296 72.7248 37.6315 76.6533C34.1195 78.425 31.3515 81.3842 29.8203 85.0036C29.6088 85.8208 29.5317 86.6669 29.5923 87.5088Z" fill="white" stroke="#5848B4" stroke-miterlimit="10"/>
<path d="M80.4883 92.7654C82.9668 89.4904 86.0033 86.6766 89.4588 84.4529C93.6718 81.6902 98.5967 80.2069 103.637 80.1828C105.689 80.0879 107.913 80.1828 109.928 80.1828C112.087 80.3087 114.23 80.6262 116.332 81.1317C119.71 81.9765 122.736 83.8624 124.98 86.5216C127.261 88.7345 128.846 91.564 129.541 94.6632C123.749 92.043 117.445 90.7463 111.087 90.8676C104.91 90.8676 98.6574 90.8675 92.4997 91.5128C88.4705 91.636 84.456 92.0547 80.4883 92.7654Z" fill="white" stroke="#5848B4" stroke-miterlimit="10" stroke-linecap="round"/>
<path d="M76.3443 76.8242C74.6718 75.4957 73.4745 73.7687 71.745 72.4592C69.6508 71.1249 67.3797 70.0901 64.998 69.3848" stroke="#5848B4" stroke-miterlimit="10" stroke-linecap="round"/>
<path d="M99.3223 75.0771C102.087 74.8779 104.863 74.8779 107.628 75.0771C110.954 75.0771 114.394 75.4188 117.719 75.7225" stroke="#5848B4" stroke-miterlimit="10" stroke-linecap="round"/>
<path d="M148.622 92.0254C147.634 89.1392 146.126 86.4573 144.174 84.1115C142.635 82.2136 139.86 80.3158 140.563 77.4121C141.698 74.0773 143.903 71.2091 146.835 69.2515C147.595 68.7391 148.584 67.8471 149.61 68.1128C151.339 68.5683 150.56 71.7566 150.484 73.3128C150.18 79.5757 148.736 85.9523 148.622 92.0254Z" fill="#5848B4"/>
<path d="M42.1543 70.8087C42.9797 69.5369 44.0217 68.4193 45.2332 67.5065C46.4919 66.4161 47.9244 65.5438 49.4714 64.9255C50.955 64.2838 52.4711 63.72 54.0137 63.2364C55.0019 62.9328 56.7885 63.2364 57.5297 62.5152C56.1043 58.9283 51.486 57.5429 49.1673 54.6582C49.0343 56.3473 48.7492 57.9984 48.5972 59.6685C48.6285 61.0952 48.4622 62.5194 48.103 63.9006" fill="#5848B4"/>
<path d="M74.2914 97.6995C71.7256 96.7505 63.6293 94.2644 62.8881 98.9141C62.413 102.292 67.2403 103.962 69.692 104.608C71.5926 105.025 75.2606 105.746 76.8191 104.361C79.7839 101.742 76.667 97.5856 73.8542 96.7695C71.4278 96.1917 68.9167 96.0567 66.4421 96.371" fill="#3C2868"/>
<path d="M138.17 119.943C138.911 116.451 137.581 112.484 134.654 111.27C130.207 109.372 123.726 113.168 119.126 113.642C113.203 114.223 107.247 114.407 101.299 114.192C95.6683 114.327 90.0347 114.061 84.4416 113.395C79.7662 112.636 74.7868 111.061 70.0165 111.232C67.3367 111.232 62.5284 113.3 62.8514 117.286C60.2667 122.847 65.3221 125.333 69.6934 126.111C77.7516 127.553 85.962 127.686 94.0583 129.204C102.725 130.836 111.942 134.101 120.989 132.146C126.805 130.874 136.421 127.952 138.17 119.943Z" fill="#98E4E8" stroke="#5848B4" stroke-miterlimit="10"/>
<path d="M134.008 117.57C131.956 114.268 127.489 116.071 124.638 117.039C122.915 117.746 121.117 118.256 119.279 118.557C117.72 118.728 116.276 118.424 114.699 118.557C105.278 119.674 95.7625 119.756 86.3235 118.804C83.5867 118.538 80.8689 118.367 78.1892 117.836C76.0306 117.351 73.8484 116.977 71.6513 116.716C69.7508 116.602 67.09 117.248 68.2494 119.62C71.6894 121.518 76.9728 121.518 81.3631 122.486C84.7461 123.283 87.958 122.846 91.36 123.321C96.1303 124.004 100.996 124.516 105.728 125.484C112.823 127.249 120.243 127.249 127.337 125.484C130.15 124.649 136.46 121.575 134.008 117.57Z" fill="#8776DD" stroke="#5848B4" stroke-miterlimit="10"/>
<path d="M69.8066 119.564C69.8543 119.228 69.9747 118.906 70.1595 118.622C70.3443 118.337 70.5891 118.096 70.8767 117.915C71.1644 117.734 71.488 117.618 71.8251 117.575C72.1622 117.532 72.5047 117.563 72.8286 117.666C73.221 117.713 73.5969 117.851 73.9268 118.068C74.2566 118.286 74.5314 118.577 74.7291 118.919C75.0908 119.488 75.2941 120.143 75.3183 120.816C74.0504 120.697 72.8041 120.41 71.6122 119.962C71.0285 119.758 70.4223 119.624 69.8066 119.564Z" fill="white"/>
<path d="M76.7051 120.892C77.1903 120.216 77.8384 119.675 78.5893 119.316C79.3401 118.958 80.1695 118.795 81.0003 118.842C82.5208 118.975 83.1099 120.057 83.8131 121.119C82.6124 121.239 81.3998 121.13 80.2401 120.797C79.0701 120.557 77.8605 120.589 76.7051 120.892Z" fill="white"/>
<path d="M85.5625 121.708C86.2291 120.833 87.198 120.238 88.2803 120.038C89.4966 119.867 92.0813 120.607 92.0813 122.069C90.3138 123.017 88.0332 121.936 85.5625 121.708Z" fill="white"/>
<path d="M94.1914 122.314C94.6285 122.087 95.0656 121.441 95.5978 121.157C96.184 120.807 96.8273 120.563 97.4983 120.435C98.223 120.399 98.937 120.621 99.5129 121.062C100.083 121.555 100.121 122.219 100.349 122.96C98.9546 123.008 97.5616 122.828 96.225 122.428C95.5028 122.219 94.7806 122.39 94.1914 122.314Z" fill="white"/>
<path d="M101.832 123.188C102.012 122.825 102.152 122.443 102.25 122.05C102.417 121.584 102.731 121.185 103.143 120.911C103.865 120.446 104.722 120.239 105.576 120.323C106.107 120.388 106.609 120.601 107.025 120.936C107.442 121.272 107.756 121.716 107.933 122.221C108.044 122.911 108.108 123.609 108.123 124.308C106.032 124.574 104.056 123.492 101.832 123.188Z" fill="white"/>
<path d="M109.984 124.422C110.083 123.472 110.287 122.537 110.593 121.632C110.786 121.277 111.058 120.969 111.387 120.732C111.716 120.496 112.094 120.336 112.493 120.266C114.622 119.677 115.268 122.315 115.667 123.834C114.577 124.249 113.411 124.43 112.246 124.365C111.492 124.327 110.736 124.347 109.984 124.422Z" fill="white"/>
<path d="M117.207 123.549C117.285 122.698 117.424 121.855 117.625 121.025C117.788 120.628 118.047 120.278 118.378 120.007C118.71 119.735 119.104 119.55 119.526 119.469C119.986 119.38 120.463 119.443 120.885 119.649C121.306 119.854 121.65 120.19 121.863 120.607C122.041 120.943 122.175 121.3 122.262 121.67C122.434 122.277 122.643 122.41 122.053 122.676C120.471 123.125 118.847 123.417 117.207 123.549Z" fill="#98E4E8"/>
<path d="M124.256 121.916C124.173 120.688 124.465 119.464 125.092 118.405C125.776 117.57 126.423 117.798 127.373 118.12C127.981 118.329 129.273 119.411 129.064 120.17C128.969 120.417 128.38 120.511 128.152 120.587C127.444 120.846 126.72 121.061 125.985 121.233C125.377 121.37 124.794 121.6 124.256 121.916Z" fill="#98E4E8"/>
<path d="M130.282 119.525C130.094 119.088 130.022 118.61 130.076 118.137C130.129 117.665 130.305 117.214 130.586 116.83C131.033 116.841 131.466 116.987 131.829 117.248C132.191 117.508 132.467 117.872 132.62 118.291C131.976 118.919 131.164 119.347 130.282 119.525Z" fill="white"/>
<path d="M124.848 123.225C125.531 122.803 126.295 122.525 127.09 122.409C127.736 122.219 128.326 121.783 128.991 121.631C129.15 121.852 129.259 122.104 129.312 122.371C129.364 122.638 129.359 122.913 129.296 123.177C129.233 123.442 129.114 123.69 128.946 123.904C128.779 124.119 128.567 124.295 128.326 124.421C127.555 124.914 126.656 125.171 125.741 125.161C124.848 124.99 125.19 123.605 124.848 123.225Z" fill="white"/>
<path d="M122.49 123.625C122.148 124.916 121.692 126.206 120.096 126.111C119.374 126.111 118.67 125.845 117.967 125.826C117.777 125.504 117.359 125.029 117.397 124.65C118.727 124.403 120.191 124.517 121.521 124.175" fill="white"/>
<path d="M130.89 122.524C130.89 121.993 130.757 121.575 131.08 121.177C131.55 120.713 132.133 120.379 132.772 120.209C132.826 120.869 132.681 121.53 132.354 122.107C132.21 122.351 131.978 122.53 131.706 122.608C131.433 122.686 131.141 122.656 130.89 122.524Z" fill="white"/>
<path d="M125.189 117.854C125.927 117.167 126.533 116.35 126.975 115.444C127.076 115.06 127.21 114.686 127.374 114.324C127.064 114.918 126.859 115.559 126.766 116.222C126.637 116.61 126.637 117.03 126.766 117.418C127 117.893 127.389 118.274 127.868 118.499C128.496 118.957 129.179 119.333 129.902 119.619C128.876 119.391 127.602 118.518 126.633 119.202C125.93 119.79 125.465 120.612 125.322 121.517C125.35 121.119 125.35 120.719 125.322 120.321C125.193 119.698 124.859 119.137 124.371 118.727C123.763 118.082 122.775 116.829 121.768 116.829C122.775 117.114 124.618 118.082 125.569 117.209" fill="white"/>
<path d="M117.587 118.443C118.608 117.521 119.435 116.405 120.019 115.16C120.228 114.667 120.304 114.079 120.552 113.623C120.138 114.439 119.862 115.318 119.734 116.223C119.573 116.762 119.573 117.336 119.734 117.874C120.043 118.518 120.568 119.035 121.217 119.336C122.072 119.969 123.013 120.48 124.011 120.854C122.604 120.569 120.856 119.355 119.525 120.303C118.58 121.113 117.948 122.228 117.739 123.454C117.832 122.915 117.876 122.369 117.872 121.822C117.689 120.974 117.236 120.208 116.579 119.639C115.743 118.766 114.375 117.153 113.025 117.153C114.394 117.533 116.826 118.842 118.252 117.646" fill="white"/>
<path d="M105.803 93.6389C106.825 92.7168 107.652 91.6006 108.236 90.3556C108.382 89.8328 108.56 89.3194 108.768 88.8184C108.347 89.631 108.07 90.5109 107.951 91.4184C107.799 91.9583 107.799 92.5295 107.951 93.0695C108.274 93.7106 108.802 94.2251 109.453 94.5308C110.308 95.1538 111.241 95.664 112.227 96.0491C110.84 95.7644 109.091 94.5498 107.761 95.4797C106.808 96.2914 106.175 97.4146 105.975 98.6491C106.057 98.1088 106.102 97.5635 106.108 97.017C105.93 96.1668 105.476 95.3993 104.815 94.8344C103.96 93.9425 102.611 92.3484 101.242 92.3294C102.63 92.709 105.138 94.0374 106.488 92.8417" fill="white"/>
<path d="M114.85 98.5354C115.585 97.8683 116.179 97.0619 116.599 96.1632C116.751 95.8215 116.789 95.4041 116.979 95.0625C116.673 95.6557 116.473 96.2981 116.39 96.9603C116.276 97.3443 116.276 97.753 116.39 98.137C116.612 98.6091 116.997 98.9862 117.473 99.1997C118.091 99.6578 118.769 100.028 119.488 100.3C118.461 100.092 117.207 99.2187 116.257 99.8829C115.569 100.465 115.111 101.272 114.964 102.16C115.025 101.777 115.057 101.39 115.06 101.003C114.938 100.387 114.609 99.8311 114.128 99.4275C113.52 98.7822 112.551 97.6435 111.562 97.5296C112.551 97.7953 114.356 98.7443 115.364 97.8902" fill="white"/>
<path d="M49.168 87.9453L49.301 88.0781C49.9615 88.6429 50.416 89.4105 50.5934 90.2606C50.5876 90.8071 50.5431 91.3525 50.4603 91.8927C50.6608 90.6582 51.294 89.535 52.2468 88.7234C53.5772 87.7934 55.3257 89.008 56.7131 89.2927C55.9097 89.0037 55.149 88.608 54.4515 88.1161C52.627 88.0212 50.8595 87.9643 49.168 87.9453Z" fill="white"/>
<path d="M59.2587 91.7987C59.9897 91.121 60.5834 90.3091 61.0072 89.4074C61.1592 89.0658 61.1972 88.6482 61.3873 88.3066C61.081 88.8999 60.8816 89.5423 60.7981 90.2045C60.684 90.5884 60.684 90.9973 60.7981 91.3812C61.0204 91.8534 61.4047 92.2304 61.8814 92.444C62.4988 92.9021 63.1768 93.2724 63.896 93.5447C62.8697 93.3359 61.6153 92.463 60.665 93.1462C59.9775 93.7283 59.5194 94.5353 59.3727 95.4235C59.4334 95.0341 59.4652 94.6409 59.4678 94.2468C59.3463 93.6311 59.0177 93.0754 58.5364 92.6717C57.9283 92.0265 56.959 90.8878 55.9707 90.7739C56.959 91.0396 58.7645 91.9885 59.7718 91.1345" fill="white"/>
<path d="M162.743 61.9266C159.575 54.1153 154.419 47.2657 147.786 42.0564C138.258 34.7468 127.031 29.9675 115.153 28.1644C104.367 26.5636 93.4444 26.0802 82.5589 26.722C71.8399 27.0636 63.1164 27.519 53.4806 32.2256C42.3434 37.6724 32.1185 46.8769 27.3672 57.6375C27.9064 56.9687 28.6058 56.4466 29.4008 56.1193C32.1756 55.0945 33.81 52.3237 36.6798 51.2799C41.6724 49.7007 46.821 48.6635 52.0362 48.1864C69.4262 45.7951 87.5004 45.6622 104.605 49.7805C115.761 52.4754 128.438 56.8215 135.565 65.4566C139.765 70.5427 140.392 75.9516 140.278 82.1005C140.069 94.4174 141.286 107.607 137.922 119.658C136.439 126.13 131.669 132.165 128.191 137.915C126.043 141.483 123.478 146.778 119.011 147.803C116.275 148.429 112.664 147.575 109.927 147.462C103.598 147.196 97.2501 146.778 90.9213 146.532C79.423 146.114 67.8107 146.816 56.8636 144.121C61.0233 147.176 65.8274 149.24 70.9086 150.156C81.1525 151.921 92.2137 150.612 102.572 150.46C122.565 150.175 142.274 152.643 153.886 134.708C161.108 123.549 163.788 111.934 164.396 99.1619C164.966 87.1677 167.19 73.4464 162.743 61.9266Z" fill="white" stroke="#5848B4" stroke-linecap="round" stroke-linejoin="round"/>
<path d="M169.261 79.8414L156.509 78.418H156.262C151.187 78.0005 146.303 87.1859 145.372 98.9145C144.497 109.77 147.272 118.993 151.738 120.626H152.176C152.399 120.69 152.628 120.734 152.86 120.758H153.259L164.472 122.011L169.261 79.8414Z" fill="white" stroke="#5848B4" stroke-linecap="round" stroke-linejoin="round"/>
<path d="M175.109 101.686C176.055 89.8906 172.692 79.998 167.596 79.5904C162.501 79.1828 157.603 88.4146 156.657 100.21C155.71 112.006 159.074 121.899 164.169 122.306C169.265 122.714 174.163 113.482 175.109 101.686Z" fill="white" stroke="#5848B4" stroke-linecap="round" stroke-linejoin="round"/>
</g>
<defs>
<clipPath id="clip0_1_9864">
<rect width="186" height="186" fill="white"/>
</clipPath>
</defs>
</svg>
