<svg width="186" height="186" viewBox="0 0 186 186" fill="none" xmlns="http://www.w3.org/2000/svg">
<g clip-path="url(#clip0_1_9809)">
<path d="M182.949 92.8416C182.949 142.456 142.67 182.683 92.9745 182.683C43.2789 182.683 3 142.456 3 92.8416C3 43.2275 43.2789 3 92.9745 3C142.67 3 182.949 43.2275 182.949 92.8416Z" fill="#E7FF2C" stroke="#8776DD" stroke-width="6"/>
<path d="M14.8047 111.326C17.5528 109.247 19.8863 106.672 21.6846 103.735C24.2124 99.5026 25.3337 94.758 28.2415 90.8106C31.1494 86.8631 35.7487 84.7755 36.6799 79.2529C37.1551 76.4441 36.5849 73.6732 37.022 70.9024C37.5964 68.4939 38.32 66.1235 39.1886 63.8046C40.3586 59.1915 41.2221 54.5063 41.7734 49.7796C42.3055 46.0978 42.1725 40.2905 46.7908 39.6453C50.5919 39.057 53.4237 42.8525 56.4645 44.6555C59.9615 46.7241 63.4205 49.2483 66.5374 51.4877C68.7231 53.0439 70.2055 52.2468 73.0563 52.2089C80.6725 52.2576 88.2706 52.956 95.7678 54.2964C104.244 55.7008 113.101 56.46 121.292 59.117C123.592 59.8761 128.077 61.8308 129.293 64.0133C131.004 60.9388 136.667 58.0921 139.746 56.0614C144.232 53.0818 148.698 49.7038 154.285 49.514C160.234 49.3052 160.215 53.9928 159.702 58.6045C158.809 66.4046 156.3 73.9389 155.198 81.682C154.717 83.6471 154.74 85.7015 155.265 87.6553C155.79 89.6092 156.799 91.3993 158.201 92.8602C156.904 92.4845 155.559 92.3054 154.209 92.3289C156.705 97.9527 157.993 104.036 157.991 110.187C157.991 117.779 158.809 126.224 154.837 132.961C154.209 129.488 149.629 126.376 147.063 124.288C146.018 132.012 145.448 139.718 142.578 147.062C141.134 144.101 138.264 142.071 136.173 139.471C133.246 135.941 130.833 135.201 126.214 134.954C119.753 134.612 113.044 133.967 106.639 135.106C103.994 135.69 101.288 135.945 98.5805 135.865C97.0788 135.622 95.5516 135.577 94.0382 135.732C94.0181 135.756 94.0071 135.786 94.0071 135.818C94.0071 135.849 94.0181 135.879 94.0382 135.903C91.8146 135.903 89.496 135.542 87.2153 135.694C82.9011 135.96 78.8719 139.49 76.3062 142.83C75.2419 141.558 74.8998 139.566 73.2843 139.034C72.2704 140.246 71.0709 141.29 69.7303 142.128C64.4278 133.607 52.1883 125.977 42.1345 124.573C38.8739 124.039 35.6446 123.329 32.4607 122.447C29.2826 121.804 26.0488 121.473 22.806 121.46C20.6964 121.347 18.6628 122.03 16.6102 121.973C18.5107 119.145 21.5136 116.279 21.8177 112.674C20.0692 112.806 18.0926 111.25 14.8047 111.326Z" fill="#C4AAFF"/>
<path d="M42.0586 64.6403C43.56 63.4067 44.5673 61.7935 46.0687 60.5599C48.3291 58.6988 50.9494 57.3227 53.7659 56.5176C55.9706 55.9292 58.2892 55.5497 60.5698 55.1322C61.7008 54.8727 62.8514 54.7076 64.0098 54.6387C64.9895 54.7331 65.976 54.7331 66.9557 54.6387C66.2828 53.855 65.4628 53.2103 64.542 52.7409C63.5157 52.0767 62.6414 51.2607 61.5201 50.5775C59.2775 49.1162 56.6357 47.8066 54.2791 46.573C51.9224 45.3394 49.2046 43.5745 46.5059 44.9979C43.8071 46.4212 43.8451 50.5015 43.465 52.9876C42.8948 56.4607 42.6098 59.9906 42.0586 64.6403Z" fill="white"/>
<path d="M136.574 63.6907C137.185 66.0566 138.085 68.3385 139.254 70.4849C140.565 72.3828 142.504 74.0338 143.967 75.8747C146.59 79.1579 148.852 83.0485 151.57 86.123C151.57 85.7624 151.741 85.5347 151.779 85.2121C152.368 85.2527 152.953 85.3415 153.527 85.4777C153.09 84.2251 152.501 82.9915 152.064 81.682C151.658 80.2605 151.612 78.7606 151.931 77.3171C152.463 73.1419 152.748 68.8717 153.432 64.7155C153.85 62.2483 155.751 59.2498 154.953 56.6119C153.888 53.0629 149.365 55.5301 147.54 56.6119C144.081 58.8513 140.242 60.1987 136.574 63.6907Z" fill="white"/>
<path d="M21.248 119.182C23.6237 117.683 28.356 118.803 31.1118 119.05C36.4415 119.426 41.7306 120.245 46.9243 121.498C52.2124 123.152 57.2699 125.466 61.9767 128.387C63.3767 129.082 64.6959 129.928 65.9107 130.911C66.7273 131.86 67.6895 132.673 68.7615 133.321C69.2937 133.587 69.8449 133.966 70.339 133.758C70.8332 133.549 71.0992 131.86 71.7264 131.689C72.9807 131.196 75.7556 134.289 76.8769 134.972C79.5757 132.069 83.5858 131.594 87.4059 131.765C91.2259 131.936 94.913 131.025 98.7141 131.177L112.759 131.803C118.081 132.05 123.459 131.917 128.762 132.372C131.168 132.413 133.562 132.744 135.889 133.359C137.342 133.753 138.731 134.354 140.013 135.143C140.412 135.447 140.659 135.978 141.058 136.282C141.704 133.606 142.655 131.063 143.396 128.444C143.801 126.984 144.611 125.668 145.733 124.648C146.202 129.6 146.062 134.59 145.315 139.508C145.389 141.809 145.139 144.109 144.574 146.34C143.738 148.238 142.218 145.828 141.286 144.879C140.355 143.93 139.5 142.981 138.53 142.203C137.162 141.064 136.098 139.698 134.729 138.578C133.729 137.623 132.564 136.858 131.289 136.32C129.118 135.8 126.905 135.47 124.675 135.333C120.034 134.644 115.34 134.371 110.65 134.517C109.046 134.503 107.444 134.624 105.86 134.877C104.188 135.2 102.591 135.94 100.919 136.168C98.125 136.291 95.3263 136.1 92.5753 135.599C90.4657 135.428 87.2158 134.764 85.2583 135.599C83.8082 136.383 82.4665 137.353 81.2671 138.483C80.0764 139.285 78.9515 140.179 77.9031 141.159C77.3923 141.773 76.7897 142.304 76.1167 142.734C75.4325 141.064 74.6343 140.077 73.2659 141.159C72.8478 141.482 72.0495 142.545 71.3653 142.639C70.6811 142.734 69.9779 141.254 69.4648 140.742C65.1506 136.453 61.0264 131.556 55.1727 129.488C52.759 128.652 50.1363 127.95 47.8366 126.926C45.5965 125.666 43.2498 124.605 40.8236 123.756C38.891 123.31 36.9282 123.005 34.951 122.845C31.454 122.485 27.8619 122.01 24.3269 121.972C22.6339 122.162 20.9203 122.04 19.2715 121.612C19.3122 121.356 19.4479 121.126 19.6516 120.966" fill="#8776DD"/>
<path d="M14.748 111.439C17.5011 109.366 19.8356 106.79 21.628 103.848C24.1557 99.6159 25.277 94.8713 28.2039 90.9238C31.1307 86.9764 35.692 84.8888 36.6233 79.3661C37.0984 76.5574 36.6233 73.7865 36.9654 71.0157C37.5398 68.6072 38.2634 66.2367 39.132 63.9178C40.3111 59.3068 41.1747 54.621 41.7167 49.8929C42.2489 46.2111 42.1158 40.4038 46.7341 39.7586C50.5352 39.1702 53.386 42.9659 56.4269 44.7688C59.9049 46.8375 63.3639 49.3615 66.4808 51.601C68.6664 53.1572 70.1678 52.3601 72.9996 52.3221C80.6471 52.3749 88.2765 53.0733 95.8062 54.4097C104.283 55.8141 113.139 56.5733 121.33 59.2303C123.649 59.9894 128.115 61.9441 129.351 64.1266C131.042 61.0521 136.706 58.2243 139.785 56.1747C144.27 53.1951 148.736 49.8171 154.324 49.6273C160.273 49.4185 160.272 54.1061 159.74 58.7178C158.866 66.5179 156.357 74.0522 155.236 81.7953C154.755 83.7604 154.778 85.8148 155.303 87.7686C155.828 89.7224 156.838 91.5126 158.239 92.9735C156.949 92.5971 155.61 92.418 154.267 92.4422C156.729 98.086 157.978 104.183 157.935 110.339C157.935 117.93 158.771 126.375 154.78 133.113C154.172 129.64 149.591 126.527 147.007 124.439C145.961 132.164 145.391 139.869 142.54 147.213C141.096 144.253 138.207 142.222 136.136 139.622C133.209 136.092 130.776 135.352 126.158 135.105C119.715 134.764 113.006 134.118 106.601 135.257C103.952 135.85 101.238 136.105 98.524 136.016C97.0222 135.773 95.495 135.729 93.9816 135.883C93.9748 135.918 93.9806 135.955 93.998 135.986C94.0154 136.017 94.0432 136.041 94.0766 136.054C91.853 136.149 89.5343 135.694 87.2537 135.845C82.9395 136.13 78.8913 139.641 76.3256 142.981C75.2803 141.729 74.9382 139.717 73.3037 139.091C72.3 140.312 71.0988 141.358 69.7497 142.184C64.4472 133.663 52.2077 126.034 42.1728 124.629C38.906 124.095 35.6704 123.386 32.4801 122.504C29.3069 121.869 26.0804 121.539 22.8444 121.517C20.7158 121.403 18.6821 122.105 16.6296 122.029C18.5301 119.201 21.5519 116.336 21.837 112.73C20.0125 112.92 18.036 111.382 14.748 111.439Z" stroke="#5848B4" stroke-miterlimit="10"/>
<path d="M95.6164 58.8713C91.3463 58.203 87.4102 56.1644 84.4032 53.0639C80.9076 49.6959 76.3575 47.6318 71.5176 47.2186C73.9693 45.7573 77.3522 46.6303 80.108 46.877C84.0736 47.077 87.9299 48.2433 91.3402 50.2741C96.2436 53.2157 101.033 59.099 107.267 59.1749C103.847 57.1127 100.952 54.2869 98.8093 50.9194C96.4336 46.896 94.7803 38.6784 100.197 36.2871C97.0609 42.6828 106.126 47.0098 110.137 50.0653C114.147 53.1208 121.293 54.9806 123.935 59.7442C124.238 58.2147 124.031 56.6283 123.345 55.2274C126.424 57.7515 130.624 59.4596 132.62 63.1224C133.833 65.2616 134.735 67.5619 135.3 69.9545" fill="#C4AAFF"/>
<path d="M95.6164 58.8713C91.3463 58.203 87.4102 56.1644 84.4032 53.0639C80.9076 49.6959 76.3575 47.6318 71.5176 47.2186C73.9693 45.7573 77.3522 46.6303 80.108 46.877C84.0736 47.077 87.9299 48.2433 91.3402 50.2741C96.2436 53.2157 101.033 59.099 107.267 59.1749C103.847 57.1127 100.952 54.2869 98.8093 50.9194C96.4336 46.896 94.7803 38.6784 100.197 36.2871C97.0609 42.6828 106.126 47.0098 110.137 50.0653C114.147 53.1208 121.293 54.9806 123.935 59.7442C124.238 58.2147 124.031 56.6283 123.345 55.2274C126.424 57.7515 130.624 59.4596 132.62 63.1224C133.833 65.2616 134.735 67.5619 135.3 69.9545" stroke="#5848B4" stroke-miterlimit="10"/>
<path d="M110.194 98.4977C113.196 100.547 118.214 100.566 121.768 101.401C125.061 101.99 128.258 103.024 131.271 104.476C134.007 105.975 139.082 108.442 140.773 110.852C141.991 113.369 142.572 116.145 142.465 118.937C144.16 114.867 145.02 110.498 144.992 106.089C148.927 108.822 148.908 110.568 149.763 115.104C150.808 108.556 150.618 98.9152 147.862 92.7093C146.285 89.1034 141.952 85.3268 139.063 82.6508C135.127 79.2624 130.244 77.1624 125.075 76.6348C122.128 76.6668 119.261 77.5911 116.851 79.2854C114.442 80.9797 112.604 83.3643 111.581 86.1239C110.631 88.4203 110.213 91.8174 109.072 93.7152" fill="#5848B4"/>
<path d="M38.3706 83.3715C34.2655 85.2693 31.9088 89.5395 29.5901 93.1453C27.5756 96.2578 23.7745 100.547 24.4207 104.361C26.9104 102.217 29.6282 100.338 32.0228 98.0986C30.3961 101.126 29.4005 104.451 29.096 107.872C36.147 103.204 41.4875 96.9979 49.1087 93.0125C53.9551 90.4884 58.6114 90.3745 63.8949 90.3176C68.8743 90.3176 73.7777 86.8255 74.0438 81.5875C74.2247 80.2366 73.9241 78.8651 73.1944 77.7132C72.4648 76.5613 71.3526 75.7023 70.0527 75.2867C64.9402 73.5218 58.7825 73.9393 53.518 74.4517C48.7476 74.8882 42.989 75.6094 39.0929 78.7218" fill="#5848B4"/>
<path d="M130.093 88.3623C131.481 89.4061 130.626 93.3157 130.093 94.796C129.653 96.0393 128.895 97.1465 127.895 98.0084C126.895 98.8703 125.688 99.4572 124.392 99.7113C119.987 100.496 115.474 100.445 111.088 99.5595C107.287 98.9902 103.657 97.9653 99.9508 97.3011C95.6559 96.5868 91.7192 94.4711 88.7566 91.2849C87.2106 89.7804 85.926 88.0295 84.9555 86.1039C83.6251 82.7068 86.609 81.0746 89.4028 80.5243C94.1251 79.8695 98.9155 79.8695 103.638 80.5243L117.797 81.8338C123.023 82.3272 126.501 85.6294 130.093 88.3623Z" fill="#E7FF2C" stroke="#5848B4" stroke-miterlimit="10"/>
<path d="M77.6566 81.0369C79.5571 81.5683 80.1652 82.9347 79.0439 84.5288C77.8861 85.9476 76.459 87.124 74.8445 87.9903C73.2301 88.8566 71.4601 89.396 69.6363 89.5771C66.2179 89.7669 62.7916 89.7669 59.3733 89.5771C55.7053 89.5771 52.2463 90.3742 48.5212 90.0706C42.2114 89.5771 35.4265 88.742 31.5874 83.1055C27.7483 77.4689 36.3578 72.9521 40.8811 72.0791C44.4121 71.6522 47.984 71.6904 51.5051 72.193C55.6241 72.3224 59.7218 72.8371 63.7446 73.7302C68.4389 75.0777 72.4681 78.0953 77.6566 81.0369Z" fill="#E7FF2C" stroke="#5848B4" stroke-miterlimit="10"/>
<path d="M69.7891 95.1955C71.2525 95.594 71.9937 97.6817 72.2978 98.9912H71.8227C73.191 101.117 74.5784 103.432 77.2582 104.077C75.7377 101.345 73.191 99.0481 75.3576 95.5941C73.5208 95.2645 71.6542 95.1309 69.7891 95.1955Z" fill="#3C2868"/>
<path d="M48.4832 73.9955C44.6821 73.1605 44.6821 81.0934 45.1572 83.0292C45.5046 84.3168 46.1524 85.504 47.0476 86.4936C47.9428 87.4832 49.06 88.2471 50.3077 88.7226C53.823 90.1586 57.6873 90.5154 61.4068 89.7474C62.7858 89.5521 64.105 89.0565 65.2709 88.2957C66.4369 87.5348 67.421 86.5273 68.1538 85.3445C68.8552 84.4139 69.3558 83.3483 69.6241 82.2149C69.8923 81.0814 69.9223 79.9047 69.7122 78.7591C68.5528 75.4568 63.0413 74.8685 60.1145 74.47C56.2808 73.7501 52.3628 73.5903 48.4832 73.9955Z" fill="#3C2868"/>
<path d="M100.672 82.4028C100.672 82.2699 100.539 82.0991 100.824 81.8145C99.6998 83.0456 98.9024 84.5379 98.5041 86.1556C98.1057 87.7732 98.119 89.4647 98.5429 91.0758C98.9775 92.3919 99.6703 93.6085 100.581 94.6544C101.491 95.7004 102.601 96.5548 103.846 97.1679C108.127 98.3634 112.597 98.7306 117.016 98.2497C121.825 97.8891 127.431 92.7649 124.98 87.6218C123.497 84.4714 118.1 84.2626 115.211 83.8261C110.63 82.9531 105.822 81.5867 100.672 82.4028Z" fill="#3C2868"/>
<path d="M30.524 80.1067C46.2795 79.803 62.3581 79.2716 78.0375 80.2205C75.1119 73.8509 70.0025 68.7352 63.6314 65.797C55.7252 62.1342 45.8424 65.3415 38.5633 69.251C35.0503 71.0215 32.2817 73.9811 30.752 77.6015C30.5192 78.4149 30.4418 79.2647 30.524 80.1067Z" fill="white" stroke="#5848B4" stroke-miterlimit="10"/>
<path d="M81.4004 85.3638C83.891 82.093 86.9329 79.2801 90.3899 77.0514C94.6015 74.2857 99.5274 72.8021 104.568 72.7812C106.621 72.7813 108.825 72.7813 110.859 72.8762C113.018 73.0021 115.161 73.3197 117.264 73.8251C120.643 74.6775 123.668 76.5696 125.911 79.2339C128.194 81.4424 129.774 84.2745 130.453 87.3755C124.673 84.711 118.365 83.3812 111.999 83.485C105.822 83.485 99.5886 83.4851 93.4309 84.1303C89.3959 84.2472 85.3749 84.6594 81.4004 85.3638Z" fill="white" stroke="#5848B4" stroke-miterlimit="10" stroke-linecap="round"/>
<path d="M77.2564 69.3842C75.6029 68.0368 74.4056 66.3098 72.6761 65.0192C70.5824 63.6669 68.3034 62.6249 65.9102 61.9258" stroke="#5848B4" stroke-miterlimit="10" stroke-linecap="round"/>
<path d="M100.254 67.5811C103.019 67.3818 105.794 67.3818 108.559 67.5811C111.926 67.6323 115.288 67.8541 118.632 68.2454" stroke="#5848B4" stroke-miterlimit="10" stroke-linecap="round"/>
<path d="M49.9453 80.3918C50.2389 81.0203 50.7061 81.5521 51.2918 81.9247C51.8776 82.2973 52.5578 82.4952 53.2523 82.4952C53.9468 82.4952 54.6269 82.2973 55.2127 81.9247C55.7985 81.5521 56.2656 81.0203 56.5592 80.3918C54.3546 80.2969 52.1499 80.4108 49.9453 80.3918Z" fill="#E7FF2C"/>
<path d="M59.8295 85.3081C60.8161 85.3081 61.616 84.5094 61.616 83.5242C61.616 82.5389 60.8161 81.7402 59.8295 81.7402C58.8428 81.7402 58.043 82.5389 58.043 83.5242C58.043 84.5094 58.8428 85.3081 59.8295 85.3081Z" fill="#E7FF2C"/>
<path d="M106.695 91.5893C108.721 91.5893 110.363 89.9494 110.363 87.9265C110.363 85.9036 108.721 84.2637 106.695 84.2637C104.67 84.2637 103.027 85.9036 103.027 87.9265C103.027 89.9494 104.67 91.5893 106.695 91.5893Z" fill="#E7FF2C"/>
<path d="M149.555 84.5679C148.557 81.688 147.044 79.0131 145.089 76.673C143.568 74.7751 140.793 72.8773 141.478 69.9736C142.624 66.6344 144.834 63.7617 147.768 61.794C148.51 61.2816 149.498 60.4085 150.543 60.6742C152.254 61.1107 151.494 64.2991 151.417 65.8553C151.113 72.1941 149.669 78.5518 149.555 84.5679Z" fill="#5848B4"/>
<path d="M43.0859 63.4062C43.9014 62.1321 44.9451 61.0191 46.1648 60.123C47.4197 59.0227 48.8529 58.1435 50.403 57.523C51.8866 56.8813 53.4027 56.3175 54.9453 55.8339C55.9336 55.5303 57.7011 55.8339 58.4613 55.1128C57.0359 51.5259 52.4176 50.1595 50.0989 47.2559C49.9659 48.9449 49.6808 50.596 49.5287 52.285C49.5527 53.7126 49.38 55.1366 49.0156 56.5171" fill="#5848B4"/>
<path d="M75.223 90.2611C72.6383 89.3122 64.561 86.8261 63.8198 91.4947C63.3446 94.8539 68.172 96.524 70.6237 97.0743C72.5242 97.4918 76.1923 98.2319 77.7507 96.8465C80.6966 94.2085 77.5987 90.0712 74.7668 89.2552C72.3469 88.6772 69.842 88.5422 67.3738 88.8567" fill="#3C2868"/>
<path d="M63.7809 109.885C63.4578 105.918 68.2662 103.926 70.946 103.831C75.7163 103.679 80.6957 105.254 85.3711 105.994C90.9637 106.666 96.5972 106.939 102.229 106.81C108.171 107.009 114.12 106.818 120.037 106.241C124.655 105.71 131.117 102.028 135.564 103.869C138.51 105.102 139.841 109.05 139.08 112.542C137.351 120.551 127.677 123.473 121.975 124.745C112.929 126.643 103.711 123.435 95.0258 121.803C86.9295 120.285 78.7381 120.171 70.6608 118.729C66.2516 117.932 61.1961 115.446 63.7809 109.885Z" fill="#E7FF2C" stroke="#5848B4" stroke-miterlimit="10"/>
<path d="M69.1784 112.274C68 109.902 70.7558 109.257 72.5804 109.39C74.7741 109.631 76.951 110.004 79.0992 110.509C81.798 111.022 84.5158 111.193 87.2335 111.458C96.6784 112.42 106.201 112.338 115.628 111.212C117.205 111.022 118.649 111.345 120.189 111.212C122.03 110.896 123.833 110.387 125.567 109.693C128.418 108.707 132.885 106.904 134.918 110.225C137.389 114.21 131.117 117.285 128.247 118.101C121.16 119.876 113.744 119.876 106.657 118.101C101.925 117.133 97.1544 116.62 92.27 115.956C88.887 115.482 85.6751 115.956 82.2922 115.102C77.9019 114.096 72.5994 114.267 69.1784 112.274Z" fill="#8776DD" stroke="#5848B4" stroke-miterlimit="10"/>
<path d="M70.7383 112.162C70.7833 111.826 70.9015 111.505 71.0843 111.22C71.267 110.935 71.5101 110.694 71.7963 110.513C72.0826 110.332 72.405 110.216 72.741 110.173C73.077 110.13 73.4184 110.161 73.7412 110.264C74.1367 110.3 74.5171 110.434 74.8486 110.652C75.1802 110.871 75.4526 111.168 75.6417 111.516C76.0247 112.077 76.236 112.736 76.2498 113.414C74.9501 113.302 73.6715 113.015 72.4488 112.56C71.8964 112.36 71.3222 112.227 70.7383 112.162Z" fill="white"/>
<path d="M77.6367 113.49C78.1207 112.813 78.7685 112.271 79.5197 111.912C80.2709 111.554 81.1009 111.391 81.932 111.44C83.4524 111.573 84.0416 112.655 84.7258 113.718C83.5325 113.835 82.3276 113.733 81.1717 113.414C80.0043 113.156 78.792 113.182 77.6367 113.49Z" fill="white"/>
<path d="M86.4941 114.325C87.1528 113.447 88.1146 112.845 89.1929 112.636C90.4092 112.465 92.994 113.205 92.994 114.666C91.2455 115.615 88.9458 114.533 86.4941 114.325Z" fill="white"/>
<path d="M95.1211 114.933C95.5582 114.705 95.9953 114.06 96.5275 113.775C97.1113 113.424 97.756 113.186 98.428 113.073C99.1569 113.025 99.8788 113.241 100.462 113.68C101.032 114.174 101.051 114.838 101.298 115.578C99.897 115.59 98.5039 115.372 97.1737 114.933C96.49 114.897 95.8048 114.897 95.1211 114.933Z" fill="white"/>
<path d="M102.762 115.785C102.946 115.426 103.08 115.043 103.161 114.647C103.347 114.191 103.656 113.797 104.054 113.508C104.778 113.05 105.635 112.849 106.487 112.939C107.022 112.999 107.529 113.209 107.949 113.545C108.37 113.881 108.686 114.329 108.862 114.837C108.974 115.521 109.037 116.212 109.053 116.905C106.943 117.19 104.985 116.089 102.762 115.785Z" fill="white"/>
<path d="M110.953 116.983C111.069 116.034 111.279 115.1 111.58 114.193C111.773 113.836 112.044 113.528 112.373 113.291C112.702 113.054 113.081 112.896 113.481 112.826C115.609 112.238 116.256 114.876 116.655 116.413C115.56 116.812 114.397 116.986 113.234 116.926C112.473 116.888 111.711 116.907 110.953 116.983Z" fill="white"/>
<path d="M118.082 116.147C118.151 115.303 118.285 114.465 118.481 113.641C118.644 113.243 118.903 112.891 119.234 112.616C119.566 112.342 119.96 112.153 120.382 112.066C120.844 111.983 121.321 112.05 121.743 112.259C122.164 112.467 122.506 112.806 122.719 113.224C122.895 113.561 123.029 113.918 123.119 114.287C123.271 114.875 123.499 115.008 122.909 115.293C121.33 115.725 119.714 116.011 118.082 116.147Z" fill="#E7FF2C"/>
<path d="M125.189 114.534C125.096 113.299 125.388 112.066 126.025 111.004C126.69 110.169 127.355 110.397 128.306 110.738C128.895 110.928 130.206 112.01 129.997 112.769C129.997 113.016 129.313 113.111 129.066 113.205C128.356 113.46 127.633 113.676 126.899 113.851C126.293 113.974 125.713 114.206 125.189 114.534Z" fill="#E7FF2C"/>
<path d="M131.214 112.123C131.021 111.687 130.948 111.208 131.001 110.734C131.055 110.261 131.233 109.81 131.518 109.428C131.961 109.443 132.39 109.59 132.749 109.85C133.108 110.111 133.381 110.473 133.532 110.889C132.898 111.519 132.091 111.949 131.214 112.123Z" fill="white"/>
<path d="M125.684 115.825C126.371 115.414 127.133 115.143 127.926 115.028C128.591 114.838 129.181 114.382 129.827 114.23C129.99 114.451 130.103 114.703 130.159 114.971C130.215 115.239 130.212 115.516 130.151 115.783C130.089 116.05 129.971 116.3 129.803 116.517C129.636 116.734 129.423 116.912 129.181 117.039C128.403 117.516 127.508 117.766 126.596 117.76C125.779 117.59 126.178 116.223 125.684 115.825Z" fill="white"/>
<path d="M123.42 116.223C123.059 117.513 122.622 118.804 121.006 118.709C120.303 118.709 119.6 118.443 118.897 118.424C118.688 118.102 118.289 117.646 118.327 117.247C119.657 117.001 121.121 117.115 122.451 116.773" fill="white"/>
<path d="M131.879 115.026C131.879 114.495 131.765 114.077 132.088 113.679C132.556 113.222 133.131 112.889 133.76 112.711C133.813 113.369 133.674 114.028 133.361 114.609C133.095 115.083 132.639 115.292 131.879 115.026Z" fill="white"/>
<path d="M126.177 110.454C126.92 109.775 127.521 108.956 127.944 108.043C128.115 107.683 128.153 107.265 128.343 106.924C128.04 107.518 127.841 108.16 127.754 108.822C127.63 109.217 127.63 109.641 127.754 110.036C127.988 110.5 128.369 110.874 128.837 111.099C129.468 111.563 130.158 111.94 130.89 112.219C129.864 112.01 128.571 111.118 127.602 111.801C126.907 112.393 126.448 113.215 126.31 114.117C126.338 113.718 126.338 113.319 126.31 112.921C126.169 112.303 125.836 111.745 125.36 111.327C124.732 110.681 123.744 109.429 122.756 109.429C123.763 109.695 125.588 110.662 126.557 109.789" fill="white"/>
<path d="M118.538 111.136C119.555 110.203 120.382 109.082 120.971 107.834C121.119 107.312 121.297 106.799 121.503 106.297C121.081 107.11 120.804 107.989 120.685 108.897C120.524 109.435 120.524 110.009 120.685 110.548C121.001 111.199 121.531 111.721 122.187 112.028C123.04 112.655 123.973 113.165 124.962 113.547C123.555 113.243 121.826 112.047 120.495 112.977C119.537 113.776 118.902 114.896 118.709 116.128C118.792 115.587 118.837 115.042 118.842 114.495C118.657 113.654 118.203 112.895 117.549 112.332C116.694 111.44 115.345 109.846 113.977 109.827C115.364 110.206 117.778 111.516 119.222 110.32" fill="white"/>
<path opacity="0.74" d="M93.9056 110.094C92.3258 109.226 90.9515 108.028 89.8764 106.583C87.7858 103.774 85.5621 99.3898 86.5884 95.7839C86.8718 94.8013 87.3773 93.8968 88.066 93.14C88.7547 92.3832 89.6081 91.7944 90.5606 91.419C95.0078 89.654 101.242 90.4511 105.917 90.6409C110.307 90.8307 119.221 91.8555 123.516 92.5387C127.811 93.2219 134.045 94.038 135.718 98.2322C136.839 101.022 134.33 104.134 131.916 105.823C124.314 111.365 109.851 114.022 100.538 112.314C98.2207 111.941 95.98 111.191 93.9056 110.094Z" fill="#FF6700"/>
<path opacity="0.74" d="M64.0872 107.549C65.7905 106.957 67.3462 106.005 68.6485 104.759C71.1952 102.349 74.1411 98.4203 73.742 94.6816C73.6251 93.6642 73.2787 92.6865 72.729 91.822C72.1793 90.9575 71.4404 90.2286 70.568 89.6903C66.4819 87.2231 60.2291 86.9574 55.5727 86.3311C51.2205 85.7618 42.269 85.2873 37.9167 85.1925C33.5645 85.0976 27.2927 84.8698 24.936 88.6465C23.3586 91.1896 25.2971 94.7005 27.3877 96.845C33.9446 103.601 47.7235 108.669 57.1882 108.555C59.528 108.607 61.8601 108.267 64.0872 107.549Z" fill="#FF6700"/>
<path d="M138.988 99.9212C140.337 98.8774 143.701 95.8788 140.109 96.1255C140.887 94.9777 141.525 93.7418 142.01 92.4437C141.82 92.4437 141.478 92.2919 141.231 92.3299C141.299 92.1258 141.35 91.9162 141.383 91.7035C140.858 91.8455 140.344 92.0229 139.843 92.2349C139.153 92.2449 138.469 92.3536 137.81 92.5576C138.058 92.1156 138.28 91.6593 138.475 91.1911C137.885 91.1414 137.292 91.206 136.726 91.3809C136.92 90.9731 137.092 90.5549 137.24 90.1283C135.879 90.1736 134.559 90.6085 133.438 91.3809C134.104 90.8496 135.016 90.2232 135.054 89.2933C132.431 88.8378 130.113 90.1284 127.604 90.5269C129.333 89.4262 131.177 87.9648 127.889 87.9838C125.817 87.9838 123.803 88.648 121.75 88.7808C119.952 88.6904 118.152 88.9416 116.448 89.521C117.132 88.9517 119.774 88.3065 119.736 87.2247C119.698 86.1429 117.835 86.6932 117.208 86.6743C115.211 86.5236 113.205 86.7886 111.316 87.4524C110.378 87.8606 109.42 88.2216 108.446 88.5342C107.667 88.743 106.85 88.7239 106.052 88.9517C106.945 88.5152 108.256 87.5662 108.104 86.4465C104.122 85.6231 100.006 85.6944 96.0547 86.6553C93.7541 87.2995 91.5104 88.131 89.3459 89.1414C86.324 90.6027 83.6443 93.1459 80.2043 93.4495C76.7833 92.5575 74.6357 89.6539 71.9179 87.6612C69.9612 86.2876 67.8881 85.0874 65.7222 84.0743C61.9987 82.4536 57.9604 81.6821 53.9008 81.8158C53.5397 82.8976 54.68 84.0364 55.4782 84.6247C54.737 84.2641 53.9388 84.1501 53.1975 83.8085C52.4563 83.4669 51.4491 82.7459 50.5558 82.2524C48.7925 81.2894 46.8538 80.6892 44.8542 80.4873C44.151 80.3924 42.4215 79.7282 42.2505 80.6012C42.0794 81.4742 44.5311 82.7458 45.1013 83.4101C43.5178 82.5627 41.7909 82.0157 40.0078 81.7968C38.0123 81.3224 36.2067 80.3165 34.0971 79.899C30.8662 79.3486 32.4247 81.0947 33.9451 82.4611C31.5314 81.6451 29.4788 79.975 26.7991 79.975C26.685 80.9049 27.4833 81.683 28.0534 82.3093C27.098 81.3699 25.9008 80.713 24.5944 80.4115C24.5944 80.848 24.7655 81.3414 24.8795 81.74C24.3543 81.4645 23.7792 81.2967 23.188 81.2465C23.188 81.702 23.4731 82.2144 23.6062 82.7079C23.0098 82.392 22.3691 82.168 21.7056 82.0436C21.2486 81.7524 20.7724 81.4925 20.2802 81.2655C20.2618 81.4739 20.2618 81.6835 20.2802 81.8918C20.0521 81.8918 19.672 81.8918 19.482 81.8918C19.7409 83.2529 20.162 84.5781 20.7363 85.8392C17.2393 84.9662 20.0521 88.4962 21.1924 89.7677C20.4821 89.2577 19.6344 88.9734 18.7597 88.9517C18.6647 90.4889 19.748 91.324 20.6603 92.3299C21.5725 93.3357 22.922 95.0627 24.1383 96.3342C23.3265 95.767 22.354 95.4744 21.3635 95.4992C21.7626 100.832 28.9657 101.515 32.4817 103.831C30.8092 103.28 28.6806 103.109 30.7902 104.893C33.4199 106.731 36.3931 108.022 39.5327 108.689C42.3674 109.553 45.2967 110.069 48.2562 110.226C49.1387 110.238 50.0211 110.194 50.8979 110.093C49.9286 110.245 48.9974 110.644 49.3965 111.574C49.7956 112.504 52.7035 112.086 53.5967 112.048C56.0674 112.048 58.6331 111.65 61.1038 111.365C64.8099 110.928 69.9413 110.663 72.5071 107.569C74.2936 105.349 74.4076 102.92 75.2249 100.377C75.795 98.7445 77.1254 97.7197 79.8242 97.416C82.4659 98.1751 83.6252 99.3137 83.8533 101.117C84.3094 103.774 83.8533 106.165 85.3167 108.708C87.2173 112.181 92.2537 113.301 95.8457 114.401C98.2214 115.104 100.692 115.844 103.106 116.299C103.98 116.489 106.755 117.324 107.325 116.527C107.895 115.73 107.04 115.142 106.109 114.838C106.959 115.075 107.822 115.265 108.693 115.407C111.635 115.768 114.609 115.768 117.55 115.407C120.765 115.278 123.921 114.496 126.825 113.111C129.2 111.726 127.053 111.517 125.323 111.783C129.124 110.093 136.403 110.644 137.696 105.463C136.725 105.266 135.717 105.393 134.826 105.823C136.232 104.761 137.525 103.489 138.931 102.464C140.337 101.439 141.269 100.984 141.44 99.4656C140.595 99.3765 139.744 99.5348 138.988 99.9212ZM68.1929 104.647C66.8906 105.893 65.3349 106.844 63.6316 107.436C61.3985 108.157 59.0597 108.497 56.7136 108.442C47.2109 108.556 33.47 103.489 26.9131 96.7327C24.8225 94.5882 22.8839 91.0393 24.4614 88.5342C26.818 84.7386 32.9948 84.9853 37.4231 85.0802C41.8513 85.175 50.7268 85.6495 55.0981 86.2188C59.7544 86.8451 66.0072 87.1108 70.0934 89.578C70.9693 90.1142 71.7119 90.8422 72.265 91.7068C72.8181 92.5714 73.1673 93.5502 73.2863 94.5693C73.7234 98.308 70.7776 102.236 68.2308 104.647H68.1929ZM132.298 105.747C124.696 111.289 110.233 113.946 100.939 112.238C98.6237 111.877 96.383 111.14 94.3063 110.055C92.7264 109.187 91.3523 107.99 90.2771 106.545C88.1865 103.736 85.9439 99.3518 86.9702 95.7459C87.2607 94.7617 87.7708 93.8558 88.462 93.0966C89.1533 92.3373 90.0078 91.7443 90.9614 91.3619C95.4086 89.616 101.623 90.413 106.318 90.6028C110.689 90.7736 119.622 91.8174 123.917 92.5006C128.212 93.1838 134.427 93.9999 136.099 98.1941C137.277 100.87 134.769 103.982 132.336 105.747H132.298Z" fill="white" stroke="#5848B4" stroke-linecap="round" stroke-linejoin="round"/>
<path d="M139.46 95.9542C143.262 94.6637 149.438 91.2096 153.543 92.0067C155.786 92.4432 158.314 95.6126 159.245 97.7002C159.492 98.1746 160.062 99.3893 159.872 99.9207C159.511 100.908 157.972 100.49 157.154 100.585C157.953 101.116 157.991 100.964 158.105 101.97C158.13 102.779 158.06 103.588 157.896 104.381C155.463 102.141 151.567 101.534 148.393 101.135C145.219 100.737 139.441 103.659 136.477 104.646" fill="white"/>
<path d="M139.46 95.9542C143.262 94.6637 149.438 91.2096 153.543 92.0067C155.786 92.4432 158.314 95.6126 159.245 97.7002C159.492 98.1746 160.062 99.3893 159.872 99.9207C159.511 100.908 157.972 100.49 157.154 100.585C157.953 101.116 157.991 100.964 158.105 101.97C158.13 102.779 158.06 103.588 157.896 104.381C155.463 102.141 151.567 101.534 148.393 101.135C145.219 100.737 139.441 103.659 136.477 104.646" stroke="#5848B4" stroke-linecap="round" stroke-linejoin="round"/>
</g>
<defs>
<clipPath id="clip0_1_9809">
<rect width="186" height="186" fill="white"/>
</clipPath>
</defs>
</svg>
