<svg width="189" height="189" viewBox="0 0 189 189" fill="none" xmlns="http://www.w3.org/2000/svg">
<g clip-path="url(#clip0_1_9668)">
<path d="M185.839 94.2482C185.839 144.638 144.915 185.496 94.4197 185.496C43.9248 185.496 3 144.638 3 94.2482C3 43.8584 43.9248 3 94.4197 3C144.915 3 185.839 43.8584 185.839 94.2482Z" fill="#87F77B" stroke="#8776DD" stroke-width="6"/>
<path d="M15.0352 112.993C17.8259 110.883 20.1958 108.269 22.022 105.287C24.5891 100.991 25.7278 96.1741 28.6809 92.1668C31.6339 88.1595 36.3047 86.0403 37.2504 80.434C37.733 77.5826 37.1539 74.7698 37.5978 71.957C38.1812 69.5121 38.916 67.1056 39.7981 64.7516C40.9863 60.0687 41.8632 55.3125 42.423 50.5142C42.9635 46.7766 42.8283 40.8813 47.5184 40.2263C51.3786 39.6291 54.2544 43.4821 57.3426 45.3124C60.8939 47.4123 64.4067 49.9748 67.572 52.2481C69.7916 53.8279 71.2971 53.0188 74.1922 52.9802C81.9263 53.0392 89.6418 53.7481 97.2567 55.0994C105.865 56.5251 114.859 57.2957 123.178 60.0122C125.513 60.7635 130.068 62.7479 131.303 64.9635C133.041 61.8424 138.792 58.9718 141.919 56.8911C146.474 53.8664 151.01 50.4564 156.684 50.2445C162.725 50.0326 162.706 54.7912 162.185 59.4728C161.278 67.391 158.73 75.0395 157.61 82.8999C157.122 84.8948 157.146 86.9804 157.679 88.9638C158.212 90.9472 159.237 92.7644 160.66 94.2475C159.344 93.8661 157.977 93.6843 156.607 93.7081C159.113 99.4362 160.389 105.625 160.351 111.876C160.351 119.582 161.181 128.155 157.147 134.995C156.51 131.469 151.859 128.309 149.253 126.19C148.192 134.031 147.613 141.853 144.698 149.309C143.231 146.304 140.317 144.242 138.194 141.603C135.221 138.019 132.77 137.268 128.08 137.018C121.518 136.671 114.705 136.016 108.2 137.172C105.516 137.774 102.766 138.033 100.017 137.942C98.4917 137.696 96.9407 137.65 95.4038 137.807C95.4038 137.807 95.4038 137.962 95.4038 137.981C93.1456 137.981 90.7909 137.615 88.4748 137.769C84.0935 138.058 80.0018 141.622 77.3962 145.013C76.3153 143.741 75.9679 141.699 74.3273 141.16C73.308 142.4 72.0881 143.461 70.7181 144.3C65.3331 135.669 52.9034 127.905 42.6932 126.479C39.382 125.937 36.1025 125.217 32.8691 124.321C29.6401 123.677 26.357 123.342 23.0643 123.32C20.9219 123.223 18.8567 123.917 16.7722 123.84C18.7023 120.969 21.7518 118.06 22.0606 114.4C20.3815 114.496 18.3742 112.935 15.0352 112.993Z" fill="#C4AAFF"/>
<path d="M42.7129 65.5996C44.2377 64.3473 45.2606 62.7097 46.7853 61.4767C49.0751 59.5744 51.7376 58.1701 54.6022 57.3538C56.8411 56.7566 59.1958 56.3713 61.5119 55.9474C62.6621 55.693 63.8299 55.5256 65.0053 55.4465C65.9997 55.5521 67.0026 55.5521 67.997 55.4465C67.3198 54.6445 66.4857 53.9889 65.5458 53.5199C64.5035 52.8264 63.6157 52.0173 62.4769 51.3044C60.1994 49.821 57.5166 48.4916 55.1233 47.2586C52.73 46.0255 49.97 44.1954 47.2293 45.6403C44.4886 47.0852 44.5272 51.2273 44.1411 53.7511C43.5621 57.296 43.2726 60.8988 42.7129 65.5996Z" fill="white"/>
<path d="M138.695 64.657C139.316 67.0587 140.23 69.3752 141.417 71.5541C142.749 73.4807 144.717 75.1568 146.203 77.0256C148.867 80.3778 151.164 84.3081 153.924 87.4291C153.924 87.0631 154.097 86.8318 154.136 86.5043C154.734 86.5456 155.328 86.6358 155.912 86.7741C155.468 85.5025 154.869 84.2502 154.426 82.9209C154.013 81.4778 153.967 79.9552 154.29 78.4898C154.831 74.2513 155.12 69.9165 155.815 65.6973C156.24 63.1927 158.17 60.168 157.359 57.49C156.278 53.8681 151.685 56.3919 149.832 57.49C146.319 59.7249 142.42 61.0928 138.695 64.657Z" fill="white"/>
<path d="M21.5776 120.969C23.9902 119.447 28.7961 120.584 31.5947 120.834C37.0088 121.214 42.3809 122.052 47.653 123.339C53.0257 125.003 58.1629 127.347 62.9393 130.313C64.3611 131.019 65.7008 131.878 66.9345 132.876C67.7583 133.844 68.7364 134.671 69.8297 135.322C70.3701 135.592 70.9298 135.977 71.4317 135.765C71.9335 135.554 72.2036 133.839 72.8406 133.666C74.1144 133.165 76.9324 136.305 78.0711 136.999C80.8119 134.051 84.8843 133.569 88.7638 133.743C92.6432 133.916 96.3876 132.991 100.248 133.165L114.511 133.781C119.915 134.032 125.377 133.897 130.762 134.359C133.206 134.41 135.635 134.746 138 135.361C139.473 135.769 140.883 136.378 142.188 137.172C142.594 137.48 142.845 138.02 143.25 138.328C143.906 135.631 144.871 133.049 145.624 130.39C146.014 128.866 146.839 127.487 147.998 126.422C148.474 131.448 148.331 136.515 147.573 141.507C147.648 143.842 147.395 146.177 146.821 148.442C145.971 150.369 144.427 147.922 143.482 146.959C142.536 145.996 141.667 145.032 140.683 144.242C139.293 143.087 138.213 141.699 136.823 140.563C135.81 139.594 134.626 138.823 133.329 138.289C131.126 137.746 128.878 137.404 126.613 137.268C121.898 136.579 117.132 136.302 112.369 136.44C110.74 136.436 109.114 136.558 107.505 136.806C105.806 137.153 104.185 137.885 102.487 138.135C99.6496 138.251 96.8085 138.057 94.0136 137.557C91.8712 137.365 88.5708 136.69 86.5828 137.461C85.1058 138.258 83.7426 139.25 82.5296 140.409C81.3207 141.215 80.1783 142.117 79.1133 143.106C78.5997 143.734 77.987 144.274 77.2991 144.705C76.6043 143.009 75.7937 142.008 74.404 143.106C73.9794 143.453 73.1687 144.512 72.4739 144.609C71.7791 144.705 71.065 143.202 70.5438 142.682C66.1625 138.328 61.9742 133.377 56.0296 131.277C53.5784 130.41 50.9149 129.697 48.5795 128.676C46.305 127.391 43.9219 126.308 41.4575 125.439C39.4948 124.986 37.5015 124.677 35.4935 124.514C31.9421 124.148 28.2943 123.667 24.7043 123.647C22.9838 123.834 21.2436 123.703 19.5703 123.262C19.6168 123.005 19.7536 122.773 19.9563 122.607" fill="#8776DD"/>
<path d="M14.9766 113.11C17.7692 111.001 20.1394 108.387 21.9635 105.403C24.5305 101.088 25.6692 96.2908 28.6415 92.2643C31.6139 88.2377 36.2461 86.1377 37.1918 80.5314C37.6744 77.68 37.1918 74.8672 37.5392 72.0544C38.1199 69.615 38.8548 67.2149 39.7395 64.8683C40.9353 60.1805 41.8123 55.4174 42.3645 50.6115C42.9049 46.874 42.7697 40.9787 47.4598 40.3237C51.32 39.7264 54.2152 43.5989 57.3033 45.4099C60.8353 47.5098 64.3481 50.0721 67.5134 52.3455C69.733 53.9446 71.2578 53.1162 74.1336 53.0969C81.8994 53.144 89.6474 53.8465 97.2947 55.1968C105.903 56.6225 114.897 57.3932 123.216 60.1097C125.57 60.861 130.106 62.8453 131.361 65.0609C133.078 61.9398 138.83 59.0693 141.957 56.9886C146.512 53.9639 151.047 50.5538 156.722 50.3419C162.763 50.1493 162.763 54.8886 162.223 59.5702C161.335 67.4884 158.787 75.137 157.648 82.9975C157.158 84.9922 157.181 87.0781 157.714 89.0619C158.247 91.0456 159.273 92.8628 160.698 94.3449C159.386 93.9717 158.028 93.7901 156.664 93.8055C159.162 99.5356 160.431 105.724 160.389 111.973C160.389 119.679 161.238 128.253 157.185 135.092C156.567 131.566 151.916 128.407 149.291 126.288C148.229 134.129 147.651 141.951 144.755 149.407C143.289 146.382 140.355 144.32 138.251 141.7C135.279 138.117 132.808 137.365 128.118 137.115C121.575 136.768 114.762 136.113 108.258 137.269C105.568 137.881 102.811 138.14 100.055 138.04C98.5296 137.793 96.9787 137.748 95.4418 137.905C95.4337 137.943 95.4388 137.983 95.4564 138.018C95.4739 138.053 95.5027 138.081 95.5382 138.098C93.28 138.098 90.9253 137.712 88.6092 137.866C84.228 138.155 80.1169 141.72 77.5113 145.11C76.4497 143.839 76.1023 141.797 74.4424 141.161C73.4231 142.401 72.2032 143.462 70.8332 144.301C65.4483 135.67 53.0185 127.906 42.8277 126.48C39.51 125.938 36.2241 125.218 32.9842 124.322C29.7618 123.678 26.4851 123.343 23.1987 123.321C21.037 123.321 18.9718 123.918 16.8873 123.841C18.8174 120.97 21.8862 118.061 22.1757 114.401C20.3229 114.613 18.3156 113.052 14.9766 113.11Z" stroke="#5848B4" stroke-miterlimit="10"/>
<path d="M97.1024 59.7427C92.7658 59.0643 88.7685 56.9949 85.7149 53.8474C82.1648 50.4283 77.5441 48.333 72.6289 47.9135C75.1187 46.4301 78.5542 47.3163 81.3529 47.5667C85.3801 47.7698 89.2963 48.9538 92.7597 51.0153C97.7393 54.0207 102.603 59.9739 108.934 60.0509C105.46 57.9575 102.52 55.089 100.345 51.6704C97.9323 47.586 96.2532 39.2439 101.754 36.8164C98.5693 43.309 107.776 47.7016 111.848 50.8034C115.921 53.9052 123.178 55.7932 125.861 60.6289C126.168 59.0763 125.958 57.4658 125.262 56.0436C128.389 58.606 132.655 60.34 134.681 64.0583C135.916 66.2351 136.832 68.5772 137.403 71.0132" fill="#C4AAFF"/>
<path d="M97.1024 59.7427C92.7658 59.0643 88.7685 56.9949 85.7149 53.8474C82.1648 50.4283 77.5441 48.333 72.6289 47.9135C75.1187 46.4301 78.5542 47.3163 81.3529 47.5667C85.3801 47.7698 89.2963 48.9538 92.7597 51.0153C97.7393 54.0207 102.603 59.9739 108.934 60.0509C105.46 57.9575 102.52 55.089 100.345 51.6704C97.9323 47.586 96.2532 39.2439 101.754 36.8164C98.5693 43.309 107.776 47.7016 111.848 50.8034C115.921 53.9052 123.178 55.7932 125.861 60.6289C126.168 59.0763 125.958 57.4658 125.262 56.0436C128.389 58.606 132.655 60.34 134.681 64.0583C135.916 66.2351 136.832 68.5772 137.403 71.0132" stroke="#5848B4" stroke-miterlimit="10"/>
<path d="M111.906 99.9696C114.956 102.05 120.051 102.07 123.661 102.917C127.005 103.515 130.251 104.565 133.311 106.038C136.09 107.56 141.244 110.065 142.961 112.512C144.198 115.066 144.788 117.884 144.679 120.719C146.401 116.587 147.274 112.151 147.246 107.676C151.241 110.45 151.222 112.223 152.091 116.827C153.152 110.18 152.959 100.393 150.161 94.1127C148.559 90.433 144.158 86.5991 141.224 83.8826C137.227 80.4428 132.269 78.311 127.019 77.7754C124.026 77.8053 121.112 78.7424 118.665 80.4628C116.218 82.1831 114.352 84.6054 113.315 87.4083C112.35 89.7202 111.926 93.188 110.768 95.1146" fill="#5848B4"/>
<path d="M38.9675 84.6146C34.7985 86.5411 32.4052 90.8952 30.0505 94.5365C28.0047 97.6961 24.1445 102.05 24.8007 105.923C27.3291 103.745 30.0891 101.838 32.521 99.5648C30.8691 102.638 29.8579 106.013 29.5487 109.487C36.7093 104.747 42.1328 98.4667 49.8725 94.4209C54.7942 91.8393 59.5229 91.7237 64.8885 91.6659C69.9453 91.6659 74.925 88.1402 75.1952 82.8036C75.3981 81.4321 75.1004 80.0335 74.3563 78.8629C73.6123 77.6923 72.4715 76.8276 71.142 76.4266C65.9501 74.6349 59.6966 75.0394 54.3503 75.5596C49.5058 76.0027 43.6576 76.7348 39.701 79.8944" fill="#5848B4"/>
<path d="M132.113 89.6444C133.522 90.704 132.653 94.6535 132.113 96.1562C131.665 97.4184 130.896 98.5424 129.88 99.4173C128.865 100.292 127.639 100.888 126.323 101.146C121.85 101.953 117.265 101.9 112.812 100.992C108.952 100.414 105.265 99.3736 101.502 98.6993C98.2796 98.0589 95.2417 96.7076 92.6103 94.7442C89.9788 92.7809 87.8202 90.2551 86.2926 87.3518C84.9415 83.8839 87.9718 82.2271 90.809 81.6684C95.6048 81.0037 100.47 81.0037 105.265 81.6684L119.644 82.9978C124.933 83.5758 128.465 86.9279 132.113 89.6444Z" fill="#E7FF2C" stroke="#5848B4" stroke-miterlimit="10"/>
<path d="M78.8642 82.2455C80.7942 82.7849 81.4118 84.172 80.2731 85.7903C79.0973 87.2306 77.648 88.4247 76.0084 89.3042C74.3689 90.1837 72.5714 90.7312 70.7192 90.9151C67.248 91.1174 63.7679 91.1174 60.2967 90.9151C56.5716 90.9151 53.0589 91.7241 49.2759 91.4352C42.8681 90.915 35.9777 90.0866 32.0789 84.3454C28.1801 78.6042 36.9234 74.0382 41.517 73.1519C45.103 72.7185 48.7304 72.7574 52.3062 73.2675C56.4892 73.3989 60.6506 73.9214 64.7359 74.8281C69.5032 76.1574 73.595 79.2593 78.8642 82.2455Z" fill="#E7FF2C" stroke="#5848B4" stroke-miterlimit="10"/>
<path d="M70.873 96.6182C72.3592 97.0227 73.112 99.142 73.4208 100.471H72.9383C74.3279 102.61 75.7368 104.96 78.4583 105.615C76.9142 102.841 74.3279 100.51 76.5282 97.0228C74.6641 96.6778 72.7673 96.5421 70.873 96.6182Z" fill="#3C2868"/>
<path d="M49.2374 75.0987C45.3773 74.2702 45.3773 82.3041 45.8598 84.2885C46.214 85.595 46.8723 86.7995 47.7813 87.8039C48.6902 88.8083 49.824 89.5841 51.0903 90.0682C54.6557 91.5446 58.5858 91.9073 62.362 91.1085C63.7607 90.9124 65.0994 90.4122 66.2833 89.6432C67.4672 88.8743 68.4676 87.8553 69.2138 86.6581C70.3526 84.8279 71.5492 82.1114 70.7964 79.9537C69.6191 76.6014 64.0219 76.1005 61.0495 75.5996C57.1561 74.872 53.1786 74.7033 49.2374 75.0987Z" fill="#3C2868"/>
<path d="M102.237 83.6517C102.237 83.4975 102.102 83.3241 102.391 83.0352C101.25 84.2849 100.44 85.7999 100.036 87.442C99.6314 89.0842 99.6449 90.8013 100.075 92.4369C100.517 93.7729 101.22 95.0079 102.145 96.0697C103.069 97.1315 104.196 97.9988 105.46 98.6212C109.806 99.8443 114.348 100.217 118.836 99.7194C123.719 99.3533 129.413 94.1708 126.923 88.9305C125.417 85.7324 119.936 85.5204 117.002 85.0773C112.351 84.1911 107.468 82.804 102.237 83.6517Z" fill="#3C2868"/>
<path d="M30.9971 81.301C46.9975 80.9927 63.326 80.4533 79.2492 81.4166C76.2781 74.9504 71.0893 69.7573 64.6192 66.7745C56.5901 63.0562 46.5536 66.3121 39.1614 70.2809C35.5979 72.0836 32.7879 75.0864 31.2287 78.7579C30.9923 79.5836 30.9137 80.4463 30.9971 81.301Z" fill="white" stroke="#5848B4" stroke-miterlimit="10"/>
<path d="M82.6641 86.6385C85.1934 83.318 88.2826 80.4626 91.7933 78.2C96.0703 75.3924 101.073 73.8864 106.192 73.8652C108.276 73.8652 110.515 73.8653 112.58 73.9617C114.773 74.0894 116.95 74.4118 119.085 74.9249C122.517 75.7902 125.589 77.711 127.867 80.4157C130.185 82.6576 131.79 85.5326 132.48 88.6806C126.606 85.9845 120.202 84.635 113.738 84.7312C107.466 84.7312 101.135 84.7312 94.8815 85.3863C90.7839 85.5049 86.7004 85.9234 82.6641 86.6385Z" fill="white" stroke="#5848B4" stroke-miterlimit="10" stroke-linecap="round"/>
<path d="M78.4581 70.4739C76.779 69.106 75.563 67.3528 73.8066 66.0427C71.6804 64.6698 69.366 63.6121 66.9355 62.9023" stroke="#5848B4" stroke-miterlimit="10" stroke-linecap="round"/>
<path d="M101.812 68.5853C104.62 68.383 107.439 68.383 110.247 68.5853C113.666 68.6373 117.08 68.8624 120.476 69.2597" stroke="#5848B4" stroke-miterlimit="10" stroke-linecap="round"/>
<path d="M50.7227 81.6097C51.0372 82.2365 51.5227 82.7617 52.1234 83.1249C52.724 83.488 53.4153 83.6742 54.1174 83.6621C54.8196 83.65 55.504 83.4401 56.0918 83.0565C56.6795 82.6729 57.1467 82.1313 57.4394 81.4941C55.2005 81.4941 52.9616 81.6097 50.7227 81.6097Z" fill="#E7FF2C"/>
<path d="M60.7596 86.6005C61.7616 86.6005 62.5739 85.7897 62.5739 84.7895C62.5739 83.7893 61.7616 82.9785 60.7596 82.9785C59.7576 82.9785 58.9453 83.7893 58.9453 84.7895C58.9453 85.7897 59.7576 86.6005 60.7596 86.6005Z" fill="#E7FF2C"/>
<path d="M108.354 92.9776C110.411 92.9776 112.079 91.3129 112.079 89.2593C112.079 87.2058 110.411 85.541 108.354 85.541C106.297 85.541 104.629 87.2058 104.629 89.2593C104.629 91.3129 106.297 92.9776 108.354 92.9776Z" fill="#E7FF2C"/>
<path d="M151.878 85.8877C150.864 82.9642 149.327 80.2486 147.342 77.873C145.798 75.9464 142.98 74.0199 143.675 71.0723C144.839 67.6825 147.083 64.7663 150.063 62.7687C150.816 62.2485 151.82 61.3623 152.881 61.632C154.618 62.0751 153.846 65.331 153.769 66.9108C153.46 73.2685 151.993 79.7226 151.878 85.8877Z" fill="#5848B4"/>
<path d="M43.7539 64.3482C44.5871 63.0588 45.6463 61.9298 46.8806 61.0153C48.155 59.8983 49.6105 59.0057 51.1847 58.3759C52.6883 57.7223 54.2285 57.1562 55.7976 56.6805C56.8013 56.3529 58.5962 56.6804 59.3683 55.9291C57.9207 52.2878 53.2306 50.9008 50.8759 47.9531C50.7408 49.6678 50.4513 51.3438 50.2969 53.0585C50.3212 54.5076 50.1458 55.9532 49.7758 57.3547" fill="#5848B4"/>
<path d="M76.393 91.6482C73.7681 90.7042 65.5652 88.161 64.8125 92.9004C64.3299 96.3104 69.2323 98.0058 71.7221 98.5645C73.6522 99.0077 77.3773 99.7398 78.9599 98.3334C81.9516 95.6554 78.8055 91.4555 75.9297 90.627C73.4723 90.0372 70.9268 89.9066 68.4217 90.2417" fill="#3C2868"/>
<path d="M64.7723 111.53C64.4442 107.504 69.3273 105.481 72.0487 105.385C76.8932 105.231 81.95 106.83 86.6981 107.581C92.3777 108.263 98.0987 108.54 103.818 108.409C109.852 108.611 115.894 108.417 121.903 107.831C126.593 107.292 133.155 103.554 137.672 105.442C140.663 106.675 142.014 110.702 141.242 114.247C139.486 122.358 129.662 125.344 123.871 126.616C114.684 128.542 105.323 125.286 96.5028 123.629C88.2807 122.107 79.962 121.972 71.7592 120.508C67.2814 119.699 62.1474 117.175 64.7723 111.53Z" fill="#E7FF2C" stroke="#5848B4" stroke-miterlimit="10"/>
<path d="M70.2551 113.958C69.0584 111.549 71.857 110.894 73.7099 111.029C75.9377 111.274 78.1485 111.653 80.3301 112.166C83.0708 112.686 85.8308 112.859 88.5909 113.129C98.1826 114.106 107.853 114.022 117.426 112.879C119.028 112.686 120.495 113.014 122.058 112.879C123.93 112.566 125.762 112.05 127.521 111.337C130.416 110.336 134.951 108.505 137.017 111.877C139.526 115.923 133.156 119.044 130.242 119.872C123.045 121.674 115.513 121.674 108.316 119.872C103.51 118.89 98.6659 118.369 93.7056 117.695C90.2701 117.213 87.0082 117.695 83.5727 116.828C79.1142 115.807 73.7292 116 70.2551 113.958Z" fill="#8776DD" stroke="#5848B4" stroke-miterlimit="10"/>
<path d="M71.8379 113.841C71.8836 113.5 72.0036 113.174 72.1892 112.885C72.3749 112.596 72.6217 112.351 72.9124 112.167C73.2031 111.983 73.5305 111.866 73.8718 111.822C74.213 111.778 74.5597 111.81 74.8875 111.914C75.2868 111.959 75.6699 112.098 76.0053 112.319C76.3408 112.54 76.6191 112.837 76.8175 113.186C77.2065 113.754 77.4211 114.424 77.4351 115.112C76.1152 114.998 74.8167 114.706 73.575 114.245C73.0115 114.051 72.4294 113.915 71.8379 113.841Z" fill="white"/>
<path d="M78.8438 115.209C79.3304 114.516 79.9869 113.959 80.7506 113.591C81.5142 113.224 82.3595 113.057 83.2058 113.109C84.7498 113.244 85.3482 114.361 86.043 115.421C84.8311 115.54 83.6075 115.436 82.4337 115.112C81.2474 114.849 80.0142 114.882 78.8438 115.209Z" fill="white"/>
<path d="M87.8381 116.038C88.507 115.147 89.4838 114.535 90.5788 114.323C91.8141 114.15 94.439 114.92 94.439 116.384C92.6633 117.348 90.3279 116.269 87.8381 116.038Z" fill="white"/>
<path d="M96.6016 116.654C97.0455 116.404 97.4894 115.768 98.0298 115.46C98.6266 115.112 99.2798 114.87 99.9599 114.747C100.699 114.707 101.429 114.925 102.025 115.363C102.604 115.864 102.623 116.558 102.874 117.29C101.459 117.33 100.045 117.148 98.6861 116.751C97.9935 116.682 97.2976 116.649 96.6016 116.654Z" fill="white"/>
<path d="M104.359 117.541C104.543 117.168 104.68 116.773 104.765 116.366C104.954 115.909 105.268 115.515 105.672 115.229C106.408 114.767 107.276 114.557 108.142 114.632C108.686 114.693 109.201 114.906 109.628 115.247C110.055 115.588 110.376 116.043 110.555 116.559C110.668 117.253 110.732 117.955 110.748 118.658C108.606 118.947 106.618 117.83 104.359 117.541Z" fill="white"/>
<path d="M112.68 118.754C112.795 117.785 113.009 116.83 113.317 115.903C113.512 115.543 113.788 115.232 114.122 114.995C114.457 114.758 114.842 114.601 115.247 114.535C117.408 113.938 118.065 116.597 118.47 118.157C117.361 118.571 116.178 118.749 114.996 118.677C114.223 118.637 113.448 118.662 112.68 118.754Z" fill="white"/>
<path d="M119.916 117.908C119.987 117.045 120.122 116.188 120.321 115.345C120.487 114.941 120.749 114.584 121.086 114.305C121.423 114.026 121.823 113.834 122.251 113.746C122.721 113.664 123.204 113.734 123.631 113.946C124.058 114.157 124.407 114.499 124.625 114.921C124.8 115.265 124.936 115.627 125.031 116C125.185 116.598 125.417 116.732 124.818 117.021C123.213 117.458 121.573 117.754 119.916 117.908Z" fill="#E7FF2C"/>
<path d="M127.135 116.172C127.039 114.925 127.336 113.679 127.984 112.608C128.659 111.741 129.335 111.972 130.3 112.319C130.898 112.531 132.23 113.629 132.018 114.38C132.018 114.631 131.323 114.727 131.072 114.823C130.351 115.082 129.617 115.301 128.872 115.478C128.256 115.604 127.667 115.839 127.135 116.172Z" fill="#E7FF2C"/>
<path d="M133.252 113.802C133.057 113.36 132.983 112.873 133.037 112.393C133.091 111.912 133.272 111.454 133.561 111.066C134.014 111.083 134.451 111.235 134.816 111.503C135.181 111.771 135.456 112.143 135.607 112.569C134.961 113.203 134.142 113.632 133.252 113.802Z" fill="white"/>
<path d="M127.637 117.56C128.335 117.143 129.109 116.868 129.914 116.751C130.59 116.558 131.188 116.096 131.844 115.941C132.01 116.165 132.125 116.422 132.182 116.694C132.238 116.966 132.235 117.247 132.173 117.518C132.111 117.789 131.991 118.043 131.82 118.263C131.65 118.483 131.435 118.664 131.188 118.793C130.399 119.277 129.489 119.53 128.563 119.525C127.733 119.351 128.139 117.964 127.637 117.56Z" fill="white"/>
<path d="M125.339 117.965C124.973 119.275 124.529 120.585 122.888 120.489C122.174 120.489 121.46 120.219 120.746 120.2C120.533 119.872 120.128 119.41 120.167 119.024C121.518 118.755 123.004 118.87 124.355 118.543" fill="white"/>
<path d="M133.93 116.77C133.93 116.231 133.814 115.807 134.142 115.402C134.616 114.932 135.2 114.588 135.841 114.4C135.896 115.068 135.755 115.738 135.435 116.327C135.165 116.809 134.702 117.021 133.93 116.77Z" fill="white"/>
<path d="M128.138 112.107C128.897 111.422 129.508 110.589 129.933 109.66C130.107 109.294 130.146 108.87 130.339 108.523C130.03 109.127 129.828 109.778 129.74 110.45C129.614 110.851 129.614 111.282 129.74 111.683C129.977 112.159 130.363 112.545 130.84 112.781C131.485 113.239 132.186 113.615 132.925 113.899C131.883 113.687 130.57 112.781 129.586 113.475C128.88 114.075 128.414 114.91 128.273 115.825C128.303 115.421 128.303 115.015 128.273 114.611C128.13 113.984 127.792 113.418 127.308 112.993C126.671 112.338 125.668 111.066 124.664 111.066C125.687 111.336 127.54 112.319 128.524 111.432" fill="white"/>
<path d="M120.378 112.724C121.412 111.777 122.251 110.638 122.849 109.371C123 108.848 123.18 108.333 123.389 107.83C122.957 108.647 122.676 109.534 122.559 110.45C122.396 110.997 122.396 111.58 122.559 112.126C122.88 112.787 123.418 113.318 124.084 113.629C124.951 114.265 125.898 114.783 126.902 115.17C125.474 114.862 123.717 113.648 122.366 114.592C121.393 115.404 120.748 116.54 120.552 117.791C120.636 117.249 120.681 116.701 120.687 116.153C120.499 115.293 120.039 114.516 119.375 113.937C118.506 113.032 117.136 111.414 115.746 111.394C117.155 111.78 119.606 113.109 121.073 111.895" fill="white"/>
<path d="M30.707 79.9525C49.313 79.8176 67.8804 77.2552 86.6795 78.2185C97.7503 78.8453 108.769 80.1904 119.665 82.2451C123.986 83.0329 128.249 84.1143 132.422 85.4817C136.488 86.9786 140.442 88.762 144.254 90.8184C151.261 94.3284 157.419 99.318 162.3 105.441C162.011 99.8733 162.821 91.9551 159.617 86.9267C155.757 80.9158 149.04 77.602 142.594 74.9819C127.407 68.9903 111.412 65.2892 95.1332 64.0003C90.6554 63.5958 86.1969 63.0756 81.6227 62.6517C72.5523 61.5536 63.3823 61.5536 54.312 62.6517C51.3253 63.0808 48.3809 63.7642 45.5108 64.694C42.4227 65.7151 37.7904 66.4472 35.5322 68.7591C32.0774 72.2654 32.0002 77.525 30.707 79.9525Z" fill="#E7FF2C" stroke="#5848B4" stroke-miterlimit="10"/>
<path d="M160.853 108.697C164.404 115.46 172.125 118.87 179.382 119.929C177.998 122.402 176.811 124.978 175.83 127.636C175.483 128.657 174.942 132.433 174.035 133.069C173.128 133.704 168.245 132.202 167.184 131.546C160.988 128.021 160.583 118.619 160.853 108.697Z" fill="#3C2868" stroke="#5848B4" stroke-miterlimit="10"/>
<path d="M42.8672 68.875C43.3883 70.6282 42.5005 72.9594 43.2146 74.6548C43.6972 72.7282 44.6622 70.8979 45.1447 68.875C45.6801 71.1718 46.0032 73.5128 46.1098 75.8685C46.6309 74.8282 47.3643 73.9419 47.8662 72.9015C48.368 71.8612 48.6768 70.6282 49.2365 69.5493C49.6576 68.4877 50.1542 67.4576 50.7226 66.4668" stroke="#5848B4" stroke-width="0.5" stroke-linecap="round" stroke-linejoin="round"/>
<path d="M50.4336 75.7145C51.9774 72.292 53.3116 68.7792 54.4289 65.1953C56.7643 68.509 57.4205 72.2852 59.0804 75.8301" stroke="#5848B4" stroke-width="0.5" stroke-linecap="round" stroke-linejoin="round"/>
<path d="M52.3633 71.7269C53.5784 71.8647 54.8072 71.8258 56.0112 71.6113" stroke="#5848B4" stroke-width="0.5" stroke-linecap="round" stroke-linejoin="round"/>
<path d="M67.978 66.3892C67.978 64.7324 65.8935 63.8654 64.4267 64.2315C61.8983 64.8865 61.5894 69.8571 61.7438 71.9378C61.7438 73.0359 61.8404 74.1148 62.9405 74.5772C63.4773 74.7782 64.0614 74.8179 64.6205 74.6912C65.1796 74.5645 65.6893 74.277 66.0865 73.8643C67.4183 72.5543 66.9744 70.8397 67.5148 69.5874C67.6307 71.3708 67.6307 73.1598 67.5148 74.9432" stroke="#5848B4" stroke-width="0.5" stroke-linecap="round" stroke-linejoin="round"/>
<path d="M64.2148 69.5687C65.3924 69.6767 66.5789 69.6379 67.7469 69.4531" stroke="#5848B4" stroke-width="0.5" stroke-linecap="round" stroke-linejoin="round"/>
<path d="M71.1444 74.6745C71.1444 71.2837 70.9514 67.8543 71.1444 64.5021C72.3021 65.6506 73.361 66.8945 74.3097 68.2203C74.8694 69.1451 75.1589 70.1469 75.7187 71.1295C77.282 68.8561 78.5173 66.5057 80.2157 64.3672C80.3508 66.8139 80.2158 69.28 80.1193 71.7267C80.2155 72.5937 80.1829 73.4702 80.0227 74.3277" stroke="#5848B4" stroke-width="0.5" stroke-linecap="round" stroke-linejoin="round"/>
<path d="M84.3242 74.7709C85.2507 71.8617 83.7452 68.259 84.6716 65.3691" stroke="#5848B4" stroke-width="0.5" stroke-linecap="round" stroke-linejoin="round"/>
<path d="M97.5078 67.1797C98.1721 70.189 98.4446 73.2713 98.3184 76.3502C98.8395 74.4236 100.113 72.4971 100.77 70.5705C101.021 69.8384 101.252 69.0677 101.561 68.3934C102.54 71.1694 103.245 74.0344 103.665 76.9475C104.939 74.0383 104.977 70.8594 105.923 67.9888" stroke="#5848B4" stroke-width="0.5" stroke-linecap="round" stroke-linejoin="round"/>
<path d="M107.854 77.3898C109.108 74.6155 109.784 71.61 110.826 68.6816C112.332 71.8733 113.622 75.1624 114.686 78.5265" stroke="#5848B4" stroke-width="0.5" stroke-linecap="round" stroke-linejoin="round"/>
<path d="M109.436 74.6736C110.693 74.5786 111.958 74.6892 113.18 75.0011" stroke="#5848B4" stroke-width="0.5" stroke-linecap="round" stroke-linejoin="round"/>
<path d="M122.85 73.5373C122.901 73.1946 122.882 72.845 122.794 72.5097C122.707 72.1744 122.552 71.8604 122.339 71.5866C122.126 71.3129 121.859 71.0852 121.556 70.9171C121.252 70.749 120.918 70.6442 120.572 70.6089C117.889 70.3777 117.156 73.7685 117.388 75.8492C117.716 79.1052 123.409 79.7024 123.178 75.9648V79.9913" stroke="#5848B4" stroke-width="0.5" stroke-linecap="round" stroke-linejoin="round"/>
<path d="M123.061 76.2532C122.289 75.945 121.44 75.7137 120.688 75.3477" stroke="#5848B4" stroke-width="0.5" stroke-linecap="round" stroke-linejoin="round"/>
<path d="M126.922 80.8966C127.125 77.9267 127.125 74.9465 126.922 71.9766C127.868 73.6912 129.643 74.8857 130.029 76.87C130.435 75.6473 130.959 74.4667 131.593 73.3445C132.326 76.2921 131.708 79.6829 131.708 82.7076" stroke="#5848B4" stroke-width="0.5" stroke-linecap="round" stroke-linejoin="round"/>
<path d="M136.359 82.9387V75.2324" stroke="#5848B4" stroke-width="0.5" stroke-linecap="round" stroke-linejoin="round"/>
<path d="M144.428 79.3164C144.621 81.243 144.833 83.1696 144.987 85.0961C144.994 85.656 145.072 86.2127 145.219 86.753C145.595 85.5516 146.176 84.4241 146.937 83.42C147.467 85.2125 148.112 86.9693 148.867 88.6796C149.414 86.9206 149.687 85.0883 149.678 83.2466C149.769 82.7641 149.807 82.2733 149.793 81.7825" stroke="#5848B4" stroke-width="0.5" stroke-linecap="round" stroke-linejoin="round"/>
<path d="M151.801 91.7821C151.955 89.6628 153.036 87.5436 153.287 85.4051C153.292 84.7479 153.41 84.0963 153.634 83.4785C153.71 85.9218 153.968 88.356 154.406 90.7609C154.522 91.782 154.677 92.8801 154.87 93.8627" stroke="#5848B4" stroke-width="0.5" stroke-linecap="round" stroke-linejoin="round"/>
</g>
<defs>
<clipPath id="clip0_1_9668">
<rect width="189" height="189" fill="white"/>
</clipPath>
</defs>
</svg>
