<svg width="689" height="381" viewBox="0 0 689 381" fill="none" xmlns="http://www.w3.org/2000/svg">
<mask id="path-1-inside-1_9_14872" fill="white">
<path d="M610.315 0.828793C632.817 0.828793 656.569 -3.92406 672.071 9.3337V10.0844C694.073 29.0955 688.322 75.6226 688.322 99.6367C689.87 163.075 687.783 226.549 682.072 289.748C676.821 336.775 688.822 373.047 622.316 376.799C478.802 384.804 332.288 376.799 187.775 376.799C126.769 376.799 33.26 399.562 9.25771 335.025C-14.7446 270.487 15.5083 204.698 15.5083 141.161C16.7584 107.892 -3.49341 50.6079 24.5093 25.5933C46.0113 6.8323 89.7653 9.3337 116.768 9.3337C168.273 8.83341 219.278 6.58209 270.783 6.58209C385.294 6.58209 495.054 0.828793 610.315 0.828793Z"/>
</mask>
<path d="M610.315 0.828793C632.817 0.828793 656.569 -3.92406 672.071 9.3337V10.0844C694.073 29.0955 688.322 75.6226 688.322 99.6367C689.87 163.075 687.783 226.549 682.072 289.748C676.821 336.775 688.822 373.047 622.316 376.799C478.802 384.804 332.288 376.799 187.775 376.799C126.769 376.799 33.26 399.562 9.25771 335.025C-14.7446 270.487 15.5083 204.698 15.5083 141.161C16.7584 107.892 -3.49341 50.6079 24.5093 25.5933C46.0113 6.8323 89.7653 9.3337 116.768 9.3337C168.273 8.83341 219.278 6.58209 270.783 6.58209C385.294 6.58209 495.054 0.828793 610.315 0.828793Z" fill="#C4AAFF"/>
<path d="M672.071 9.3337H679.071V6.10955L676.621 4.01396L672.071 9.3337ZM116.768 9.3337V16.3337H116.802L116.836 16.3334L116.768 9.3337ZM24.5093 25.5933L19.9071 20.3188L19.8763 20.3456L19.8459 20.3729L24.5093 25.5933ZM15.5083 141.161L8.5132 140.898L8.50826 141.03V141.161H15.5083ZM622.316 376.799L622.706 383.788L622.71 383.788L622.316 376.799ZM682.072 289.748L689.028 290.525L689.037 290.451L689.043 290.378L682.072 289.748ZM688.322 99.6367H681.322V99.7221L681.324 99.8074L688.322 99.6367ZM672.071 10.0844H665.071V13.2871L667.494 15.381L672.071 10.0844ZM676.621 4.01396C667.119 -4.1127 655.423 -6.38793 644.125 -6.88368C638.451 -7.13264 632.623 -6.93919 626.982 -6.70043C621.248 -6.45777 615.75 -6.17121 610.315 -6.17121V7.82879C616.131 7.82879 622.04 7.52125 627.574 7.28705C633.199 7.04896 638.497 6.88281 643.511 7.10286C653.59 7.54511 661.522 9.52235 667.521 14.6534L676.621 4.01396ZM610.315 -6.17121C552.581 -6.17121 496.237 -4.73025 440.088 -3.29226C383.913 -1.85358 327.934 -0.417907 270.783 -0.417907V13.5821C328.142 13.5821 384.299 12.1411 440.447 10.7031C496.621 9.26449 552.788 7.82879 610.315 7.82879V-6.17121ZM270.783 -0.417907C219.44 -0.417907 167.678 1.83886 116.7 2.33403L116.836 16.3334C168.867 15.828 219.116 13.5821 270.783 13.5821V-0.417907ZM116.768 2.3337C103.609 2.3337 85.3368 1.69698 67.8714 3.46366C50.5628 5.21449 32.376 9.43944 19.9071 20.3188L29.1114 30.8678C38.1446 22.9861 52.5858 19.0813 69.2804 17.3926C85.8182 15.7197 102.924 16.3337 116.768 16.3337V2.3337ZM19.8459 20.3729C3.14404 35.2925 1.58182 59.0813 2.99133 80.7363C3.71154 91.8011 5.29082 103.159 6.55664 113.441C7.84738 123.925 8.8018 133.218 8.5132 140.898L22.5033 141.424C22.8398 132.47 21.7315 122.126 20.4517 111.73C19.147 101.133 17.6479 90.3685 16.9618 79.8269C15.5586 58.2691 17.8718 40.9087 29.1726 30.8137L19.8459 20.3729ZM8.50826 141.161C8.50826 172.286 1.1364 203.41 -3.54971 236.743C-8.15917 269.531 -9.92385 303.53 2.69677 337.465L15.8187 332.584C4.43698 301.981 5.79758 270.818 10.314 238.692C14.7537 207.112 22.5083 173.573 22.5083 141.161H8.50826ZM2.69677 337.465C16.1805 373.72 49.322 384.662 84.1518 387.096C101.657 388.32 120.218 387.461 137.964 386.333C155.895 385.194 172.816 383.799 187.775 383.799V369.799C172.23 369.799 154.585 371.249 137.076 372.361C119.381 373.486 101.626 374.283 85.1279 373.13C51.9513 370.812 26.3372 360.867 15.8187 332.584L2.69677 337.465ZM187.775 383.799C331.739 383.799 478.964 391.806 622.706 383.788L621.926 369.81C478.641 377.802 332.837 369.799 187.775 369.799V383.799ZM622.71 383.788C639.876 382.819 652.788 379.725 662.397 374.332C672.254 368.801 678.176 361.11 681.693 352.029C685.094 343.246 686.201 333.255 686.858 323.114C687.537 312.632 687.738 302.083 689.028 290.525L675.115 288.971C673.78 300.926 673.513 312.547 672.887 322.209C672.239 332.213 671.205 340.342 668.637 346.974C666.184 353.309 662.309 358.328 655.546 362.123C648.537 366.056 638.009 368.902 621.922 369.81L622.71 383.788ZM689.043 290.378C694.779 226.913 696.875 163.171 695.32 99.4659L681.324 99.8074C682.866 162.978 680.788 226.185 675.1 289.118L689.043 290.378ZM695.322 99.6367C695.322 88.5143 696.761 69.7429 695.427 52.4459C694.094 35.1799 689.908 16.2454 676.647 4.78773L667.494 15.381C676.236 22.9345 680.175 36.7691 681.468 53.523C682.759 70.2458 681.322 86.745 681.322 99.6367H695.322ZM679.071 10.0844V9.3337H665.071V10.0844H679.071Z" fill="#8776DD" mask="url(#path-1-inside-1_9_14872)"/>
</svg>
