<svg width="2243" height="958" viewBox="0 0 2243 958" fill="none" xmlns="http://www.w3.org/2000/svg">
<path d="M2243 479.192L1236.21 475.414L2219.95 398.799L2195.9 340.793L1228.94 461.304L2120.05 266.608L2058.22 213.971L1212.56 448.668L1936.01 152.258L1841.6 109.459L1188.39 438.572L1683.3 65.4527L1564.26 36.1048L1158.52 431.902L1383.21 13.4354L1249.57 0L1125.47 429.166L1060.98 0.634928L923.994 4.24071L1091.89 430.663L743.688 28.1172L614.864 48.4977L1060.85 436.221L458.228 93.5386L348.457 128.946L1034.77 445.376L228.485 191.42L146.964 238.851L1015.88 457.322L73.8377 313.522L27.4474 369.004L1005.82 471.126L7.29983 449.546L0 508.415L927.078 487.368L18.5231 552.53L40.6784 610.709L973.98 500.403L92.3243 664.553L146.489 718.718L1024.18 506.815L259.655 783.52L347.746 828.725L1046.85 517.531L499.363 876.878L613.97 909.314L1075.68 524.985L791.52 936.702L922.917 953.642L1108.24 528.568L1111.23 958H1248.49L1141.95 527.933L1431.84 938.913L1563.24 922.005L1173.79 523.23L1726.19 881.158L1840.83 848.753L1201.13 514.827L1969.53 789.571L2057.68 744.381L1221.68 503.366L2141.46 671.788L2195.7 617.638L1233.8 489.868L2227.34 537.786L2243 479.192ZM1127.35 480.564L1126 481.348L1124.17 481.936L1122.04 482.265L1119.76 482.328L1117.55 482.1L1115.56 481.614L1114.01 480.901L1113.21 480.211L1112.68 479.208V478.549L1113.32 477.609L1114.56 476.786L1116.29 476.151L1118.39 475.759L1120.65 475.641L1122.9 475.806L1124.92 476.245L1126.6 476.911L1127.73 477.758L1128.28 478.706L1128.15 479.686L1127.35 480.564Z" fill="url(#paint0_radial_2_2619)"/>
<defs>
<radialGradient id="paint0_radial_2_2619" cx="0" cy="0" r="1" gradientUnits="userSpaceOnUse" gradientTransform="translate(1121.5 479) rotate(88.3182) scale(479.206 1121.56)">
<stop stop-color="white"/>
<stop offset="1" stop-color="#ECE4FF"/>
</radialGradient>
</defs>
</svg>
