<svg width="590" height="613" viewBox="0 0 590 613" fill="none" xmlns="http://www.w3.org/2000/svg">
<path d="M358.231 11.791C364.262 17.1902 373.533 20.0697 378.034 27.0887C384.605 37.3472 382.174 54.9849 382.174 66.5932C382.174 81.4411 385.775 112.127 375.874 123.915C365.972 135.703 351.84 126.974 339.149 131.654C326.457 136.333 322.677 151.541 322.947 163.42C323.487 192.395 324.657 251.787 316.106 280.403C308.185 306.859 250.307 296.691 229.245 296.691H156.605C139.953 296.691 120.601 299.03 104.399 294.351C85.4064 288.862 101.788 234.239 103.229 218.312C105.389 194.375 107.279 169.898 109.169 146.322C110.07 134.893 110.97 128.324 101.158 124.275C87.1166 118.426 66.3239 123.195 51.022 121.395C43.1461 120.551 35.6442 117.597 29.3074 112.846C22.9706 108.094 18.0337 101.721 15.0173 94.3992C8.35649 77.1217 8.8065 48.3258 26.9888 40.4069C45.1712 32.488 66.774 33.4779 86.0364 31.4082C106.216 28.6759 126.528 27.0239 146.884 26.459C176.138 25.7391 205.572 27.1789 234.825 24.7492C272.81 20.6098 310.525 22.6795 358.231 11.791Z" fill="#8776DD"/>
<path d="M417.818 43.8262C410.439 55.2062 404.768 67.6062 400.986 80.6309C399.765 86.1905 400.235 91.9883 402.336 97.2786C405.307 104.298 407.197 102.228 412.868 107.537C424.389 118.335 420.969 143.082 420.879 156.67C420.879 177.547 420.879 198.334 421.869 219.121C423.219 244.228 424.749 268.704 428.26 293.271C429.88 304.519 440.321 332.235 420.069 332.325C423.399 327.646 428.35 323.326 424.029 318.377C414.157 326.747 405.52 336.472 398.376 347.263C393.875 358.871 396.756 381.188 398.376 393.516C401.256 412.324 419.528 407.735 436.451 407.735C463.904 407.735 491.358 407.735 518.721 406.655C530.243 406.115 554.726 409.714 564.267 403.325C586.77 388.747 560.487 340.334 551.845 331.335C531.773 309.288 519.441 294.26 519.261 263.845C518.121 220.847 519.504 177.819 523.402 134.983C525.742 113.836 533.033 116.446 549.325 110.147C563.547 104.568 576.959 84.3205 572.458 68.9327C564.987 43.2863 516.921 47.1556 496.218 47.0656C478.216 47.0656 459.674 47.0656 441.401 47.0656" fill="#8776DD"/>
<path d="M23.6573 297.141C15.1183 305.097 8.15591 314.592 3.13465 325.127C-1.99601 337.095 1.87449 352.933 1.87449 365.621C1.87449 378.309 -1.18593 395.137 11.6857 401.616C24.5574 408.095 49.2206 404.405 64.2525 403.506C89.9058 402.156 83.4249 426.272 83.2449 434.281C82.4348 473.156 87.0254 516.53 87.0254 555.134C87.0254 567.462 82.5248 590.139 87.0254 601.747C91.526 613.356 157.234 612.636 168.036 611.286C183.878 609.216 217.812 605.347 227.803 590.229C232.394 583.21 226.543 570.252 226.003 562.333C224.293 540.286 219.702 519.049 218.982 496.822C216.789 472.377 217.121 447.77 219.972 423.393C224.473 399.366 253.187 402.426 272.629 401.526C298.912 400.266 337.527 406.745 359.22 390.097C365.733 385.724 370.386 379.084 372.272 371.47C372.957 367.605 372.084 363.625 369.842 360.402C364.206 356.721 358.166 353.702 351.839 351.403C339.827 345.872 327.469 341.123 314.845 337.185C228.343 312.349 134.821 309.019 44.81 309.019" fill="#8776DD"/>
<path d="M385.505 90.1692L393.516 18.1795C393.761 15.8707 393.509 13.5364 392.777 11.3329C392.046 9.12946 390.851 7.10768 389.274 5.40335C387.698 3.69902 385.774 2.35157 383.634 1.45103C381.493 0.550495 379.185 0.117787 376.864 0.182015L47.1515 9.63056C44.9026 9.6936 42.6907 10.219 40.6538 11.1742C38.6169 12.1294 36.7987 13.4937 35.3124 15.1823C33.8261 16.8708 32.7036 18.8473 32.0149 20.9885C31.3262 23.1298 31.0861 25.3899 31.3095 27.628L35.27 66.9527C35.6507 70.9866 37.5216 74.7337 40.5175 77.4626C43.5134 80.1915 47.4191 81.7059 51.472 81.7104H117.09C119.374 81.7104 121.632 82.1903 123.719 83.1192C125.805 84.0481 127.673 85.4052 129.2 87.1023C130.728 88.7993 131.882 90.7984 132.587 92.9701C133.292 95.1417 133.532 97.4373 133.293 99.7079L118.351 238.018C118.111 240.289 118.351 242.584 119.056 244.756C119.761 246.928 120.915 248.927 122.443 250.624C123.971 252.321 125.838 253.678 127.924 254.607C130.011 255.536 132.269 256.016 134.553 256.016H300.894C303.116 256.007 305.312 255.546 307.35 254.662C309.388 253.778 311.225 252.489 312.749 250.873C314.273 249.256 315.452 247.347 316.215 245.261C316.978 243.175 317.308 240.956 317.186 238.738L309.985 121.755C309.849 119.527 310.173 117.294 310.937 115.196C311.7 113.098 312.887 111.179 314.423 109.559C315.959 107.939 317.812 106.652 319.867 105.778C321.922 104.903 324.134 104.461 326.367 104.477H369.213C373.217 104.527 377.098 103.092 380.106 100.45C383.115 97.8077 385.038 94.1454 385.505 90.1692Z" fill="#ECE4FF"/>
<path d="M579.658 289.761C579.529 287.444 578.909 285.182 577.84 283.123C576.77 281.064 575.276 279.256 573.454 277.818C571.633 276.38 569.527 275.346 567.276 274.783C565.025 274.22 562.679 274.142 560.396 274.553L531.682 279.862L543.383 85.13C543.383 84.3201 543.383 83.6002 543.383 82.7903L561.386 84.0502C571.107 84.6801 579.388 71.2719 578.308 55.2542L576.958 24.8385C576.328 10.7105 569.037 -0.177775 560.396 0.00219907L430.959 3.06173C421.958 3.06173 414.667 15.75 414.937 30.6879V48.6853C414.937 62.7233 422.048 74.0616 430.599 74.6915L446.981 75.8614C444.527 79.0684 443.4 83.0952 443.831 87.1098L464.893 291.921L429.699 298.4C425.832 299.113 422.353 301.2 419.905 304.276C417.456 307.352 416.203 311.21 416.377 315.137L417.817 352.392C417.958 356.609 419.739 360.605 422.782 363.53C425.825 366.454 429.889 368.076 434.109 368.05H566.426C568.612 368.039 570.774 367.589 572.782 366.726C574.791 365.863 576.605 364.605 578.116 363.027C579.628 361.448 580.807 359.581 581.582 357.538C582.357 355.495 582.713 353.316 582.628 351.132L579.658 289.761Z" fill="#ECE4FF"/>
<path d="M374.521 353.381L368.85 304.608C368.368 300.647 366.455 296.998 363.472 294.347C360.488 291.696 356.64 290.225 352.648 290.21L38.5079 289.311C34.2701 289.307 30.1959 290.946 27.1412 293.883C24.0864 296.819 22.2888 300.825 22.1258 305.058L20.1456 365.35C20.0569 367.583 20.4315 369.811 21.246 371.893C22.0605 373.975 23.2972 375.865 24.8783 377.446C26.4593 379.026 28.3505 380.263 30.4328 381.077C32.5152 381.891 34.7435 382.266 36.9777 382.177L115.738 379.658V578.44C115.738 588.518 128.069 596.437 142.741 596.437L210.61 594.727C225.102 594.727 236.353 585.728 235.723 576.28L223.572 376.328L358.589 371.829C360.893 371.798 363.164 371.28 365.252 370.307C367.34 369.334 369.199 367.93 370.704 366.187C372.21 364.444 373.329 362.401 373.987 360.193C374.645 357.986 374.827 355.664 374.521 353.381Z" fill="#ECE4FF"/>
<path d="M80.5437 172.508C80.1911 167.886 78.3607 163.501 75.3231 159.999C72.6793 156.526 69.2571 153.721 65.3318 151.811C61.5612 150.187 57.3862 149.748 53.3602 150.551C51.5023 150.656 49.7016 151.231 48.1271 152.223C46.5526 153.214 45.256 154.59 44.3591 156.22C42.3134 160.074 41.2324 164.366 41.2087 168.728C40.9207 170.948 41.1263 173.204 41.811 175.335C42.4956 177.466 43.6423 179.419 45.1692 181.056C52.9682 186.865 61.4657 191.672 70.4624 195.364C72.7833 196.724 74.9555 198.322 76.9433 200.134C78.9356 202.155 80.5242 204.537 81.6238 207.153C83.6371 212.01 84.9406 217.132 85.4943 222.361C86.1698 227.588 86.1698 232.881 85.4943 238.108C85.1998 240.972 84.4397 243.768 83.2441 246.387C82.5875 247.898 81.7406 249.32 80.7237 250.616C79.765 251.726 78.7108 252.75 77.5734 253.676C73.0541 257.558 67.3279 259.752 61.3712 259.885C55.7783 259.832 50.2926 258.345 45.4392 255.566C40.8134 253.002 36.7682 249.509 33.5577 245.307C31.8 243.343 30.4814 241.027 29.6898 238.513C28.8982 236 28.6518 233.346 28.9671 230.729H29.8672C30.6987 235.281 33.2031 239.358 36.8882 242.158C40.3164 245.139 44.2483 247.485 48.4997 249.087C52.1362 250.942 56.242 251.676 60.2963 251.195C64.3506 250.715 68.1709 249.041 71.2726 246.387C71.9027 245.667 72.8028 245.037 73.2528 244.408C73.7643 243.778 74.1882 243.081 74.513 242.338C75.3081 240.461 75.8819 238.498 76.2232 236.489C77.0385 232.069 77.3106 227.566 77.0333 223.08C76.7821 218.518 76.0581 213.995 74.873 209.582C74.279 207.634 73.3994 205.784 72.2627 204.093C70.8882 202.358 69.3175 200.788 67.5821 199.414C60.2011 193.385 50.93 189.605 43.009 183.036C40.9128 181.299 39.2747 179.074 38.2383 176.557C37.1936 174.148 36.4965 171.603 36.1681 168.998C35.1476 163.606 35.6143 158.038 37.5183 152.89C38.6808 149.922 40.722 147.379 43.3689 145.601C45.914 144.023 48.7689 143.01 51.74 142.632C57.4093 141.6 63.2605 142.655 68.2121 145.601C72.9627 148.353 76.7858 152.457 79.1936 157.39C80.3635 159.748 81.1823 162.264 81.6238 164.859C82.2576 167.461 82.0689 170.197 81.0838 172.688L80.5437 172.508Z" fill="#8776DD"/>
<path d="M59.5719 145.781C56.7815 144.251 55.8814 143.531 56.6915 142.721C57.5016 141.911 58.7618 141.911 59.0318 141.462C59.3018 141.012 59.0318 140.472 57.9516 140.022C57.3047 139.77 56.742 139.341 56.328 138.784C55.914 138.227 55.6656 137.564 55.6113 136.872C55.6113 135.792 57.2316 134.532 60.2019 133.902H61.102C63.8924 135.252 64.8825 135.972 65.2426 136.872C65.6026 137.772 64.7025 138.672 62.9023 139.752C61.1021 140.832 61.5521 140.741 61.9122 141.281C62.2722 141.821 63.6224 142.361 64.1625 142.991C64.7025 143.621 63.7124 145.421 60.472 145.781H59.5719Z" fill="#8776DD"/>
<path d="M57.3222 255.475C60.2926 257.005 60.9227 258.445 60.1126 259.525C59.3024 260.605 57.9523 260.514 57.6823 261.054C57.4122 261.594 57.6822 262.314 58.4923 262.944C59.3024 263.574 60.7426 265.104 60.8327 266.004C60.9227 266.904 59.5725 267.804 57.2322 269.873H56.4221C55.3253 269.928 54.2391 269.636 53.3179 269.038C52.3968 268.441 51.6877 267.568 51.2915 266.544C51.1755 265.68 51.3295 264.801 51.7323 264.028C52.1352 263.254 52.7671 262.625 53.5417 262.224C54.3519 261.594 54.9819 261.055 54.7119 260.425C54.4418 259.795 53.1817 258.895 52.7316 258.265C52.2816 257.635 53.1817 255.925 56.4221 255.025L57.3222 255.475Z" fill="#8776DD"/>
<path d="M585.959 523.547C492.707 524.537 399.545 525.707 306.383 523.547C309.051 521.575 312.126 520.222 315.384 519.588C306.383 514.729 304.673 502.67 305.303 492.592C300.596 490.456 296.601 487.014 293.793 482.675C290.984 478.337 289.481 473.283 289.461 468.115C288.501 458.136 290.477 448.094 295.146 439.222C299.815 430.35 306.974 423.034 315.744 418.172C302.654 416.869 289.664 414.705 276.859 411.693C271.611 423.654 264.964 434.952 257.056 445.348C248.055 456.597 249.045 465.776 249.946 480.713C251.026 499.161 251.296 517.608 253.006 535.966C254.356 550.454 251.836 566.651 254.986 580.959C258.137 595.267 268.578 597.247 282.98 599.586C323.665 606.336 368.131 599.586 408.996 599.586C436.63 599.586 464.443 599.586 492.077 599.586C509.882 600.781 527.761 600.209 545.453 597.877C579.388 590.948 587.039 551.263 572.457 524.807C576.926 524.097 581.436 523.676 585.959 523.547Z" fill="#8776DD"/>
<path d="M581.548 403.236C574.167 397.026 563.006 399.276 552.475 399.276C498.468 399.276 447.071 401.886 392.704 401.886C368.401 401.886 344.458 402.966 320.245 403.236C307.463 403.236 286.941 402.066 276.859 410.884C263.628 422.403 273.169 449.579 272.539 464.877C272.539 494.843 258.317 525.708 269.658 555.944C281 586.18 324.925 575.651 353.639 575.651C421.598 575.651 490.547 579.521 558.145 575.651C589.379 573.851 583.799 556.844 586.319 534.797C588.978 505.03 589.969 475.137 589.289 445.259C589.289 434.011 591.63 412.144 581.548 403.236ZM505.669 495.562C483.796 496.372 459.403 493.582 440.59 493.582C410.796 493.582 380.643 495.113 351.209 494.663C336.177 494.663 318.985 493.853 319.165 480.444C319.165 478.465 319.165 476.035 319.165 473.425C319.103 470.864 319.71 468.33 320.925 466.073C322.14 463.817 323.922 461.916 326.096 460.557C333.566 456.868 349.138 459.207 357.6 459.118C396.283 458.231 434.986 459.463 473.534 462.807C482.536 463.707 501.438 462.807 506.929 471.806C508.844 475.522 509.737 479.68 509.516 483.855C509.294 488.029 507.966 492.07 505.669 495.562Z" fill="#ECE4FF"/>
<path d="M545.904 459.568C541.764 431.222 506.299 438.241 481.276 438.241H375.602C359.67 438.241 337.167 436.531 325.106 447.239C318.445 453.449 318.625 464.427 318.985 473.066C318.923 470.504 319.53 467.97 320.745 465.714C321.961 463.458 323.743 461.556 325.916 460.198C333.387 456.508 348.959 458.848 357.42 458.758C396.103 457.871 434.806 459.103 473.355 462.447C482.356 463.347 501.259 462.447 506.749 471.446C508.721 475.149 509.67 479.312 509.495 483.504C509.321 487.696 508.032 491.765 505.759 495.293C514.502 495.214 523.204 494.096 531.682 491.963C549.235 487.374 547.974 473.876 545.904 459.568Z" fill="#8776DD"/>
</svg>
