<svg width="499" height="531" viewBox="0 0 499 531" fill="none" xmlns="http://www.w3.org/2000/svg">
<g clip-path="url(#clip0_1_1782)">
<rect width="499" height="530" transform="translate(0 0.548828)" fill="#C4AAFF"/>
<path d="M266.597 310.058H285.076C285.723 310.054 286.363 310.187 286.955 310.449C287.546 310.711 288.075 311.096 288.507 311.579C288.939 312.061 289.264 312.63 289.46 313.247C289.656 313.865 289.719 314.517 289.645 315.161L285.454 354.29C285.385 354.933 285.451 355.583 285.649 356.199C285.847 356.814 286.172 357.381 286.603 357.862C287.034 358.344 287.561 358.729 288.151 358.992C288.74 359.256 289.378 359.392 290.023 359.393H336.964C337.593 359.394 338.215 359.266 338.793 359.016C339.371 358.767 339.891 358.401 340.322 357.942C340.753 357.483 341.086 356.94 341.299 356.347C341.512 355.754 341.601 355.123 341.562 354.494L339.554 321.371C339.518 320.742 339.611 320.112 339.828 319.521C340.045 318.929 340.38 318.388 340.814 317.932C341.248 317.475 341.77 317.113 342.349 316.867C342.929 316.621 343.552 316.497 344.181 316.502H356.258C357.393 316.516 358.494 316.105 359.344 315.351C360.194 314.596 360.733 313.551 360.856 312.42L363.126 292.009C363.206 291.353 363.143 290.688 362.942 290.058C362.742 289.429 362.407 288.851 361.962 288.363C361.517 287.875 360.971 287.49 360.364 287.234C359.756 286.977 359.1 286.856 358.44 286.877L265.316 289.56C264.686 289.577 264.066 289.724 263.495 289.991C262.924 290.258 262.414 290.64 261.997 291.113C261.579 291.586 261.263 292.14 261.068 292.741C260.873 293.341 260.804 293.976 260.864 294.604L261.94 305.743C262.022 306.921 262.549 308.023 263.415 308.825C264.28 309.627 265.418 310.068 266.597 310.058ZM373.66 309.125L377.793 309.3C377.464 310.03 377.333 310.835 377.414 311.632L383.846 374.467L374.039 376.275C372.955 376.477 371.98 377.062 371.291 377.924C370.602 378.785 370.245 379.866 370.285 380.97L370.692 391.525C370.737 392.716 371.242 393.843 372.099 394.67C372.956 395.496 374.1 395.957 375.29 395.957H412.656C413.279 395.953 413.894 395.824 414.466 395.577C415.038 395.329 415.554 394.969 415.983 394.517C416.412 394.065 416.746 393.531 416.965 392.946C417.183 392.362 417.282 391.74 417.254 391.116L416.323 373.622C416.289 372.966 416.115 372.325 415.813 371.742C415.511 371.159 415.088 370.647 414.573 370.241C414.057 369.835 413.461 369.544 412.825 369.388C412.188 369.232 411.525 369.214 410.881 369.336L401.86 370.998L405.468 310.904C405.468 310.729 405.468 310.554 405.468 310.379L410.532 310.583C411.183 310.614 411.833 310.505 412.44 310.265C413.046 310.025 413.594 309.658 414.049 309.19C414.503 308.721 414.852 308.161 415.074 307.546C415.295 306.932 415.384 306.277 415.333 305.626L414.926 300.407C414.837 299.236 414.306 298.144 413.441 297.353C412.575 296.562 411.441 296.131 410.27 296.15L373.719 296.675C373.108 296.682 372.506 296.812 371.947 297.056C371.388 297.3 370.883 297.654 370.462 298.097C370.042 298.54 369.714 299.063 369.499 299.635C369.284 300.207 369.185 300.816 369.208 301.427V304.547C369.184 305.756 369.64 306.926 370.474 307.8C371.308 308.674 372.454 309.182 373.66 309.212V309.125ZM353.289 392.049C353.928 392.03 354.555 391.877 355.132 391.601C355.708 391.325 356.221 390.932 356.637 390.446C357.053 389.96 357.364 389.393 357.549 388.781C357.734 388.168 357.79 387.524 357.713 386.889L356.112 373.097C355.972 371.978 355.431 370.948 354.592 370.198C353.752 369.447 352.669 369.027 351.543 369.015L262.843 368.782C261.651 368.773 260.503 369.232 259.644 370.06C258.785 370.888 258.283 372.02 258.245 373.214L257.663 390.3C257.642 390.93 257.751 391.557 257.982 392.142C258.214 392.728 258.562 393.26 259.007 393.706C259.452 394.151 259.983 394.5 260.567 394.732C261.152 394.964 261.778 395.073 262.406 395.053L297.473 393.886V445.35C297.473 445.97 297.597 446.583 297.839 447.154C298.081 447.725 298.435 448.241 298.881 448.671C299.327 449.101 299.854 449.436 300.433 449.657C301.011 449.878 301.627 449.98 302.246 449.957L314.177 449.519C315.4 449.466 316.551 448.93 317.38 448.029C318.209 447.127 318.648 445.933 318.601 444.708L316.476 393.274L353.289 392.049ZM417.545 405.462C415.479 403.683 412.307 404.325 409.339 404.325C394.031 404.325 379.597 405.083 364.232 405.083C357.364 405.083 350.612 405.404 343.861 405.462C340.252 405.462 334.461 405.112 331.609 407.62C327.884 410.856 330.59 418.554 330.387 422.986C330.387 431.471 326.4 440.189 329.572 448.761C332.744 457.334 345.17 454.33 353.289 454.33C372.467 454.33 391.936 455.438 411.026 454.33C419.757 453.835 418.273 449.024 418.971 442.667C419.719 434.243 420.001 425.784 419.815 417.329C419.815 414.268 420.543 408.057 417.632 405.549L417.545 405.462ZM403.431 430.625C396.098 432.666 385.301 431.033 377.764 431.033C369.324 431.033 360.827 431.442 352.504 431.325C348.284 431.325 343.424 431.092 343.453 427.301C343.453 424.939 342.668 420.303 345.141 418.029C348.517 414.88 354.89 415.346 359.372 415.346H389.23C396.301 415.346 406.312 413.364 407.476 421.411C408.145 425.523 408.495 429.342 403.518 430.713L403.431 430.625Z" fill="#C4AAFF"/>
<path d="M474.235 373.243C474.226 351.079 469.063 329.222 459.156 309.405C449.249 289.588 434.87 272.356 417.159 259.076C399.448 245.796 378.892 236.833 357.122 232.898C335.352 228.963 312.967 230.164 291.741 236.406C294.223 225.758 295.483 214.86 295.495 203.925C295.546 175.406 287.017 147.534 271.021 123.945C262.623 106.19 250.656 90.3655 235.868 77.4623C221.081 64.5591 203.792 54.8558 185.087 48.9607C166.381 43.0657 146.662 41.1061 127.165 43.2047C107.668 45.3033 88.8139 51.4149 71.7848 61.1563C54.7558 70.8977 39.9188 84.0589 28.2043 99.8148C16.4897 115.571 8.15014 133.581 3.70831 152.718C-0.733518 171.854 -1.18181 191.704 2.39161 211.022C5.96503 230.34 13.4831 248.71 24.4744 264.981C36.0006 289.401 54.2118 310.038 76.9886 324.492C99.7653 338.945 126.171 346.62 153.131 346.622C162.905 346.643 172.656 345.666 182.233 343.707C171.966 375.162 172.937 409.216 184.981 440.033C197.025 470.849 219.39 496.509 248.246 512.616C277.101 528.722 310.649 534.273 343.14 528.315C375.631 522.357 405.043 505.262 426.334 479.961C441.413 466.591 453.482 450.163 461.74 431.764C469.998 413.365 474.257 393.417 474.235 373.243Z" fill="#3C2868"/>
<path d="M325.377 520.734C404.002 520.734 467.741 456.872 467.741 378.095C467.741 299.317 404.002 235.455 325.377 235.455C246.752 235.455 183.014 299.317 183.014 378.095C183.014 456.872 246.752 520.734 325.377 520.734Z" fill="#E7FF2C"/>
<path d="M339.666 508.068C418.292 508.068 482.03 444.206 482.03 365.429C482.03 286.651 418.292 222.789 339.666 222.789C261.041 222.789 197.303 286.651 197.303 365.429C197.303 444.206 261.041 508.068 339.666 508.068Z" fill="#87F77B"/>
<path d="M274.246 311.353C278.553 311.878 284.432 310.507 288.389 312.198C291.299 313.335 290.921 315.114 290.659 318.438C290.135 325.173 289.582 332.113 288.971 338.848C288.564 343.368 285.799 352.582 291.154 354.127C296.022 354.998 300.984 355.214 305.908 354.769H326.425C332.245 354.769 348.716 357.684 350.928 350.191C353.343 342.143 351.161 331.617 350.928 323.395C350.928 320.042 351.946 315.726 355.526 314.414C359.105 313.102 362.976 315.697 365.886 312.228C368.796 308.758 367.661 300.214 367.661 296.016C367.661 292.721 368.331 287.735 366.497 284.848C365.217 282.836 362.627 281.933 360.91 280.504C347.465 283.595 336.785 282.982 326.134 283.857C317.869 284.557 309.575 284.149 301.281 284.353C295.537 284.512 289.806 284.98 284.111 285.752C278.669 286.452 272.471 286.102 267.465 288.406C262.46 290.709 262.198 298.844 264.09 303.743C264.934 305.815 266.325 307.618 268.114 308.959C269.904 310.3 272.023 311.127 274.246 311.353ZM376.392 307.766C379.651 310.857 378.662 317.913 378.662 321.791C378.662 327.623 378.662 333.688 378.923 339.607C379.302 346.779 379.738 353.748 380.728 360.775C381.193 363.982 384.133 371.884 378.429 371.913C379.36 370.572 380.757 369.318 379.535 367.919C377.934 369.377 375.577 370.834 374.762 373.021C373.482 376.316 374.325 382.702 374.762 386.23C375.577 391.566 380.728 390.283 385.5 390.283C393.241 390.283 401.011 390.283 408.781 389.962C412.041 389.816 418.85 390.837 421.644 389.029C428.017 384.859 418.094 374.304 415.649 371.534C410.004 365.207 406.511 360.95 406.453 352.261C406.152 339.992 406.551 327.716 407.646 315.493C408.316 309.458 410.353 310.216 414.951 308.408C418.996 306.833 422.75 301.06 421.499 296.745C419.374 289.426 405.813 290.534 399.964 290.505C394.813 290.505 389.662 290.505 384.482 290.505L377.759 289.63C375.664 292.872 374.065 296.41 373.016 300.127C372.665 301.711 372.786 303.364 373.365 304.88C374.267 306.833 374.791 306.279 376.392 307.766ZM426.62 429.791C400.429 430.054 374.034 430.375 347.727 429.791C348.492 429.238 349.364 428.851 350.288 428.654C347.378 427.021 347.087 422.444 347.61 419.382C348.134 416.321 349.764 415.125 352.936 414.25C362.714 411.597 374.995 412.967 384.947 413.084C391.583 413.084 401.302 411.335 407.064 415.125C409.625 416.816 410.673 420.957 412.885 421.89C416.668 423.231 420.509 418.974 420.975 415.767C421.196 413.618 420.805 411.45 419.847 409.515C418.889 407.58 417.403 405.956 415.562 404.832C410.643 402.556 405.263 401.458 399.847 401.625C388.469 401.392 377.119 401.304 365.741 400.984C356.826 400.941 347.941 399.963 339.229 398.068C337.748 401.464 335.872 404.674 333.642 407.632C331.052 410.81 331.372 413.463 331.634 417.604C331.954 422.852 332.012 428.042 332.507 433.261C332.428 437.487 332.612 441.713 333.06 445.916C333.962 449.998 336.901 450.552 340.946 451.222C352.587 453.118 365.013 451.222 376.624 451.222C384.453 451.222 392.281 451.222 400.109 451.222C405.139 451.544 410.188 451.369 415.184 450.698C424.729 448.744 426.824 437.518 422.779 430.054C424.051 429.872 425.335 429.784 426.62 429.791ZM336.785 390.982C344.206 390.633 355.089 392.44 361.23 387.746C363.062 386.503 364.369 384.622 364.897 382.468C365.078 381.372 364.839 380.247 364.227 379.319C362.598 378.321 360.872 377.491 359.076 376.841C355.676 375.278 352.177 373.944 348.6 372.846C324.184 365.79 297.673 364.857 272.384 364.857L266.563 361.329C264.134 363.575 262.159 366.267 260.743 369.26C259.259 372.642 260.365 377.133 260.365 380.719C260.365 384.305 259.521 389.058 263.275 391.012C267.029 392.965 273.868 391.77 278.087 391.536C285.334 391.157 294.384 389.408 296.625 398.155C299.331 408.827 297.673 421.481 297.702 432.357C297.702 435.856 296.421 442.242 297.702 445.537C298.982 448.831 303.115 448.248 306.083 447.869C310.535 447.286 320.11 448.015 322.933 443.729C323.917 441.442 324.171 438.906 323.66 436.469C323.194 430.258 321.885 424.222 321.681 417.953C321.064 411.032 321.161 404.065 321.972 397.164C323.165 390.458 331.285 391.216 336.785 390.982ZM276.807 350.453C277.843 350.46 278.869 350.242 279.813 349.814C280.757 349.386 281.598 348.759 282.278 347.975C284.781 345.059 284.024 337.245 282.278 334.417C280.842 332.73 279.04 331.393 277.011 330.509C275.307 329.782 273.771 328.71 272.5 327.36C271.721 325.646 271.607 323.702 272.18 321.908C272.287 321.461 272.499 321.045 272.797 320.695C273.096 320.346 273.473 320.072 273.897 319.896C274.882 319.52 275.955 319.435 276.986 319.652C278.018 319.869 278.966 320.379 279.717 321.121C280.378 321.703 280.908 322.421 281.269 323.226C281.63 324.031 281.816 324.903 281.812 325.786L283.646 326.311C283.759 325.087 283.581 323.855 283.125 322.714C282.67 321.574 281.951 320.558 281.027 319.75C280.127 318.884 279.027 318.253 277.826 317.913C277.853 317.486 277.853 317.057 277.826 316.63C277.783 316.174 277.783 315.716 277.826 315.26L275.934 314.968C275.877 315.531 275.877 316.097 275.934 316.659C275.934 317.009 275.934 317.33 275.934 317.651C275.003 317.627 274.076 317.775 273.198 318.088C272.488 318.352 271.853 318.784 271.346 319.348C270.839 319.911 270.476 320.59 270.288 321.325C269.904 322.488 269.754 323.716 269.849 324.938C269.944 326.159 270.282 327.35 270.841 328.439C272.268 330.062 274.037 331.347 276.021 332.201C277.765 332.941 279.324 334.055 280.59 335.466C282.162 337.886 282.569 344.767 280.852 346.692C279.95 347.676 278.739 348.321 277.42 348.517C276.101 348.713 274.754 348.45 273.606 347.771C270.696 346.459 268.95 343.98 269.153 342.639L267.291 342.347C266.883 345.001 269.764 348.179 272.791 349.491C273.442 349.806 274.125 350.051 274.828 350.22C274.568 351.459 274.628 352.743 275.003 353.952L276.778 353.252C276.553 352.293 276.553 351.296 276.778 350.337L276.807 350.453Z" fill="#3C2868"/>
<path d="M274.362 300.331H292.871C293.517 300.331 294.156 300.468 294.747 300.731C295.337 300.995 295.866 301.379 296.3 301.86C296.733 302.341 297.061 302.907 297.262 303.522C297.463 304.138 297.534 304.789 297.469 305.433L293.249 344.563C293.18 345.206 293.246 345.856 293.444 346.471C293.642 347.087 293.967 347.654 294.398 348.135C294.829 348.616 295.356 349.001 295.945 349.265C296.535 349.529 297.173 349.665 297.818 349.665H344.787C345.415 349.667 346.037 349.539 346.613 349.289C347.189 349.039 347.708 348.673 348.137 348.213C348.565 347.754 348.895 347.21 349.105 346.617C349.315 346.025 349.4 345.395 349.356 344.767L347.348 311.731C347.313 311.101 347.406 310.47 347.622 309.876C347.839 309.283 348.174 308.741 348.607 308.282C349.041 307.823 349.563 307.458 350.142 307.209C350.721 306.96 351.345 306.832 351.975 306.833H364.053C365.191 306.847 366.295 306.438 367.15 305.684C368.005 304.93 368.55 303.885 368.68 302.751L370.92 282.34C370.996 281.685 370.93 281.022 370.727 280.394C370.524 279.767 370.189 279.191 369.745 278.704C369.301 278.218 368.758 277.833 368.152 277.575C367.547 277.317 366.893 277.192 366.235 277.209L273.111 279.891C272.478 279.908 271.856 280.055 271.282 280.324C270.709 280.593 270.198 280.978 269.78 281.454C269.362 281.931 269.046 282.488 268.853 283.092C268.66 283.696 268.594 284.334 268.658 284.964L269.764 296.074C269.852 297.234 270.376 298.318 271.228 299.107C272.081 299.897 273.201 300.334 274.362 300.331ZM381.426 299.427L385.558 299.602C385.226 300.321 385.095 301.117 385.18 301.905L391.611 364.74L381.804 366.548C380.716 366.75 379.737 367.34 379.047 368.207C378.358 369.075 378.004 370.163 378.05 371.271L378.458 381.826C378.503 383.018 379.007 384.145 379.865 384.972C380.722 385.798 381.866 386.259 383.056 386.258H420.422C421.048 386.259 421.668 386.132 422.244 385.884C422.82 385.637 423.339 385.274 423.769 384.818C424.2 384.362 424.533 383.822 424.748 383.233C424.963 382.643 425.055 382.016 425.02 381.389L424.088 363.894C424.053 363.242 423.88 362.603 423.58 362.023C423.28 361.442 422.86 360.932 422.348 360.527C421.836 360.121 421.244 359.83 420.611 359.671C419.977 359.513 419.318 359.491 418.676 359.608L409.625 361.27L413.234 301.176C413.234 301.001 413.234 300.826 413.234 300.651L418.326 300.855C418.973 300.882 419.617 300.771 420.218 300.531C420.818 300.29 421.362 299.926 421.812 299.461C422.263 298.996 422.61 298.441 422.832 297.832C423.054 297.223 423.145 296.574 423.099 295.928L422.721 290.679C422.625 289.512 422.092 288.423 421.228 287.634C420.364 286.844 419.234 286.411 418.065 286.422L381.513 286.947C380.902 286.955 380.298 287.084 379.737 287.328C379.177 287.572 378.67 287.926 378.247 288.368C377.825 288.811 377.494 289.334 377.275 289.906C377.057 290.478 376.954 291.088 376.973 291.7V294.82C376.989 296.037 377.478 297.2 378.337 298.061C379.196 298.921 380.357 299.412 381.571 299.427H381.426ZM361.055 382.322C361.692 382.306 362.319 382.158 362.895 381.885C363.472 381.612 363.985 381.221 364.401 380.738C364.818 380.255 365.129 379.689 365.314 379.078C365.5 378.467 365.556 377.824 365.478 377.19L363.878 363.37C363.743 362.251 363.203 361.221 362.361 360.474C361.519 359.727 360.433 359.316 359.309 359.317L270.608 359.054C269.414 359.054 268.266 359.519 267.407 360.352C266.549 361.184 266.048 362.319 266.01 363.515L265.428 380.573C265.408 381.202 265.517 381.829 265.748 382.415C265.979 383.001 266.328 383.533 266.772 383.978C267.217 384.424 267.748 384.773 268.333 385.005C268.917 385.237 269.543 385.346 270.172 385.325L305.239 384.188V435.622C305.234 436.244 305.356 436.859 305.596 437.432C305.837 438.004 306.191 438.522 306.638 438.953C307.084 439.384 307.613 439.719 308.193 439.939C308.773 440.158 309.392 440.257 310.011 440.229L321.943 439.792C323.165 439.739 324.317 439.203 325.146 438.301C325.975 437.4 326.414 436.206 326.366 434.981L324.242 383.547L361.055 382.322ZM425.311 395.735C423.245 393.985 420.102 394.627 417.104 394.627C401.797 394.627 387.363 395.356 371.997 395.356C365.158 395.356 358.378 395.676 351.626 395.735C348.018 395.735 342.227 395.414 339.375 397.892C335.65 401.158 338.356 408.856 338.181 413.288C338.181 421.743 334.165 430.491 337.337 439.063C340.509 447.635 352.936 444.632 361.084 444.632C380.262 444.632 399.702 445.711 418.792 444.632C427.522 444.107 426.038 439.296 426.737 432.969C427.484 424.555 427.766 416.106 427.581 407.66C427.581 404.453 428.337 398.271 425.398 395.735H425.311ZM411.197 420.898C403.863 422.939 393.066 421.306 385.529 421.306C377.09 421.306 368.592 421.743 360.298 421.598C356.05 421.598 351.19 421.364 351.219 417.574C351.219 415.212 350.433 410.605 352.907 408.302C356.282 405.153 362.656 405.619 367.137 405.619H396.995C404.067 405.619 414.078 403.666 415.242 411.684C415.911 415.737 416.289 419.615 411.284 420.898H411.197Z" fill="#C4AAFF"/>
<path opacity="0.49" d="M358.292 297.444C357.303 290.592 367.954 279.571 371.999 274.118C376.584 267.787 380.755 261.164 384.483 254.291C387.626 248.459 391.118 242.89 394.494 237.321C388.668 234.949 382.701 232.943 376.626 231.315C368.39 229.39 360.184 227.641 351.861 226.445C341.53 240.354 332.654 256.361 323.487 270.182C313.942 284.498 302.388 299.544 295.841 315.61C296.772 312.227 318.743 306.337 323.72 307.416C318.23 324.666 311.709 341.569 304.193 358.034C294.386 379.028 286.877 400.983 278.351 422.56C271.861 438.918 263.102 454.313 256.205 470.496C255.506 472.187 254.808 474.053 254.109 475.977C259.9 480.86 266.103 485.23 272.647 489.04C278.671 492.568 285.248 493.909 291.446 496.883L292.61 497.496C311.701 464.402 331.839 431.716 348.601 397.426C357.623 378.94 364.869 360.163 372.697 341.21C377.906 328.585 380.118 315.143 384.57 302.372C378.43 297.736 365.626 297.153 358.292 297.444Z" fill="white"/>
<path d="M169.108 304.781C247.733 304.781 311.471 240.919 311.471 162.142C311.471 83.3639 247.733 19.502 169.108 19.502C90.4825 19.502 26.7441 83.3639 26.7441 162.142C26.7441 240.919 90.4825 304.781 169.108 304.781Z" fill="#87F77B" stroke="#3C2868" stroke-width="2" stroke-miterlimit="10"/>
<path d="M158.311 285.828C236.936 285.828 300.674 221.966 300.674 143.188C300.674 64.4107 236.936 0.548828 158.311 0.548828C79.6856 0.548828 15.9473 64.4107 15.9473 143.188C15.9473 221.966 79.6856 285.828 158.311 285.828Z" fill="#E7FF2C"/>
<path d="M38.6174 171.588C42.8253 168.394 46.3985 164.438 49.1521 159.925C53.0226 153.423 54.7396 146.134 59.1921 140.069C63.6446 134.004 70.6871 130.796 72.1131 122.312C72.8406 117.996 71.9675 113.739 72.6369 109.482C73.5164 105.782 74.6244 102.14 75.9544 98.5772C77.746 91.4899 79.0681 84.2916 79.9122 77.0296C80.727 71.373 80.5234 62.4508 87.595 61.4594C93.4152 60.5555 97.7513 66.3871 102.408 69.1571C107.762 72.3353 113.059 76.2133 117.831 79.6539C121.178 82.0448 123.448 80.8201 127.813 80.7618C139.524 80.8284 151.207 81.9014 162.734 83.9692C175.714 86.1269 189.275 87.2932 201.818 91.3753C205.339 92.5416 212.207 95.5448 214.069 98.8979C216.688 94.1744 225.361 89.8008 230.075 86.6809C236.943 82.1032 243.782 76.913 252.337 76.6215C261.446 76.3007 261.446 83.5027 260.631 90.588C259.264 102.572 255.422 114.147 253.734 126.044C252.998 129.063 253.033 132.219 253.837 135.221C254.641 138.223 256.187 140.973 258.332 143.218C256.348 142.636 254.288 142.361 252.221 142.401C256 151.07 257.923 160.437 257.867 169.897C257.867 181.56 259.118 194.535 253.036 204.886C252.105 199.55 245.062 194.769 241.133 191.561C239.533 203.428 238.66 215.266 234.295 226.55C232.054 222.002 227.659 218.882 224.487 214.887C219.977 209.464 216.281 208.327 209.209 207.948C199.344 207.423 189.071 206.432 179.235 208.181C175.188 209.093 171.042 209.485 166.896 209.347C164.597 208.974 162.258 208.906 159.941 209.143C159.914 209.182 159.9 209.228 159.9 209.275C159.9 209.321 159.914 209.367 159.941 209.406C156.536 209.552 152.986 208.852 149.493 209.085C142.887 209.493 136.718 214.917 132.789 220.048C131.16 218.095 130.636 215.033 128.162 214.071C126.618 215.941 124.78 217.546 122.72 218.824C114.601 205.732 95.8597 194.01 80.4651 191.853C75.4731 191.029 70.5285 189.939 65.6526 188.587C60.7842 187.611 55.8338 187.103 50.8691 187.071C47.6388 186.896 44.525 187.946 41.3821 187.858C44.2922 183.514 48.8902 179.111 49.3558 173.571C46.6785 173.862 43.5356 171.501 38.6174 171.588Z" fill="#C4AAFF"/>
<path d="M80.2617 99.8608C82.5898 97.9656 84.1031 95.4871 86.4021 93.6211C89.8117 90.7597 93.7748 88.6354 98.0427 87.3813C101.418 86.4775 104.969 85.8943 108.461 85.2528C110.193 84.8541 111.954 84.6005 113.728 84.4948C115.222 84.703 116.734 84.7519 118.239 84.6405C117.218 83.4267 115.96 82.4345 114.543 81.7247C112.972 80.6751 111.633 79.4505 109.916 78.3716C106.511 76.1265 102.437 74.1145 98.8284 72.2193C95.2198 70.324 91.0584 67.6124 86.9551 69.7992C82.8518 71.9861 82.8517 78.255 82.2697 82.0746C81.6295 87.2938 81.193 92.7464 80.2617 99.8608Z" fill="white"/>
<path d="M225.098 98.4309C226.007 102.074 227.386 105.583 229.201 108.869C231.18 111.785 234.148 114.322 236.389 117.15C240.405 122.194 243.868 128.172 248.029 132.895C248.029 132.341 248.291 131.991 248.379 131.496C249.271 131.56 250.156 131.697 251.027 131.904C250.387 129.98 249.455 128.084 248.786 126.072C248.165 123.888 248.095 121.584 248.582 119.366C249.397 112.951 249.834 106.391 250.881 100.005C251.522 96.2149 254.461 91.608 253.239 87.555C251.58 82.1025 244.654 85.9222 241.86 87.555C236.564 90.9665 230.685 93.0367 225.098 98.4309Z" fill="white"/>
<path d="M48.5126 183.66C52.1212 181.356 59.3675 183.077 63.5872 183.456C71.7574 184.037 79.8655 185.295 87.8285 187.217C95.9164 189.758 103.651 193.315 110.848 197.801C112.991 198.869 115.011 200.169 116.872 201.679C118.129 203.13 119.601 204.379 121.237 205.382C122.052 205.791 122.925 206.374 123.652 206.053C124.38 205.732 124.816 203.137 125.806 202.875C127.697 202.117 131.946 206.869 133.663 207.919C137.795 203.458 143.936 202.729 149.785 202.991C155.635 203.254 161.426 201.854 167.1 202.088L188.606 203.05C196.755 203.429 204.99 203.225 213.11 203.924C216.795 203.987 220.459 204.496 224.023 205.441C226.244 206.058 228.369 206.981 230.338 208.181C230.949 208.648 231.327 209.464 231.938 209.931C232.928 205.82 234.383 201.913 235.518 197.889C236.138 195.645 237.379 193.624 239.097 192.057C239.815 199.665 239.6 207.332 238.457 214.888C238.569 218.423 238.187 221.956 237.322 225.385C236.041 228.3 233.713 224.597 232.287 223.139C230.861 221.682 229.552 220.224 228.068 219.028C225.972 217.279 224.343 215.179 222.247 213.459C220.699 212 218.906 210.825 216.951 209.989C213.626 209.187 210.237 208.679 206.824 208.473C199.715 207.429 192.529 207.01 185.347 207.219C182.892 207.213 180.44 207.398 178.013 207.773C175.482 208.298 173.008 209.406 170.447 209.756C166.18 209.955 161.904 209.671 157.701 208.91C154.441 208.619 149.494 207.598 146.468 208.765C144.252 209.978 142.199 211.467 140.356 213.197C138.533 214.428 136.811 215.803 135.205 217.308C134.423 218.251 133.5 219.067 132.47 219.728C131.422 217.162 130.229 215.646 128.105 217.308C127.464 217.804 126.242 219.436 125.34 219.582C124.438 219.728 123.216 217.454 122.43 216.666C115.824 210.077 109.509 202.583 100.546 199.376C96.879 198.093 92.8631 197.014 89.3127 195.44C85.8474 193.478 82.2148 191.829 78.4579 190.512C75.4991 189.824 72.4934 189.356 69.4656 189.112C64.111 188.558 58.6108 187.829 53.198 187.771C50.6059 188.077 47.9794 187.889 45.457 187.217C45.5381 186.832 45.7425 186.484 46.039 186.226" fill="#8776DD"/>
<path d="M38.5312 171.764C42.7467 168.578 46.3213 164.621 49.0659 160.101C52.9655 153.599 54.6533 146.309 59.1349 140.244C63.6165 134.18 70.63 130.972 72.0269 122.487C72.7544 118.172 72.0269 113.915 72.5507 109.658C73.4437 105.961 74.5514 102.32 75.8682 98.753C77.6737 91.6687 78.996 84.4696 79.826 77.2055C80.6408 71.5489 80.4371 62.6266 87.5378 61.6352C93.3581 60.7313 97.6942 66.5629 102.35 69.3329C107.705 72.5111 112.972 76.3891 117.745 79.8297C121.092 82.2206 123.391 80.996 127.727 80.9377C139.388 81.027 151.021 82.0998 162.503 84.145C175.482 86.3026 189.043 87.469 201.586 91.5802C205.136 92.7174 211.975 95.7207 213.867 99.0738C216.457 94.3502 225.129 90.0057 229.843 86.8567C236.711 82.2789 243.55 77.118 252.106 76.7972C261.214 76.4765 261.214 83.6785 260.4 90.7638C259.061 102.748 255.22 114.323 253.532 126.22C252.781 129.236 252.806 132.393 253.605 135.397C254.404 138.401 255.951 141.152 258.101 143.393C256.126 142.815 254.075 142.54 252.018 142.577C255.798 151.246 257.721 160.613 257.664 170.073C257.664 181.736 258.915 194.711 252.804 205.062C251.873 199.726 244.859 194.944 240.902 191.737C239.33 203.604 238.428 215.442 234.063 226.726C231.851 222.178 227.428 219.058 224.256 215.063C219.774 209.64 216.049 208.503 208.978 208.124C199.112 207.599 188.839 206.607 179.032 208.357C174.976 209.268 170.82 209.66 166.664 209.523C164.365 209.15 162.026 209.081 159.709 209.319C159.7 209.346 159.697 209.374 159.7 209.402C159.702 209.43 159.711 209.458 159.724 209.482C159.738 209.507 159.757 209.529 159.779 209.546C159.801 209.563 159.827 209.575 159.855 209.582C156.45 209.727 152.899 209.028 149.407 209.261C142.801 209.698 136.603 215.092 132.674 220.224C131.073 218.3 130.55 215.209 128.047 214.247C126.514 216.117 124.685 217.722 122.634 218.999C114.486 205.937 95.7444 194.186 80.3789 192.029C75.3767 191.208 70.4223 190.118 65.5373 188.763C60.6787 187.787 55.738 187.279 50.7829 187.247C47.5235 187.101 44.4097 188.151 41.2668 188.034C44.1769 183.689 48.804 179.287 49.2405 173.747C46.5923 174.038 43.5367 171.677 38.5312 171.764Z" stroke="#5848B4" stroke-miterlimit="10"/>
<path d="M162.357 90.9965C155.819 89.9697 149.792 86.8378 145.188 82.0742C139.842 76.8896 132.871 73.7168 125.457 73.0937C129.211 70.8486 134.391 72.1898 138.611 72.5688C144.683 72.8761 150.588 74.6681 155.81 77.7881C163.318 82.3367 170.68 91.3464 180.197 91.463C174.96 88.2948 170.527 83.9533 167.247 78.7794C163.609 72.598 161.106 59.9727 169.371 56.2988C164.569 66.125 178.451 72.773 184.591 77.4674C190.731 82.1618 201.673 85.0191 205.718 92.3377C206.179 89.9906 205.873 87.5575 204.845 85.3983C209.531 89.2762 215.962 91.9004 219.018 97.5278C220.88 100.822 222.261 104.367 223.121 108.054" fill="#C4AAFF"/>
<path d="M162.357 90.9965C155.819 89.9697 149.792 86.8378 145.188 82.0742C139.842 76.8896 132.871 73.7168 125.457 73.0937C129.211 70.8486 134.391 72.1898 138.611 72.5688C144.683 72.8761 150.588 74.6681 155.81 77.7881C163.318 82.3367 170.68 91.3464 180.197 91.463C174.96 88.2948 170.527 83.9533 167.247 78.7794C163.609 72.598 161.106 59.9727 169.371 56.2988C164.569 66.125 178.451 72.773 184.591 77.4674C190.731 82.1618 201.673 85.0191 205.718 92.3377C206.179 89.9906 205.873 87.5575 204.845 85.3983C209.531 89.2762 215.962 91.9004 219.018 97.5278C220.88 100.822 222.261 104.367 223.121 108.054" stroke="#5848B4" stroke-miterlimit="10"/>
<path d="M184.677 151.877C189.275 155.026 196.957 155.055 202.399 156.338C207.441 157.242 212.337 158.831 216.95 161.061C221.141 163.365 228.911 167.155 231.501 170.858C233.339 174.733 234.227 178.992 234.091 183.28C236.678 177.024 237.984 170.311 237.932 163.54C243.956 167.739 243.927 170.421 245.237 177.39C246.837 167.33 246.546 152.518 242.472 142.984C240.086 137.444 233.451 131.641 228.998 127.53C222.972 122.324 215.495 119.098 207.579 118.287C203.067 118.336 198.677 119.756 194.987 122.359C191.298 124.963 188.484 128.626 186.917 132.866C185.462 136.394 184.822 141.613 183.076 144.529" fill="#5848B4"/>
<path d="M74.7026 128.639C68.4167 131.555 64.8082 138.116 61.2578 143.656C58.1731 148.437 52.3528 155.027 53.3423 160.888C57.1545 157.593 61.3451 154.706 64.9828 151.266C62.492 155.916 60.9674 161.025 60.5012 166.282C71.3268 159.109 79.4752 149.575 91.1448 143.481C98.5657 139.573 105.696 139.399 113.786 139.311C121.41 139.311 128.918 133.946 129.326 125.898C129.632 123.823 129.183 121.706 128.061 119.935C126.939 118.163 125.219 116.854 123.215 116.247C115.386 113.506 105.987 114.148 97.8963 114.935C90.5919 115.606 81.7742 116.714 75.8085 121.496" fill="#5848B4"/>
<path d="M215.232 136.249C217.357 137.823 216.047 143.83 215.232 146.104C214.557 148.014 213.397 149.715 211.866 151.04C210.335 152.364 208.487 153.266 206.502 153.656C199.757 154.861 192.847 154.782 186.131 153.423C180.311 152.548 174.753 150.973 169.078 149.953C162.501 148.856 156.474 145.605 151.937 140.71C149.57 138.398 147.603 135.708 146.117 132.75C144.109 127.531 148.649 125.023 152.927 124.178C160.164 123.22 167.499 123.269 174.723 124.323L196.404 126.335C204.319 127.035 209.645 132.196 215.232 136.249Z" fill="#E7FF2C" stroke="#5848B4" stroke-miterlimit="10"/>
<path d="M134.856 125.052C137.766 125.868 138.697 127.968 136.98 130.417C135.207 132.597 133.022 134.404 130.55 135.735C128.078 137.066 125.368 137.895 122.575 138.173C117.341 138.479 112.094 138.479 106.86 138.173C101.244 138.173 95.9474 139.398 90.2436 138.931C80.5819 138.173 70.1929 136.89 64.3144 128.23C58.4359 119.57 71.6188 112.631 78.5449 111.289C83.9517 110.634 89.421 110.692 94.8125 111.465C101.12 111.661 107.394 112.452 113.554 113.826C120.742 115.838 126.999 120.532 134.856 125.052Z" fill="#E7FF2C" stroke="#5848B4" stroke-miterlimit="10"/>
<path d="M122.809 146.776C125.049 147.388 126.184 150.595 126.65 152.607H125.922C128.018 155.873 130.142 159.43 134.275 160.421C131.917 156.223 128.018 152.695 131.364 147.388C128.542 146.878 125.674 146.673 122.809 146.776Z" fill="#3C2868"/>
<path d="M90.099 114.235C84.2787 112.952 84.2788 125.14 85.0354 128.114C85.5579 130.093 86.543 131.918 87.9094 133.439C89.2757 134.96 90.9839 136.133 92.8927 136.862C98.2734 139.077 104.193 139.625 109.888 138.436C111.999 138.136 114.019 137.375 115.805 136.206C117.59 135.037 119.097 133.489 120.219 131.672C121.293 130.242 122.059 128.605 122.47 126.863C122.881 125.122 122.927 123.314 122.605 121.554C120.83 116.48 112.391 115.722 108.055 114.964C102.137 113.847 96.0877 113.602 90.099 114.235Z" fill="#3C2868"/>
<path d="M170.127 127.152C170.127 126.948 169.894 126.685 170.331 126.248C168.61 128.14 167.389 130.432 166.779 132.918C166.169 135.403 166.189 138.002 166.838 140.477C167.504 142.499 168.565 144.368 169.959 145.975C171.353 147.582 173.052 148.895 174.958 149.837C181.513 151.673 188.358 152.238 195.125 151.499C202.487 150.945 211.072 143.072 207.318 135.17C205.048 130.33 196.784 130.009 192.36 129.339C185.347 127.998 177.984 125.898 170.127 127.152Z" fill="#3C2868"/>
<path d="M62.6854 123.624C86.8104 123.157 111.43 122.341 135.439 123.799C130.959 114.013 123.135 106.153 113.38 101.639C101.274 96.0114 86.1411 100.939 74.9953 106.946C69.6161 109.666 65.377 114.213 63.0347 119.775C62.6782 121.025 62.5596 122.33 62.6854 123.624Z" fill="white" stroke="#5848B4" stroke-miterlimit="10"/>
<path d="M140.59 131.7C144.403 126.675 149.061 122.354 154.355 118.929C160.806 114.685 168.347 112.406 176.064 112.369C179.207 112.223 182.612 112.369 185.697 112.515C189.003 112.708 192.285 113.196 195.504 113.973C200.679 115.282 205.311 118.189 208.745 122.283C212.251 125.668 214.672 130.023 215.7 134.791C206.858 130.7 197.21 128.657 187.472 128.814C178.014 128.814 168.44 128.814 159.011 129.805C152.833 129.986 146.676 130.62 140.59 131.7Z" fill="white" stroke="#5848B4" stroke-miterlimit="10" stroke-linecap="round"/>
<path d="M134.274 107.236C131.713 105.166 129.879 102.513 127.231 100.53C124.025 98.4524 120.536 96.8515 116.871 95.7773" stroke="#5848B4" stroke-miterlimit="10" stroke-linecap="round"/>
<path d="M169.457 104.38C173.691 104.074 177.941 104.074 182.174 104.38C187.339 104.46 192.497 104.8 197.627 105.4" stroke="#5848B4" stroke-miterlimit="10" stroke-linecap="round"/>
<path d="M92.4257 124.061C92.8753 125.027 93.5906 125.844 94.4875 126.416C95.3845 126.989 96.4259 127.293 97.4894 127.293C98.5529 127.293 99.5942 126.989 100.491 126.416C101.388 125.844 102.103 125.027 102.553 124.061C99.1773 123.915 95.9179 124.09 92.4257 124.061Z" fill="#E7FF2C"/>
<path d="M107.56 131.613C109.071 131.613 110.295 130.385 110.295 128.872C110.295 127.358 109.071 126.131 107.56 126.131C106.049 126.131 104.824 127.358 104.824 128.872C104.824 130.385 106.049 131.613 107.56 131.613Z" fill="#E7FF2C"/>
<path d="M179.324 141.265C182.426 141.265 184.94 138.745 184.94 135.637C184.94 132.529 182.426 130.01 179.324 130.01C176.222 130.01 173.707 132.529 173.707 135.637C173.707 138.745 176.222 141.265 179.324 141.265Z" fill="#E7FF2C"/>
<path d="M244.944 130.563C243.426 126.14 241.118 122.03 238.134 118.433C235.777 115.517 231.528 112.601 232.605 108.14C234.349 103.012 237.723 98.598 242.209 95.5732C243.373 94.786 244.857 93.4447 246.457 93.8529C249.077 94.5236 247.913 99.4512 247.796 101.813C247.243 111.464 245.119 121.232 244.944 130.563Z" fill="#5848B4"/>
<path d="M81.9199 97.9656C83.1762 96.0141 84.7732 94.3053 86.6343 92.9213C88.5559 91.2308 90.7504 89.88 93.1239 88.9267C95.3956 87.9408 97.7171 87.0745 100.079 86.3316C101.592 85.8651 104.299 86.3317 105.463 85.2237C103.28 79.7129 96.2087 77.6135 92.6583 73.1523C92.4546 75.7474 92.018 78.2841 91.7852 80.8791C91.8362 83.0731 91.5716 85.263 90.9995 87.3813" fill="#5848B4"/>
<path d="M131.132 139.281C127.174 137.823 114.806 134.003 113.671 141.176C112.944 146.337 120.335 148.903 124.089 149.748C126.999 150.39 132.616 151.527 135.002 149.398C139.513 145.345 134.77 138.989 130.463 137.735C126.747 136.847 122.902 136.64 119.113 137.123" fill="#3C2868"/>
<path d="M113.611 169.372C113.116 163.278 120.479 160.217 124.582 160.071C131.887 159.838 139.511 162.258 146.67 163.395C155.234 164.427 163.86 164.846 172.483 164.649C181.591 164.953 190.71 164.661 199.78 163.774C206.823 162.958 216.717 157.301 223.556 160.129C228.037 162.025 230.075 168.089 228.91 173.454C226.262 185.759 211.45 190.249 202.719 192.203C188.867 195.119 174.753 190.191 161.483 187.683C149.086 185.351 136.514 185.176 124.175 182.96C117.394 181.764 109.653 177.916 113.611 169.372Z" fill="#E7FF2C" stroke="#5848B4" stroke-miterlimit="10"/>
<path d="M121.876 173.016C120.072 169.371 124.291 168.38 127.085 168.584C130.453 168.956 133.796 169.531 137.096 170.304C141.199 171.092 145.361 171.354 149.551 171.762C164.004 173.24 178.575 173.113 193 171.383C195.415 171.091 197.627 171.587 199.984 171.383C202.803 170.897 205.564 170.116 208.22 169.05C212.585 167.534 219.424 164.764 222.566 169.867C226.321 175.99 216.746 180.714 212.352 181.967C201.49 184.693 190.125 184.693 179.264 181.967C172.018 180.48 164.568 179.693 157.263 178.672C152.054 177.944 147.136 178.672 141.956 177.36C135.234 175.932 127.143 176.136 121.876 173.016Z" fill="#8776DD" stroke="#5848B4" stroke-miterlimit="10"/>
<path d="M124.262 173.018C124.331 172.503 124.512 172.009 124.791 171.571C125.071 171.134 125.443 170.763 125.882 170.485C126.32 170.207 126.814 170.029 127.328 169.963C127.843 169.896 128.366 169.944 128.86 170.102C129.466 170.155 130.05 170.359 130.558 170.695C131.066 171.031 131.482 171.489 131.77 172.026C132.356 172.887 132.68 173.9 132.701 174.942C130.759 174.762 128.85 174.321 127.026 173.63C126.133 173.316 125.204 173.11 124.262 173.018Z" fill="white"/>
<path d="M134.826 174.912C135.567 173.873 136.559 173.039 137.71 172.488C138.86 171.937 140.131 171.688 141.403 171.763C143.731 171.967 144.633 173.629 145.71 175.262C143.873 175.443 142.019 175.285 140.239 174.795C138.452 174.399 136.595 174.439 134.826 174.912Z" fill="white"/>
<path d="M148.301 176.196C149.309 174.847 150.782 173.922 152.433 173.601C154.296 173.338 158.253 174.505 158.253 176.721C155.663 178.179 152.171 176.546 148.301 176.196Z" fill="white"/>
<path d="M161.6 177.099C162.269 176.749 162.938 175.787 163.753 175.321C164.647 174.782 165.634 174.416 166.663 174.242C167.78 174.163 168.887 174.494 169.777 175.175C170.65 175.933 170.708 176.983 171.058 178.091C168.924 178.174 166.791 177.909 164.743 177.303C163.699 177.18 162.65 177.112 161.6 177.099Z" fill="white"/>
<path d="M173.297 178.47C173.574 177.905 173.78 177.308 173.908 176.691C174.2 175.996 174.672 175.392 175.276 174.942C176.384 174.238 177.696 173.93 179.001 174.067C179.82 174.159 180.596 174.482 181.24 174.998C181.884 175.514 182.369 176.202 182.638 176.983C182.809 178.034 182.906 179.096 182.929 180.161C179.699 180.598 176.702 178.849 173.297 178.47Z" fill="white"/>
<path d="M185.871 180.277C186.025 178.818 186.337 177.381 186.802 175.99C187.097 175.445 187.513 174.975 188.017 174.616C188.522 174.257 189.102 174.019 189.712 173.92C192.972 172.987 193.961 177.04 194.572 179.402C192.897 180.014 191.115 180.282 189.334 180.189C188.179 180.131 187.022 180.16 185.871 180.277Z" fill="white"/>
<path d="M196.84 178.993C196.942 177.694 197.156 176.406 197.48 175.144C197.723 174.528 198.117 173.983 198.625 173.56C199.134 173.137 199.741 172.85 200.39 172.724C201.098 172.6 201.827 172.706 202.471 173.026C203.115 173.346 203.64 173.863 203.97 174.503C204.233 175.023 204.438 175.57 204.581 176.136C204.814 177.04 205.163 177.244 204.261 177.681C201.833 178.347 199.349 178.786 196.84 178.993Z" fill="#E7FF2C"/>
<path d="M207.637 176.515C207.507 174.628 207.954 172.747 208.918 171.121C209.936 169.809 210.955 170.159 212.41 170.683C213.312 171.004 215.32 172.666 215 173.803C214.855 174.182 213.952 174.328 213.603 174.474C212.497 174.882 211.391 175.174 210.286 175.465C209.346 175.65 208.449 176.006 207.637 176.515Z" fill="#E7FF2C"/>
<path d="M216.863 172.812C216.568 172.142 216.456 171.406 216.538 170.679C216.619 169.952 216.892 169.259 217.328 168.672C218.008 168.691 218.667 168.916 219.217 169.316C219.768 169.717 220.184 170.275 220.413 170.917C219.442 171.885 218.207 172.545 216.863 172.812Z" fill="white"/>
<path d="M208.512 178.498C209.565 177.867 210.732 177.451 211.946 177.273C212.964 176.982 213.866 176.282 214.856 176.049C215.105 176.387 215.279 176.775 215.364 177.187C215.45 177.599 215.446 178.024 215.352 178.434C215.258 178.844 215.076 179.229 214.82 179.562C214.563 179.895 214.238 180.169 213.866 180.364C212.676 181.096 211.305 181.48 209.909 181.472C208.541 181.21 209.152 179.11 208.512 178.498Z" fill="white"/>
<path d="M204.932 179.111C204.379 181.094 203.71 183.077 201.236 182.931C200.159 182.931 199.082 182.523 198.006 182.494C197.715 181.998 197.074 181.298 197.133 180.715C199.17 180.307 201.411 180.482 203.448 179.957" fill="white"/>
<path d="M217.911 177.274C217.911 176.458 217.707 175.816 218.202 175.204C218.918 174.502 219.798 173.99 220.763 173.717C220.87 174.729 220.656 175.749 220.151 176.633C219.937 177.013 219.582 177.294 219.162 177.414C218.743 177.534 218.293 177.484 217.911 177.274Z" fill="white"/>
<path d="M209.151 170.248C210.288 169.198 211.216 167.941 211.886 166.545C212.05 165.961 212.244 165.387 212.468 164.824C212.004 165.737 211.699 166.724 211.566 167.74C211.376 168.347 211.376 168.999 211.566 169.606C211.915 170.326 212.501 170.903 213.225 171.239C214.19 171.953 215.247 172.531 216.368 172.959C214.796 172.639 212.847 171.268 211.333 172.318C210.278 173.251 209.595 174.535 209.413 175.933C209.457 175.322 209.457 174.708 209.413 174.096C209.208 173.142 208.697 172.282 207.958 171.647C207.026 170.656 205.484 168.731 203.971 168.731C205.513 169.14 208.307 170.627 209.791 169.285" fill="white"/>
<path d="M197.453 171.179C199.011 169.746 200.277 168.023 201.178 166.106C201.406 165.304 201.678 164.516 201.993 163.744C201.348 164.993 200.924 166.344 200.742 167.739C200.509 168.568 200.509 169.446 200.742 170.275C201.225 171.275 202.037 172.078 203.041 172.55C204.358 173.513 205.796 174.297 207.319 174.882C205.165 174.416 202.488 172.579 200.451 174.008C199.025 175.261 198.079 176.972 197.774 178.848C197.901 178.018 197.97 177.18 197.977 176.34C197.715 175.039 197.016 173.866 195.998 173.016C194.718 171.646 192.623 169.197 190.527 169.167C192.652 169.751 196.493 171.763 198.559 169.926" fill="white"/>
<path opacity="0.49" d="M176.121 73.5015C175.16 66.6785 185.811 55.6278 189.827 50.1753C194.398 43.8806 198.559 37.2967 202.283 30.4646C205.426 24.6331 208.889 19.0348 212.294 13.4657C206.455 11.1024 200.478 9.09655 194.396 7.45922C186.19 5.56397 177.983 3.81447 169.631 2.58984C159.329 16.5272 150.453 32.5348 141.286 46.3264C131.712 60.6429 120.188 75.6883 113.64 91.7542C114.571 88.3719 136.514 82.4821 141.519 83.5609C136.05 100.764 129.569 117.627 122.109 134.062C112.272 155.056 104.793 177.011 96.2667 198.588C89.7771 214.946 80.9886 230.341 74.1207 246.523C73.4223 248.215 72.7238 250.081 72.0254 252.005C77.8162 256.888 84.0186 261.258 90.5629 265.068C96.5869 268.596 103.164 269.937 109.362 272.911L110.526 273.523C129.617 240.4 149.726 207.744 166.517 173.425C175.539 154.968 182.756 136.191 190.613 117.238C195.822 104.613 198.005 91.171 202.486 78.3999C196.288 73.8805 183.483 73.239 176.121 73.5015Z" fill="white"/>
</g>
<defs>
<clipPath id="clip0_1_1782">
<rect width="499" height="530" fill="white" transform="translate(0 0.548828)"/>
</clipPath>
</defs>
</svg>
