<svg width="496" height="349" viewBox="0 0 496 349" fill="none" xmlns="http://www.w3.org/2000/svg">
<g clip-path="url(#clip0_1_9359)">
<path d="M4.29883 338.648C12.9213 329.249 19.9916 317.815 25.1086 304.994C32.1063 287.048 8.12531 268.179 16.5907 251.055C25.5803 232.944 40.4407 223.197 41.0435 201.2C41.358 189.971 38.0034 179.532 38.1868 168.501C38.3441 158.622 41.1746 149.369 42.4326 139.654C44.8438 120.917 44.6865 102.575 44.8176 83.6738C44.8176 69.0201 41.5939 46.8256 57.7647 41.2934C70.869 36.782 83.0299 49.888 94.7714 55.0909C108.269 61.0512 121.845 68.8555 134.084 75.7049C142.655 80.5126 147.608 76.4953 157.672 74.7171C184.911 70.4182 212.365 68.6463 239.811 69.4154C270.763 69.8764 302.711 67.6043 333.323 73.1365C341.92 74.7171 358.851 79.7224 364.302 87.4608C368.862 74.289 387.68 60.1291 397.692 50.349C412.238 36.1234 426.521 20.4159 446.414 16.3656C467.538 12.0518 469.818 30.2619 470.211 48.472C470.867 79.36 465.599 110.116 465.441 140.873C465.441 160.005 468.691 170.048 481.612 182.562C476.8 181.87 471.937 181.97 467.145 182.858C478.624 201.562 486.146 227.807 489.055 250.298C492.908 279.935 499.827 312.107 489.055 340.92C485.124 327.748 467.25 318.364 457.002 311.745C457.002 342.402 458.811 372.697 452.206 402.894C445.575 392.192 434.305 385.968 425.656 377.439C413.469 365.42 404.427 363.971 387.837 365.749C364.643 368.219 340.373 369.668 318.043 377.835C308.11 381.49 335.97 384.42 325.487 385.244C320.035 385.771 314.427 385.244 309.211 387.417C309.211 387.746 309.211 387.944 309.604 388.043C301.742 389.722 293.198 389.327 285.152 391.336C269.872 394.958 257.161 411.094 249.639 425.484C245.262 421.236 243.06 413.662 236.954 412.147C233.868 417.546 230.116 422.293 225.841 426.208C202.699 396.209 155.261 373.718 118.7 374.146C106.539 374.311 59.4945 373.224 47.2027 371.907C35.8805 370.722 49.3779 372.302 37.9247 373.554C30.2979 374.41 23.3789 378.263 16.0142 379.218C21.6753 367.067 30.7697 354.191 30.062 339.965C23.8244 341.348 16.0141 336.508 4.29883 338.648Z" fill="#C4AAFF"/>
<path d="M52.8633 141.367C57.6333 135.67 60.3852 128.853 65.1552 123.189C72.5281 114.398 81.2005 107.507 90.6824 102.905C98.2306 99.3154 106.408 96.3188 114.27 93.4869C118.206 91.8002 122.236 90.4794 126.326 89.5353C129.845 89.4523 133.351 89.0006 136.81 88.1851C134.897 85.4848 130.336 83.7397 127.244 82.192C123.234 80.1504 119.538 77.5819 115.423 75.6061C106.722 71.2265 96.6318 67.7358 87.5898 64.344C78.5478 60.9523 68.0119 55.6177 59.101 62.7305C49.7707 70.1726 52.2343 85.7813 52.1033 95.6602C52.1033 109.03 52.8633 122.959 52.8633 141.367Z" fill="white"/>
<path d="M390.17 82.0275C393.97 90.227 397.456 100.106 403.065 106.89C408.673 113.673 416.405 118.744 422.511 125.034C433.467 136.296 443.478 150.06 454.827 160.367C454.538 158.984 455.141 157.996 455.141 156.712C457.244 156.514 459.355 156.514 461.458 156.712C459.335 152.102 456.609 147.623 454.408 142.947C452.293 137.724 451.385 131.86 451.787 126.022C451.656 109.557 450.607 92.6968 451 76.1332C451.236 66.2543 456.635 53.5763 452.494 43.7962C446.912 30.6244 431.973 42.8742 425.971 48.3076C414.544 58.6804 401.44 66.2213 390.17 82.0275Z" fill="white"/>
<path d="M37.7404 365.026C45.2623 357.814 37.2949 359.559 46.9659 358.934C65.81 357.748 119.485 356.695 138.225 358.934C157.383 361.338 176.07 369.208 193.892 376.913C199.041 378.786 204.028 381.301 208.779 384.421C212.631 387.385 215.016 390.349 219.865 392.16C221.883 392.884 223.98 394.037 225.552 392.917C227.675 391.435 227.308 385.442 229.431 384.092C233.52 381.458 244.684 391.864 248.878 393.971C256.872 381.063 270.605 376.913 283.971 375.333C297.338 373.752 309.787 368.055 323.075 366.475C339.481 364.499 320.926 362.819 337.28 360.942C355.914 358.802 374.549 355.147 393.236 353.797C401.57 353.204 410.271 351.854 418.501 353.5C423.709 354.183 428.826 355.699 433.728 358.012C435.248 358.967 436.349 360.844 437.895 361.799C438.891 351.064 440.962 340.658 442.298 330.021C442.949 323.846 445.131 318.085 448.536 313.557C453.489 332.063 453.437 352.249 454.223 371.546C454.538 379.482 456.844 390.875 454.931 398.548C453.018 406.221 446.492 397.923 442.77 394.761C439.048 391.6 435.667 388.636 431.893 386.035C426.652 382.38 422.222 377.671 416.902 374.081C412.855 370.987 408.427 368.762 403.798 367.495C396.433 366.079 387.81 367.495 380.21 367.495C363.724 367.556 347.266 369.241 330.99 372.534C325.415 373.427 319.898 374.814 314.478 376.683C308.87 378.988 338.617 382.511 332.824 384.421C323.442 387.517 313.168 386.364 303.549 387.056C296.106 387.615 284.496 387.056 277.996 391.007C273.095 394.103 269.478 400.228 265.494 404.574C261.75 408.343 258.245 412.472 255.011 416.923C253.522 419.658 251.69 422.071 249.586 424.069C246.388 417.944 243.138 414.618 238.866 419.623C237.556 421.171 235.328 425.748 233.31 426.407C231.292 427.065 227.78 421.83 225.709 420.117C208.621 405.957 191.926 389.328 170.671 384.718C161.917 382.808 152.325 381.655 143.912 379.021C135.499 376.386 127.007 371.677 118.018 370.755C111.177 370.031 69.0074 370.492 62.1407 370.755C49.7964 371.414 62.0097 371.48 49.744 373.456C44.9478 374.213 36.3515 376.749 31.9746 374.971C31.9897 374.452 32.088 373.942 32.2637 373.473C32.4393 373.003 32.6885 372.583 32.9966 372.237" fill="#8776DD"/>
<path d="M225.5 428.81L224.661 427.723C202.043 398.383 155.47 375.892 118.489 376.188C106.722 376.353 59.5984 375.299 46.8609 373.949L43.7683 373.62C43.2442 374.706 41.7502 375.167 37.7927 375.595C34.0036 376.143 30.2592 377.102 26.6015 378.46C23.0959 379.718 19.5222 380.654 15.9084 381.259L13.2876 381.589L14.598 378.79C15.8822 375.991 17.2189 373.257 18.8438 370.36C23.5352 361.337 28.41 352.018 28.5148 342.238C25.7909 342.331 23.0668 342.055 20.39 341.414C15.0944 340.144 9.67218 339.932 4.32408 340.789L-0.0527344 341.579L3.24959 337.924C11.7414 328.653 18.7122 317.389 23.7711 304.764C26.8899 296.729 23.1421 288.299 19.1845 279.507C14.9649 270.023 10.588 260.21 15.3055 250.66C18.3975 244.735 21.906 239.169 25.789 234.031C32.6295 224.514 39.1032 215.524 39.4963 201.628C39.4779 196.093 39.0035 190.575 38.0809 185.163C37.1615 179.828 36.6785 174.388 36.6395 168.929C36.9202 162.703 37.7284 156.532 39.0506 150.521C39.7321 147.031 40.4135 143.408 40.8853 139.852C42.6902 123.158 43.4701 106.314 43.2179 89.4696V84.0033C43.2179 81.9288 43.2179 79.6566 43.2179 77.4174C42.851 63.0601 42.4054 45.2121 57.2395 40.108C66.9891 36.8151 75.9788 42.4791 84.6801 48.0112C88.0667 50.2754 91.5689 52.2555 95.1636 53.9385C107.403 59.3719 119.931 66.4188 130.965 72.6096L134.529 74.6183C140.374 77.9112 144.462 76.7916 150.097 75.2439C152.22 74.6512 154.657 73.9927 157.462 73.4988C184.758 69.1523 212.276 67.3802 239.783 68.1971C247.829 68.1971 256.111 68.1971 264.105 68.1971C287.038 67.9996 310.756 67.8018 333.453 71.951C341.945 73.4657 357.198 77.9112 363.908 85.1228C368.337 75.2439 379.633 65.0357 388.99 56.7045C391.872 54.1031 394.598 51.6664 396.852 49.4602L400.888 45.4756C413.993 32.3037 427.805 18.9013 446.151 15.1473C454.013 13.5338 459.936 14.851 464.104 19.1648C470.158 25.4873 471.232 37.1774 471.468 48.8015C471.541 65.4776 470.753 82.1419 469.11 98.6898C467.956 112.652 466.777 127.108 466.698 141.268C466.698 160.499 470.263 169.917 482.424 181.64L486.669 185.723L481.428 184.57C477.514 183.914 473.548 183.914 469.634 184.57C480.395 204.294 487.497 226.8 490.417 250.43C490.941 254.48 491.518 258.596 492.095 262.712C495.869 289.254 499.774 316.684 490.208 342.04L488.871 345.531L487.796 341.909C484.625 331.173 470.997 322.743 461.063 316.553L458.443 314.84C458.443 318.989 458.443 323.106 458.443 327.222C458.731 352.314 459.019 378.263 453.463 403.75L452.755 407.043L451.157 404.442C446.428 397.786 440.858 392.157 434.671 387.779C431.343 385.079 427.909 382.313 424.817 379.284C412.787 367.396 404.112 366.112 387.941 367.923L378.27 368.911C358.22 370.919 337.516 372.961 318.383 379.975H318.095C319.972 380.717 321.879 381.333 323.808 381.819C328.002 383.005 329.286 383.367 329.181 385.112C329.076 386.857 327.373 387.088 325.564 387.253C323.756 387.417 322.498 387.483 320.952 387.549C318.594 387.603 316.241 387.812 313.901 388.175L315.736 388.767L309.708 389.986C305.843 390.725 301.95 391.22 298.045 391.468C293.759 391.723 289.488 392.295 285.255 393.18C272.963 396.078 260.016 408.591 250.608 426.603L249.847 428.085L248.72 426.999C247.116 425.33 245.666 423.441 244.396 421.368C242.691 418.174 240.262 415.697 237.424 414.255C234.315 419.409 230.635 423.977 226.495 427.822L225.5 428.81ZM119.538 372.829C156.44 372.829 202.567 395.189 225.709 424.298C229.54 420.694 232.9 416.361 235.669 411.456L236.14 410.534L237.005 410.764C240.84 412.061 244.161 415.085 246.335 419.26C247.211 420.662 248.157 421.993 249.166 423.245C254.408 413.366 267.014 394.135 284.705 389.92C289.042 389.01 293.417 388.427 297.809 388.175C301.112 387.911 304.493 387.615 307.742 387.022V386.693L308.634 386.364C312.567 385.052 316.62 384.399 320.69 384.421C316.287 383.103 314.426 382.116 314.373 380.074C314.321 378.032 316.47 377.176 317.492 376.781C336.887 369.701 357.722 367.594 377.772 365.585C380.996 365.289 384.22 364.959 387.417 364.597C403.981 362.852 413.495 364.169 426.153 376.649C429.141 379.613 432.522 382.346 435.798 384.98C441.441 389.112 446.638 394.136 451.261 399.931C456.084 375.958 455.822 352.314 455.533 327.485C455.533 322.48 455.533 317.442 455.533 312.403V309.703L457.473 310.922L462.086 313.852C471.442 319.648 483.917 327.386 488.845 337.66C496.576 314.116 492.933 288.431 489.395 263.536C488.819 259.387 488.216 255.27 487.691 251.187C484.468 226.259 476.369 201.332 466.017 184.505L464.549 182.134L468.612 181.673C471.517 181.249 474.44 181.04 477.365 181.047C467.17 170.081 463.973 160.071 464.051 141.531C464.051 127.207 465.309 112.685 466.462 98.7228C468.101 82.3398 468.889 65.84 468.821 49.3283C468.585 38.4286 467.668 27.5619 462.4 22.0956C458.862 18.4075 453.673 17.3537 446.675 18.8027C428.984 22.392 415.591 35.6626 402.618 48.4393L398.556 52.4237C396.276 54.6629 393.524 57.1328 390.693 59.7342C381.048 68.4606 369.019 79.2614 365.638 88.8769L364.799 91.2479L363.462 89.305C358.587 82.3568 342.731 77.2857 333.27 75.5734C310.756 71.4572 287.142 71.6547 264.288 71.8523C256.295 71.8523 248.013 71.8523 239.941 71.8523C212.556 71.0256 185.16 72.7867 157.986 77.121C155.365 77.582 152.928 78.2406 150.831 78.8334C144.934 80.4469 140.347 81.6982 133.638 77.9772L130.074 76.0015C119.092 69.8107 106.486 62.8295 94.4821 57.4291C90.7187 55.5274 87.0591 53.3163 83.5269 50.8102C75.2974 45.5744 66.7534 40.141 57.9996 43.1705C45.1574 47.5831 45.5505 63.2906 45.8912 77.1869C45.8912 79.5578 45.8912 81.83 45.8912 83.9704V89.4037C46.1463 106.424 45.3576 123.444 43.5324 140.313C43.0606 144.001 42.3267 147.689 41.6453 151.246C40.3514 157.014 39.5692 162.944 39.3128 168.929C39.3518 174.167 39.8172 179.386 40.7018 184.505C41.6741 190.131 42.1661 195.871 42.1695 201.628C41.7501 216.743 34.9621 226.161 27.7809 236.138C23.9763 241.129 20.5378 246.54 17.5071 252.307C13.602 260.177 17.5072 268.772 21.4647 277.794C25.4222 286.817 29.8252 296.499 26.1035 306.114C21.4641 317.653 15.2553 328.084 7.75741 336.936C12.0749 336.75 16.3962 337.125 20.6522 338.056C23.5269 338.832 26.4813 339.032 29.4058 338.648L30.8735 338.286V340.163C31.4501 351.689 26.0512 362.061 20.8095 372.072C19.866 373.883 18.9486 375.661 18.1886 377.407C20.8095 376.847 23.1943 376.024 25.7628 375.167C29.576 373.763 33.4779 372.772 37.4257 372.204C38.5069 372.116 39.5833 371.951 40.6495 371.71V371.348C41.0164 369.932 40.9901 369.931 46.9132 370.557C59.31 371.907 106.905 372.895 118.306 372.797L119.538 372.829Z" fill="#5848B4"/>
<path d="M219.997 94.3097C206.683 94.3097 195.465 87.9872 184.615 77.8449C171.091 65.2328 160.555 62.5655 144.332 62.2033C150.937 55.1563 161.184 56.671 169.361 56.1441C181.126 54.7278 192.982 57.1672 203.773 63.2241C219.499 72.0163 235.984 92.2021 254.251 89.1067C243.203 82.8676 233.473 73.4615 225.841 61.6433C217.166 47.2531 208.805 16.1675 223.613 3.88477C217.192 30.5249 245.602 42.3796 258.654 52.1268C272.309 62.3021 293.486 65.1011 303.209 82.1916C303.209 78.7011 302.528 68.5915 299.592 64.9363C309.683 73.0699 322.708 77.4168 330.125 90.5886C334.644 98.292 338.287 106.748 340.95 115.714" fill="#C4AAFF"/>
<path d="M339.821 116.242C337.216 107.46 333.691 99.1547 329.338 91.5446C324.411 82.8182 316.758 78.0106 309.367 73.3346C307.349 72.0503 305.278 70.766 303.286 69.383C304.323 73.5487 304.827 77.8944 304.78 82.2584L304.466 87.0333L302.29 83.1805C296.21 72.6101 285.386 67.6048 274.928 62.7641C269.1 60.3269 263.452 57.2527 258.05 53.5768C255.849 51.8974 253.123 50.2837 250.187 48.3079C237.083 39.8779 219.418 28.5502 221.541 8.23259C219.188 11.4039 217.661 15.4016 217.165 19.6921C215.356 33.0286 220.677 50.4155 226.888 60.6895C234.372 72.2804 243.914 81.5059 254.748 87.626L258.784 89.997L254.355 90.7543C241.25 93.0594 229.116 83.7731 217.479 74.8163C212.874 71.1003 208.095 67.7354 203.169 64.7398C192.552 58.8553 180.914 56.4751 169.36 57.8247C167.735 57.8247 166.031 57.8247 164.302 57.8247C158.965 57.4133 153.618 58.3539 148.576 60.5906C162.519 61.3151 172.61 64.5424 185.269 76.397C197.22 87.5602 208.28 92.6642 219.864 92.5325V95.8254C207.598 96.0559 196.093 90.6555 183.67 79.0314C170.277 66.5181 159.846 64.0483 144.147 63.719H140.688L143.308 60.8871C148.969 54.828 157.042 54.6964 164.144 54.5976C165.848 54.5976 167.525 54.5976 169.124 54.5976C181.086 53.1936 193.135 55.677 204.113 61.8092C209.158 64.8346 214.043 68.2664 218.737 72.0833C228.487 79.5583 238.525 87.2638 249.008 87.8565C239.606 81.6829 231.325 73.1278 224.686 62.7311C218.16 51.8973 212.552 33.4566 214.491 19.231C214.87 15.9041 215.806 12.7162 217.238 9.87787C218.67 7.03954 220.566 4.61545 222.799 2.76616L225.84 0.263672L224.765 4.61021C219.759 25.3559 237.24 36.585 251.262 45.6077C254.171 47.4847 256.923 49.2629 259.125 50.9752C264.382 54.5535 269.881 57.5399 275.557 59.8992C285.097 64.3118 294.9 68.8561 301.557 77.6154C301.419 73.574 300.364 69.6662 298.516 66.3533L289.579 55.256L300.063 63.8179C303.288 66.3119 306.612 68.598 310.022 70.6673C317.727 75.508 325.747 80.5461 330.989 89.8981C335.55 97.7662 339.244 106.373 341.97 115.485L339.821 116.242Z" fill="#5848B4"/>
<path d="M295.083 236.699C308.555 242.758 329.155 239.761 344.303 240.782C358.22 241.737 371.822 242.429 384.848 246.841C396.904 250.957 419.129 257.411 427.385 265.677C433.413 271.769 437.868 287.937 438.707 296.104C444.656 279.639 443.451 261.594 442.14 244.536C459.858 252.703 460.722 259.486 466.646 276.642C467.406 250.529 461.404 213.121 447.094 190.696C438.707 177.524 418.815 165.604 405.448 157.042C390.221 147.163 363.042 140.182 344.539 142.355C319.09 145.319 300.377 165.406 294.114 187.897C291.493 197.348 291.493 210.948 287.85 218.686" fill="#5848B4"/>
<path d="M68.8767 175.416C55.4841 185.295 52.6273 218.225 46.2324 233.438C40.6761 246.61 29.485 265.742 33.5212 280.165C41.2003 270.286 49.7968 261.428 57.109 251.22C53.466 262.811 50.3209 279.078 51.5003 290.999C62.5342 228.663 95.5048 240.353 129.393 233.998C148.394 230.408 145.721 205.349 164.355 201.957C181.653 198.829 197.09 182.496 195.57 161.948C194.679 150.06 189.044 141.959 178.744 139.852C160.109 136.032 138.906 141.334 120.822 146.438C104.416 151.048 84.7069 157.305 72.5985 171.695L68.8767 175.416Z" fill="#5848B4"/>
<path d="M400.94 188.226C405.658 191.519 404.714 207.161 403.744 213.22C402.913 218.295 401.049 223.013 398.334 226.914C395.62 230.815 392.147 233.766 388.255 235.48C375.596 241.803 360.815 242.264 347.238 242.066C335.418 242.066 323.651 239.958 311.83 239.366C298.22 238.999 285.096 232.939 274.536 222.144C269.115 217.141 264.401 211.03 260.592 204.065C255.01 191.585 263.213 192.639 271.679 188.983C285.412 183.023 301.662 173.309 315.998 172.519C330.779 171.597 345.587 170.773 360.369 169.818C376.435 168.83 388.622 179.763 400.94 188.226Z" fill="#E7FF2C"/>
<path d="M350.724 243.812H347.212C340.372 243.812 333.426 243.054 326.691 242.363C321.79 241.869 316.705 241.375 311.778 241.111C297.896 240.717 284.511 234.544 273.723 223.56C269.739 219.575 262.558 211.87 259.466 204.988C257.526 200.641 257.002 197.48 257.841 195.109C258.994 191.816 262.375 190.63 266.28 189.379C267.879 188.852 269.556 188.325 271.233 187.601C274.562 186.152 277.969 184.505 281.586 182.793C293.039 177.294 304.885 171.63 315.919 170.971L332.195 169.983L360.29 168.271C374.365 167.415 385.372 175.318 396.065 182.991L401.543 186.876C407.256 190.861 405.92 207.984 405.003 213.648C404.126 218.99 402.167 223.957 399.316 228.07C396.465 232.183 392.818 235.302 388.727 237.127C376.881 242.955 363.147 243.812 350.724 243.812ZM362.413 171.366H360.421L332.3 173.079L316.05 174.067C305.409 174.692 293.773 180.257 282.529 185.658C278.886 187.403 275.453 188.951 272.046 190.498C270.264 191.289 268.455 191.849 266.804 192.375C263.58 193.396 260.776 194.285 260.121 196.195C259.466 198.105 260.121 199.949 261.615 203.242C264.471 209.631 271.364 217.007 275.217 220.827C285.569 231.385 298.422 237.317 311.752 237.687C316.758 237.95 321.842 238.477 326.77 238.971C333.453 239.63 340.346 240.321 347.108 240.387C360.212 240.387 375.098 240.123 387.652 233.801C391.331 232.169 394.613 229.372 397.179 225.68C399.746 221.988 401.511 217.526 402.303 212.726C403.378 206.14 403.876 192.079 400.154 189.478C398.319 188.226 396.485 186.909 394.624 185.559C384.927 178.677 374.784 171.399 362.413 171.399V171.366Z" fill="#5848B4"/>
<path d="M227.91 196.459C233.938 198.467 235.773 203.44 232.313 209.828C226.338 220.761 213.365 227.742 202.986 229.224C192.607 230.705 181.416 229.224 170.932 229.224C159.505 229.224 148.681 232.319 137.045 231.166C117.309 229.191 96.1067 226.062 84.0507 204.428C71.9947 182.793 98.8062 165.505 112.88 162.146C123.652 159.577 135.184 161.685 146.034 162.607C158.562 163.694 172.243 164.517 184.325 168.534C199.054 173.474 211.87 185.23 227.91 196.459Z" fill="#E7FF2C"/>
<path d="M142.523 233.175C140.688 233.175 138.827 233.174 136.967 232.878C115.371 230.738 95.0325 227.05 82.9765 205.481C81.3381 202.877 80.2784 199.774 79.9055 196.489C79.5326 193.203 79.8597 189.852 80.8536 186.777C85.3353 172.913 102.188 163.133 112.697 160.598C121.701 159.012 130.834 158.956 139.849 160.433C141.999 160.663 144.121 160.894 146.218 161.059L149.94 161.388C161.657 161.885 173.31 163.77 184.745 167.019C195.726 170.674 205.869 178.248 216.562 186.25C220.363 189.082 224.294 192.013 228.435 194.91C229.859 195.197 231.205 195.921 232.352 197.018C233.5 198.115 234.414 199.552 235.013 201.2C235.399 202.841 235.452 204.577 235.168 206.25C234.885 207.924 234.273 209.482 233.388 210.782C226.993 222.505 213.234 229.421 203.144 230.836C195.91 231.639 188.64 231.782 181.39 231.265C177.931 231.265 174.392 230.968 170.907 230.968C166.189 230.968 161.445 231.528 156.859 232.055C152.272 232.582 147.424 233.175 142.523 233.175ZM124.543 162.771C120.739 162.726 116.939 163.134 113.195 163.989C103.55 166.294 87.3533 175.548 83.291 188.16C82.4734 190.728 82.2124 193.523 82.5347 196.259C82.857 198.995 83.751 201.575 85.1256 203.735C96.5002 224.119 116.235 227.675 137.15 229.75C143.656 230.174 150.18 229.899 156.649 228.927C161.288 228.367 166.084 227.807 170.933 227.807H171.195C174.576 227.807 178.088 227.807 181.469 228.103C188.596 228.616 195.743 228.484 202.855 227.708C212.343 226.358 225.29 219.937 231.239 209.037C231.847 208.14 232.281 207.08 232.509 205.937C232.736 204.795 232.75 203.602 232.55 202.451C232.046 201.3 231.336 200.311 230.477 199.563C229.617 198.814 228.631 198.326 227.596 198.137H227.282C223.062 195.174 219.078 192.21 215.226 189.312C204.218 181.08 194.704 173.967 184.064 170.444C172.823 167.176 161.363 165.246 149.835 164.681L146.113 164.352L139.718 163.726C134.66 163.199 129.576 162.771 124.543 162.771Z" fill="#5848B4"/>
<path d="M138.014 166.526C125.88 163.233 126.404 194.418 127.714 202.09C129.497 212.628 136.049 220.07 143.807 224.482C154.794 230.107 166.87 231.472 178.481 228.401C187.575 225.8 194.442 221.486 199.448 211.047C202.907 204 206.577 193.463 204.244 185.131C200.627 172.157 183.277 169.918 174.287 168.337C161.996 166.065 149.468 164.254 138.014 166.526Z" fill="#3C2868"/>
<path d="M309.892 178.018C309.892 177.458 309.42 176.799 310.259 175.68C304.021 186.579 300.168 199.389 303.89 212.297C306.511 221.287 313.482 232.484 320.952 235.711C332.483 240.716 350.174 240.156 362.204 238.608C377.196 236.666 394.284 216.019 386.211 196.03C381.284 183.813 364.458 183.55 355.364 181.838C341.001 179.236 325.905 174.231 309.892 178.018Z" fill="#3C2868"/>
<path d="M81.9286 190.696C130.886 192.836 182.57 193.989 231.633 198.632C221.149 185.46 203.642 175.581 182.937 168.337C157.777 159.775 127.532 164.352 105.438 170.773C94.7708 173.869 86.1219 179.105 82.3741 185.822C82.398 185.805 82.425 185.796 82.4526 185.796C82.4802 185.796 82.5074 185.805 82.5313 185.822C81.872 187.303 81.6581 189.033 81.9286 190.696Z" fill="white"/>
<path d="M235.039 200.607L231.527 200.278C193.655 196.754 153.975 195.206 115.632 193.692L81.8751 192.407H80.7744L80.6172 191.057C80.4739 189.967 80.4739 188.855 80.6172 187.764H79.8047L81.2461 185.163C85.0202 178.412 93.4855 172.847 105.096 169.455C122.263 164.483 155.259 157.535 183.224 167.051C205.502 174.625 222.537 185.262 232.497 197.775L235.039 200.607ZM83.0283 189.081L115.579 190.399C152.717 191.848 191.061 193.362 227.858 196.655C217.951 185.887 202.383 176.897 182.464 169.949C155.05 160.597 122.551 167.447 105.594 172.386C95.3464 175.35 87.51 180.223 83.867 185.854L83.4738 186.678C83.1946 187.439 83.0859 188.281 83.1593 189.114L83.0283 189.081Z" fill="#5848B4"/>
<path d="M211.871 152.663C211.634 152.664 211.401 152.597 211.189 152.465C208.494 150.351 205.912 148.019 203.458 145.484C200.835 142.718 198.029 140.24 195.071 138.075C188.912 133.794 179.817 131.489 173.213 130.007C173.041 129.968 172.876 129.887 172.729 129.768C172.582 129.649 172.455 129.496 172.355 129.315C172.256 129.135 172.185 128.931 172.148 128.717C172.11 128.502 172.107 128.28 172.138 128.064C172.169 127.848 172.234 127.641 172.328 127.457C172.423 127.272 172.545 127.112 172.689 126.987C172.832 126.861 172.994 126.773 173.165 126.726C173.336 126.679 173.512 126.675 173.684 126.714C180.499 128.36 189.803 130.6 196.329 135.111C199.41 137.373 202.338 139.951 205.083 142.817C207.442 145.221 209.929 147.421 212.526 149.403C212.825 149.629 213.042 149.993 213.13 150.418C213.219 150.842 213.171 151.294 212.998 151.675C212.901 151.954 212.744 152.195 212.546 152.369C212.347 152.544 212.113 152.645 211.871 152.663Z" fill="#5848B4"/>
<path d="M299.224 141.268C298.942 141.263 298.668 141.145 298.442 140.933C298.216 140.72 298.05 140.422 297.966 140.083C297.918 139.875 297.903 139.658 297.922 139.443C297.941 139.228 297.993 139.02 298.075 138.83C298.158 138.64 298.27 138.473 298.404 138.338C298.538 138.203 298.692 138.102 298.857 138.041C304.464 136.153 310.206 134.973 315.998 134.518C318.881 134.188 321.869 133.826 324.699 133.299C333.951 131.554 343.622 130.961 352.952 130.368L356.307 130.171C356.48 130.148 356.654 130.171 356.819 130.238C356.984 130.305 357.135 130.415 357.264 130.562C357.393 130.708 357.495 130.886 357.565 131.086C357.635 131.285 357.671 131.501 357.67 131.719C357.68 131.935 357.657 132.152 357.601 132.357C357.545 132.561 357.457 132.751 357.342 132.913C357.228 133.075 357.089 133.207 356.934 133.302C356.779 133.396 356.61 133.451 356.438 133.464L353.083 133.661C343.805 134.221 334.213 134.814 325.092 136.526C322.183 137.086 319.169 137.448 316.26 137.811C310.639 138.211 305.064 139.315 299.618 141.104L299.224 141.268Z" fill="#5848B4"/>
<path d="M142.654 191.684C143.61 194.122 145.099 196.167 146.945 197.582C148.792 198.997 150.921 199.723 153.084 199.675C155.247 199.626 157.354 198.806 159.159 197.309C160.965 195.813 162.394 193.702 163.281 191.223C156.388 191.223 149.521 191.717 142.654 191.684Z" fill="#E7FF2C"/>
<path d="M173.528 210.915C176.611 210.915 179.11 207.774 179.11 203.901C179.11 200.027 176.611 196.887 173.528 196.887C170.445 196.887 167.945 200.027 167.945 203.901C167.945 207.774 170.445 210.915 173.528 210.915Z" fill="#E7FF2C"/>
<path d="M352.297 223.462C355.38 223.462 357.88 220.321 357.88 216.448C357.88 212.574 355.38 209.434 352.297 209.434C349.214 209.434 346.715 212.574 346.715 216.448C346.715 220.321 349.214 223.462 352.297 223.462Z" fill="#E7FF2C"/>
<path d="M329.104 213.484C335.429 213.484 340.557 207.041 340.557 199.093C340.557 191.146 335.429 184.703 329.104 184.703C322.778 184.703 317.65 191.146 317.65 199.093C317.65 207.041 322.778 213.484 329.104 213.484Z" fill="#E7FF2C"/>
<path d="M446.753 155.724C442.219 144.989 434.592 135.637 426.939 127.602C420.492 120.818 409.72 115.22 410.768 103.695C411.922 91.2805 420.911 76.3962 429.115 68.2297C431.578 65.7929 434.671 61.6439 438.471 62.1707C444.84 62.8952 443.713 75.7707 444.158 81.9285C446.203 106.428 444.158 132.014 446.753 155.724Z" fill="#5848B4"/>
<path d="M56.1914 135.934C57.5018 130.929 62.4815 125.43 65.5479 121.347C69.6062 116.243 74.2865 111.986 79.4123 108.735C84.4122 105.344 89.5471 102.277 94.7968 99.5471C98.1777 97.736 104.625 97.6373 106.958 94.6407C100.117 81.4688 82.9767 78.9004 73.2533 69.0215C73.6202 75.6074 73.4367 82.1933 73.6988 88.7793C73.8823 93.7517 75.2451 100.798 73.9871 105.507" fill="#5848B4"/>
<path d="M120.402 249.871C105.595 246.38 78.6519 247.138 83.2123 271.143C84.0597 274.675 85.4672 277.954 87.3499 280.783C89.2327 283.613 91.5517 285.935 94.1675 287.608C105.044 295.281 120.927 295.972 133.323 298.376C148.262 301.241 163.201 304.04 178.193 306.642C207.311 311.647 236.612 315.73 265.992 317.344C292.873 319.166 319.831 316.955 346.295 310.758C359.378 307.424 372.207 302.675 384.639 296.565C395.122 291.362 409.956 289.156 417.19 278.783C423.611 269.596 426.153 250.694 411.948 248.949C405.254 248.452 398.546 249.57 392.187 252.242C381.415 256.095 369.936 258.663 358.797 261.199C322.865 269.365 285.648 269.826 248.72 267.423C226.574 265.974 204.401 264.492 182.281 261.857C165.219 259.783 148.21 256.358 131.384 252.802C127.793 251.682 124.124 250.76 120.402 249.871Z" fill="#E7FF2C"/>
<path d="M284.103 319.318C278.154 319.318 272.073 319.319 265.941 318.825C240.387 317.409 212.449 314.017 178.01 308.09C162.836 305.488 147.477 302.59 133.141 299.824C130.52 299.297 127.48 298.869 124.466 298.408C113.982 296.795 102.215 295.115 93.5397 288.892C90.7616 287.132 88.3002 284.676 86.3077 281.674C84.3152 278.672 82.8339 275.189 81.9554 271.439C81.2348 268.621 81.1195 265.615 81.6212 262.724C82.1229 259.832 83.2237 257.159 84.8122 254.974C92.5175 244.799 111.021 245.918 120.666 248.388L124.649 249.343C126.982 249.936 129.288 250.496 131.516 250.957C148.526 254.546 165.221 257.971 182.335 260.012C204.77 262.68 227.099 264.161 248.721 265.577C292.438 268.442 327.348 266.467 358.457 259.354L359.82 259.057C370.461 256.62 381.469 254.151 391.742 250.463C398.243 247.724 405.107 246.605 411.949 247.17C418.816 247.993 421.62 252.438 422.747 256.028C425.159 263.667 422.197 273.942 418.187 279.704C412.945 287.377 403.825 290.67 395.123 293.864C391.533 295.181 388.178 296.399 385.112 297.914C372.605 304.07 359.697 308.851 346.532 312.206C325.961 317.159 305.049 319.542 284.103 319.318ZM107.194 249.969C98.7552 249.969 90.6829 252.043 86.6991 257.279C85.4129 259.076 84.531 261.271 84.144 263.638C83.7571 266.005 83.8792 268.459 84.4977 270.747C85.3007 274.043 86.6307 277.098 88.4063 279.725C90.1819 282.353 92.3657 284.497 94.8239 286.027C103.053 291.822 114.585 293.568 124.78 295.115C127.821 295.576 130.756 296.037 133.534 296.564C147.844 299.33 163.202 302.228 178.351 304.83C212.711 310.724 240.571 314.149 266.046 315.532C292.822 317.319 319.673 315.109 346.034 308.946C359.045 305.622 371.804 300.896 384.168 294.819C387.313 293.271 390.747 291.987 394.39 290.67C402.724 287.607 411.373 284.446 416.221 277.498C419.707 272.46 422.354 263.634 420.31 257.213C419.566 255.144 418.355 253.395 416.826 252.183C415.298 250.971 413.52 250.35 411.713 250.397C405.195 249.85 398.655 250.89 392.45 253.459C381.967 257.18 370.985 259.683 360.292 262.12L358.929 262.449C327.479 269.595 292.516 271.57 248.59 268.706C226.942 267.29 204.56 265.808 182.099 263.108C164.88 261.066 148.159 257.641 131.097 254.052C128.817 253.558 126.51 252.998 124.125 252.405L120.168 251.45C115.888 250.464 111.546 249.968 107.194 249.969Z" fill="#5848B4"/>
<path d="M275.165 294.951C264.262 294.951 253.647 294.326 243.4 293.107L225.604 291.098C206.445 288.991 186.632 286.818 167.316 282.932C160.999 281.648 154.631 280.199 148.472 278.783C143.02 277.531 137.595 276.247 132.117 275.128C129.497 274.601 126.535 274.37 123.259 274.107C117.1 273.613 110.731 273.119 106.328 270.814L107.403 267.817C112.58 269.959 117.992 271.07 123.442 271.11C126.771 271.374 129.916 271.604 132.537 272.164C138.041 273.316 143.492 274.568 148.943 275.819C155.076 277.235 161.445 278.717 167.735 279.968C186.946 283.854 206.707 286.027 225.814 288.135L243.662 290.144C288.389 295.43 333.509 290.045 376.645 274.271C385.163 271.472 393.995 268.542 402.853 266.039L403.43 269.332C394.545 271.802 385.739 274.7 377.221 277.531C360.602 283.472 343.686 288.016 326.586 291.131C309.524 293.728 292.351 295.004 275.165 294.951Z" fill="#5848B4"/>
<path d="M257.291 200.244C265.481 191.93 274.57 185.123 284.286 180.025C297.776 172.85 312.186 168.79 326.823 168.039C332.956 167.479 339.613 167.315 345.641 167.216C352.047 167.129 358.452 167.492 364.825 168.302C374.005 169.223 382.875 172.893 390.693 179.005C397.01 183.549 402.828 189.839 404.27 196.589C386.152 191.491 367.559 189.574 349.022 190.892C330.518 191.979 311.779 193.131 293.328 195.469C285.177 196.523 268.351 197.511 257.291 200.244Z" fill="white"/>
<path d="M253.02 203.011L256.505 198.994C263.267 191.256 275.087 183.32 283.867 178.479C296.552 171.498 309.001 167.974 326.823 166.361C333.323 165.768 340.347 165.603 345.746 165.538C352.204 165.445 358.662 165.807 365.088 166.624C374.444 167.577 383.484 171.326 391.454 177.557C395.962 180.85 403.798 187.436 405.633 196.129L406.236 198.829L404.06 198.138C386.062 193.074 367.596 191.146 349.179 192.408C329.287 193.561 311.386 194.713 293.565 196.952C291.284 197.249 288.323 197.545 285.02 197.874C275.851 198.528 266.716 199.814 257.659 201.727L253.02 203.011ZM347.607 168.863H345.772C340.53 168.863 333.454 169.094 327.007 169.687C309.525 171.267 297.312 174.692 284.915 181.541C276.89 185.894 269.241 191.267 262.088 197.578C269.295 196.228 277.813 195.405 284.811 194.713C288.113 194.384 291.048 194.12 293.329 193.824C311.203 191.552 329.13 190.531 349.075 189.28C366.887 187.988 384.758 189.649 402.226 194.219C399.272 188.333 395.094 183.573 390.144 180.455C382.485 174.453 373.796 170.84 364.8 169.917C359.506 169.357 353.347 168.863 347.607 168.863Z" fill="#5848B4"/>
<g opacity="0.76">
<path d="M293.984 248.784C289.059 246.011 284.662 241.946 281.089 236.864C274.118 226.985 266.334 211.278 268.483 197.348C269.094 193.564 270.382 190.003 272.248 186.934C274.113 183.865 276.509 181.369 279.255 179.632C292.071 171.63 310.705 172.651 324.858 171.828C337.962 171.103 364.747 172.124 377.852 173.178C390.956 174.232 409.59 175.417 415.645 190.334C419.707 200.411 413.024 212.957 406.262 220.333C384.954 243.384 342.522 258.202 314.322 254.745C307.331 254.153 300.462 252.14 293.984 248.784Z" fill="#FF7F00"/>
</g>
<g opacity="0.76">
<path d="M204.376 248.784C209.297 246.003 213.692 241.94 217.27 236.864C224.242 226.985 232 211.278 229.877 197.348C229.265 193.564 227.978 190.003 226.112 186.934C224.246 183.865 221.85 181.369 219.105 179.632C206.289 171.63 187.655 172.651 173.502 171.828C160.398 171.103 133.612 172.124 120.508 173.178C107.404 174.232 88.7692 175.417 82.715 190.334C78.6526 200.411 85.3357 212.957 92.0976 220.333C113.405 243.384 155.837 258.202 184.038 254.745C191.029 254.153 197.898 252.14 204.376 248.784Z" fill="#FF7F00"/>
</g>
<path d="M425.996 196.096C429.744 191.717 439.1 179.368 428.355 181.541C431.29 176.306 431.5 171.662 433.098 167.118C432.316 166.998 431.528 166.932 430.74 166.921C430.872 166.138 430.968 165.346 431.028 164.55C429.494 165.228 428.005 166.054 426.573 167.019C424.522 167.297 422.511 167.929 420.597 168.896C421.121 167.118 421.881 165.241 422.222 163.562C420.427 163.557 418.648 163.981 416.98 164.813C417.455 163.233 417.849 161.616 418.159 159.973C414.202 160.639 410.471 162.68 407.388 165.867C409.222 163.661 411.817 161.026 411.712 157.47C403.849 156.614 397.14 162.245 389.749 164.517C394.65 159.874 399.761 153.814 389.985 154.868C383.8 155.56 377.955 158.688 371.849 159.841C367.21 160.73 360.264 161.026 356.123 164.286C357.984 161.981 365.69 158.688 365.349 154.638C365.061 151.345 359.74 153.255 357.617 153.387C351.631 153.492 345.726 155.14 340.267 158.227C337.489 159.808 334.868 161.915 331.985 163.2C329.705 164.22 327.268 164.418 324.961 165.538C327.582 163.595 331.199 159.676 330.413 155.494C318.335 153.686 306.089 155.272 294.559 160.137C287.845 163.289 281.349 167.133 275.138 171.63C266.516 178.215 259.413 188.457 248.93 190.729C238.446 188.457 231.37 178.084 222.721 171.63C216.511 167.133 210.015 163.289 203.3 160.137C191.77 155.272 179.524 153.686 167.447 155.494C166.661 159.676 170.33 163.595 172.898 165.538C170.592 164.418 168.155 164.22 165.874 163.2C162.991 161.915 160.371 159.907 157.592 158.227C152.133 155.14 146.228 153.492 140.242 153.387C138.119 153.387 132.799 151.312 132.38 154.638C132.013 158.688 139.744 161.981 141.605 164.286C137.595 160.993 130.65 160.73 126.011 159.841C119.904 158.688 114.06 155.56 107.874 154.868C98.0986 153.814 103.209 159.874 108.084 164.517C100.72 162.245 94.1149 156.614 86.1475 157.47C86.0164 161.026 88.6372 163.661 90.4718 165.867C87.3881 162.68 83.6575 160.639 79.7001 159.973C80.0144 161.611 80.3994 163.227 80.8533 164.813C79.1868 163.974 77.4067 163.549 75.6115 163.562C75.9522 165.241 76.7123 167.118 77.2364 168.896C75.3226 167.929 73.312 167.297 71.2609 167.019C69.8284 166.054 68.3388 165.228 66.8054 164.55C66.865 165.346 66.9612 166.138 67.0937 166.921C66.3051 166.932 65.5177 166.998 64.735 167.118C66.3337 171.597 66.5434 176.306 69.4788 181.541C58.8118 179.368 68.0896 191.717 71.8112 196.096C69.5581 194.418 66.9564 193.627 64.3418 193.824C64.3418 199.62 67.9062 202.386 71.0775 205.909C74.9826 210.223 78.5208 215.393 82.4259 219.806C79.8827 217.922 76.9188 217.136 73.9866 217.566C76.6075 237.324 98.1773 237.686 109.264 245.26C104.022 243.68 97.7579 243.778 104.494 249.805C112.513 256.95 122.211 258.729 131.567 261.363C140.246 263.685 149.116 264.68 157.985 264.327C160.626 264.098 163.252 263.657 165.848 263.009C162.991 263.833 160.187 265.644 161.76 269.003C163.332 272.361 171.745 269.892 174.418 269.464C181.731 268.311 189.305 266.335 196.591 264.458C207.572 261.626 222.8 259.058 229.43 246.61C234.2 237.687 233.676 228.598 235.721 218.719C237.005 212.429 240.622 208.148 248.668 206.107C256.74 208.148 260.357 212.429 261.772 218.719C263.816 228.598 263.292 237.687 268.036 246.61C274.667 259.058 289.92 261.626 300.902 264.458C308.188 266.335 315.762 268.311 323.074 269.464C325.695 269.892 334.213 272.164 335.733 269.003C337.253 265.841 334.475 263.833 331.644 263.009C334.24 263.657 336.867 264.098 339.507 264.327C348.376 264.68 357.247 263.685 365.926 261.363C375.282 258.729 384.979 256.95 392.999 249.805C399.735 243.778 393.34 243.68 388.229 245.26C399.289 237.686 420.938 237.423 423.506 217.566C420.574 217.136 417.61 217.922 415.067 219.806C418.972 215.393 422.51 210.223 426.415 205.909C429.56 202.386 433.02 199.62 433.151 193.824C430.643 193.716 428.162 194.504 425.996 196.096ZM215.985 236.567C212.418 241.657 208.02 245.723 203.091 248.487C196.616 251.866 189.747 253.901 182.753 254.513C154.552 257.806 112.12 243.35 90.8125 220.135C84.0245 212.726 77.3674 200.18 81.456 190.136C87.484 175.186 105.987 174.001 119.223 172.947C132.458 171.893 159.112 170.872 172.217 171.597C186.238 172.42 205.004 171.597 217.82 179.401C220.569 181.131 222.968 183.627 224.834 186.696C226.701 189.766 227.986 193.33 228.592 197.117C230.741 210.98 222.957 226.688 215.985 236.567ZM407.545 220.102C386.237 243.317 343.805 257.938 315.605 254.48C308.611 253.868 301.742 251.833 295.267 248.455C290.337 245.69 285.94 241.624 282.372 236.534C275.401 226.655 267.617 210.948 269.766 197.018C270.372 193.231 271.657 189.667 273.523 186.597C275.39 183.528 277.789 181.033 280.537 179.302C293.354 171.333 311.988 172.321 326.141 171.498C339.245 170.773 366.03 171.827 379.135 172.848C392.239 173.869 410.874 175.087 416.902 190.037C420.99 200.18 414.333 212.726 407.545 220.135V220.102Z" fill="white"/>
<path d="M166.478 272.295C163.857 272.295 162.023 271.703 161.237 269.859C160.921 269.265 160.717 268.589 160.639 267.882C160.562 267.174 160.614 266.454 160.791 265.775C160.083 265.775 159.376 265.94 158.642 265.973C149.667 266.329 140.692 265.322 131.909 262.976L128.083 261.923C119.932 259.749 111.519 257.51 104.495 251.122C102.529 249.376 100.38 247.071 101.219 244.733C101.358 244.377 101.552 244.059 101.791 243.799C102.029 243.539 102.307 243.341 102.608 243.219C101.061 242.56 99.4364 241.934 97.7591 241.309C87.2756 237.324 75.3767 232.813 73.4373 217.83C73.413 217.61 73.4237 217.386 73.4687 217.171C73.5136 216.956 73.5921 216.755 73.6995 216.579C73.8047 216.399 73.9379 216.247 74.0911 216.134C74.2443 216.021 74.4142 215.948 74.5905 215.92C75.7655 215.739 76.9538 215.739 78.1288 215.92L76.6873 214.076C74.8265 211.705 72.9393 209.268 70.9737 207.095L69.6895 205.712C66.8589 202.682 63.8973 199.554 63.7925 193.857C63.7769 193.45 63.8844 193.051 64.0934 192.739C64.3024 192.428 64.5976 192.227 64.9195 192.178C65.8662 191.996 66.8295 191.996 67.7763 192.178C65.1554 188.522 63.2159 184.406 64.2642 181.772C64.6288 181.029 65.1497 180.426 65.7694 180.031C66.389 179.636 67.0836 179.464 67.7763 179.533C66.8784 177.228 66.1502 174.825 65.6009 172.354C65.2469 170.76 64.8091 169.198 64.2905 167.678C64.1988 167.405 64.165 167.106 64.1926 166.812C64.2201 166.518 64.3081 166.237 64.4477 165.998C64.5923 165.76 64.7859 165.576 65.0076 165.466C65.2293 165.356 65.4707 165.323 65.7059 165.373H66.3086C66.3086 165.373 66.3086 165.109 66.3086 165.011C66.2355 164.716 66.2313 164.401 66.2963 164.103C66.3613 163.806 66.493 163.538 66.6756 163.331C66.8554 163.121 67.0785 162.98 67.3194 162.921C67.5604 162.863 67.8094 162.891 68.0383 163.002C69.5392 163.704 71.0089 164.506 72.4414 165.406C73.5411 165.548 74.6287 165.813 75.6914 166.196C75.4817 165.472 75.2457 164.714 75.0885 163.99C75.035 163.741 75.0288 163.48 75.0702 163.228C75.1117 162.976 75.1998 162.739 75.3273 162.537C75.4547 162.335 75.618 162.174 75.8041 162.066C75.9903 161.958 76.194 161.906 76.3989 161.915C77.4374 161.95 78.4719 162.093 79.4915 162.343C79.3343 161.685 79.2033 161.026 79.0722 160.368C79.0251 160.124 79.0218 159.871 79.0626 159.626C79.1035 159.381 79.1874 159.151 79.3082 158.952C79.4289 158.756 79.5838 158.597 79.761 158.489C79.9383 158.38 80.133 158.325 80.3302 158.326C82.2196 158.412 84.0749 158.983 85.7817 160.005C85.5636 159.166 85.466 158.286 85.4934 157.404C85.5114 157.006 85.6435 156.63 85.8652 156.346C86.0868 156.061 86.383 155.887 86.6989 155.856C91.9376 155.687 97.135 157.062 101.874 159.874L103.158 160.499C101.795 158.491 101.402 156.943 101.821 155.56C102.634 152.925 105.884 152.925 108.636 153.222C112.125 153.747 115.571 154.65 118.936 155.922C121.518 156.884 124.144 157.654 126.798 158.227L129.917 158.721L133.56 159.281C132.947 158.736 132.451 158.009 132.118 157.164C131.784 156.319 131.622 155.383 131.647 154.44C131.69 153.97 131.807 153.515 131.991 153.102C132.176 152.689 132.424 152.327 132.721 152.036C134.725 150.866 137.003 150.666 139.116 151.477C139.745 151.477 140.322 151.707 140.741 151.74C146.898 151.857 152.971 153.548 158.59 156.712C159.664 157.338 160.739 158.063 161.813 158.754C163.405 159.873 165.06 160.842 166.767 161.652C167.246 161.877 167.736 162.065 168.234 162.212C167.542 161.267 167.036 160.131 166.758 158.895C166.48 157.659 166.438 156.359 166.635 155.099C166.695 154.768 166.836 154.469 167.038 154.244C167.24 154.019 167.494 153.881 167.763 153.847C175.625 152.859 190.695 152.201 204.219 158.622C211.002 161.785 217.56 165.663 223.823 170.214C226.636 172.402 229.348 174.788 231.948 177.359C237.478 182.562 242.693 187.534 249.324 189.049C255.981 187.534 261.197 182.463 266.727 177.326C269.333 174.777 272.045 172.402 274.851 170.214C281.115 165.663 287.673 161.785 294.455 158.622C307.979 152.036 323.075 152.859 330.912 153.847C331.181 153.881 331.434 154.019 331.636 154.244C331.839 154.469 331.98 154.768 332.039 155.099C332.236 156.359 332.194 157.659 331.916 158.895C331.639 160.131 331.133 161.267 330.44 162.212C330.937 162.06 331.427 161.873 331.908 161.652C333.605 160.842 335.253 159.874 336.835 158.754C337.91 158.063 338.984 157.338 340.085 156.712C345.704 153.548 351.777 151.857 357.933 151.74C358.352 151.74 358.929 151.74 359.558 151.477C361.672 150.666 363.949 150.866 365.953 152.036C366.25 152.327 366.499 152.689 366.683 153.102C366.868 153.515 366.985 153.97 367.027 154.44C367.052 155.383 366.891 156.319 366.557 157.164C366.223 158.009 365.727 158.736 365.114 159.281L368.757 158.721L371.876 158.227C374.53 157.65 377.155 156.881 379.739 155.922C383.103 154.65 386.55 153.747 390.039 153.222C392.66 152.925 396.041 152.925 396.853 155.56C397.272 156.943 396.853 158.491 395.516 160.499L396.801 159.874C401.527 157.087 406.703 155.713 411.923 155.856C412.236 155.888 412.529 156.063 412.747 156.348C412.964 156.634 413.091 157.009 413.102 157.404C413.155 158.284 413.065 159.169 412.84 160.005C414.565 159.048 416.41 158.48 418.292 158.326C418.488 158.329 418.682 158.387 418.858 158.495C419.035 158.604 419.191 158.759 419.314 158.952C419.43 159.154 419.511 159.384 419.552 159.628C419.592 159.872 419.591 160.124 419.55 160.368C419.55 160.993 419.288 161.685 419.13 162.343C420.15 162.093 421.184 161.95 422.223 161.915C422.429 161.903 422.634 161.954 422.821 162.063C423.008 162.172 423.172 162.336 423.298 162.541C423.419 162.746 423.503 162.982 423.544 163.232C423.584 163.483 423.581 163.741 423.533 163.99C423.359 164.74 423.149 165.477 422.904 166.196C423.976 165.813 425.072 165.548 426.181 165.406C427.613 164.506 429.083 163.704 430.584 163.002C430.812 162.891 431.062 162.863 431.303 162.921C431.544 162.98 431.767 163.121 431.946 163.331C432.129 163.538 432.261 163.806 432.326 164.103C432.391 164.401 432.387 164.716 432.313 165.011C432.299 165.131 432.299 165.253 432.313 165.373H432.916C433.151 165.32 433.394 165.35 433.616 165.461C433.838 165.571 434.032 165.757 434.174 165.998C434.314 166.237 434.402 166.518 434.429 166.812C434.457 167.106 434.423 167.405 434.331 167.678C433.755 169.289 433.273 170.951 432.89 172.65C432.34 175.111 431.612 177.503 430.715 179.796C431.407 179.727 432.102 179.899 432.722 180.294C433.341 180.69 433.862 181.292 434.227 182.035C435.275 184.67 433.204 188.786 430.688 192.441C431.644 192.261 432.616 192.261 433.571 192.441C433.893 192.49 434.188 192.691 434.397 193.003C434.607 193.314 434.714 193.713 434.698 194.12C434.567 199.817 431.632 202.946 428.801 205.975L427.517 207.358C425.552 209.531 423.665 211.968 421.83 214.306L420.362 216.183C421.537 216.002 422.725 216.002 423.9 216.183C424.077 216.211 424.247 216.284 424.4 216.397C424.553 216.511 424.686 216.662 424.791 216.842C424.9 217.017 424.977 217.219 425.018 217.435C425.058 217.651 425.062 217.876 425.027 218.093C423.114 233.076 411.215 237.588 400.732 241.572C399.054 242.198 397.43 242.823 395.883 243.482C396.184 243.605 396.462 243.802 396.7 244.062C396.939 244.322 397.133 244.64 397.272 244.997C398.111 247.335 395.962 249.64 393.996 251.385C386.841 257.773 378.428 260.013 370.277 262.186L366.451 263.24C357.668 265.584 348.692 266.59 339.718 266.236C338.984 266.236 338.276 266.236 337.569 266.039C337.746 266.717 337.798 267.437 337.721 268.145C337.643 268.852 337.439 269.528 337.123 270.122C335.498 273.415 330.309 272.756 324.674 271.637C324.071 271.637 323.547 271.406 323.154 271.373C316.052 270.221 308.713 268.344 301.61 266.5H300.903L297.574 265.677C286.829 263.009 273.488 259.749 267.225 247.96C264.37 242.096 262.638 235.479 262.166 228.631C261.799 225.667 261.406 222.638 260.777 219.575C259.519 213.516 255.902 209.992 249.062 208.214C242.248 209.992 238.579 213.516 237.373 219.575C236.744 222.638 236.351 225.667 235.984 228.631C235.5 235.476 233.769 242.09 230.926 247.96C224.662 259.749 211.295 263.042 200.576 265.677L197.247 266.5H196.54C189.437 268.344 182.099 270.221 174.97 271.373L173.476 271.637C171.159 272.065 168.82 272.286 166.478 272.295ZM166.347 261.363C166.695 261.315 167.043 261.442 167.316 261.717C167.589 261.992 167.764 262.392 167.802 262.828C167.84 263.265 167.739 263.703 167.52 264.045C167.301 264.388 166.983 264.608 166.635 264.656C164.408 265.314 163.386 266.236 163.176 266.895C163.176 266.895 163.019 267.389 163.386 268.179C163.753 268.97 165.771 269.628 173.188 268.179L174.76 267.883C181.784 266.796 189.07 264.919 196.12 263.108L196.828 262.91L200.183 262.054C210.43 259.552 223.194 256.423 228.855 245.787C231.471 240.292 233.058 234.121 233.494 227.742C233.887 224.712 234.28 221.584 234.935 218.39C236.482 210.98 240.911 206.568 248.931 204.559H249.429C257.449 206.568 261.878 211.145 263.424 218.39C264.08 221.683 264.473 224.712 264.866 227.742C265.289 234.124 266.876 240.299 269.505 245.787C275.166 256.423 287.851 259.552 298.177 262.054L301.532 262.91L302.24 263.108C309.29 264.919 316.576 266.796 323.6 267.883L325.172 268.179C332.589 269.661 334.581 269.003 334.974 268.179C335.367 267.356 335.236 266.994 335.184 266.895C334.974 266.236 333.926 265.314 331.724 264.656C331.552 264.615 331.388 264.531 331.242 264.411C331.095 264.29 330.969 264.134 330.871 263.952C330.772 263.77 330.703 263.566 330.667 263.35C330.632 263.135 330.63 262.913 330.663 262.696C330.696 262.48 330.762 262.274 330.858 262.09C330.954 261.906 331.078 261.748 331.223 261.624C331.368 261.5 331.53 261.413 331.702 261.368C331.873 261.324 332.05 261.322 332.222 261.363L333.926 261.725C335.899 262.2 337.895 262.509 339.901 262.647C348.7 263.005 357.5 262.021 366.11 259.716L369.963 258.663C377.825 256.588 386.003 254.415 392.712 248.421C393.5 247.765 394.222 246.991 394.861 246.116C392.896 245.902 390.916 246.136 389.017 246.808C388.712 246.893 388.393 246.838 388.117 246.653C387.841 246.468 387.627 246.166 387.514 245.8C387.4 245.435 387.394 245.03 387.496 244.659C387.599 244.289 387.803 243.976 388.073 243.778C391.962 241.398 396.026 239.501 400.208 238.114C409.957 234.426 420.021 230.607 422.38 219.048C420.197 219.074 418.057 219.811 416.169 221.189C415.891 221.395 415.561 221.462 415.245 221.377C414.93 221.291 414.651 221.059 414.465 220.728C414.277 220.395 414.192 219.987 414.226 219.581C414.26 219.175 414.41 218.798 414.649 218.521C416.562 216.414 418.397 214.043 420.179 211.738C421.961 209.433 423.979 206.864 426.023 204.625C426.443 204.131 426.888 203.67 427.334 203.209C429.602 201.359 431.302 198.596 432.156 195.372C430.257 195.603 428.418 196.332 426.757 197.512C426.475 197.722 426.141 197.792 425.82 197.707C425.499 197.622 425.215 197.389 425.024 197.054C424.833 196.719 424.749 196.306 424.788 195.897C424.828 195.488 424.988 195.113 425.237 194.845C430.269 188.95 432.497 184.274 432.104 183.287C432.104 183.287 431.632 182.529 428.697 183.287C428.439 183.347 428.173 183.307 427.934 183.171C427.695 183.036 427.495 182.812 427.36 182.529C427.219 182.26 427.144 181.945 427.144 181.624C427.144 181.302 427.219 180.987 427.36 180.718C428.825 177.936 429.906 174.864 430.557 171.629C430.793 170.675 431.029 169.654 431.317 168.666H431.108C430.869 168.728 430.622 168.709 430.392 168.61C430.161 168.512 429.956 168.338 429.797 168.106C429.643 167.858 429.543 167.562 429.509 167.25C428.765 167.601 428.046 168.031 427.36 168.534C427.167 168.675 426.953 168.765 426.731 168.798C424.81 169.037 422.928 169.637 421.148 170.576C420.913 170.691 420.656 170.718 420.409 170.654C420.161 170.59 419.934 170.437 419.754 170.215C419.574 169.992 419.449 169.709 419.394 169.399C419.339 169.089 419.357 168.766 419.445 168.468C419.655 167.777 419.864 167.085 420.1 166.394L420.388 165.538C419.49 165.723 418.612 166.032 417.767 166.459C417.534 166.584 417.276 166.623 417.026 166.57C416.775 166.518 416.541 166.377 416.352 166.163C416.169 165.936 416.042 165.648 415.986 165.332C415.931 165.017 415.948 164.688 416.038 164.385C416.247 163.66 416.457 162.87 416.667 162.047C413.676 163.111 410.88 164.901 408.437 167.316C408.172 167.569 407.841 167.686 407.51 167.643C407.179 167.6 406.873 167.401 406.655 167.085C406.428 166.775 406.303 166.37 406.303 165.949C406.303 165.528 406.428 165.123 406.655 164.813L407.31 164.056C408.617 162.741 409.674 161.076 410.403 159.182C406.041 159.522 401.763 160.838 397.77 163.068C395.32 164.363 392.808 165.462 390.248 166.361C389.959 166.443 389.655 166.399 389.388 166.236C389.121 166.073 388.906 165.8 388.778 165.464C388.65 165.127 388.617 164.745 388.684 164.382C388.751 164.018 388.915 163.694 389.148 163.463C394.022 158.787 394.389 157.14 394.389 156.877C393.682 156.697 392.962 156.608 392.24 156.614C391.716 156.614 391.061 156.614 390.248 156.614C386.919 157.111 383.631 157.97 380.42 159.182C377.717 160.188 374.969 160.991 372.191 161.586L368.993 162.08C364.879 162.3 360.842 163.554 357.121 165.768C356.851 165.99 356.525 166.08 356.205 166.019C355.886 165.958 355.596 165.752 355.391 165.439C355.173 165.136 355.053 164.743 355.053 164.335C355.053 163.928 355.173 163.535 355.391 163.232C356.457 162.114 357.627 161.163 358.877 160.401C360.921 158.952 364.38 156.548 364.118 154.901C363.437 154.111 360.895 154.605 359.663 154.901C358.929 154.901 358.274 155.165 357.75 155.198C351.938 155.3 346.203 156.891 340.897 159.874C339.823 160.466 338.801 161.158 337.779 161.849C336.089 163.02 334.338 164.044 332.537 164.912C331.415 165.389 330.268 165.763 329.103 166.031C327.898 166.304 326.713 166.712 325.565 167.25C325.257 167.395 324.917 167.395 324.609 167.25C324.3 167.104 324.044 166.824 323.888 166.459C323.742 166.089 323.712 165.664 323.805 165.267C323.897 164.871 324.104 164.532 324.386 164.319C326.64 162.574 329.077 159.808 329.287 157.14C317.792 155.578 306.165 157.185 295.215 161.849C288.581 164.962 282.164 168.762 276.031 173.21C273.313 175.335 270.688 177.644 268.168 180.125C262.586 185.427 256.82 190.893 249.429 192.507H248.983C241.593 190.893 235.879 185.427 230.244 180.125C227.724 177.644 225.1 175.335 222.381 173.21C216.241 168.756 209.815 164.956 203.17 161.849C192.222 157.179 180.594 155.572 169.099 157.14C169.283 159.808 171.72 162.574 174 164.319C174.282 164.532 174.489 164.871 174.581 165.267C174.674 165.664 174.644 166.089 174.498 166.459C174.342 166.824 174.086 167.104 173.777 167.25C173.469 167.395 173.129 167.395 172.821 167.25C171.672 166.716 170.488 166.308 169.283 166.031C168.118 165.763 166.971 165.389 165.849 164.912C164.048 164.044 162.297 163.02 160.608 161.849C159.585 161.158 158.537 160.466 157.489 159.874C152.183 156.891 146.449 155.3 140.636 155.198C140.112 155.198 139.457 155.198 138.723 154.901C137.274 154.492 135.77 154.492 134.32 154.901C134.111 156.712 137.544 159.116 139.562 160.565C140.811 161.328 141.982 162.279 143.048 163.397C143.265 163.7 143.385 164.093 143.385 164.5C143.385 164.908 143.265 165.301 143.048 165.603C142.842 165.916 142.552 166.123 142.233 166.184C141.914 166.245 141.588 166.155 141.318 165.933C137.596 163.718 133.559 162.464 129.445 162.245L126.248 161.751C123.469 161.156 120.721 160.353 118.018 159.347C114.808 158.135 111.519 157.276 108.19 156.778C104.626 156.416 103.997 157.075 103.971 157.108C103.971 157.108 104.285 158.688 109.212 163.496C109.451 163.724 109.62 164.047 109.691 164.413C109.763 164.778 109.733 165.164 109.605 165.505C109.471 165.848 109.247 166.124 108.97 166.286C108.694 166.448 108.381 166.486 108.085 166.394C105.534 165.495 103.031 164.396 100.59 163.101C96.6164 160.798 92.3274 159.479 87.957 159.215C88.6787 161.124 89.747 162.793 91.0759 164.089L91.7049 164.846C91.9314 165.156 92.0571 165.561 92.0571 165.982C92.0571 166.403 91.9314 166.808 91.7049 167.118C91.4866 167.434 91.181 167.633 90.85 167.676C90.519 167.719 90.1875 167.602 89.9227 167.349C87.4732 164.947 84.6794 163.158 81.6931 162.08C81.9028 162.903 82.1124 163.693 82.3221 164.418C82.4114 164.721 82.4292 165.05 82.3734 165.365C82.3177 165.681 82.1906 165.969 82.0076 166.196C81.822 166.417 81.5882 166.563 81.3361 166.616C81.0839 166.668 80.825 166.626 80.5924 166.492C79.7483 166.065 78.8694 165.756 77.9715 165.57C77.9715 165.834 78.1549 166.13 78.2335 166.427C78.3122 166.723 78.7053 167.81 78.915 168.501C79.0029 168.799 79.0205 169.122 78.9657 169.432C78.9109 169.741 78.7859 170.025 78.6059 170.247C78.4259 170.47 78.1984 170.623 77.951 170.687C77.7036 170.751 77.4468 170.724 77.2114 170.609C75.4306 169.673 73.5494 169.074 71.6289 168.831C71.407 168.798 71.1929 168.708 70.9999 168.567C70.3109 168.07 69.5923 167.641 68.8508 167.283C68.8168 167.595 68.7173 167.891 68.5625 168.139C68.4038 168.371 68.1985 168.545 67.9681 168.643C67.7376 168.742 67.4904 168.761 67.2521 168.699H67.0424C67.3045 169.687 67.5666 170.707 67.8025 171.662C68.4536 174.896 69.5346 177.969 70.9999 180.751C71.1408 181.02 71.216 181.335 71.216 181.657C71.216 181.978 71.1408 182.293 70.9999 182.562C70.8652 182.845 70.665 183.069 70.4261 183.204C70.1872 183.339 69.9209 183.38 69.6632 183.319C66.7279 182.727 66.2561 183.319 66.2561 183.319C65.863 184.307 68.0907 188.983 73.1228 194.878C73.3719 195.146 73.5321 195.521 73.5715 195.93C73.611 196.339 73.5269 196.752 73.336 197.087C73.1451 197.422 72.8613 197.655 72.5404 197.74C72.2195 197.824 71.885 197.755 71.6028 197.545C69.9328 196.365 68.0849 195.636 66.1776 195.405C67.0509 198.625 68.758 201.384 71.0261 203.242L72.3366 204.658C74.3546 206.897 76.294 209.4 78.1811 211.804C80.0681 214.208 81.798 216.447 83.7112 218.554C83.95 218.831 84.1003 219.208 84.134 219.614C84.1678 220.02 84.0828 220.428 83.8947 220.76C83.7089 221.092 83.4303 221.324 83.1146 221.41C82.7988 221.495 82.4692 221.428 82.1911 221.222C80.2949 219.84 78.1452 219.103 75.9534 219.081C78.3384 230.639 88.4026 234.459 98.1523 238.147C102.327 239.53 106.383 241.427 110.261 243.811C110.524 244.01 110.724 244.319 110.824 244.684C110.925 245.049 110.92 245.447 110.811 245.808C110.701 246.169 110.495 246.471 110.226 246.659C109.958 246.848 109.645 246.912 109.343 246.841C107.444 246.169 105.464 245.935 103.499 246.149C104.138 247.024 104.86 247.798 105.648 248.454C112.357 254.448 120.508 256.621 128.397 258.696L132.25 259.749C140.817 262.041 149.573 263.025 158.327 262.68C160.325 262.544 162.313 262.235 164.277 261.758L166.007 261.396L166.347 261.363ZM324.36 256.654C321.32 256.654 318.332 256.654 315.475 256.16C308.333 255.562 301.319 253.481 294.718 250.002C289.623 247.123 285.075 242.914 281.377 237.653C277.682 232.418 265.809 214.01 268.483 196.788C269.121 192.754 270.488 188.958 272.478 185.692C274.469 182.426 277.029 179.778 279.962 177.952C290.786 171.168 305.437 170.708 318.358 170.279C320.979 170.279 323.6 170.279 326.22 169.983C339.325 169.226 366.005 170.247 379.346 171.3H380.132C393.551 172.387 411.949 173.836 418.213 189.313C422.642 200.278 415.776 213.417 408.516 221.287C389.75 241.803 353.189 256.654 324.36 256.654ZM337.464 173.012C333.218 173.012 329.366 173.012 326.247 173.243C323.783 173.408 321.188 173.474 318.384 173.572C305.725 174 291.389 174.461 281.063 180.883C278.5 182.486 276.262 184.802 274.518 187.655C272.774 190.508 271.57 193.823 270.999 197.348C268.561 213.055 279.805 230.277 283.291 235.381C286.742 240.291 290.985 244.22 295.74 246.907C302.088 250.22 308.826 252.2 315.685 252.768C344.829 256.358 386.448 240.782 406.629 218.785C413.679 211.112 419.209 199.455 415.697 190.762C410.115 176.964 392.581 175.581 379.791 174.56H379.005C368.914 173.803 351.093 173.012 337.412 173.012H337.464ZM174.026 256.654C145.197 256.654 108.662 241.704 90.0012 221.353C82.7676 213.483 75.9009 200.344 80.3302 189.379C86.5941 173.902 104.966 172.453 118.412 171.366H119.198C132.538 170.312 159.192 169.292 172.323 170.049C174.76 170.049 177.355 170.246 180.186 170.345C193.106 170.773 207.757 171.234 218.581 178.018C221.512 179.848 224.07 182.497 226.06 185.762C228.05 189.027 229.418 192.821 230.061 196.854C232.682 214.043 220.861 232.484 217.166 237.719C213.468 242.98 208.92 247.189 203.826 250.068C197.225 253.547 190.211 255.628 183.068 256.226C180.028 256.489 177.04 256.654 173.974 256.654H174.026ZM160.922 173.012C147.267 173.012 129.472 173.803 119.303 174.593H118.516C105.726 175.614 88.1928 176.997 82.6104 190.795C79.0984 199.488 84.6285 211.145 91.6786 218.818C111.859 240.815 153.505 256.358 182.623 252.801C189.482 252.233 196.22 250.253 202.568 246.94C207.322 244.253 211.566 240.324 215.017 235.414C218.503 230.442 229.746 213.055 227.309 197.38C226.737 193.856 225.533 190.541 223.79 187.688C222.046 184.835 219.807 182.519 217.245 180.916C206.918 174.33 192.582 174.033 179.923 173.605C177.302 173.605 174.682 173.605 172.061 173.276C169.047 173.078 165.194 173.012 160.922 173.012Z" fill="#5848B4"/>
<path d="M255.976 229.138C247.665 227.398 221.771 223.382 221.797 237.759C221.797 248.145 237.38 251.087 245.172 251.701C251.119 252.161 262.755 252.75 266.91 247.889C274.702 238.68 263.456 227.424 254.444 226.273C246.764 225.561 239.016 226.246 231.588 228.294" fill="#3C2868"/>
<path d="M426.417 180.948C437.713 174.856 455.666 159.906 468.351 161.586C475.296 162.508 483.892 173.605 487.326 180.718C488.138 182.463 490.235 186.81 489.789 188.917C488.951 192.737 484.154 191.651 481.691 192.21C484.312 193.956 484.312 193.396 484.888 197.084C485.203 200.134 485.203 203.222 484.888 206.271C476.842 198.632 464.812 197.578 455.141 197.117C445.47 196.656 428.435 209.4 419.576 214.109" fill="white"/>
<path d="M419.785 215.787C419.525 215.795 419.269 215.701 419.053 215.518C418.837 215.335 418.672 215.072 418.579 214.766C418.447 214.368 418.445 213.922 418.572 213.521C418.7 213.121 418.947 212.8 419.261 212.626C421.489 211.441 424.345 209.695 427.359 207.851C436.559 202.187 448.012 195.206 455.377 195.503C465.048 195.964 475.872 197.017 483.944 203.307C484.101 201.353 484.048 199.382 483.787 197.445C483.42 195.107 483.42 195.107 482.267 194.35L481.245 193.691C481.008 193.53 480.816 193.281 480.696 192.978C480.575 192.675 480.532 192.333 480.573 191.998C480.613 191.664 480.734 191.352 480.92 191.107C481.106 190.862 481.347 190.695 481.612 190.629C482.479 190.459 483.355 190.371 484.232 190.365C486.853 190.365 488.478 190.003 488.819 188.488C488.819 187.962 488.819 186.348 486.513 181.606C483.158 174.592 474.823 164.055 468.533 163.231C459.386 162.079 446.963 170.015 437.083 176.403C433.518 178.675 430.164 180.849 427.228 182.429C426.912 182.58 426.561 182.571 426.249 182.404C425.938 182.237 425.69 181.924 425.557 181.532C425.425 181.14 425.419 180.699 425.54 180.302C425.661 179.904 425.9 179.581 426.206 179.4C429.063 177.852 432.392 175.712 435.904 173.473C446.204 166.887 458.993 158.621 468.9 159.939C476.448 160.926 485.281 172.386 488.845 179.861C490.522 183.351 491.99 186.875 491.466 189.345C490.732 192.638 488.164 193.296 485.831 193.527C486.23 194.563 486.487 195.676 486.591 196.82C486.916 199.291 486.969 201.806 486.748 204.295C486.748 204.986 486.748 205.678 486.748 206.369C486.748 206.669 486.679 206.963 486.549 207.214C486.419 207.466 486.233 207.664 486.015 207.785C485.808 207.939 485.573 208.02 485.333 208.02C485.093 208.02 484.858 207.939 484.652 207.785C477.051 200.574 465.677 199.454 455.639 198.96C449.034 198.598 437.791 205.546 428.853 210.947C425.813 212.824 422.93 214.602 420.624 215.82C420.351 215.945 420.051 215.933 419.785 215.787Z" fill="#5848B4"/>
<path d="M73.8296 180.948C64.7876 174.856 50.4252 159.906 40.1776 161.586C34.6213 162.508 27.7285 173.605 25.0028 180.718C23.8247 183.209 23.1499 186.024 23.0371 188.917C23.6923 192.737 27.5451 191.651 29.5107 192.21C27.4403 193.956 27.3878 193.396 26.8899 197.084C26.6276 200.137 26.6276 203.218 26.8899 206.271C33.3372 198.632 42.9557 197.578 50.7135 197.117C58.4713 196.656 72.0736 209.4 79.1761 214.109" fill="white"/>
<path d="M79.2298 215.788C79.0186 215.789 78.8108 215.721 78.6271 215.59C76.7663 214.372 74.4598 212.594 72.0224 210.717C65.2868 205.547 56.2971 198.5 50.8195 198.796C42.9569 199.257 33.8626 200.377 27.8346 207.49C27.6541 207.709 27.4262 207.857 27.1793 207.916C26.9324 207.974 26.6772 207.941 26.4454 207.819C26.2082 207.711 26.0032 207.514 25.8579 207.255C25.7126 206.996 25.634 206.687 25.633 206.37V204.23C25.425 201.778 25.425 199.305 25.633 196.853C25.7374 195.725 25.9577 194.618 26.2882 193.56C25.2611 193.603 24.2532 193.205 23.4294 192.434C22.6057 191.662 22.0149 190.561 21.7541 189.312C21.7398 186.06 22.4476 182.867 23.7983 180.092C26.7075 172.551 33.8364 160.993 39.9954 160.005C48.0939 158.655 58.0007 166.591 66.7282 173.605C69.5325 175.877 72.1796 177.985 74.5908 179.532C74.8967 179.742 75.1237 180.095 75.222 180.515C75.3204 180.935 75.2819 181.387 75.115 181.772C74.9482 182.156 74.6667 182.441 74.3325 182.564C73.9983 182.688 73.6387 182.64 73.3329 182.43C71.0003 180.849 68.3008 178.676 65.4702 176.371C57.6076 170.016 47.6484 162.08 40.4934 163.199C35.5924 163.99 29.0139 174.494 26.3406 181.409C24.5585 186.019 24.3487 187.995 24.4535 188.522C24.6894 189.872 25.5805 190.169 27.9131 190.333C28.5992 190.349 29.2831 190.437 29.9575 190.597C30.2047 190.676 30.4289 190.842 30.6034 191.075C30.7779 191.309 30.8957 191.601 30.9425 191.916C30.9894 192.231 30.9634 192.557 30.8678 192.854C30.7722 193.151 30.6109 193.407 30.403 193.593L29.5643 194.252C28.6994 194.943 28.6993 194.943 28.3848 197.347C28.1848 199.191 28.1409 201.057 28.2538 202.912C34.7274 196.952 43.2452 195.931 50.8457 195.47C56.8737 195.042 66.0993 202.056 73.5163 207.885C75.9275 209.729 78.2078 211.474 79.9637 212.66C80.1168 212.757 80.2527 212.892 80.3637 213.056C80.4746 213.22 80.5581 213.411 80.6094 213.617C80.6607 213.822 80.6787 214.039 80.6623 214.253C80.6459 214.468 80.5955 214.676 80.514 214.866C80.3988 215.164 80.2145 215.412 79.9853 215.576C79.7562 215.741 79.4929 215.814 79.2298 215.788Z" fill="#5848B4"/>
<g opacity="0.4">
<path d="M132.17 244.634C132.642 243.778 133.192 242.329 133.769 241.341C134.345 240.353 136.18 238.773 136.73 237.291C136.974 237.485 137.247 237.614 137.532 237.67C137.817 237.727 138.108 237.711 138.388 237.621C138.667 237.532 138.929 237.372 139.158 237.151C139.387 236.93 139.577 236.653 139.718 236.336C143.78 240.419 142.522 238.279 146.296 233.669C149.127 230.376 152.691 227.083 154.159 221.781C156.203 220.793 156.99 220.596 159.086 223.23C160.135 224.58 161.707 229.157 163.411 229.421C165.114 229.684 165.245 226.424 166.477 225.206C169.098 222.703 170.828 225.864 173.108 227.149C177.642 219.245 178.638 209.136 182.884 201.068C183.894 203.022 185.131 204.776 186.553 206.271C187.819 205.082 188.987 203.736 190.039 202.254C191.69 203.275 192.66 200.508 193.603 198.961C196.224 201.793 201.728 180.52 203.851 177.491C206.472 173.868 210.875 177.721 214.046 178.841C216.545 179.572 218.892 180.96 220.934 182.912C222.975 184.864 224.665 187.337 225.892 190.169C227.072 194.642 227.422 199.395 226.914 204.065C225.773 215.973 221.642 227.116 215.12 235.875C211.302 241.728 206.359 246.261 200.758 249.047C193.682 251.945 185.033 251.879 177.694 252.34C172.715 252.636 168.207 251.549 163.306 251.286C158.242 251.026 153.211 250.133 148.288 248.619C143.05 246.543 137.644 245.206 132.17 244.634Z" fill="#E7FF2C"/>
</g>
<g opacity="0.4">
<path d="M403.457 225.14C411.32 217.007 422.72 198.599 416.247 184.933C412.682 177.425 402.749 175.91 395.28 174.758C392.869 179.895 387.915 197.808 385.583 195.24C384.718 196.59 383.669 199.356 382.018 198.368C380.958 199.831 379.791 201.165 378.532 202.353C377.111 200.869 375.874 199.127 374.863 197.183C370.617 205.218 369.621 215.36 365.087 223.23C362.807 221.946 361.025 218.818 358.456 221.287C357.225 222.506 357.382 225.799 355.39 225.502C353.398 225.206 352.114 220.695 351.066 219.345C348.969 216.677 348.183 216.875 346.112 217.863C344.566 223.033 341.002 226.326 338.25 229.75C334.476 234.361 335.629 236.336 331.671 232.45C331.528 232.764 331.336 233.039 331.106 233.256C330.877 233.474 330.614 233.63 330.335 233.717C330.055 233.803 329.765 233.817 329.481 233.758C329.197 233.699 328.926 233.568 328.683 233.373C328.133 234.854 326.587 236.007 325.722 237.423C324.857 238.839 324.595 239.893 324.123 240.716C325.352 240.786 326.577 240.94 327.792 241.177C352.848 239.893 382.7 246.874 403.457 225.14Z" fill="#E7FF2C"/>
</g>
<path d="M444.29 56.3425C445.129 54.235 449.873 53.0497 451.786 52.1276C455.269 50.801 458.893 50.1567 462.532 50.2177C466.109 50.029 469.693 50.3049 473.225 51.0409C474.535 51.3373 475.846 51.3044 477.235 51.6995C478.619 52.3807 479.917 53.3125 481.087 54.4655C483.198 56.0171 484.996 58.1603 486.339 60.7279C487.682 63.2955 488.536 66.2182 488.833 69.2682C489.129 72.3182 488.862 75.4132 488.05 78.3118C487.238 81.2104 485.905 83.8344 484.154 85.9792C479.987 91.6431 473.828 93.4213 468.219 95.43C468.253 91.9032 468.472 88.3831 468.874 84.8925C472.753 83.3448 474.876 74.0587 471.495 70.6011C469.451 68.5266 465.886 68.8887 463.37 68.8228C459.928 68.5309 456.471 68.752 453.07 69.4814C449.262 70.539 445.89 73.3014 443.583 77.253C441.905 80.9411 444.448 83.8389 444.893 86.8684C445.004 89.2853 444.943 91.7098 444.71 94.113C441.276 93.2239 437.607 92.7297 435.484 88.5806C434.126 85.5694 433.421 82.1628 433.44 78.7017C432.947 75.5379 433.023 72.2758 433.662 69.1536C434.302 66.0314 435.488 63.1282 437.135 60.6563C438.551 58.1207 440.359 57.1328 444.29 56.3425Z" fill="#98E4E8"/>
<path d="M468.219 97.0768C467.885 97.0776 467.563 96.9178 467.32 96.63C467.076 96.3423 466.929 95.9486 466.909 95.5292C466.834 93.2046 466.948 90.8763 467.25 88.5809C467.25 87.3296 467.512 86.0784 467.564 84.7941C467.584 84.4649 467.682 84.1507 467.845 83.8923C468.009 83.6339 468.231 83.4433 468.482 83.3452C469.366 82.7718 470.124 81.9345 470.691 80.9068C471.258 79.8791 471.615 78.6925 471.731 77.4509C471.964 76.4822 471.982 75.452 471.783 74.4714C471.585 73.4909 471.177 72.597 470.604 71.8858C468.729 70.6497 466.6 70.1559 464.498 70.4696H462.82C459.631 70.2059 456.428 70.427 453.281 71.1282C449.824 72.0747 446.754 74.5528 444.632 78.1093C443.898 79.7558 444.291 81.0402 445.103 83.1806C445.543 84.2218 445.878 85.328 446.099 86.4736C446.283 88.1671 446.283 89.8841 446.099 91.5776C446.01 92.3744 445.957 93.177 445.942 93.9814C445.941 94.2265 445.898 94.4686 445.815 94.6903C445.732 94.9121 445.611 95.1082 445.461 95.2651C445.311 95.422 445.136 95.5357 444.947 95.5984C444.759 95.6611 444.562 95.6712 444.37 95.6279L443.321 95.3646C441.565 95.2326 439.851 94.6293 438.296 93.5955C436.741 92.5617 435.38 91.1214 434.305 89.3714C432.825 86.0997 432.048 82.3999 432.051 78.6363V77.7471C431.676 73.9525 431.953 70.1007 432.864 66.4523C433.654 63.9695 434.722 61.6411 436.035 59.5371C436.955 58.1247 438.099 56.9679 439.394 56.1402C440.689 55.3126 442.107 54.8321 443.557 54.7293C445.368 52.8702 447.522 51.6133 449.821 51.0742L451.367 50.4815C454.976 49.0988 458.733 48.4212 462.506 48.4726C466.18 48.267 469.862 48.554 473.487 49.3288L475.06 49.5593C475.943 49.5964 476.82 49.7398 477.681 49.9874C478.816 50.4324 479.88 51.1233 480.826 52.0291C481.167 52.3584 481.534 52.6548 481.9 52.9512C484.096 54.5428 485.98 56.7327 487.413 59.3599C488.847 61.987 489.793 64.9845 490.182 68.1317C490.532 71.5394 490.271 75.0022 489.419 78.2669C488.566 81.5316 487.144 84.5155 485.255 87.0004C481.219 92.4996 475.374 94.5413 470.238 96.3525L468.717 96.9122L468.219 97.0768ZM470.133 86.0455C470.133 87.0334 469.949 88.0211 469.844 89.009C469.74 89.9969 469.556 91.8411 469.504 93.2571C474.509 91.4789 479.673 89.6349 483.211 84.86C484.829 82.7369 486.05 80.1864 486.785 77.395C487.52 74.6036 487.749 71.6414 487.457 68.7244C487.137 66.055 486.338 63.5119 485.122 61.2871C483.905 59.0623 482.301 57.2139 480.433 55.8818L479.201 54.828C478.502 54.1615 477.724 53.6391 476.894 53.2804C476.211 53.1021 475.52 52.9811 474.824 52.9182C474.195 52.9182 473.592 52.9182 473.016 52.6547C469.553 51.9304 466.039 51.6656 462.532 51.8645C458.985 51.7953 455.45 52.406 452.049 53.6755L450.345 54.3342C449.087 54.8281 445.68 56.0795 445.287 57.0674C445.199 57.3072 445.064 57.5147 444.894 57.6704C444.724 57.826 444.526 57.9244 444.317 57.9564C440.648 58.7137 439.075 59.5701 437.922 61.6117C436.756 63.4593 435.811 65.5117 435.118 67.7036C434.341 70.9003 434.118 74.2685 434.463 77.5825V78.5044C434.42 81.6955 435.053 84.8434 436.297 87.626C437.133 88.939 438.183 90.012 439.377 90.7731C440.57 91.5341 441.879 91.9657 443.216 92.0387C443.205 91.7864 443.205 91.5334 443.216 91.2812C443.358 89.8928 443.358 88.4876 443.216 87.0992C443.036 86.1811 442.763 85.2956 442.404 84.4647C441.776 83.2831 441.411 81.9121 441.346 80.4936C441.282 79.0751 441.52 77.6609 442.037 76.3971C444.526 72.0323 448.214 68.9817 452.389 67.8353C455.75 67.0589 459.174 66.8046 462.585 67.0779H464.183C466.921 66.6683 469.689 67.4218 472.046 69.2185C472.985 70.3027 473.672 71.6878 474.032 73.2251C474.392 74.7625 474.412 76.394 474.09 77.9447C473.93 79.5721 473.494 81.1373 472.811 82.5348C472.129 83.9323 471.215 85.1296 470.133 86.0455Z" fill="#5848B4"/>
<path d="M468.952 50.2834C474.194 44.4878 472.255 30.9207 472.281 23.0176C471.811 31.3705 473.161 39.7264 476.186 47.188C478.99 53.1154 483.813 53.214 488.478 54.63C485.123 54.136 477.863 52.1933 475.007 54.9264C470.997 58.7463 470.263 68.3617 470.42 74.0586C470.608 70.7589 470.485 67.443 470.053 64.1797C469.346 60.5903 467.118 58.9768 464.811 56.7705C462.191 54.1361 457.316 49.921 453.646 51.5346C458.154 50.0527 465.703 54.3009 468.952 50.2834Z" fill="white"/>
</g>
<defs>
<clipPath id="clip0_1_9359">
<rect width="496" height="349" fill="white"/>
</clipPath>
</defs>
</svg>
