<svg width="143" height="143" viewBox="0 0 143 143" fill="none" xmlns="http://www.w3.org/2000/svg">
<g clip-path="url(#clip0_1_9353)">
<path d="M68.0899 143C105.695 143 136.18 112.554 136.18 74.9961C136.18 37.4386 105.695 6.99219 68.0899 6.99219C30.4849 6.99219 0 37.4386 0 74.9961C0 112.554 30.4849 143 68.0899 143Z" fill="#E7FF2C"/>
<path d="M74.91 136.008C112.515 136.008 143 105.561 143 68.0039C143 30.4464 112.515 0 74.91 0C37.305 0 6.82007 30.4464 6.82007 68.0039C6.82007 105.561 37.305 136.008 74.91 136.008Z" fill="#87F77B"/>
<path d="M43.6221 43.1763C45.6821 43.4126 48.4937 42.7731 50.3867 43.5655C51.7785 44.1215 51.5975 44.9556 51.4723 46.5403C51.2217 49.7654 50.9712 53.0599 50.665 56.2711C50.484 58.4257 49.1478 62.8045 51.7228 63.5413C54.0448 63.9683 56.4144 64.0759 58.7656 63.861H68.5782C71.362 63.861 79.24 65.2511 80.2978 61.6646C81.453 57.8419 80.4091 52.8097 80.2978 48.9035C80.2978 47.3049 80.7849 45.2475 82.4969 44.6081C84.2089 43.9686 86.06 45.2336 87.4519 43.5655C88.8438 41.8974 88.301 37.8522 88.301 35.8365C88.301 34.2657 88.6211 31.8887 87.7442 30.5124C87.1318 29.5672 85.8931 29.1223 85.0719 28.4551C78.6415 29.9147 73.5333 29.6367 68.3695 30.0537C64.4166 30.3734 60.4498 30.1927 56.4829 30.29C53.7359 30.3615 50.9947 30.5796 48.271 30.9434C45.6682 31.277 42.7035 31.1102 40.3095 32.2083C37.9155 33.3065 37.7903 37.1988 38.695 39.5342C39.1048 40.5329 39.7808 41.4003 40.6494 42.0424C41.518 42.6844 42.5461 43.0766 43.6221 43.1763ZM92.4766 41.4664C94.0355 42.9399 93.5622 46.2901 93.5622 48.1528C93.5622 50.933 93.5622 53.8106 93.6875 56.6464C93.8684 60.066 94.0772 63.3884 94.5504 66.7246C94.7731 68.2677 96.1789 72.0348 93.4508 72.0348C93.8962 71.4093 94.5643 70.7976 93.9797 70.1443C93.2142 70.8393 92.0869 71.5344 91.6971 72.5631C91.0847 74.1478 91.4884 77.1921 91.6971 78.8603C92.0869 81.4181 94.4809 80.7925 96.8331 80.7925C100.535 80.7925 104.252 80.7925 107.968 80.6535C109.527 80.5701 112.798 81.0705 114.12 80.1947C117.168 78.2069 112.422 73.2442 111.267 71.8541C108.553 68.8515 106.882 66.808 106.854 62.6794C106.71 56.8303 106.901 50.9777 107.425 45.1502C107.745 42.2727 108.72 42.6202 110.919 41.7584C112.853 41.0077 114.649 38.2553 114.05 36.198C113.034 32.7088 106.548 33.237 103.751 33.2231H96.3459L93.1307 32.8061C92.131 34.3531 91.3664 36.0396 90.862 37.8105C90.6933 38.5658 90.7514 39.3539 91.029 40.0763C91.4048 41.0216 91.7111 40.7436 92.4766 41.4386V41.4664ZM116.458 99.6284C103.932 99.7674 91.3074 99.9203 78.725 99.6284C79.091 99.3645 79.5082 99.1799 79.9498 99.0863C78.558 98.3078 78.4187 96.1114 78.6692 94.6657C78.9198 93.22 79.6992 92.6362 81.2164 92.2191C85.893 90.9402 91.7667 91.6075 96.5269 91.6492C99.7003 91.6492 104.349 90.829 107.105 92.6362C108.33 93.4424 108.831 95.4164 109.889 95.8473C111.698 96.4868 113.535 94.4572 113.758 92.9281C113.865 91.9055 113.678 90.8738 113.219 89.9533C112.761 89.0327 112.05 88.2613 111.169 87.7291C108.818 86.6392 106.244 86.1109 103.653 86.1861C98.211 86.0888 92.7828 86.0471 87.3406 85.8803C83.0774 85.8528 78.8283 85.387 74.6607 84.4902C73.9487 86.1034 73.052 87.6288 71.9883 89.0358C70.7496 90.551 70.9027 91.816 71.0279 93.8039C71.181 96.2922 71.2089 98.7804 71.4455 101.255C71.4073 103.274 71.4956 105.294 71.7099 107.302C72.1414 109.234 73.5472 109.498 75.4819 109.818C81.0494 110.721 86.9926 109.818 92.5462 109.818C96.2903 109.818 100.034 109.818 103.779 109.818C106.184 109.976 108.599 109.897 110.988 109.582C115.568 108.65 116.556 103.298 114.621 99.7257C115.231 99.6557 115.845 99.6232 116.458 99.6284ZM73.4916 81.1261C77.0408 80.9593 82.2464 81.8351 85.1832 79.597C86.0597 79.0042 86.6845 78.1076 86.9369 77.0809C87.0238 76.5581 86.9095 76.0217 86.6168 75.5796C85.8439 75.0922 85.0172 74.6957 84.1532 74.398C82.5274 73.6482 80.8535 73.0074 79.1425 72.4796C67.4648 69.1295 54.7849 68.6847 42.6896 68.6847L39.9059 67.0027C38.7442 68.0734 37.7991 69.357 37.1222 70.7837C36.4262 72.3823 36.9412 74.537 36.9412 76.2469C36.9412 77.9567 36.5376 80.2225 38.3331 81.14C40.1286 82.0575 43.3995 81.5153 45.4177 81.4041C48.8834 81.2095 53.2121 80.3755 54.2839 84.5458C55.5783 89.6336 54.7849 95.6666 54.7988 100.866C54.7988 102.52 54.1864 105.578 54.7988 107.135C55.4113 108.692 57.3877 108.428 58.8074 108.261C60.937 107.983 65.5162 108.261 66.8663 106.287C67.3372 105.192 67.4587 103.978 67.2142 102.812C66.9915 99.8508 66.3652 96.9733 66.2678 93.9846C65.9727 90.6894 66.0193 87.3726 66.4069 84.087C67.0194 80.8481 70.9026 81.2512 73.5333 81.1261H73.4916ZM44.8053 61.8176C45.3023 61.8208 45.7941 61.7155 46.2461 61.509C46.6981 61.3025 47.0994 60.9998 47.422 60.6221C48.619 59.232 48.2571 55.5204 47.422 54.172C46.7377 53.3649 45.8754 52.7273 44.9027 52.3093C44.0841 51.9629 43.3486 51.4463 42.7453 50.7941C42.3735 49.9813 42.3189 49.0593 42.5922 48.2084C42.6436 47.9952 42.7448 47.7971 42.8876 47.6304C43.0303 47.4637 43.2105 47.3331 43.4134 47.2493C43.8846 47.0699 44.3975 47.0295 44.8911 47.133C45.3846 47.2365 45.838 47.4796 46.1971 47.8331C46.5124 48.1088 46.7649 48.4487 46.9378 48.8299C47.1106 49.2111 47.1997 49.6249 47.1992 50.0434L48.0761 50.2936C48.128 49.7106 48.0416 49.1236 47.824 48.5802C47.6063 48.0368 47.2635 47.5523 46.8234 47.1659C46.3979 46.7533 45.8767 46.4524 45.3063 46.2901C45.3063 46.0816 45.3063 45.8731 45.3063 45.6784C45.2861 45.4611 45.2861 45.2424 45.3063 45.0251L44.4016 44.9C44.3743 45.1634 44.3743 45.4289 44.4016 45.6924C44.4016 45.8592 44.4016 46.0121 44.4016 46.165C43.9561 46.1655 43.5138 46.2407 43.0932 46.3874C42.754 46.5097 42.4499 46.713 42.2073 46.9795C41.9648 47.246 41.7911 47.5677 41.7014 47.9165C41.5178 48.4735 41.4467 49.0613 41.4921 49.6458C41.5375 50.2304 41.6985 50.8002 41.9658 51.3223C42.6519 52.0921 43.4973 52.704 44.4434 53.1155C45.2772 53.4683 46.0232 53.9998 46.6286 54.6724C47.3802 55.8123 47.575 59.1069 46.7538 60.0243C46.3226 60.4936 45.7431 60.8007 45.1122 60.8944C44.4813 60.988 43.8374 60.8624 43.2881 60.5387C41.8962 59.9131 41.0611 58.7177 41.1724 58.0921L40.2678 57.9531C40.0729 59.2181 41.4509 60.7333 42.8984 61.3588C43.2123 61.5031 43.5383 61.6193 43.8727 61.7063C43.7549 62.2927 43.7836 62.8991 43.9562 63.4718L44.8053 63.1521C44.6979 62.6949 44.6979 62.2191 44.8053 61.762V61.8176Z" fill="#3C2868"/>
<path d="M43.6768 37.9218H52.529C52.8388 37.92 53.1456 37.9836 53.4291 38.1085C53.7126 38.2333 53.9664 38.4166 54.174 38.6463C54.3817 38.8759 54.5384 39.1469 54.6339 39.4413C54.7294 39.7356 54.7615 40.0468 54.7282 40.3545L52.7099 59.0097C52.6766 59.3174 52.7087 59.6286 52.8042 59.9229C52.8996 60.2173 53.0564 60.4882 53.264 60.7179C53.4716 60.9476 53.7255 61.1308 54.009 61.2557C54.2925 61.3805 54.5993 61.4442 54.9091 61.4424H77.3598C77.6601 61.4431 77.9574 61.382 78.233 61.2629C78.5086 61.1438 78.7567 60.9692 78.9617 60.7501C79.1668 60.5309 79.3245 60.2719 79.4248 59.9892C79.5252 59.7065 79.5661 59.4062 79.545 59.107L78.5846 43.3154C78.5696 43.0153 78.6156 42.7152 78.7199 42.4333C78.8242 42.1514 78.9846 41.8936 79.1915 41.6753C79.3983 41.4571 79.6472 41.2829 79.9233 41.1634C80.1994 41.0439 80.4968 40.9816 80.7977 40.9801H86.574C87.12 40.9836 87.648 40.7853 88.0565 40.4235C88.465 40.0617 88.7252 39.5618 88.787 39.02L89.8588 29.2893C89.8949 28.9776 89.8634 28.6619 89.7663 28.3635C89.6693 28.0651 89.5089 27.7911 89.2962 27.5603C89.0835 27.3294 88.8236 27.147 88.5339 27.0256C88.2443 26.9041 87.9319 26.8465 87.6179 26.8566L43.0783 28.1355C42.7763 28.1416 42.4788 28.2102 42.2046 28.3369C41.9305 28.4636 41.6857 28.6457 41.4856 28.8717C41.2855 29.0977 41.1345 29.3626 41.0421 29.6498C40.9496 29.937 40.9178 30.2403 40.9487 30.5404L41.4776 35.8506C41.5096 36.4111 41.7554 36.9381 42.1644 37.3234C42.5734 37.7086 43.1146 37.9227 43.6768 37.9218ZM94.8834 37.477L96.8598 37.5604C96.6998 37.9079 96.6373 38.2923 96.6789 38.6725L99.7549 68.6153L95.0643 69.4911C94.5462 69.5873 94.0799 69.8663 93.7504 70.277C93.4208 70.6878 93.25 71.2031 93.2689 71.7292L93.4637 76.7613C93.4853 77.3293 93.7265 77.8667 94.1366 78.2607C94.5467 78.6548 95.0938 78.8747 95.6628 78.8743H113.534C113.833 78.8746 114.128 78.8144 114.402 78.6971C114.677 78.5798 114.924 78.408 115.13 78.1922C115.336 77.9763 115.495 77.7208 115.599 77.4414C115.703 77.162 115.749 76.8643 115.733 76.5667L115.288 68.2261C115.274 67.914 115.192 67.6086 115.049 67.3306C114.907 67.0527 114.706 66.8085 114.46 66.6148C114.215 66.4211 113.931 66.2822 113.627 66.2077C113.323 66.1331 113.007 66.1246 112.699 66.1826L108.371 66.975L110.096 38.311C110.096 38.2276 110.096 38.1442 110.096 38.0608L112.532 38.172C112.842 38.1825 113.15 38.1279 113.438 38.0117C113.725 37.8955 113.985 37.7204 114.2 37.4976C114.415 37.2748 114.581 37.0094 114.687 36.7185C114.793 36.4275 114.836 36.1177 114.815 35.8089L114.634 33.3206C114.588 32.7638 114.333 32.245 113.92 31.8685C113.507 31.492 112.966 31.2856 112.407 31.291L94.9252 31.5412C94.6334 31.5429 94.345 31.603 94.0768 31.7178C93.8087 31.8326 93.5663 31.9999 93.3639 32.2098C93.1615 32.4197 93.0032 32.6679 92.8985 32.9399C92.7937 33.2118 92.7445 33.502 92.7538 33.7932V35.2945C92.7571 35.8628 92.9808 36.4076 93.3779 36.8146C93.775 37.2216 94.3147 37.459 94.8834 37.477ZM85.1403 77.0115C85.4457 77.0022 85.7458 76.9294 86.0215 76.7978C86.2971 76.6662 86.5422 76.4786 86.7413 76.2471C86.9403 76.0156 87.0889 75.7452 87.1775 75.4532C87.2661 75.1612 87.2929 74.854 87.256 74.5511L86.4904 67.9759C86.4289 67.4401 86.1722 66.9457 85.7692 66.5868C85.3663 66.2279 84.8452 66.0296 84.3053 66.0297L41.8812 65.9046C41.3109 65.9078 40.7638 66.1308 40.3541 66.527C39.9444 66.9233 39.7036 67.4622 39.6821 68.0315L39.4037 76.1775C39.394 76.4788 39.4464 76.779 39.5578 77.0593C39.6693 77.3395 39.8373 77.5938 40.0514 77.8064C40.2656 78.019 40.5213 78.1852 40.8026 78.2948C41.0839 78.4044 41.3847 78.4549 41.6864 78.4433L58.3888 77.8873V102.423C58.3886 102.718 58.4481 103.011 58.5638 103.283C58.6795 103.555 58.849 103.801 59.0621 104.006C59.2752 104.211 59.5276 104.371 59.8042 104.476C60.0807 104.582 60.3756 104.63 60.6714 104.619L66.3781 104.41C66.9627 104.385 67.5134 104.13 67.9099 103.7C68.3064 103.27 68.5163 102.701 68.4936 102.117L67.575 77.5815L85.1403 77.0115ZM115.873 83.406C114.884 82.5581 113.381 82.8639 111.948 82.8639C104.626 82.8639 97.7228 83.2253 90.3738 83.2253C87.1029 83.2253 83.8598 83.3643 80.6307 83.406C78.9048 83.406 76.135 83.2392 74.7709 84.4208C72.9894 85.9777 74.2838 89.6476 74.2003 91.7606C74.2003 95.8058 72.2795 99.9622 73.7966 104.049C75.3138 108.136 81.2571 106.704 85.1543 106.704C94.3266 106.704 103.624 107.219 112.755 106.704C116.931 106.468 116.221 104.16 116.555 101.144C116.913 97.1323 117.047 93.104 116.958 89.0776C116.958 87.5485 117.32 84.6015 115.914 83.406H115.873ZM109.122 95.4026C105.615 96.3757 100.451 95.5833 96.8459 95.5833C92.8095 95.5833 88.7452 95.7918 84.7784 95.7223C82.7463 95.7223 80.4219 95.625 80.4358 93.804C80.4358 92.678 80.0601 90.4816 81.2431 89.3834C82.8577 87.8821 85.9059 88.1184 88.0494 88.1184H102.33C105.712 88.1184 110.5 87.1732 111.057 91.0099C111.377 92.8726 111.558 94.7493 109.164 95.4026H109.122Z" fill="#C4AAFF"/>
</g>
<defs>
<clipPath id="clip0_1_9353">
<rect width="143" height="143" fill="white"/>
</clipPath>
</defs>
</svg>
