<svg width="2154" height="1117" viewBox="0 0 2154 1117" fill="none" xmlns="http://www.w3.org/2000/svg">
<path d="M2153.97 558.962L1187.57 554.561L2131.84 465.31L2108.76 397.738L1180.6 538.125L2035.95 311.318L1976.61 250L1164.87 523.405L1859.29 178.108L1768.68 128.25L1141.68 511.643L1616.73 76.9864L1502.46 42.7982L1113 503.872L1328.68 16.3901L1200.4 0.73877L1081.28 500.686L1019.37 1.47841L887.887 5.67889L1049.05 502.43L714.816 33.4933L591.161 57.235L1019.25 508.904L440.81 109.704L335.444 150.951L994.217 519.569L220.285 223.729L142.035 278.983L976.087 533.486L71.8432 365.969L27.3144 430.602L966.435 549.566L7.97519 524.427L0.968262 593.004L890.848 568.487L18.7482 644.396L40.0144 712.17L935.867 583.672L89.5881 774.894L141.58 837.992L984.057 591.142L250.205 913.482L334.761 966.143L1005.81 603.624L480.294 1022.24L590.303 1060.02L1033.49 612.308L760.729 1091.93L886.854 1111.66L1064.74 616.481L1067.61 1116.74H1199.36L1097.1 615.742L1375.36 1094.5L1501.48 1074.81L1127.66 610.263L1657.9 1027.22L1767.94 989.474L1153.9 600.474L1891.47 920.531L1976.08 867.888L1173.63 587.124L2056.5 783.322L2108.56 720.242L1185.26 571.399L2138.94 627.22L2153.97 558.962ZM1083.08 560.56L1081.79 561.474L1080.03 562.158L1077.98 562.542L1075.8 562.615L1073.68 562.35L1071.77 561.784L1070.28 560.953L1069.51 560.15L1069 558.981V558.214L1069.61 557.118L1070.8 556.159L1072.47 555.419L1074.48 554.963L1076.65 554.826L1078.81 555.018L1080.75 555.529L1082.36 556.305L1083.45 557.291L1083.98 558.396L1083.85 559.538L1083.08 560.56Z" fill="url(#paint0_radial_2_67)"/>
<defs>
<radialGradient id="paint0_radial_2_67" cx="0" cy="0" r="1" gradientUnits="userSpaceOnUse" gradientTransform="translate(1077.47 558.739) rotate(88.6141) scale(558.163 1076.71)">
<stop stop-color="white"/>
<stop offset="1" stop-color="#ECE4FF"/>
</radialGradient>
</defs>
</svg>
