<svg width="221" height="204" viewBox="0 0 221 204" fill="none" xmlns="http://www.w3.org/2000/svg">
<g clip-path="url(#clip0_1_55)">
<path d="M209.154 61.6312C236.164 108.599 209.44 173.481 156.767 195.042C104.094 216.603 39.4995 196.014 12.4752 149.032C-14.5491 102.051 4.17878 36.5532 56.8948 14.9924C109.611 -6.56837 182.129 14.6493 209.154 61.6312Z" fill="#E8FF2C"/>
<path d="M219.786 110.487C227.875 59.6392 186.894 10.8893 128.253 1.60069C69.6108 -7.6879 15.5145 26.0022 7.42521 76.8498C-0.664117 127.697 40.3167 176.447 98.9585 185.736C157.6 195.024 211.696 161.334 219.786 110.487Z" fill="#88F87B"/>
<path d="M94.7945 40.4575C96.5283 40.915 98.649 40.672 100.268 41.5441C102.604 42.8166 103.908 46.1479 105.097 48.2068C106.616 50.8376 110.456 55.9704 109.697 58.8585C108.937 61.7466 105.24 61.3463 103.206 63.1478C101.171 64.9493 101.959 68.009 103.206 70.0964C106.272 75.1721 112.548 85.5808 113.752 91.2998C114.869 96.6185 102.289 99.5209 98.1618 101.308L83.7899 107.184C80.48 108.614 76.8691 110.53 73.1866 111.016C68.8879 111.588 66.5523 100.593 65.2197 97.6622C63.2136 93.2442 61.0929 88.7548 59.0439 84.3798C58.0552 82.278 57.611 81.0484 55.2038 81.1199C51.8078 81.2342 48.1683 83.7507 44.9586 84.68C43.2908 85.1631 41.5328 85.2492 39.8257 84.9314C38.1185 84.6135 36.5099 83.9006 35.129 82.8499C32.0339 80.3335 29.1968 75.2007 31.9766 72.2697C34.7564 69.3387 39.1411 67.8231 42.7233 65.8215C46.4807 63.6906 50.345 61.7531 54.301 60.0166C60.0326 57.5003 66.0078 55.3556 71.5817 52.5533C78.7175 48.936 86.4264 46.248 94.7945 40.4575Z" fill="#3C2868"/>
<path d="M109.856 41.2856C109.856 43.8448 109.398 46.6615 110.272 49.1636C110.61 50.2945 111.291 51.2934 112.221 52.0231C113.539 53.0096 113.654 52.5092 115.359 52.981C118.755 53.9532 120.574 58.6143 121.964 61.0306C124.085 64.7193 126.177 68.4081 128.513 71.9968C131.378 76.2861 134.115 80.5754 137.339 84.6073C138.772 86.466 143.687 90.5265 139.675 92.1707C139.875 91.0841 140.391 89.8974 139.044 89.3827C138.428 90.8125 136.709 95.1018 136.895 96.5315C137.167 98.9621 140.033 102.679 141.667 104.71C144.145 107.798 147.298 105.496 150.651 104.124C156.096 101.893 161.584 99.7199 166.857 97.2607C169.092 96.217 174.25 94.9016 175.554 92.9714C178.549 88.5534 168.39 82.191 165.753 81.2045C159.535 78.9312 155.551 77.2727 152.413 71.9111C147.852 64.4515 143.751 56.7211 140.133 48.7632C138.443 44.8314 140.133 44.7027 142.741 42.2578C145.005 40.1274 145.607 35.4521 143.128 33.093C139.03 29.1612 129.903 33.7507 125.776 35.4093C122.151 36.839 118.525 38.3831 114.9 39.8558" fill="#3C2868"/>
<path d="M57.4823 118.164C56.5988 120.256 56.1831 122.515 56.2643 124.783C56.4506 127.314 58.8435 129.816 60.1331 132.061C61.4227 134.306 62.526 137.523 65.793 137.694C69.2893 137.88 73.5163 135.135 76.4108 133.762C81.3399 131.432 82.5149 136.222 83.2886 137.651C87.0858 144.614 92.4162 151.949 96.3566 158.74C97.6175 160.928 99.0218 165.303 101.142 166.961C103.263 168.62 116.188 163.187 118.122 162.1C120.988 160.456 127.379 157.01 127.823 153.522C128.038 151.906 125.545 150.09 124.628 148.732C122.063 144.972 118.968 141.583 116.575 137.723C114.024 133.591 110.843 129.144 109.296 124.64C107.748 120.137 113.738 118.221 117.52 116.491C122.607 114.132 130.918 112.13 133.54 107.44C133.943 106.81 134.211 106.105 134.33 105.367C134.448 104.629 134.413 103.875 134.228 103.151C133.935 102.38 133.362 101.748 132.623 101.378C131.12 101.208 129.603 101.184 128.095 101.307C125.155 101.308 122.218 101.475 119.297 101.807C99.6236 104.438 80.6091 111.472 62.8699 118.75" fill="#3C2868"/>
<path d="M56.0495 91.4401C55.4822 90.6284 54.6834 90.0057 53.7568 89.6529C52.8573 89.2421 51.8803 89.0276 50.8911 89.0239C49.9991 89.0131 49.1248 89.2723 48.3835 89.7673C47.5811 90.3249 47.2515 90.6537 47.2085 91.483C47.1961 92.3459 47.419 93.1959 47.8533 93.9422C48.0432 94.3785 48.3222 94.7705 48.6726 95.093C49.0229 95.4155 49.4369 95.6615 49.888 95.8152C52.0245 96.1987 54.1948 96.3616 56.3647 96.3013C56.9655 96.3421 57.5607 96.4427 58.1415 96.6016C58.7367 96.7961 59.2941 97.0911 59.7893 97.4737C60.6842 98.1732 61.4796 98.9909 62.1536 99.9043C62.8165 100.783 63.3609 101.744 63.7728 102.764C63.9918 103.282 64.1226 103.833 64.1596 104.394C64.1901 104.715 64.1658 105.039 64.088 105.352C64.0091 105.633 63.9036 105.906 63.7728 106.167C63.2308 107.251 62.315 108.104 61.1935 108.569C60.0494 109.011 58.8204 109.192 57.597 109.098C56.4242 109.017 55.2748 108.732 54.2011 108.254C53.6709 108.069 53.1847 107.776 52.773 107.395C52.3612 107.014 52.0328 106.552 51.8081 106.038H51.9944C52.6598 106.787 53.5581 107.29 54.5449 107.468C55.5271 107.718 56.5422 107.814 57.554 107.754C58.4202 107.826 59.2887 107.644 60.0525 107.23C60.8163 106.816 61.442 106.188 61.8527 105.423C61.8527 105.237 62.0246 105.051 62.0533 104.908C62.0766 104.752 62.0766 104.593 62.0533 104.437C62.0148 104.038 61.9332 103.645 61.8097 103.264C61.5088 102.401 61.0995 101.58 60.5917 100.819C60.0674 100.029 59.4675 99.292 58.8006 98.6175C58.4732 98.3175 58.1069 98.0626 57.7116 97.8598C57.2527 97.6542 56.772 97.5007 56.2787 97.4022C54.2154 96.9447 51.9801 97.0305 49.7448 96.5015C49.158 96.3769 48.6085 96.1175 48.1399 95.7437C47.6953 95.4047 47.2957 95.0108 46.9506 94.5713C46.2238 93.7341 45.7516 92.7074 45.5894 91.6117C45.5185 90.997 45.66 90.3766 45.9906 89.8531C46.378 89.3527 46.8661 88.9387 47.4235 88.6378C48.4966 87.9968 49.7456 87.7114 50.9914 87.8228C52.199 87.9258 53.3592 88.3397 54.3587 89.0239C54.8262 89.339 55.246 89.7193 55.6053 90.1533C55.9802 90.5472 56.2252 91.0461 56.3074 91.5831L56.0495 91.4401Z" fill="#3C2868"/>
<path d="M49.173 88.4687C48.4565 88.4687 48.213 88.3543 48.2846 88.1541C48.3562 87.954 48.6142 87.8396 48.6142 87.7395C48.6142 87.6394 48.4709 87.5822 48.2703 87.5679C47.8118 87.5679 47.6111 87.4106 47.4822 87.2105C47.3532 87.0103 47.5681 86.6672 48.0983 86.3097H48.2846C48.6718 86.2703 49.0625 86.3345 49.4166 86.4956C49.4882 86.6529 49.4882 86.8673 49.2446 87.1962C49.001 87.525 49.087 87.4821 49.2446 87.5536C49.4023 87.6251 49.6888 87.5536 49.8608 87.668C50.0327 87.7824 50.0184 88.1398 49.4166 88.4687H49.173Z" fill="#3C2868"/>
<path d="M59.8899 108.013C60.635 108.013 60.9215 108.242 60.8642 108.5C60.8069 108.757 60.5346 108.843 60.5203 108.971C60.506 109.1 60.6636 109.186 60.8785 109.229C61.1726 109.246 61.4492 109.373 61.6523 109.586C61.6523 109.786 61.6523 110.015 61.3514 110.573L61.2081 110.687C60.9789 110.799 60.7225 110.844 60.4688 110.816C60.2151 110.788 59.9746 110.689 59.7752 110.53C59.6717 110.391 59.6158 110.223 59.6158 110.051C59.6158 109.878 59.6717 109.71 59.7752 109.572C59.8755 109.4 59.9328 109.257 59.7752 109.157C59.6176 109.057 59.3167 109.029 59.1447 108.943C58.9728 108.857 59.0158 108.485 59.546 108.071L59.8899 108.013Z" fill="#3C2868"/>
<path d="M192.046 112.516C173.662 120.265 155.293 128.029 136.622 135.292C136.985 134.713 137.475 134.224 138.055 133.862C135.848 133.705 134.215 131.732 133.298 129.902C132.178 129.903 131.075 129.623 130.091 129.089C129.107 128.554 128.274 127.782 127.667 126.842C124.958 122.553 125.503 118.964 127.796 115.876C125.043 116.705 122.244 117.373 119.413 117.878C119.592 120.415 119.424 122.964 118.912 125.455C118.253 128.186 119.399 129.745 121.104 132.275C123.21 135.464 125.116 138.695 127.337 141.812C129.085 144.271 130.203 147.331 132.295 149.575C134.387 151.82 136.594 151.363 139.732 150.619C148.501 148.489 156.625 143.656 164.836 140.396C170.367 138.209 175.812 135.85 181.3 133.591C184.911 132.372 188.399 130.816 191.717 128.944C197.735 124.969 195.213 117.32 189.625 113.831C190.407 113.349 191.216 112.91 192.046 112.516Z" fill="#3C2868"/>
<path d="M108.15 52.1234L102.418 38.7552C101.964 37.8462 101.175 37.1471 100.217 36.8035C99.2586 36.46 98.2046 36.4984 97.2741 36.9108L32.794 65.3773C32.3694 65.5296 31.9868 65.7798 31.6774 66.1074C31.368 66.4351 31.1406 66.8309 31.0135 67.2629C30.8864 67.6949 30.8633 68.1507 30.9461 68.5932C31.029 69.0358 31.2153 69.4525 31.49 69.8096L36.2616 76.458C36.7972 77.1587 37.5488 77.6642 38.4006 77.8967C39.2525 78.1292 40.1573 78.0758 40.9758 77.7448L53.9864 72.4117C54.913 72.035 55.9477 72.02 56.8849 72.3696C57.8221 72.7193 58.593 73.4081 59.0445 74.299L70.1638 100.035C70.6152 100.925 71.387 101.613 72.3248 101.961C73.2627 102.308 74.2974 102.289 75.2219 101.908L108.178 88.4108C108.607 88.2708 108.996 88.0319 109.314 87.7136C109.633 87.3954 109.872 87.0066 110.011 86.5789C110.151 86.1513 110.187 85.6968 110.118 85.2524C110.048 84.8081 109.875 84.3863 109.611 84.0214L96.2854 63.8904C96.0218 63.5255 95.8482 63.1038 95.7787 62.6594C95.7093 62.215 95.7458 61.7605 95.8854 61.3328C96.025 60.9052 96.2637 60.5165 96.5822 60.1982C96.9007 59.8799 97.2899 59.641 97.7183 59.501L106.316 56.0696C106.715 55.9584 107.085 55.7621 107.401 55.4943C107.716 55.2266 107.97 54.8936 108.145 54.5185C108.319 54.1434 108.41 53.735 108.411 53.3216C108.411 52.9081 108.322 52.4993 108.15 52.1234Z" fill="#807ACC"/>
<path d="M167 71.6549C166.416 70.8237 165.537 70.2456 164.542 70.0384C163.546 69.8313 162.509 70.0105 161.641 70.5397L156.483 73.7995L138.973 38.4273C138.9 38.2856 138.814 38.1515 138.715 38.0269L142.412 36.783C144.418 36.1111 144.618 33.08 142.841 30.3062L139.474 25.0447C137.912 22.5855 135.362 21.2558 133.743 21.985L108.366 33.0513C106.575 33.8234 106.403 36.6115 107.993 39.2422L109.914 42.4449C111.346 44.9041 113.897 46.3624 115.645 45.7762L119.012 44.6467C118.938 45.0361 118.945 45.4368 119.034 45.8232C119.123 46.2096 119.291 46.5734 119.528 46.8915L144.561 81.4344L138.242 85.4521C137.907 85.6482 137.616 85.9101 137.386 86.2219C137.156 86.5337 136.992 86.8889 136.903 87.2659C136.815 87.6429 136.804 88.0339 136.872 88.4151C136.939 88.7964 137.084 89.1601 137.296 89.484L141.366 95.9608C141.888 96.7115 142.65 97.2622 143.528 97.5221C144.406 97.7821 145.346 97.7356 146.194 97.3906L172.459 86.6388C172.872 86.4943 173.246 86.2576 173.553 85.9466C173.86 85.6356 174.091 85.2587 174.23 84.8446C174.368 84.4306 174.409 83.9905 174.351 83.558C174.292 83.1255 174.135 82.7121 173.892 82.3495L167 71.6549Z" fill="#807ACC"/>
<path d="M132.782 99.5762L126.692 91.398C126.149 90.7202 125.401 90.2347 124.56 90.0133C123.719 89.7919 122.829 89.8463 122.021 90.1684L59.604 115.532C59.2038 115.665 58.8377 115.883 58.5318 116.173C58.226 116.462 57.9879 116.816 57.8347 117.208C57.6814 117.599 57.6167 118.02 57.6451 118.44C57.6735 118.86 57.7944 119.268 57.9992 119.636L63.7307 130.488C64.2317 131.326 65.023 131.951 65.9551 132.246C66.8872 132.542 67.8954 132.486 68.7888 132.089L84.1494 125.24L104.396 160.427C105.414 162.2 108.695 162.629 111.561 161.356L124.858 155.537C127.724 154.293 129.085 151.92 127.967 150.233L105.199 115.833L131.549 104.066C131.978 103.908 132.362 103.651 132.671 103.316C132.979 102.981 133.203 102.577 133.324 102.137C133.444 101.698 133.458 101.237 133.364 100.791C133.269 100.346 133.07 99.9292 132.782 99.5762Z" fill="#807ACC"/>
<path d="M178.92 91.5844C176.843 91.0697 174.851 92.3851 172.759 93.243C161.998 97.6466 152.125 102.265 141.321 106.683C136.521 108.656 131.879 110.8 127.093 112.802C124.571 113.86 120.372 115.304 119.255 117.678C117.822 120.78 122.479 124.826 123.94 127.686C126.964 133.005 127.308 139.61 132.638 144.057C137.968 148.503 145.534 143.042 151.266 140.711C164.749 135.192 178.82 130.274 191.831 124.097C197.849 121.238 195.012 118.678 193.264 114.575C190.755 109.047 187.923 103.671 184.781 98.4759C183.592 96.4027 181.901 92.3136 178.92 91.5844ZM173.275 114.089C168.976 116.005 163.889 117.492 160.178 119.022C154.246 121.452 148.428 124.154 142.539 126.471C139.53 127.643 136.063 128.944 134.73 126.556C134.529 126.199 134.257 125.784 133.971 125.327C133.687 124.904 133.536 124.406 133.536 123.897C133.536 123.388 133.687 122.89 133.971 122.467C135.074 121.209 138.413 120.366 140.075 119.608C147.711 116.277 155.517 113.347 163.459 110.829C165.308 110.271 168.99 108.57 170.982 109.7C171.747 110.133 172.37 110.778 172.777 111.557C173.184 112.335 173.357 113.215 173.275 114.089Z" fill="#807ACC"/>
<path d="M177.588 104.453C173.876 99.7629 167.557 103.881 162.599 105.882L141.608 114.461C138.455 115.748 133.813 117.32 132.566 120.18C131.864 121.824 133.025 123.754 133.999 125.241C133.716 124.818 133.564 124.32 133.564 123.811C133.564 123.302 133.716 122.805 133.999 122.382C135.102 121.124 138.441 120.28 140.103 119.522C147.739 116.191 155.545 113.261 163.488 110.743C165.336 110.186 169.019 108.484 171.011 109.614C171.749 110.048 172.349 110.68 172.745 111.439C173.14 112.197 173.314 113.051 173.246 113.903C174.944 113.227 176.563 112.369 178.075 111.344C181.084 109.085 179.465 106.812 177.588 104.453Z" fill="#3C2868"/>
</g>
<defs>
<clipPath id="clip0_1_55">
<rect width="220.637" height="203.555" fill="white" transform="translate(0.181702 0.0517273)"/>
</clipPath>
</defs>
</svg>
