<svg width="216" height="204" viewBox="0 0 216 204" fill="none" xmlns="http://www.w3.org/2000/svg">
<g clip-path="url(#clip0_1_92)">
<path d="M213.523 127.922C226.173 73.9527 189.189 19.1148 130.916 5.43812C72.6427 -8.23851 15.1481 24.4253 2.49784 78.3947C-10.1524 132.364 26.8321 187.202 85.1051 200.879C143.378 214.555 200.873 181.892 213.523 127.922Z" fill="#88F87B"/>
<path d="M102.345 188.898C158.198 188.898 203.476 146.616 203.476 94.458C203.476 42.3003 158.198 0.0180969 102.345 0.0180969C46.4911 0.0180969 1.21295 42.3003 1.21295 94.458C1.21295 146.616 46.4911 188.898 102.345 188.898Z" fill="#E8FF2C"/>
<path d="M22.906 104.961C25.7788 103.223 28.304 100.966 30.3528 98.3052C33.2447 94.5143 34.6907 90.1446 37.8863 86.6431C41.2844 82.9245 45.8392 81.521 47.1695 76.4134C47.8491 73.809 47.5021 71.1756 48.1383 68.6146C48.8915 66.3924 49.79 64.2221 50.8278 62.1179C52.3373 57.8911 53.55 53.564 54.4572 49.1681C55.2525 45.7534 55.5417 40.3853 60.2411 40.0236C64.044 39.7342 66.6468 43.4962 69.5532 45.3772C72.9079 47.562 76.1758 50.1665 79.1256 52.467C81.1933 54.0876 82.755 53.4365 85.5891 53.5956C93.2034 54.1701 100.76 55.3457 108.19 57.1116C116.562 59.0215 125.368 60.3237 133.379 63.3912C135.634 64.2593 139.972 66.3863 141.028 68.5277C142.951 65.7496 148.836 63.4925 152.075 61.7852C156.775 59.3109 161.503 56.4605 167.113 56.6631C173.071 56.8801 172.724 61.2642 171.871 65.5471C170.425 72.7816 167.33 79.669 165.653 86.8312C164.612 91.3021 164.988 93.8342 167.822 97.5094C166.55 97.063 165.22 96.8046 163.874 96.7425C165.931 102.164 166.741 107.98 166.246 113.758C165.711 120.92 165.884 128.806 161.402 134.898C161.04 131.599 156.688 128.387 154.259 126.216C152.639 133.378 151.497 140.54 148.099 147.211C146.87 144.317 144.137 142.233 142.242 139.745C139.567 136.229 137.196 135.404 132.598 134.825C126.163 134.058 119.497 133.002 112.99 133.61C110.298 133.988 107.569 134.042 104.864 133.769C103.373 133.445 101.849 133.299 100.324 133.335C100.305 133.36 100.295 133.39 100.295 133.422C100.295 133.453 100.305 133.483 100.324 133.509C98.0968 133.509 95.8121 132.857 93.513 132.828C89.1751 132.828 84.8372 135.824 82.0609 138.761C81.0921 137.502 80.9041 135.607 79.328 134.912C78.2114 135.991 76.9332 136.89 75.5395 137.574C70.8546 129.226 59.1711 121.239 49.2228 119.228C45.9957 118.514 42.8098 117.625 39.6793 116.565C36.5362 115.759 33.3282 115.231 30.0925 114.988C27.9814 114.742 25.8992 115.249 23.8459 114.988C26.0293 112.47 29.1815 109.996 29.7455 106.639C28.0681 106.712 26.2028 105.12 22.906 104.961Z" fill="#C5ABFF"/>
<path d="M53.586 63.1317C55.1766 62.0755 56.29 60.643 57.9239 59.6013C60.3549 57.9908 63.0836 56.8839 65.9491 56.3457C68.1903 55.9406 70.5473 55.738 72.8464 55.5065C74.0006 55.3425 75.1655 55.2651 76.3312 55.275C77.2849 55.458 78.2523 55.5597 79.2232 55.5788C78.6082 54.779 77.8354 54.1141 76.953 53.6255C75.9697 52.9166 75.1021 52.1063 74.061 51.3828C71.9354 49.8491 69.3761 48.489 67.1059 47.1434C64.8357 45.7977 62.2619 43.9746 59.4567 45.1177C56.6515 46.2608 56.3623 50.0951 55.8128 52.3523C55.0753 55.5499 54.5259 58.8344 53.586 63.1317Z" fill="white"/>
<path d="M42.8721 83.1862C41.9324 84.2191 40.9226 85.186 39.85 86.08C43.248 82.0142 45.7929 83.273 50.4779 84.9948C53.5685 86.0006 56.7431 86.727 59.9635 87.1652C62.2626 87.5703 64.8653 88.5253 67.1934 88.3228C67.9019 90.088 67.9019 92.2728 68.6393 94.1104C69.1158 95.6133 69.7356 97.0669 70.4902 98.4511C72.1241 101.171 75.9705 101.779 79.0359 102.257C84.8198 103.168 90.7628 103.79 96.619 104.702C98.7012 105.035 101.318 105.903 103.343 104.904C104.528 104.326 104.962 103.052 105.786 102.141C106.827 101.073 107.965 100.104 109.185 99.2469C111.469 97.5106 112.496 97.9303 115.373 98.3643C120.203 99.1023 125.076 99.464 129.833 100.332C133.448 100.969 135.342 102.575 138.003 104.933C139.738 106.467 140.895 108.334 142.644 109.911C144.124 111.108 145.684 112.2 147.315 113.181C148.761 114.179 149.759 115.655 151.393 116.393C150.192 119.359 155.196 122.513 154.285 125.349C153.995 125.233 153.518 125.349 153.229 125.233C152.825 129.547 151.928 133.8 150.554 137.908C149.903 139.616 148.53 141.048 147.879 142.596C148.486 142.061 148.544 141.149 149.412 140.889C149.577 142.722 149.263 144.567 148.501 146.243C148.05 145.328 147.354 144.557 146.491 144.014C145.305 143.002 144.192 141.858 143.02 140.788C140.909 138.849 138.552 135.55 135.704 134.711C130.715 133.264 124.483 132.801 119.277 132.15C116.111 131.759 112.959 131.889 109.792 131.643C107.941 131.499 105.931 131.036 104.138 131.643C106.871 131.875 110.544 131.831 112.959 132.815C110.141 133.407 107.252 133.583 104.384 133.336C102.701 132.992 100.995 132.769 99.2796 132.671C96.3618 132.542 93.4406 132.83 90.6037 133.524C88.1456 134.291 86.4538 135.839 84.3138 137.011C82.8678 137.778 82.4195 137.793 81.3495 136.91C79.4119 135.304 79.7589 135.781 77.1272 136.259C74.2353 136.794 71.8494 134.002 70.4324 131.918C67.3669 127.577 62.5663 123.135 57.1728 121.414C57.4475 121.298 57.6789 121.052 57.9247 120.936C54.6857 119.489 50.3188 119.677 46.8051 118.751C44.5349 118.144 42.4672 117.304 40.2115 116.566C36.5588 115.346 32.7256 114.754 28.875 114.816C27.2928 114.56 25.6913 114.444 24.0888 114.468C26.9808 112.53 29.6124 109.708 29.9884 106.293C28.0219 105.801 26.1421 105.281 24.2045 104.919C26.4024 100.867 29.9884 97.6843 32.6924 94.0091C34.6452 91.1049 36.9471 88.4517 39.5463 86.1089" fill="#C5ABFF"/>
<path d="M143.034 70.2161C143.917 72.835 144.596 75.917 146.273 78.2754C147.951 80.6339 150.611 82.6162 152.448 84.9457C155.846 88.9826 158.738 93.6271 162.367 97.4904C162.367 97.0708 162.642 96.8393 162.729 96.4631C163.539 96.5818 164.34 96.7509 165.129 96.9695C164.623 95.5226 163.885 94.0757 163.365 92.5275C162.913 90.8776 162.958 89.131 163.495 87.5067C164.551 82.8187 165.274 77.9716 166.532 73.2981C167.269 70.5345 170.175 67.3368 169.25 64.2404C168.006 60.0588 161.514 62.3883 158.882 63.459C153.85 65.4991 148.356 66.6133 143.034 70.2161Z" fill="white"/>
<path d="M89.2162 82.7108C88.7037 79.6211 87.4878 76.6909 85.6624 74.1467C83.837 71.6026 81.4512 69.5128 78.6895 68.0391C74.9698 65.7207 70.7907 64.2396 66.442 63.6983C63.4978 63.2474 60.4863 63.629 57.7473 64.7999C55.0082 65.9709 52.6509 67.8847 50.9412 70.3252C48.324 73.7688 47.1672 77.661 44.897 81.1046C43.8467 82.5367 42.5371 83.7589 41.0362 84.7075C39.2625 85.9714 37.6965 87.5041 36.3946 89.2507C34.4385 91.7663 33.07 94.6882 32.3893 97.802C32.2881 98.5978 32.1435 100.421 33.1701 100.898C34.8474 101.68 38.2599 98.6413 39.5035 98.0046C41.4788 96.8144 43.5783 95.844 45.7646 95.1108C48.2132 94.5905 50.7082 94.319 53.2113 94.3005C55.0156 94.2822 56.8132 94.0785 58.5759 93.6928C64.6635 91.8262 70.6354 88.3537 76.0578 85.373C78.0677 84.2734 79.6004 81.9873 81.7405 81.2349C83.1505 80.9659 84.6048 81.0454 85.9772 81.4663" fill="#807ACC"/>
<path d="M82.0028 139.947L81.4822 139.281C81.1208 138.776 80.8153 138.232 80.5712 137.661C80.3294 136.993 79.9388 136.39 79.4289 135.896C78.3635 136.844 77.1771 137.647 75.9007 138.283L75.2501 138.63L74.903 138.008C70.3626 129.934 58.9973 122.092 49.0634 120.008C46.1304 119.377 43.2341 118.584 40.3876 117.636L39.4332 117.332C36.7995 116.599 34.1031 116.114 31.3791 115.885L29.9331 115.726C28.899 115.632 27.8584 115.632 26.8243 115.726C25.785 115.812 24.7403 115.812 23.701 115.726L22.3851 115.595L23.2238 114.64C23.7154 114.062 24.2649 113.497 24.8289 112.904C26.5809 111.366 27.9479 109.438 28.8197 107.276C28.1757 107.125 27.5465 106.917 26.94 106.654C25.6068 106.069 24.1838 105.717 22.7322 105.612L20.5632 105.496L22.3851 104.382C25.1817 102.696 27.6347 100.497 29.615 97.8997C30.7815 96.2895 31.8302 94.597 32.7528 92.8355C33.9623 90.4524 35.4526 88.2227 37.1919 86.1942C38.3915 85.0342 39.688 83.979 41.0672 83.0399C43.4964 81.1589 45.5931 79.5384 46.4173 76.3842C46.7062 75.1106 46.8709 73.8118 46.9089 72.5064C46.9419 71.1918 47.1017 69.8836 47.3861 68.5998C47.7885 67.1476 48.3409 65.7413 49.0345 64.4037C49.4104 63.6224 49.7719 62.841 50.09 62.0307C51.4655 58.2566 52.5673 54.3882 53.3869 50.4555L53.6905 49.1532C53.8062 48.6758 53.9074 48.1549 54.0231 47.6051C54.6738 44.3351 55.5558 39.8496 60.1107 39.4879C63.1038 39.2564 65.4029 41.2531 67.4273 43.0183C68.2057 43.7195 69.0266 44.3719 69.8855 44.9717C72.9365 46.954 75.973 49.3124 78.6481 51.4249L79.5012 52.0905C80.0587 52.5065 80.6945 52.8056 81.3703 52.9697C82.0462 53.1339 82.7482 53.1596 83.4343 53.0454C84.0705 53.0454 84.7646 53.0454 85.5599 53.0454C93.2159 53.5972 100.814 54.7781 108.276 56.5759C110.46 57.0678 112.614 57.5164 114.87 58.0228C121.228 59.1544 127.485 60.7946 133.581 62.9278C133.812 63.0146 138.916 64.997 141.013 67.5146C142.878 65.5757 146.32 63.9407 149.139 62.5951C150.065 62.1465 150.918 61.7414 151.641 61.3507L152.957 60.6562C157.295 58.3556 161.777 55.9538 167.055 56.1563C167.93 56.1117 168.805 56.2523 169.622 56.569C170.44 56.8856 171.181 57.3711 171.798 57.9939C173.417 59.8893 173.085 62.8699 172.492 65.8216C171.622 69.7416 170.521 73.6067 169.195 77.3969C168.14 80.5946 167.055 83.8936 166.303 87.1925C165.262 91.649 165.725 93.9207 168.356 97.3209L169.947 99.3611L167.489 98.3193C166.663 98.0032 165.796 97.8082 164.915 97.7405C166.686 102.968 167.365 108.503 166.911 114.004C166.838 114.988 166.78 115.972 166.723 116.898C166.332 123.336 165.927 130.007 161.951 135.418L160.852 136.865L160.649 135.056C160.36 132.481 157.165 129.761 154.866 127.822L154.678 127.663C154.504 128.458 154.345 129.24 154.171 130.036C152.913 135.924 151.612 142.016 148.735 147.673L148.026 149.12L147.419 147.673C146.521 145.898 145.328 144.288 143.891 142.913C143.124 142.088 142.329 141.235 141.649 140.338C139.09 136.966 136.863 136.214 132.496 135.693L129.807 135.36C124.269 134.461 118.65 134.165 113.048 134.478H112.672C110.044 134.828 107.385 134.867 104.748 134.593L103.461 134.391L102.969 134.318L103.172 134.42L100.367 134.333C99.2626 134.28 98.1622 134.169 97.0698 134C95.9122 133.81 94.7432 133.699 93.5706 133.667C90.1725 133.667 86.0949 135.765 82.6534 139.368L82.0028 139.947ZM79.1108 134.159L79.6024 134.362C80.6642 134.941 81.4656 135.904 81.8437 137.053L82.1618 137.704C84.3019 135.635 88.6109 132.191 93.4983 132.235C94.7388 132.263 95.9758 132.379 97.2 132.582C98.0386 132.698 98.8339 132.799 99.6292 132.872V132.785H100.121C101.294 132.702 102.472 132.79 103.62 133.045L104.835 133.233C107.361 133.493 109.91 133.45 112.426 133.103H112.802C118.514 132.766 124.246 133.062 129.894 133.986L132.569 134.304C137.282 134.868 139.798 135.751 142.69 139.498C143.341 140.352 144.136 141.177 144.845 141.973C146.003 143.142 147.044 144.421 147.954 145.792C150.13 140.638 151.721 135.256 152.697 129.746C152.957 128.574 153.203 127.388 153.463 126.216L153.723 125.044L154.663 125.868L155.762 126.809C157.83 128.56 160.519 130.86 161.546 133.349C164.438 128.458 164.857 122.541 165.204 116.796C165.277 115.798 165.334 114.8 165.407 113.816C165.903 108.136 165.107 102.417 163.079 97.0895L162.645 96.0476L164.279 96.2357C164.843 96.2357 165.436 96.3515 166.028 96.4528C164.134 93.559 163.86 90.9111 164.828 86.8019C165.609 83.4595 166.708 80.1316 167.72 76.905C169.037 73.1832 170.128 69.3854 170.988 65.5323C171.523 62.8989 171.841 60.2511 170.583 58.7897C170.099 58.3207 169.522 57.9587 168.89 57.7269C168.257 57.4951 167.583 57.3988 166.911 57.4441C162.023 57.2704 157.729 59.5565 153.564 61.7848L152.248 62.4938C151.511 62.8844 150.629 63.304 149.689 63.7526C146.638 65.1995 142.835 67.0081 141.447 69.0049L140.753 70.0177L140.203 68.918C139.292 67.0949 135.359 65.0548 132.973 64.1288C126.958 62.0243 120.783 60.4082 114.508 59.2961C112.282 58.8331 110.069 58.3845 107.886 57.8492C100.502 56.0806 92.9873 54.9145 85.4153 54.3621C84.6634 54.3621 83.9693 54.3621 83.4198 54.3621C81.6871 54.5909 79.9336 54.134 78.5324 53.0888L77.6793 52.4088C75.0187 50.3397 72.0111 47.9812 69.0034 46.0424C68.0829 45.4107 67.2083 44.7144 66.3862 43.9588C64.3908 42.237 62.5255 40.602 60.1541 40.7901C56.6837 41.065 55.9752 44.6534 55.3534 47.8221C55.2377 48.3719 55.1365 48.9218 55.0208 49.4137L54.7172 50.7014C53.8811 54.6977 52.76 58.6289 51.3625 62.4649C51.0299 63.3041 50.6395 64.1287 50.2636 64.9101C49.6166 66.1782 49.0936 67.5059 48.7019 68.8747C48.4345 70.0824 48.2844 71.3132 48.2537 72.5498C48.2203 73.9385 48.0459 75.3201 47.7331 76.6735C46.7932 80.2618 44.4218 82.0994 41.9492 84.0383C40.6537 84.9758 39.444 86.0265 38.3343 87.1781C36.6652 89.1309 35.2378 91.2783 34.0831 93.5735C33.1272 95.3838 32.0449 97.1244 30.8441 98.7823C29.117 101.022 27.0479 102.975 24.7132 104.57C25.7005 104.788 26.6679 105.088 27.6051 105.467C28.2854 105.833 29.0243 106.078 29.7885 106.19H30.6128L30.4826 106.957C30.0199 109.75 27.9666 111.877 26.0001 113.946L25.3783 114.583H26.8243C27.9492 114.467 29.083 114.467 30.2079 114.583L31.6538 114.727C34.4735 114.952 37.2664 115.436 39.9971 116.174L40.937 116.464C43.7321 117.397 46.5751 118.179 49.4538 118.808C59.5757 120.848 70.97 128.704 75.9007 136.88C76.9951 136.301 77.9987 135.565 78.8794 134.695L79.1108 134.159Z" fill="#5848B5"/>
<path d="M107.68 61.4193C103.51 60.5365 99.7251 58.3592 96.8642 55.1976C93.0902 51.3488 89.7645 50.0177 84.3999 48.8457C86.9737 47.6447 90.285 48.701 93.0758 49.1206C96.997 49.5695 100.76 50.9269 104.065 53.0851C108.765 56.1815 113.131 61.9981 119.349 62.5045C116.124 60.3829 113.436 57.5395 111.497 54.1992C109.415 50.2636 108.374 42.4503 113.97 40.5838C110.355 46.3714 119.118 51.0305 122.892 54.1848C126.666 57.339 133.708 59.5528 135.992 64.1829C136.43 62.7528 136.342 61.2136 135.747 59.8422C138.638 62.4177 142.716 64.2987 144.422 67.8726C145.482 69.9424 146.219 72.1627 146.606 74.456" fill="#C5ABFF"/>
<path d="M145.872 74.6047C145.482 72.3844 144.766 70.2341 143.747 68.2238C142.379 65.9893 140.488 64.1219 138.237 62.7834L136.921 61.814C136.952 62.686 136.859 63.5578 136.647 64.404L136.126 66.1692L135.302 64.5197C133.928 61.7127 130.646 59.8462 127.479 58.0231C125.672 57.0558 123.95 55.9377 122.332 54.6807C121.695 54.1454 120.886 53.5666 120.047 52.9444C116.316 50.1953 111.371 46.5636 112.456 42.136C111.861 42.6508 111.392 43.294 111.082 44.017C109.824 46.9108 110.619 51.2515 112.051 53.8994C113.934 57.1522 116.554 59.9176 119.7 61.9732L121.753 63.4201L119.208 63.2175C114.61 62.8413 111.125 59.8462 107.742 56.9524C106.42 55.7753 105.03 54.6785 103.577 53.6679C100.385 51.595 96.7581 50.2878 92.9783 49.848H92.8337L91.1708 49.5442C89.9984 49.2925 88.8098 49.1233 87.6137 49.0378C91.3409 50.0132 94.7184 52.0189 97.3596 54.8254C100.141 57.8755 103.825 59.9544 107.872 60.7578L107.583 62.0744C103.267 61.1719 99.3482 58.9226 96.3908 55.6502C92.6891 51.8882 89.4067 50.6294 84.288 49.5008L82.3648 49.0812L84.1289 48.2564C86.4135 47.1857 89.1464 47.7066 91.5468 48.1696C92.1107 48.2854 92.6602 48.4011 93.1952 48.4735C97.2209 48.9458 101.085 50.3369 104.488 52.5393C106.004 53.576 107.452 54.7068 108.826 55.9251C111.075 58.0847 113.67 59.8504 116.504 61.1484C114.237 59.3015 112.339 57.0435 110.908 54.4926C109.332 51.512 108.479 46.7806 109.896 43.5106C110.244 42.67 110.774 41.9166 111.446 41.3039C112.118 40.6912 112.917 40.2343 113.786 39.9657L115.622 39.3434L114.639 40.9206C111.964 45.2614 117.01 48.9076 121.059 51.9027C121.941 52.5393 122.751 53.1325 123.416 53.6823C124.956 54.8781 126.596 55.9383 128.318 56.8511C131.033 58.1819 133.482 59.996 135.548 62.2046C135.606 61.5468 135.481 60.8857 135.186 60.2947L131.268 54.9846L136.256 59.4411C137.138 60.2224 138.122 60.888 139.148 61.6838C141.599 63.1518 143.642 65.2114 145.091 67.674C146.175 69.8106 146.93 72.0982 147.333 74.46L145.872 74.6047Z" fill="#5848B5"/>
<path d="M94.7096 82.3596C96.3435 81.3901 97.6015 79.9432 99.2789 78.9159C101.449 77.7481 103.792 76.9371 106.22 76.514C110.622 75.6199 115.15 75.5415 119.58 76.2825C122.545 76.7455 125.538 77.2374 128.43 77.9609C130.802 78.7162 133.101 79.6847 135.298 80.8547C137.767 82.1061 140.081 83.6405 142.195 85.427C143.917 86.8315 145.431 88.4732 146.692 90.3031C149.715 94.6438 153.46 98.8109 155.166 103.774C156.286 107.218 156.397 110.912 155.485 114.417C154.572 117.923 152.675 121.093 150.018 123.553C147.632 125.781 144.422 128.386 140.778 128.212C137.135 128.038 135.862 126.953 135.154 123.871C133.852 118.084 135.081 112.426 129.37 108.143C126.428 106.017 123.168 104.371 119.711 103.267C117.994 102.77 116.444 101.814 115.228 100.504C113.536 98.6662 111.917 96.6984 110.297 94.7162C107.405 91.2725 103.747 88.5089 100.493 85.4704C98.9463 84.0235 97.6015 84.7035 95.9965 83.6907C95.0132 83.0396 95.1578 81.9255 94.7096 82.3596Z" fill="#807ACC"/>
<path d="M140.011 91.3568C141.312 92.4275 140.17 96.0158 139.534 97.3759C138.958 98.5302 138.102 99.521 137.043 100.257C135.984 100.993 134.757 101.45 133.475 101.586C129.032 102.011 124.548 101.649 120.23 100.516C116.528 99.7344 112.913 98.519 109.255 97.6219C105.071 96.7033 101.294 94.4608 98.4826 91.2265C97.0658 89.7344 95.9207 88.0058 95.099 86.1189C94.0145 82.8489 97.1089 81.5177 99.9431 81.1994C104.585 80.6785 109.66 81.5611 114.2 82.2701L128.27 84.4694C133.374 85.2652 136.599 88.6076 140.011 91.3568Z" fill="#E8FF2C"/>
<path d="M124.466 101.994C123.02 101.762 121.473 101.473 120.128 101.169C117.974 100.721 115.79 100.113 113.751 99.5196C112.204 99.0856 110.671 98.6659 109.139 98.2897C104.812 97.3332 100.906 95.016 97.9902 91.6773C96.5215 90.1096 95.3286 88.3045 94.4621 86.3383C94.2436 85.782 94.1624 85.181 94.2253 84.5866C94.2883 83.9922 94.4935 83.4217 94.8235 82.9235C96.0092 81.2306 98.5252 80.7098 99.9278 80.5507C104.495 80.2794 109.078 80.6004 113.563 81.5056L119.347 82.4171L128.414 83.864C132.954 84.573 136.005 87.1485 138.969 89.6517L140.415 90.896C142.44 92.5744 140.14 97.6386 140.112 97.682C139.491 98.9442 138.56 100.028 137.407 100.833C136.254 101.638 134.916 102.137 133.518 102.283C130.504 102.65 127.451 102.552 124.466 101.994ZM112.508 82.6921C108.4 81.8895 104.206 81.6172 100.029 81.8818C99.2683 81.8896 98.5169 82.0498 97.819 82.353C97.1211 82.6562 96.4911 83.0962 95.9659 83.647C95.7489 83.9858 95.6182 84.3727 95.5855 84.7738C95.5527 85.1749 95.6188 85.578 95.7779 85.9476C96.5827 87.7433 97.6824 89.3915 99.0313 90.8237C101.751 93.9451 105.401 96.1108 109.442 97.002C110.99 97.3782 112.551 97.8123 114.098 98.2463C116.152 98.8251 118.277 99.4328 120.388 99.8669C124.437 100.721 129.064 101.589 133.402 100.923C134.572 100.803 135.692 100.39 136.66 99.7226C137.628 99.055 138.412 98.1541 138.94 97.1032C139.736 95.4103 140.386 92.5165 139.605 91.8654L138.073 90.5921C135.268 88.2337 132.361 85.7885 128.24 85.1518L119.174 83.7049L113.39 82.7933L112.508 82.6921Z" fill="#5848B5"/>
<path d="M88.061 80.9284C89.9408 81.565 90.4469 82.8094 89.1889 84.2997C87.0489 86.8318 82.7543 88.2498 79.3996 88.38C75.9629 88.3403 72.5308 88.1132 69.1187 87.6999C65.4604 87.454 61.8889 87.9749 58.2305 87.4251C51.9405 86.5135 45.2168 85.2836 41.7898 79.7419C38.3628 74.2002 47.299 70.5541 51.9116 70.0477C55.4703 69.9005 59.0337 70.1822 62.5251 70.8868C66.6324 71.2949 70.6965 72.0599 74.6713 73.173C79.2695 74.6922 83.1447 77.832 88.061 80.9284Z" fill="#E8FF2C"/>
<path d="M56.7243 87.8911C50.3042 86.8782 44.4046 85.3301 41.1656 80.0778C40.6701 79.3664 40.3809 78.5317 40.3298 77.6661C40.2788 76.8004 40.468 75.9375 40.8764 75.1727C42.6839 71.8159 48.3666 69.7758 51.8224 69.3851C54.765 69.1959 57.7197 69.3855 60.614 69.9494L62.6239 70.2388L63.8096 70.398C67.5689 70.7783 71.2859 71.4999 74.9147 72.5538C78.4407 73.9085 81.7676 75.7337 84.8052 77.9798C85.9475 78.7466 87.1332 79.5424 88.3767 80.3382C88.8537 80.4434 89.2973 80.6648 89.6681 80.9828C90.039 81.3009 90.3255 81.7058 90.5023 82.1614C90.6107 82.6145 90.5982 83.0883 90.4663 83.5351C90.3343 83.982 90.0875 84.3864 89.7504 84.7079C87.4079 87.5005 82.7519 88.9184 79.4261 89.0487C77.0777 89.0893 74.7294 88.9636 72.3987 88.6725C71.2853 88.5567 70.1574 88.4409 69.0729 88.3686C67.627 88.2673 66.0508 88.3686 64.5759 88.3686C62.4187 88.4704 60.2568 88.393 58.1124 88.1371L56.7243 87.8911ZM67.6125 72.2789C66.2822 72.0619 64.9374 71.8882 63.6071 71.7146L62.4215 71.5555L60.3826 71.2661C57.6221 70.7247 54.8035 70.5399 51.996 70.7162C48.9449 71.049 43.696 72.9011 42.1633 75.7659C41.8528 76.3332 41.7097 76.9771 41.7507 77.6226C41.7916 78.2681 42.015 78.8887 42.3947 79.4122C45.5614 84.5343 51.7501 85.822 58.3004 86.777C60.3633 87.0231 62.4431 87.0957 64.5181 86.994C65.9641 86.994 67.5691 86.994 69.1452 86.994C70.2586 86.994 71.3865 87.1821 72.5288 87.2979C74.7876 87.5806 77.0632 87.7063 79.3394 87.6741C82.347 87.5583 86.5692 86.2271 88.5936 83.8397C88.7795 83.6724 88.9224 83.4628 89.0105 83.2286C89.0986 82.9944 89.1292 82.7426 89.0997 82.4941C88.984 82.1034 88.5213 81.7562 87.7839 81.5247L87.6248 81.4379C86.3379 80.6276 85.1233 79.8173 83.9376 79.0215C81.0159 76.8434 77.8098 75.0763 74.4086 73.7693C72.1876 73.0882 69.9146 72.5897 67.6125 72.2789Z" fill="#5848B5"/>
<path d="M79.1411 93.6429C80.5871 94.1204 81.1655 96.1171 81.3679 97.3904L80.8907 97.3036C82.1054 99.3871 83.32 101.644 85.9661 102.426C84.6503 99.7634 82.2644 97.4483 84.6358 94.3664C82.8325 93.945 80.992 93.7026 79.1411 93.6429Z" fill="#3C2868"/>
<path d="M62.8328 101.112C65.9706 102.182 69.1951 103.513 72.4196 104.367C77.1097 105.339 81.8502 106.049 86.6191 106.494C97.623 108.115 109.017 109.923 120.18 109.099C123.781 108.838 127.641 108.172 131.184 108.144C132.807 108.186 134.36 108.814 135.556 109.913C136.752 111.011 137.51 112.505 137.691 114.119C137.807 121.831 125.704 121.484 119.891 121.354C109.24 121.004 98.6187 120.038 88.0795 118.46C79.288 117.245 69.1951 117.013 62.399 111.052C60.8518 109.706 59.1455 108.158 59.0732 106.031C59.025 104.9 59.375 103.789 60.062 102.89C60.749 101.991 61.7296 101.361 62.8328 101.112Z" fill="#E8FF2C"/>
<path d="M77.7221 117.847C71.9382 116.936 66.2555 115.416 61.8164 111.582C60.2692 110.236 58.346 108.558 58.2737 106.098C58.2146 104.8 58.6183 103.523 59.4128 102.495C60.2074 101.466 61.341 100.754 62.6116 100.484H62.843H63.0744C64.0576 100.817 65.0554 101.179 66.0531 101.541C68.1931 102.322 70.391 103.132 72.6178 103.711C75.7475 104.457 78.9275 104.975 82.1323 105.259C83.6795 105.433 85.2123 105.606 86.7305 105.838L88.3645 106.069C98.8044 107.618 109.591 109.209 120.176 108.428C121.535 108.327 122.923 108.167 124.311 108.008C126.611 107.762 128.982 107.487 131.238 107.473C134.824 107.473 138.468 110.728 138.468 114.1C138.505 114.99 138.348 115.877 138.005 116.7C137.663 117.522 137.145 118.26 136.487 118.86C132.756 122.318 124.818 122.13 120.075 122.014C109.332 121.681 98.6179 120.714 87.9885 119.121L83.8097 118.585C81.7275 118.397 79.7175 118.151 77.7221 117.847ZM62.8141 101.844C61.8918 102.087 61.0822 102.642 60.5233 103.415C59.9643 104.188 59.6905 105.131 59.7486 106.084C59.7486 107.979 61.4115 109.397 62.843 110.642C68.3956 115.489 76.2906 116.429 83.9109 117.341C85.3568 117.514 86.8028 117.674 88.1331 117.876C98.6717 119.459 109.294 120.425 119.945 120.77C124.283 120.871 132.149 121.059 135.46 118.006C135.982 117.525 136.393 116.935 136.663 116.277C136.933 115.62 137.055 114.911 137.022 114.201C136.841 112.774 136.161 111.458 135.102 110.485C134.043 109.513 132.674 108.948 131.238 108.891C128.979 108.951 126.725 109.13 124.485 109.426C123.039 109.585 121.665 109.745 120.292 109.846C109.591 110.642 98.7177 109.036 88.2054 107.473L86.557 107.241C85.111 107.024 83.5494 106.836 82.0166 106.663C78.7392 106.371 75.487 105.844 72.2852 105.085C70.0295 104.492 67.7738 103.639 65.5904 102.872L62.8141 101.844Z" fill="#5848B5"/>
<path d="M59.3765 72.3311C55.5591 71.2893 55.1253 78.712 55.3856 80.564C55.6573 81.8248 56.229 83.0014 57.0521 83.9939C57.8753 84.9864 58.9256 85.7654 60.114 86.2649C63.5575 87.8624 67.3806 88.4591 71.1468 87.9867C72.5169 87.9082 73.8553 87.5431 75.0756 86.9151C76.296 86.2871 77.3713 85.41 78.2321 84.3405C79.4756 82.7345 80.8637 80.3036 80.2709 78.2635C79.3599 75.1092 73.8797 74.1831 71.0022 73.5899C67.2002 72.6544 63.2905 72.2311 59.3765 72.3311Z" fill="#5848B5"/>
<path d="M111.008 83.8059C111.008 83.6757 110.892 83.5021 111.181 83.2561C108.911 85.6724 107.349 88.5952 108.289 91.7639C108.659 93.0474 109.278 94.245 110.112 95.288C110.946 96.3309 111.977 97.1985 113.148 97.8409C116.719 99.3746 122.373 99.7653 126.263 99.7653C131.107 99.7653 137.093 95.4246 135.025 90.3604C133.753 87.3074 128.388 86.7431 125.511 86.0197C120.884 84.9924 116.213 83.3863 111.008 83.8059Z" fill="#5848B5"/>
<path d="M90.1435 113.31C88.1191 112.992 86.196 112.659 84.3596 112.297C80.8603 111.631 77.3755 110.59 74.2377 109.678C72.6427 109.203 71.0202 108.827 69.3792 108.55L67.9333 108.361C66.584 108.297 65.2547 108.009 64.0002 107.508L64.7377 106.365C65.8232 106.749 66.9574 106.978 68.1068 107.045C68.6563 107.045 69.1623 107.161 69.5528 107.247C71.2578 107.526 72.9434 107.912 74.5992 108.405C77.8598 109.436 81.1705 110.3 84.5186 110.995C89.7241 111.979 95.4068 112.803 102.405 113.57C104.068 113.758 105.731 113.99 107.394 114.221C110.026 114.598 112.759 114.974 115.448 115.133H116.46C118.98 115.446 121.534 115.314 124.008 114.742L125.628 114.308C127.879 113.811 130.063 113.048 132.135 112.037L132.901 113.165C130.712 114.244 128.401 115.055 126.018 115.582L124.428 116.03C121.789 116.642 119.063 116.789 116.373 116.464H115.361C112.614 116.305 109.852 115.914 107.177 115.538C105.529 115.307 103.88 115.075 102.232 114.887C97.7493 114.395 93.8018 113.874 90.1435 113.31Z" fill="#5848B5"/>
<path d="M89.2207 81.8815C86.8397 74.8496 81.799 69.0316 75.1803 65.6761C67.5311 61.6971 57.4237 64.0266 49.8323 67.123C46.2621 68.4781 43.2759 71.0364 41.3878 74.3575C46.7427 71.9147 52.6605 70.9744 58.5082 71.6373C62.8087 72.254 67.075 73.0894 71.2906 74.1405C74.7729 75.0611 78.1287 76.4072 81.2823 78.1484C83.7942 79.6605 86.4542 80.9114 89.2207 81.8815Z" fill="white"/>
<path d="M40.8939 75.572V75.1958H40.2866L40.8071 74.1829C42.7463 70.6857 45.8611 67.9892 49.5987 66.5721C55.5705 64.0835 66.9504 60.5819 75.6262 65.1252C82.3844 68.5647 87.5393 74.5013 89.9992 81.6779L90.4475 82.9657L89.0738 82.5171C86.6097 81.7011 84.2278 80.6546 81.9596 79.3918L81.0631 78.9143C77.9585 77.202 74.6565 75.8754 71.2305 74.9642C67.0434 73.9202 62.8061 73.0896 58.5348 72.4756C52.8455 71.8502 47.0927 72.7647 41.8771 75.1234L40.8939 75.572ZM59.1421 71.2312C63.3079 71.835 67.4394 72.656 71.5197 73.6909C75.0464 74.6289 78.4455 75.9942 81.6415 77.7567L82.538 78.2342C84.2947 79.2126 86.1217 80.059 88.0038 80.7663C85.5413 74.4765 80.8383 69.3221 74.802 66.2972C66.6612 62.0578 55.8163 65.4291 50.0903 67.8165C47.3193 68.9116 44.8925 70.7304 43.0628 73.0832C48.0532 71.2155 53.4145 70.5561 58.7083 71.1588L59.1421 71.2312Z" fill="#5848B5"/>
<path d="M91.4866 85.2528C94.2529 82.3067 97.5057 79.8595 101.102 78.0183C105.561 75.7214 110.558 74.6763 115.562 74.9942C117.63 74.9942 119.9 75.2836 121.852 75.5151C123.996 75.7845 126.114 76.2296 128.185 76.8462C131.453 77.839 134.336 79.8143 136.442 82.5037C138.541 84.6796 139.924 87.4467 140.404 90.4327C134.784 87.5707 128.626 85.9195 122.329 85.5856C116.14 85.1805 109.879 84.7898 103.676 84.92C100.842 84.9779 95.2172 84.6162 91.4866 85.2528Z" fill="white"/>
<path d="M89.7402 86.2204L90.9404 84.7735C93.7642 81.7781 97.0863 79.296 100.759 77.4377C105.344 75.0694 110.49 74.0035 115.638 74.3557C117.836 74.3557 120.192 74.6741 121.985 74.8911C124.181 75.153 126.348 75.6081 128.463 76.2512C131.843 77.2633 134.834 79.2823 137.038 82.0388C139.225 84.3226 140.663 87.2202 141.159 90.3441L141.289 91.6464L140.089 90.9807C134.535 88.1404 128.446 86.4988 122.217 86.1625C115.58 85.7284 109.608 85.3812 103.636 85.497C102.855 85.497 101.858 85.497 100.744 85.497C97.6988 85.35 94.6465 85.4613 91.62 85.8297L89.7402 86.2204ZM122.998 76.4103L121.783 76.2367C120.019 76.0341 117.72 75.7737 115.58 75.7158C110.69 75.3708 105.8 76.3716 101.438 78.6097C98.4824 80.145 95.7405 82.0616 93.2829 84.3105C95.6977 84.0935 98.445 84.1513 100.759 84.1802C101.843 84.1802 102.826 84.1802 103.651 84.1802C109.68 84.0645 115.696 84.4118 122.361 84.8459C128.318 85.1756 134.155 86.6493 139.554 89.1866C138.877 86.8487 137.652 84.706 135.983 82.9359C133.967 80.343 131.199 78.4375 128.059 77.481C126.404 77.0063 124.717 76.6485 123.012 76.4103H122.998Z" fill="#5848B5"/>
<path d="M88.4052 70.6959C88.268 70.6772 88.1382 70.6222 88.0292 70.5368C87.2959 69.8618 86.6054 69.1418 85.9615 68.3809C85.2933 67.5774 84.5632 66.8276 83.7781 66.1382C81.8189 64.7745 79.6834 63.6842 77.4302 62.8971C77.3457 62.8687 77.2681 62.8228 77.2025 62.7624C77.1368 62.7021 77.0846 62.6286 77.0491 62.5468C77.0137 62.4649 76.9958 62.3765 76.9967 62.2873C76.9976 62.1981 77.0172 62.1101 77.0543 62.0289C77.1384 61.8632 77.282 61.7355 77.4562 61.6711C77.6305 61.6067 77.8226 61.6105 77.9941 61.6817C80.3866 62.5126 82.6502 63.6768 84.718 65.1398C85.5682 65.8743 86.3564 66.6776 87.0749 67.5417C87.6723 68.2572 88.3198 68.9293 89.0125 69.5529C89.0799 69.6113 89.1339 69.6835 89.1709 69.7647C89.208 69.8458 89.2271 69.9339 89.2271 70.0231C89.2271 70.1123 89.208 70.2005 89.1709 70.2816C89.1339 70.3628 89.0799 70.435 89.0125 70.4934C88.935 70.5735 88.8393 70.6336 88.7336 70.6689C88.6279 70.7041 88.5152 70.7134 88.4052 70.6959Z" fill="#5848B5"/>
<path d="M111.559 70.5531C111.406 70.5341 111.264 70.4637 111.156 70.3532C111.048 70.2428 110.981 70.099 110.966 69.9454C110.962 69.8561 110.976 69.7669 111.007 69.6829C111.037 69.5989 111.084 69.5218 111.145 69.4559C111.205 69.39 111.278 69.3367 111.359 69.2991C111.44 69.2614 111.528 69.2402 111.617 69.2364C113.502 69.1504 115.39 69.2473 117.256 69.5258C118.182 69.627 119.121 69.7284 120.032 69.7863C123.04 69.9744 126.12 70.4663 129.084 70.9293L130.154 71.1029C130.243 71.1135 130.329 71.142 130.407 71.1866C130.485 71.2313 130.553 71.2913 130.607 71.3629C130.661 71.4346 130.7 71.5164 130.722 71.6035C130.743 71.6906 130.747 71.7812 130.733 71.8698C130.694 72.0511 130.587 72.2101 130.433 72.3128C130.278 72.4156 130.09 72.4538 129.908 72.4196L128.853 72.246C125.961 71.7829 122.881 71.3055 119.946 71.1174C118.991 71.1174 118.037 70.9582 117.054 70.8425C115.283 70.5854 113.492 70.4934 111.704 70.5676L111.559 70.5531Z" fill="#5848B5"/>
<path d="M63.7781 80.5927C65.8145 80.5927 67.4653 79.0509 67.4653 77.149C67.4653 75.2472 65.8145 73.7054 63.7781 73.7054C61.7417 73.7054 60.0909 75.2472 60.0909 77.149C60.0909 79.0509 61.7417 80.5927 63.7781 80.5927Z" fill="#E8FF2C"/>
<path d="M70.0442 83.7319C71.0344 83.7319 71.8372 82.9804 71.8372 82.0534C71.8372 81.1265 71.0344 80.375 70.0442 80.375C69.0539 80.375 68.2512 81.1265 68.2512 82.0534C68.2512 82.9804 69.0539 83.7319 70.0442 83.7319Z" fill="#E8FF2C"/>
<path d="M124.425 96.5345C125.415 96.5345 126.218 95.783 126.218 94.8561C126.218 93.9291 125.415 93.1777 124.425 93.1777C123.435 93.1777 122.632 93.9291 122.632 94.8561C122.632 95.783 123.435 96.5345 124.425 96.5345Z" fill="#E8FF2C"/>
<path d="M116.615 92.8338C118.652 92.8338 120.303 91.2921 120.303 89.3902C120.303 87.4883 118.652 85.9465 116.615 85.9465C114.579 85.9465 112.928 87.4883 112.928 89.3902C112.928 91.2921 114.579 92.8338 116.615 92.8338Z" fill="#E8FF2C"/>
<path d="M142.569 117.766C142.405 117.744 142.253 117.664 142.144 117.538C142.035 117.413 141.975 117.252 141.977 117.086C142.026 116.372 142.118 115.662 142.251 114.959C142.726 113.404 142.649 111.732 142.034 110.227C140.998 108.341 139.289 106.915 137.248 106.234C137.16 106.218 137.076 106.185 137.001 106.136C136.926 106.088 136.862 106.024 136.812 105.95C136.762 105.875 136.727 105.792 136.71 105.704C136.693 105.616 136.694 105.525 136.713 105.438C136.77 105.261 136.89 105.112 137.05 105.019C137.21 104.925 137.399 104.894 137.581 104.932C140.036 105.706 142.105 107.388 143.365 109.634C144.114 111.386 144.236 113.343 143.712 115.176C143.574 115.819 143.487 116.472 143.451 117.129C143.437 117.315 143.35 117.487 143.209 117.609C143.068 117.731 142.885 117.792 142.7 117.78L142.569 117.766Z" fill="#5848B5"/>
<path d="M72.7471 101.298C69.9564 99.2002 68.0187 93.0364 67.8308 89.723C67.653 88.0356 68.0505 86.3376 68.9586 84.9047C70.4046 83.2119 74.9016 82.937 76.9983 83.0238C84.579 83.568 92.0711 84.9906 99.3241 87.2632C101.712 87.8407 104.002 88.767 106.12 90.0124C107.566 90.9384 110.458 92.2695 111.355 93.702C112.598 95.6264 109.692 99.9093 108.289 101.602C105.802 104.496 105.6 105.075 101.681 105.408L72.7471 101.298Z" fill="white"/>
<path d="M72.4564 101.937L72.2973 101.821C69.2752 99.5494 67.3087 93.2409 67.1063 89.7539C67.1063 89.3777 66.9472 86.1221 68.4077 84.4726C70.4899 82.0997 76.7654 82.3312 77.0835 82.3457C84.7231 82.9374 92.2711 84.3936 99.5829 86.6864C102.044 87.3045 104.402 88.2794 106.581 89.5803C106.943 89.8118 107.391 90.0722 107.883 90.3471C109.464 91.0882 110.873 92.1529 112.018 93.4725C113.797 96.2216 109.126 101.879 108.909 102.154L108.505 102.646C106.321 105.25 105.801 105.872 101.81 106.22H101.636L72.4564 101.937ZM84.0242 84.4003C81.6838 84.0183 79.3226 83.7768 76.9534 83.6768C74.7121 83.5756 70.6923 83.9518 69.4922 85.3119C68.7113 86.617 68.3716 88.1391 68.5233 89.6526C68.7113 92.8358 70.5477 98.6089 73.0348 100.635L101.694 104.7C104.991 104.411 105.266 104.078 107.304 101.633L107.709 101.141C109.488 99.0141 111.613 95.3534 110.717 94.0078C109.681 92.8888 108.439 91.9799 107.059 91.331C106.553 91.0271 106.075 90.7667 105.699 90.5207C103.638 89.3169 101.411 88.4201 99.0913 87.8584C94.1483 86.4018 89.1216 85.247 84.0387 84.4003H84.0242Z" fill="#5848B5"/>
<path d="M93.5113 86.4103C92.6582 92.6755 84.6764 95.8297 79.0516 93.0951C76.0584 91.6481 73.4845 89.9407 72.4868 86.8009C71.7638 84.5293 72.2121 82.9378 74.9739 82.7207C80.7434 82.2722 86.7442 84.6162 93.5113 86.4103Z" fill="#5848B5"/>
<path d="M159.764 89.248C158.972 86.4549 157.657 83.8379 155.889 81.536C154.443 79.5827 151.855 77.6438 152.766 75.0249C153.735 72.1311 156.973 69.2372 159.649 67.7903C160.444 67.3707 161.499 66.6038 162.54 66.9221C164.232 67.4575 163.22 70.3948 163.032 71.8417C162.237 77.7017 160.328 83.5616 159.764 89.248Z" fill="#5848B5"/>
<path d="M54.7541 62.0417C55.6789 60.8894 56.7999 59.9098 58.0654 59.1479C59.422 58.2026 60.9205 57.4797 62.5046 57.0065C64.0518 56.5 65.5556 56.1094 67.1751 55.7476C68.1872 55.5306 69.9513 55.8778 70.7466 55.3135C69.5754 51.8554 65.0639 50.2493 62.9528 47.3845C62.6925 48.9471 62.2876 50.4809 62.0129 52.0435C61.9391 53.3835 61.6662 54.7051 61.2032 55.9647" fill="#5848B5"/>
</g>
<defs>
<clipPath id="clip0_1_92">
<rect width="216" height="204" fill="white"/>
</clipPath>
</defs>
</svg>
