<svg width="84" height="88" viewBox="0 0 84 88" fill="none" xmlns="http://www.w3.org/2000/svg">
<g clip-path="url(#clip0_1_595)">
<path d="M7.14509 17.1314C9.38449 17.3793 12.2509 16.7031 14.244 17.5597C15.6324 18.1457 15.498 19.07 15.3861 20.6929C15.1173 24.0966 14.8486 27.5679 14.5351 30.9941C14.3335 33.2482 12.9451 37.8916 15.6324 38.6806C18.0711 39.1135 20.5561 39.2197 23.0224 38.9962H33.2789C36.2573 38.9962 44.4759 40.4613 45.5732 36.7421C46.6705 33.0228 45.6852 27.3876 45.5732 23.2175C45.458 22.327 45.6096 21.4221 46.0085 20.6189C46.4075 19.8157 47.0357 19.1508 47.8126 18.7093C49.6041 18.0331 51.53 19.3629 53.008 17.6047C54.4861 15.8465 53.8814 11.5638 53.8814 9.44491C54.1546 7.55439 53.9545 5.62516 53.2992 3.83222C52.6721 2.81788 51.3509 2.41214 50.4999 1.57812C44.75 2.6343 38.9218 3.19983 33.0774 3.2687C28.9345 3.60681 24.7916 3.40391 20.6487 3.51662C17.7643 3.59081 14.886 3.82407 12.027 4.21538C9.20157 4.25958 6.39671 4.70741 3.69639 5.54536C1.12107 6.71749 1.0539 10.8199 1.99445 13.2769C2.42219 14.331 3.12817 15.2474 4.03601 15.9267C4.94385 16.6061 6.01899 17.0227 7.14509 17.1314ZM58.3154 15.3281C59.9502 16.8835 59.4575 20.4224 59.4575 22.3835C59.4575 25.3814 59.4575 28.3794 59.5919 31.3999C59.7711 35.0064 59.995 38.5228 60.4876 42.0392C60.734 43.6621 62.1896 47.6294 59.3231 47.6519C59.8158 46.9757 60.5101 46.3445 59.9054 45.6457C59.0768 46.3896 57.9123 47.156 57.5092 48.2154C57.0507 50.4079 57.0507 52.6725 57.5092 54.865C57.9123 57.5474 60.4877 56.8937 62.8838 56.8937C66.758 56.8937 70.6546 56.8937 74.5063 56.7359C76.1411 56.7359 79.5674 57.1868 80.9558 56.2626C84.1357 54.1663 79.1867 48.8466 77.955 47.4941C75.1333 44.3158 73.4762 42.1519 73.3418 37.8015C73.1961 31.6262 73.398 25.4476 73.9465 19.2953C74.2824 16.2523 75.2901 16.6355 77.6191 15.7339C78.7271 15.2338 79.6445 14.386 80.2339 13.3173C80.8232 12.2487 81.0529 11.0166 80.8886 9.80557C79.8137 6.13139 73.0283 6.67241 70.0947 6.67241H62.3464L58.9649 6.22156C57.9252 7.86346 57.1257 9.64749 56.5911 11.5187C56.4262 12.3163 56.4883 13.1444 56.7702 13.908C57.2629 14.8548 57.5092 14.5617 58.3154 15.3281ZM83.4863 76.7298C70.2962 76.865 57.1286 77.0228 43.9609 76.7298C44.3412 76.4517 44.7765 76.2595 45.2373 76.1662C43.7817 75.3322 43.6473 73.033 43.8937 71.5002C44.14 69.9674 44.9686 69.3589 46.5586 68.908C51.4629 67.5781 57.6212 68.2769 62.6599 68.3219C65.9742 68.3219 70.8561 67.4429 73.8569 69.3589C75.1333 70.2154 75.6484 72.3343 76.7905 72.74C78.694 73.4163 80.6199 71.3199 80.8662 69.6744C80.9245 68.5992 80.6827 67.5291 80.1682 66.585C79.6538 65.6409 78.8871 64.8606 77.955 64.3322C75.4953 63.1854 72.8044 62.6298 70.0947 62.7093C64.3842 62.5966 58.7185 62.5515 53.008 62.3937C48.544 62.3735 44.0939 61.8901 39.7284 60.9511C38.9773 62.6522 38.0383 64.2627 36.9291 65.7523C36.4051 66.4645 36.0432 67.284 35.8691 68.1527C35.6949 69.0213 35.7128 69.9179 35.9214 70.7789C36.0782 73.4162 36.1006 76.031 36.3469 78.6458C36.3194 80.776 36.4166 82.9061 36.638 85.0248C37.0859 87.0761 38.5639 87.2789 40.5794 87.6846C46.357 88.6314 52.6273 87.6846 58.4946 87.6846C62.4135 87.6846 66.3325 87.6846 70.2514 87.6846C72.769 87.8514 75.2968 87.7684 77.7982 87.4367C82.6129 86.4449 83.6879 80.7872 81.6276 77.0454C82.2384 76.8931 82.8597 76.7875 83.4863 76.7298ZM38.4743 57.2093C42.1917 57.0289 47.6559 57.9306 50.7238 55.5863C51.6422 54.9593 52.2966 54.0115 52.5602 52.9265C52.6131 52.6543 52.6106 52.3741 52.5528 52.1029C52.4951 51.8317 52.3833 51.5751 52.2242 51.3486C51.4129 50.8367 50.5496 50.4135 49.6489 50.0863C47.9454 49.3085 46.1952 48.6385 44.4087 48.0802C32.1816 44.5413 18.9019 44.0453 6.2941 44.0453L3.36049 42.2646C2.15176 43.4004 1.16441 44.7536 0.449258 46.2544C0.0191919 48.1481 -0.0416545 50.1078 0.270102 52.0249C0.270102 53.7605 -0.155396 56.2174 1.65852 57.1867C3.47244 58.156 6.96592 57.5925 9.09335 57.4572C12.7212 57.2769 17.2448 56.3752 18.3645 60.7933C19.7305 66.158 18.902 72.492 18.902 77.992C18.5658 80.1957 18.5658 82.438 18.902 84.6417C19.5514 86.2421 21.6116 85.9941 23.0896 85.8138C25.329 85.5207 30.1214 85.8137 31.5322 83.74C32.0196 82.5803 32.1445 81.2988 31.8905 80.0658C31.6665 76.9327 31.0171 73.9121 30.9052 70.7564C30.5983 67.274 30.6508 63.7689 31.0619 60.2974C31.6665 56.8937 35.7198 57.322 38.4743 57.2093ZM8.44394 36.9224C8.96125 36.9265 9.4733 36.8178 9.94492 36.6038C10.4165 36.3898 10.8365 36.0756 11.176 35.6826C11.6999 34.6336 11.9727 33.4757 11.9727 32.3015C11.9727 31.1273 11.6999 29.9694 11.176 28.9203C10.4524 28.0755 9.54928 27.4053 8.5335 26.9593C7.69008 26.5787 6.92919 26.0348 6.2941 25.3588C5.90651 24.501 5.8506 23.5285 6.13733 22.6314C6.18982 22.4068 6.29425 22.1979 6.44213 22.0216C6.59 21.8454 6.77715 21.7067 6.98831 21.617C7.48689 21.4209 8.03117 21.374 8.55561 21.482C9.08006 21.59 9.56232 21.8482 9.94434 22.2257C10.2656 22.5073 10.5252 22.8531 10.7064 23.2411C10.8876 23.6292 10.9865 24.0511 10.9969 24.4798L11.915 24.7503C11.9701 24.1343 11.8813 23.5138 11.6558 22.9385C11.4303 22.3631 11.0743 21.8489 10.6161 21.4367C10.1541 21.0112 9.60314 20.6954 9.00379 20.5125C9.01456 20.3023 9.01456 20.0916 9.00379 19.8814C9.00379 19.656 9.00379 19.4306 9.00379 19.1826L8.06321 19.0474C8.04153 19.325 8.04153 19.6038 8.06321 19.8814C8.07445 20.0465 8.07445 20.2122 8.06321 20.3773C7.5987 20.3769 7.13725 20.453 6.69718 20.6027C6.34214 20.7409 6.02494 20.9622 5.7718 21.2484C5.51867 21.5345 5.33692 21.8772 5.24158 22.2482C4.85709 23.4316 4.9537 24.7203 5.5103 25.8322C6.23771 26.6364 7.12203 27.2809 8.10801 27.7257C8.97062 28.0929 9.73709 28.656 10.3474 29.3711C10.7815 30.2423 11.0186 31.1993 11.0419 32.1736C11.0651 33.1479 10.8738 34.1153 10.4818 35.0064C10.0328 35.5053 9.42568 35.832 8.76409 35.9306C8.10249 36.0293 7.42739 35.8939 6.85395 35.5474C5.46552 34.8937 4.61455 33.6314 4.61455 32.9777L3.674 32.8199C3.47246 34.1498 4.90567 35.7052 6.42846 36.4265C6.76078 36.5766 7.10547 36.6973 7.4586 36.7871C7.30314 37.4009 7.30314 38.0442 7.4586 38.658L8.35435 38.3199C8.24136 37.8534 8.24136 37.3663 8.35435 36.8998L8.44394 36.9224Z" fill="#3C2868"/>
<path d="M7.2112 11.5862H16.4823C16.8048 11.583 17.1241 11.65 17.4184 11.7824C17.7128 11.9149 17.9753 12.1098 18.1879 12.3538C18.4005 12.5978 18.5583 12.8851 18.6504 13.1961C18.7426 13.5072 18.7669 13.8345 18.7217 14.1559L16.6167 33.8342C16.5715 34.1555 16.5958 34.4829 16.688 34.7939C16.7801 35.105 16.9379 35.3923 17.1505 35.6363C17.3632 35.8803 17.6256 36.0752 17.92 36.2076C18.2143 36.3401 18.5337 36.407 18.8561 36.4038H42.3698C42.6817 36.4051 42.9903 36.3408 43.2761 36.2151C43.5618 36.0893 43.8183 35.9049 44.0291 35.6736C44.2399 35.4423 44.4004 35.1693 44.5003 34.8719C44.6002 34.5746 44.6373 34.2595 44.6092 33.9469L43.6015 17.2891C43.5734 16.9765 43.6105 16.6614 43.7104 16.3641C43.8103 16.0668 43.9708 15.7936 44.1816 15.5624C44.3925 15.3311 44.6489 15.1467 44.9347 15.0209C45.2204 14.8952 45.5291 14.8309 45.8409 14.8321H51.8873C52.4479 14.8344 52.9889 14.625 53.4036 14.2452C53.8182 13.8654 54.0762 13.3429 54.1267 12.7809L55.2688 2.54728C55.3139 2.22592 55.2896 1.89856 55.1975 1.58753C55.1053 1.27651 54.9475 0.989193 54.7349 0.745203C54.5223 0.501213 54.2598 0.306308 53.9655 0.173837C53.6711 0.0413655 53.3518 -0.0255501 53.0294 -0.0223514L6.40501 1.33005C6.08475 1.32732 5.76761 1.39379 5.47503 1.52493C5.18245 1.65607 4.92121 1.84883 4.70896 2.09025C4.4967 2.33167 4.33838 2.61613 4.24465 2.92439C4.15091 3.23265 4.12396 3.55755 4.16561 3.87719L4.72546 9.46738C4.74186 9.77393 4.82028 10.0739 4.95594 10.3489C5.09161 10.6238 5.28164 10.8679 5.51439 11.0663C5.74714 11.2647 6.0177 11.4132 6.30947 11.5026C6.60125 11.592 6.90811 11.6205 7.2112 11.5862ZM60.9569 11.1354H63.0171C62.8585 11.4962 62.7967 11.8926 62.838 12.285L66.0627 43.8424L61.136 44.744C60.5863 44.8326 60.089 45.1241 59.7412 45.5616C59.3935 45.9992 59.2201 46.5515 59.2549 47.1108L59.4565 52.4305C59.4565 53.0283 59.6924 53.6016 60.1124 54.0243C60.5323 54.4471 61.1019 54.6846 61.6959 54.6846H80.4173C80.7271 54.6856 81.0337 54.6219 81.3177 54.4975C81.6018 54.3731 81.8572 54.1908 82.0676 53.962C82.2781 53.7332 82.4391 53.4629 82.5405 53.1683C82.6419 52.8736 82.6815 52.561 82.6567 52.2502L82.1864 43.5043C82.194 43.1639 82.1248 42.8261 81.9841 42.5165C81.8435 42.2068 81.6349 41.9333 81.3742 41.7164C81.1134 41.4995 80.8072 41.3448 80.4786 41.2641C80.15 41.1833 79.8074 41.1786 79.4767 41.2502L74.9979 42.0842L76.7894 11.8342V11.5862H79.32C79.6468 11.6111 79.975 11.5634 80.2815 11.4466C80.588 11.3298 80.8653 11.1467 81.0938 10.9102C81.3223 10.6738 81.4965 10.3897 81.604 10.0781C81.7116 9.76647 81.7498 9.43486 81.7161 9.10672L81.537 6.46939C81.5374 6.16365 81.4759 5.86104 81.3565 5.57994C81.237 5.29885 81.0619 5.04519 80.842 4.83433C80.622 4.62348 80.3618 4.45984 80.077 4.35343C79.7923 4.24701 79.489 4.20001 79.1856 4.2153L60.8897 4.48585C60.5839 4.48529 60.2813 4.54773 60.0005 4.66938C59.7196 4.79102 59.4665 4.96922 59.2567 5.19307C59.0469 5.41692 58.8849 5.68166 58.7806 5.97094C58.6763 6.26023 58.6319 6.56799 58.6503 6.87518V8.45301C58.5876 8.77894 58.5972 9.11482 58.6785 9.43657C58.7597 9.75831 58.9106 10.058 59.1202 10.3143C59.3299 10.5705 59.5932 10.777 59.8913 10.919C60.1895 11.0609 60.5151 11.1348 60.8449 11.1354H60.9569ZM50.79 52.8362C51.1124 52.8394 51.4317 52.7725 51.7261 52.64C52.0204 52.5076 52.2829 52.3126 52.4955 52.0687C52.7081 51.8247 52.8659 51.5374 52.9581 51.2263C53.0502 50.9153 53.0745 50.5879 53.0294 50.2666L52.2232 43.3239C52.1727 42.7619 51.9147 42.2394 51.5001 41.8597C51.0855 41.4799 50.5444 41.2704 49.9838 41.2727L5.55403 41.1374C4.9601 41.1374 4.3905 41.375 3.97053 41.7977C3.55056 42.2204 3.31463 42.7937 3.31463 43.3915L3.02349 51.9796C3.00014 52.3024 3.0461 52.6265 3.15826 52.9298C3.27042 53.2331 3.44615 53.5085 3.67349 53.7373C3.90083 53.9661 4.17447 54.143 4.47578 54.2559C4.77709 54.3688 5.09901 54.4151 5.41967 54.3915L22.9766 53.8055V79.7051C22.976 80.0128 23.0381 80.3174 23.1589 80.6001C23.2798 80.8828 23.4569 81.1376 23.6793 81.3488C23.9017 81.5599 24.1647 81.723 24.4521 81.828C24.7395 81.933 25.0452 81.9777 25.3503 81.9592L31.3295 81.7338C31.6373 81.7345 31.9419 81.6714 32.2244 81.5484C32.5068 81.4254 32.761 81.2451 32.9712 81.0188C33.1813 80.7925 33.3428 80.525 33.4457 80.233C33.5485 79.941 33.5905 79.6309 33.5689 79.3219L32.5165 53.4449L50.79 52.8362ZM82.9702 59.5985C81.9401 58.6969 80.3725 59.035 78.8721 59.035C71.1909 59.035 63.9577 59.3956 56.2765 59.3956C52.8502 59.3956 49.4463 59.5534 46.0201 59.5985C44.2285 59.5985 41.3173 59.4182 39.8841 60.6805C38.0254 62.326 39.369 66.203 39.2794 68.412C39.2794 72.6948 37.264 77.0903 38.8764 81.3957C40.4887 85.701 46.6919 84.1907 50.7452 84.1907C60.3522 84.1907 70.116 84.7317 79.6783 84.1907C84.1571 83.9428 83.3061 81.5084 83.642 78.3752C84.0194 74.1413 84.1614 69.8894 84.0675 65.6395C83.9555 63.9714 84.3362 60.8608 82.8582 59.5985H82.9702ZM75.7145 72.2665C72.0419 73.2809 66.6225 72.4694 62.838 72.4694C58.6279 72.4694 54.373 72.6723 50.2077 72.6047C47.9683 72.6047 45.7289 72.4919 45.7289 70.576C45.7289 69.4038 45.3258 67.0822 46.5799 65.91C48.2595 64.3322 51.4618 64.58 53.7012 64.58H68.6604C72.1987 64.58 77.2149 63.5883 77.7972 67.6231C78.1107 69.6518 78.2898 71.5678 75.7145 72.2665Z" fill="#807ACC"/>
</g>
<defs>
<clipPath id="clip0_1_595">
<rect width="84" height="88" fill="white"/>
</clipPath>
</defs>
</svg>
